<svg width="35" height="40" viewBox="0 0 35 40" fill="none" xmlns="http://www.w3.org/2000/svg">
<path d="M34.0302 10.853L34.029 10.8219C34.0116 10.4377 34 10.0312 33.993 9.57891C33.9603 7.37341 32.2071 5.54907 30.0013 5.42578C25.4023 5.16913 21.8446 3.6695 18.8047 0.706556L18.7788 0.681837C17.7873 -0.227279 16.2916 -0.227279 15.2998 0.681837L15.2739 0.706556C12.234 3.6695 8.67629 5.16913 4.07731 5.42609C1.87181 5.54907 0.118272 7.37341 0.0856179 9.57921C0.078904 10.0284 0.0670022 10.4349 0.0496072 10.8219L0.0477762 10.8942C-0.04164 15.5838 -0.152724 21.4203 1.79979 26.7178C2.87339 29.631 4.49936 32.1634 6.63223 34.245C9.06142 36.6156 12.2432 38.4976 16.089 39.8385C16.2141 39.8822 16.3441 39.9176 16.4766 39.9441C16.6633 39.9814 16.8513 40 17.0393 40C17.2273 40 17.4156 39.9814 17.602 39.9441C17.7345 39.9176 17.8654 39.8819 17.9911 39.8379C21.8324 38.4945 25.0108 36.6116 27.4378 34.2413C29.5698 32.1591 31.1958 29.6262 32.2703 26.7123C34.2301 21.3989 34.1193 15.5515 34.0302 10.853ZM30.9015 25.9003C28.8422 31.4838 23.805 36.1516 17.2166 38.4557C17.1931 38.4636 17.1681 38.4706 17.1422 38.4758C17.0741 38.4893 17.0048 38.4893 16.9359 38.4755C16.9102 38.4703 16.8852 38.4636 16.862 38.4557C10.2666 36.1559 5.22669 31.4902 3.1689 25.9064C1.36928 21.0233 1.47121 15.6656 1.56124 10.9391L1.56185 10.9128C1.58016 10.5066 1.59237 10.0812 1.59908 9.6137C1.61373 8.63439 3.22709 6.99082 4.20823 6.93619C6.81076 6.79093 9.09713 6.288 11.198 5.39872C13.296 4.51066 15.1594 3.25883 16.894 1.57183C16.9822 1.49736 17.0967 1.49706 17.1846 1.57183C18.9195 3.25883 20.7829 4.51066 22.8807 5.39872C24.9815 6.288 27.2679 6.79093 29.8707 6.93619C30.8518 6.99082 32.4652 8.63439 32.4795 9.614C32.4866 10.084 32.4988 10.5094 32.5171 10.9128C32.6068 15.6449 32.7063 21.0068 30.9015 25.9003Z" fill="white"/>
<path d="M17.0311 10.0312C11.5342 10.0312 7.0625 14.5033 7.0625 19.9998C7.0625 25.4966 11.5342 29.9687 17.0311 29.9687C22.5276 29.9687 26.9996 25.4966 26.9996 19.9998C26.9996 14.5033 22.5276 10.0312 17.0311 10.0312ZM17.0311 28.4546C12.8285 28.4546 8.57627 24.2024 8.57627 19.9998C8.57627 15.7972 12.8285 11.545 17.0311 11.545C21.2333 11.545 25.4856 15.7972 25.4856 19.9998C25.4856 24.2024 21.2333 28.4546 17.0311 28.4546Z" fill="white"/>
<path d="M16.1171 21.5422L20.6425 17.1904C20.9477 16.8969 21.4266 16.885 21.746 17.163C22.1035 17.4741 22.1225 18.0229 21.7874 18.3579L16.9469 23.1985C16.7177 23.4277 16.4174 23.5421 16.1171 23.5421C15.8168 23.5421 15.5165 23.4277 15.2873 23.1985L13.0303 20.9415C12.6736 20.5848 12.6986 19.9992 13.0844 19.6743C13.4228 19.3893 13.9221 19.4072 14.2392 19.7156L16.1171 21.5422Z" fill="white"/>
</svg>
