<svg width="160" height="56" viewBox="0 0 160 56" fill="none" xmlns="http://www.w3.org/2000/svg">
<path d="M147.259 0.000182H12.7486C12.2583 0.000182 11.7739 0.000182 11.2849 0.002982C10.8755 0.005782 10.4694 0.013916 10.0561 0.020762C9.15832 0.0318245 8.2626 0.114529 7.37678 0.268156C6.4922 0.425128 5.63534 0.721064 4.83516 1.14596C4.03596 1.57444 3.30571 2.13122 2.6709 2.79608C2.03276 3.45907 1.50082 4.22541 1.09553 5.06561C0.689129 5.90414 0.407327 6.8027 0.259861 7.73025C0.110992 8.65664 0.0308843 9.59371 0.0202567 10.5331C0.00784864 10.9623 0.0065383 11.393 0 11.8223V44.1822C0.0065383 44.6169 0.00784864 45.038 0.0202567 45.4729C0.0308875 46.4122 0.110995 47.3492 0.259861 48.2755C0.40692 49.2036 0.688739 50.1027 1.09553 50.9416C1.50063 51.779 2.03265 52.5423 2.6709 53.2016C3.30331 53.8694 4.03403 54.4266 4.83516 54.8518C5.63533 55.2778 6.49211 55.5755 7.37678 55.7349C8.26275 55.8873 9.15838 55.97 10.0561 55.9824C10.4694 55.9919 10.8755 55.9974 11.2849 55.9974C11.7738 56.0002 12.2583 56.0002 12.7486 56.0002H147.259C147.739 56.0002 148.227 56.0002 148.708 55.9974C149.115 55.9974 149.533 55.9919 149.941 55.9824C150.837 55.9707 151.731 55.8879 152.615 55.7349C153.502 55.5744 154.362 55.2767 155.166 54.8518C155.967 54.4263 156.697 53.8692 157.328 53.2016C157.965 52.5397 158.498 51.777 158.908 50.9416C159.312 50.1021 159.591 49.2031 159.736 48.2755C159.885 47.3491 159.968 46.4123 159.984 45.4729C159.99 45.038 159.99 44.6169 159.99 44.1822C160 43.6736 160 43.1678 160 42.6509V13.3508C160 12.8381 160 12.3295 159.99 11.8223C159.99 11.393 159.99 10.9623 159.984 10.533C159.968 9.59357 159.885 8.65671 159.736 7.7302C159.591 6.80318 159.312 5.90469 158.908 5.06555C158.083 3.38146 156.774 2.01062 155.166 1.14583C154.362 0.721976 153.502 0.426119 152.615 0.26803C151.731 0.113726 150.837 0.0309929 149.941 0.020566C149.533 0.013734 149.115 0.00553 148.708 0.0028C148.227 0 147.739 0 147.259 0V0.000182Z" fill="#A6A6A6"/>
<path d="M11.2921 54.7766C10.8847 54.7766 10.4871 54.7711 10.083 54.7616C9.24566 54.7502 8.41032 54.6738 7.58378 54.5332C6.81308 54.3943 6.06647 54.1357 5.36859 53.7662C4.67711 53.3997 4.04643 52.9191 3.5007 52.3429C2.94707 51.7735 2.48615 51.1131 2.1362 50.3878C1.78239 49.6579 1.53754 48.8754 1.41017 48.0678C1.27261 47.1999 1.19819 46.3224 1.18754 45.4428C1.17907 45.1475 1.16797 44.1644 1.16797 44.1644V11.8236C1.16797 11.8236 1.17979 10.8557 1.18761 10.5713C1.19781 9.69304 1.2718 8.81688 1.40894 7.95039C1.53655 7.14051 1.78159 6.35581 2.13558 5.62344C2.48425 4.89868 2.94261 4.23777 3.4929 3.66631C4.04258 3.08943 4.67528 2.60641 5.36794 2.23486C6.06421 1.86649 6.80941 1.60979 7.57855 1.47334C8.4078 1.33133 9.24605 1.25456 10.0863 1.24366L11.2927 1.22656H148.702L149.923 1.24434C150.756 1.2547 151.586 1.33079 152.408 1.47197C153.185 1.61013 153.938 1.86862 154.642 2.23896C156.03 2.98774 157.159 4.17239 157.871 5.62686C158.219 6.35417 158.461 7.13247 158.587 7.93535C158.725 8.80895 158.803 9.692 158.819 10.5774C158.823 10.9739 158.823 11.3998 158.823 11.8236C158.833 12.3486 158.833 12.8483 158.833 13.3521V42.6523C158.833 43.1609 158.833 43.6572 158.823 44.1576C158.823 44.6128 158.823 45.0299 158.818 45.4591C158.802 46.3288 158.726 47.1961 158.589 48.054C158.464 48.8675 158.221 49.6561 157.867 50.392C157.515 51.1094 157.056 51.7641 156.509 52.332C155.963 52.9113 155.331 53.3947 154.638 53.7635C153.936 54.1359 153.184 54.3954 152.408 54.5332C151.581 54.6746 150.746 54.7509 149.909 54.7616C149.517 54.7711 149.107 54.7766 148.709 54.7766L147.259 54.7794L11.2921 54.7766Z" fill="black"/>
<path d="M33.1172 28.4212C33.1315 27.2527 33.428 26.107 33.9789 25.0906C34.5298 24.0743 35.3173 23.2204 36.2681 22.6084C35.6641 21.7051 34.8672 20.9618 33.9409 20.4374C33.0145 19.9131 31.9841 19.6221 30.9316 19.5876C28.6863 19.3408 26.5096 20.9944 25.3655 20.9944C24.1992 20.9944 22.4376 19.6121 20.5406 19.653C19.3136 19.6945 18.1178 20.0681 17.0697 20.7374C16.0216 21.4066 15.157 22.3488 14.56 23.472C11.9741 28.1598 13.9029 35.0492 16.38 38.8385C17.6194 40.694 19.0678 42.7666 20.963 42.6931C22.8176 42.6126 23.5103 41.4548 25.749 41.4548C27.9668 41.4548 28.6167 42.6931 30.5504 42.6464C32.5405 42.6126 33.7943 40.7826 34.9902 38.9096C35.8806 37.5875 36.5658 36.1263 37.0204 34.5801C35.8642 34.0681 34.8776 33.211 34.1835 32.1158C33.4894 31.0206 33.1185 29.7357 33.1172 28.4212V28.4212Z" fill="white"/>
<path d="M29.4639 17.0978C30.549 15.7339 31.0836 13.9809 30.9541 12.2109C29.2964 12.3932 27.7651 13.2228 26.6654 14.5344C26.1277 15.1751 25.7159 15.9205 25.4535 16.728C25.1911 17.5355 25.0832 18.3892 25.1361 19.2403C25.9653 19.2493 26.7856 19.0611 27.5353 18.69C28.2849 18.3189 28.9444 17.7745 29.4639 17.0978Z" fill="white"/>
<path d="M56.5607 37.9987H50.2318L48.7119 42.6977H46.0312L52.0259 25.3125H54.811L60.8057 42.6977H58.0793L56.5607 37.9987ZM50.8873 35.8303H55.904L53.4309 28.2041H53.3617L50.8873 35.8303Z" fill="white"/>
<path d="M73.7527 36.3639C73.7527 40.3027 71.7392 42.8334 68.7008 42.8334C67.9311 42.8756 67.1656 42.6899 66.492 42.2977C65.8184 41.9055 65.2639 41.3226 64.8919 40.6158H64.8344V46.8939H62.3496V30.0256H64.7548V32.1338H64.8005C65.1895 31.4303 65.7534 30.8505 66.4322 30.4559C67.1109 30.0613 67.8791 29.8668 68.6551 29.893C71.7274 29.893 73.7527 32.4359 73.7527 36.3639ZM71.1986 36.3639C71.1986 33.7977 69.9321 32.1105 67.9996 32.1105C66.101 32.1105 64.824 33.8332 64.824 36.3639C64.824 38.9178 66.101 40.6281 67.9996 40.6281C69.9321 40.6281 71.1986 38.9533 71.1986 36.3639Z" fill="white"/>
<path d="M87.0749 36.3639C87.0749 40.3027 85.0615 42.8334 82.023 42.8334C81.2533 42.8755 80.4879 42.6899 79.8143 42.2977C79.1406 41.9055 78.5861 41.3226 78.2142 40.6158H78.1567V46.8939H75.6719V30.0256H78.077V32.1338H78.1227C78.5118 31.4303 79.0757 30.8505 79.7544 30.4559C80.4331 30.0613 81.2014 29.8668 81.9773 29.893C85.0497 29.893 87.0749 32.4359 87.0749 36.3639ZM84.5209 36.3639C84.5209 33.7977 83.2543 32.1105 81.3218 32.1105C79.4233 32.1105 78.1463 33.8332 78.1463 36.3639C78.1463 38.9178 79.4233 40.6281 81.3218 40.6281C83.2543 40.6281 84.5209 38.9533 84.5209 36.3639H84.5209Z" fill="white"/>
<path d="M95.8815 37.8546C96.0656 39.5786 97.6652 40.7106 99.851 40.7106C101.945 40.7106 103.452 39.5785 103.452 38.024C103.452 36.6746 102.543 35.8666 100.392 35.3129L98.2397 34.7701C95.1908 33.999 93.7754 32.5061 93.7754 30.0834C93.7754 27.0838 96.2719 25.0234 99.817 25.0234C103.325 25.0234 105.731 27.0838 105.812 30.0834H103.303C103.153 28.3484 101.783 27.3012 99.7817 27.3012C97.78 27.3012 96.4103 28.3608 96.4103 29.9029C96.4103 31.132 97.2852 31.8553 99.4253 32.4089L101.255 32.8793C104.661 33.7228 106.077 35.1557 106.077 37.6986C106.077 40.9511 103.602 42.9882 99.6668 42.9882C95.9846 42.9882 93.4985 40.999 93.3379 37.8544L95.8815 37.8546Z" fill="white"/>
<path d="M111.44 27.0234V30.023H113.742V32.0834H111.44V39.0711C111.44 40.1566 111.901 40.6625 112.913 40.6625C113.186 40.6575 113.459 40.6374 113.731 40.6023V42.6503C113.276 42.7394 112.813 42.7797 112.35 42.7707C109.9 42.7707 108.944 41.8068 108.944 39.3486V32.0834H107.184V30.023H108.944V27.0234H111.44Z" fill="white"/>
<path d="M115.074 36.3613C115.074 32.3732 117.317 29.8672 120.816 29.8672C124.325 29.8672 126.558 32.3732 126.558 36.3613C126.558 40.3604 124.337 42.8555 120.816 42.8555C117.295 42.8555 115.074 40.3603 115.074 36.3613ZM124.026 36.3613C124.026 33.6256 122.829 32.0109 120.816 32.0109C118.802 32.0109 117.606 33.6379 117.606 36.3613C117.606 39.108 118.802 40.7104 120.816 40.7104C122.829 40.7104 124.026 39.108 124.026 36.3613H124.026Z" fill="white"/>
<path d="M128.607 30.0255H130.977V32.1829H131.035C131.195 31.5091 131.572 30.9136 132.102 30.4966C132.633 30.0795 133.284 29.8663 133.947 29.8928C134.233 29.8918 134.519 29.9243 134.798 29.9899V32.4235C134.436 32.3078 134.059 32.2547 133.682 32.2663C133.321 32.2509 132.961 32.3176 132.627 32.4616C132.293 32.6057 131.992 32.8237 131.746 33.1007C131.5 33.3778 131.314 33.7073 131.202 34.0666C131.089 34.426 131.051 34.8066 131.092 35.1825V42.7006H128.607L128.607 30.0255Z" fill="white"/>
<path d="M146.254 38.9754C145.92 41.2764 143.779 42.8555 141.041 42.8555C137.52 42.8555 135.334 40.3849 135.334 36.4215C135.334 32.4457 137.532 29.8672 140.937 29.8672C144.286 29.8672 146.392 32.2762 146.392 36.1193V37.0107H137.842V37.168C137.803 37.6344 137.859 38.1044 138.006 38.5466C138.153 38.9887 138.389 39.393 138.697 39.7326C139.005 40.0722 139.378 40.3392 139.792 40.5161C140.207 40.6929 140.652 40.7754 141.099 40.7582C141.686 40.8158 142.275 40.6734 142.779 40.3522C143.283 40.031 143.674 39.5481 143.894 38.9754L146.254 38.9754ZM137.854 35.1924H143.906C143.928 34.7729 143.868 34.3532 143.728 33.9595C143.588 33.5658 143.372 33.2067 143.093 32.9046C142.814 32.6025 142.479 32.3641 142.108 32.2042C141.737 32.0443 141.338 31.9664 140.937 31.9754C140.532 31.9729 140.131 32.0543 139.757 32.2149C139.382 32.3755 139.042 32.6122 138.755 32.9113C138.469 33.2104 138.241 33.566 138.087 33.9575C137.932 34.349 137.853 34.7687 137.854 35.1924V35.1924Z" fill="white"/>
<path d="M50.5771 12.2204C51.098 12.1813 51.6208 12.2637 52.1076 12.4617C52.5944 12.6597 53.0333 12.9684 53.3924 13.3654C53.7515 13.7625 54.022 14.2381 54.1843 14.7579C54.3466 15.2776 54.3967 15.8287 54.3311 16.3712C54.3311 19.0399 52.9535 20.574 50.5771 20.574H47.6953V12.2204H50.5771ZM48.9344 19.3926H50.4387C50.8109 19.4159 51.1834 19.352 51.5291 19.2055C51.8748 19.0591 52.185 18.8338 52.437 18.546C52.689 18.2582 52.8766 17.9152 52.986 17.5419C53.0955 17.1686 53.1241 16.7745 53.0697 16.3882C53.1201 16.0034 53.0886 15.6118 52.9775 15.2412C52.8664 14.8707 52.6783 14.5305 52.4269 14.245C52.1754 13.9595 51.8668 13.7358 51.523 13.5898C51.1793 13.4439 50.809 13.3794 50.4387 13.4009H48.9344V19.3926Z" fill="white"/>
<path d="M55.7302 17.4194C55.6924 17.0051 55.7376 16.5871 55.8631 16.1922C55.9886 15.7973 56.1915 15.4342 56.4588 15.1262C56.7262 14.8183 57.052 14.5722 57.4155 14.4038C57.779 14.2354 58.1721 14.1484 58.5696 14.1484C58.967 14.1484 59.3601 14.2354 59.7236 14.4038C60.0871 14.5722 60.4129 14.8183 60.6803 15.1262C60.9476 15.4342 61.1505 15.7973 61.276 16.1922C61.4015 16.5871 61.4467 17.0051 61.4089 17.4194C61.4474 17.8341 61.4027 18.2527 61.2776 18.6482C61.1524 19.0437 60.9497 19.4075 60.6823 19.716C60.4148 20.0246 60.0887 20.2712 59.7249 20.44C59.361 20.6087 58.9675 20.6959 58.5696 20.6959C58.1716 20.6959 57.7781 20.6087 57.4142 20.44C57.0504 20.2712 56.7243 20.0246 56.4569 19.716C56.1894 19.4075 55.9867 19.0437 55.8615 18.6482C55.7364 18.2527 55.6917 17.8341 55.7302 17.4194V17.4194ZM60.1867 17.4194C60.1867 16.0529 59.6004 15.2538 58.5715 15.2538C57.5387 15.2538 56.9577 16.0529 56.9577 17.4194C56.9577 18.7968 57.5387 19.5898 58.5715 19.5898C59.6004 19.5898 60.1867 18.7913 60.1867 17.4194H60.1867Z" fill="white"/>
<path d="M68.9582 20.5775H67.7256L66.4812 15.9346H66.3872L65.148 20.5775H63.9272L62.2676 14.2734H63.4728L64.5513 19.0838H64.6401L65.878 14.2734H67.0179L68.2557 19.0838H68.3497L69.423 14.2734H70.6112L68.9582 20.5775Z" fill="white"/>
<path d="M72.0078 14.2763H73.1516V15.2778H73.2404C73.3911 14.9181 73.6451 14.6166 73.9672 14.4153C74.2892 14.2139 74.6633 14.1228 75.0371 14.1546C75.3301 14.1316 75.6242 14.1778 75.8978 14.29C76.1714 14.4021 76.4173 14.5772 76.6175 14.8024C76.8176 15.0276 76.9668 15.2971 77.054 15.5908C77.1411 15.8846 77.1641 16.1951 77.1211 16.4994V20.5804H75.9329V16.8118C75.9329 15.7987 75.5124 15.2949 74.6337 15.2949C74.4348 15.2852 74.2362 15.3206 74.0516 15.3988C73.867 15.477 73.7008 15.596 73.5642 15.7477C73.4277 15.8995 73.3241 16.0803 73.2605 16.2779C73.197 16.4755 73.175 16.6851 73.196 16.8924V20.5804H72.0078L72.0078 14.2763Z" fill="white"/>
<path d="M79.0137 11.8125H80.2019V20.5775H79.0137V11.8125Z" fill="white"/>
<path d="M81.8532 17.4195C81.8154 17.0052 81.8607 16.5872 81.9862 16.1922C82.1117 15.7973 82.3147 15.4342 82.582 15.1263C82.8494 14.8183 83.1753 14.5722 83.5388 14.4038C83.9023 14.2354 84.2954 14.1484 84.6929 14.1484C85.0904 14.1484 85.4835 14.2354 85.847 14.4038C86.2105 14.5722 86.5364 14.8183 86.8038 15.1263C87.0711 15.4342 87.2741 15.7973 87.3996 16.1922C87.5251 16.5872 87.5704 17.0052 87.5325 17.4195C87.5711 17.8342 87.5263 18.2528 87.4011 18.6483C87.2759 19.0439 87.0731 19.4076 86.8057 19.7162C86.5383 20.0247 86.2121 20.2713 85.8483 20.4401C85.4844 20.6088 85.0909 20.696 84.6929 20.696C84.2949 20.696 83.9014 20.6088 83.5375 20.4401C83.1737 20.2713 82.8475 20.0247 82.5801 19.7162C82.3127 19.4076 82.1098 19.0439 81.9847 18.6483C81.8595 18.2528 81.8147 17.8342 81.8532 17.4195V17.4195ZM86.3097 17.4195C86.3097 16.053 85.7234 15.2539 84.6945 15.2539C83.6617 15.2539 83.0807 16.053 83.0807 17.4195C83.0807 18.7969 83.6617 19.5899 84.6945 19.5899C85.7234 19.5899 86.3097 18.7915 86.3097 17.4195H86.3097Z" fill="white"/>
<path d="M88.7832 18.7914C88.7832 17.6566 89.5902 17.0024 91.0225 16.9095L92.6534 16.811V16.2669C92.6534 15.6011 92.233 15.2251 91.4208 15.2251C90.7575 15.2251 90.2979 15.4801 90.166 15.9258H89.0156C89.1371 14.843 90.1098 14.1484 91.4756 14.1484C92.9851 14.1484 93.8364 14.9352 93.8364 16.2669V20.5742H92.6926V19.6883H92.5986C92.4077 20.0061 92.1398 20.2651 91.8221 20.439C91.5043 20.6129 91.1482 20.6954 90.7901 20.6781C90.5374 20.7056 90.2819 20.6774 90.0402 20.5952C89.7985 20.513 89.576 20.3787 89.3869 20.201C89.1978 20.0232 89.0464 19.8059 88.9424 19.5632C88.8384 19.3204 88.7842 19.0575 88.7832 18.7914V18.7914ZM92.6534 18.2527V17.7257L91.1831 17.8241C90.354 17.8822 89.9779 18.1775 89.9779 18.7333C89.9779 19.3007 90.448 19.6308 91.0944 19.6308C91.2838 19.6509 91.4751 19.6309 91.6569 19.572C91.8388 19.513 92.0075 19.4164 92.1529 19.2878C92.2984 19.1593 92.4176 19.0014 92.5036 18.8235C92.5896 18.6457 92.6405 18.4516 92.6534 18.2527V18.2527Z" fill="white"/>
<path d="M95.3984 17.4228C95.3984 15.4308 96.3764 14.1689 97.8976 14.1689C98.2739 14.1507 98.6473 14.2451 98.9743 14.4409C99.3012 14.6368 99.5682 14.926 99.7439 15.2749H99.8327V11.8125H101.021V20.5775H99.8823V19.5815H99.7883C99.599 19.928 99.3227 20.2137 98.9895 20.4075C98.6562 20.6014 98.2786 20.6961 97.8976 20.6814C96.366 20.6815 95.3984 19.4196 95.3984 17.4228ZM96.6259 17.4228C96.6259 18.7599 97.2278 19.5645 98.2346 19.5645C99.236 19.5645 99.855 18.7483 99.855 17.4282C99.855 16.1144 99.2295 15.2865 98.2346 15.2865C97.2343 15.2865 96.6258 16.0966 96.6258 17.4228H96.6259Z" fill="white"/>
<path d="M105.937 17.4194C105.899 17.0051 105.945 16.5871 106.07 16.1922C106.196 15.7973 106.399 15.4342 106.666 15.1262C106.933 14.8183 107.259 14.5722 107.623 14.4038C107.986 14.2354 108.379 14.1484 108.777 14.1484C109.174 14.1484 109.567 14.2354 109.931 14.4038C110.294 14.5722 110.62 14.8183 110.887 15.1262C111.155 15.4342 111.358 15.7973 111.483 16.1922C111.608 16.5871 111.654 17.0051 111.616 17.4194C111.654 17.8341 111.61 18.2527 111.485 18.6482C111.359 19.0437 111.157 19.4075 110.889 19.716C110.622 20.0246 110.296 20.2712 109.932 20.44C109.568 20.6087 109.175 20.6959 108.777 20.6959C108.379 20.6959 107.985 20.6087 107.621 20.44C107.257 20.2712 106.931 20.0246 106.664 19.716C106.396 19.4075 106.194 19.0437 106.069 18.6482C105.943 18.2527 105.899 17.8341 105.937 17.4194V17.4194ZM110.394 17.4194C110.394 16.0529 109.807 15.2538 108.779 15.2538C107.746 15.2538 107.165 16.0529 107.165 17.4194C107.165 18.7968 107.746 19.5898 108.779 19.5898C109.807 19.5898 110.394 18.7913 110.394 17.4194Z" fill="white"/>
<path d="M113.211 14.2763H114.355V15.2778H114.444C114.594 14.9181 114.848 14.6166 115.17 14.4153C115.492 14.2139 115.866 14.1228 116.24 14.1546C116.533 14.1316 116.827 14.1778 117.101 14.29C117.374 14.4021 117.62 14.5772 117.821 14.8024C118.021 15.0276 118.17 15.2971 118.257 15.5908C118.344 15.8846 118.367 16.1951 118.324 16.4994V20.5804H117.136V16.8118C117.136 15.7987 116.716 15.2949 115.837 15.2949C115.638 15.2852 115.439 15.3206 115.255 15.3988C115.07 15.477 114.904 15.596 114.767 15.7477C114.631 15.8995 114.527 16.0803 114.464 16.2779C114.4 16.4755 114.378 16.6851 114.399 16.8924V20.5804H113.211V14.2763Z" fill="white"/>
<path d="M125.038 12.7031V14.3014H126.342V15.3493H125.038V18.5909C125.038 19.2513 125.298 19.5404 125.889 19.5404C126.041 19.5399 126.192 19.5303 126.342 19.5117V20.548C126.129 20.588 125.913 20.6093 125.696 20.6116C124.375 20.6116 123.848 20.1249 123.848 18.9095V15.3493H122.893V14.3013H123.848V12.7031H125.038Z" fill="white"/>
<path d="M127.965 11.8125H129.143V15.2865H129.237C129.395 14.9235 129.656 14.6203 129.984 14.4182C130.313 14.2161 130.693 14.125 131.072 14.1572C131.364 14.1406 131.655 14.1916 131.926 14.3064C132.196 14.4213 132.439 14.5972 132.637 14.8217C132.835 15.0462 132.983 15.3137 133.071 15.605C133.159 15.8964 133.185 16.2046 133.146 16.5074V20.5776H131.957V16.8144C131.957 15.8074 131.509 15.2975 130.669 15.2975C130.465 15.2799 130.259 15.3093 130.067 15.3836C129.875 15.4579 129.701 15.5752 129.556 15.7275C129.412 15.8797 129.301 16.0631 129.231 16.2649C129.162 16.4667 129.135 16.682 129.153 16.8957V20.5775H127.965L127.965 11.8125Z" fill="white"/>
<path d="M140.074 18.8722C139.913 19.4483 139.563 19.9467 139.086 20.2801C138.609 20.6135 138.035 20.7607 137.465 20.696C137.068 20.707 136.674 20.6274 136.31 20.4629C135.946 20.2983 135.62 20.0527 135.355 19.7431C135.091 19.4336 134.893 19.0674 134.777 18.67C134.662 18.2727 134.63 17.8537 134.684 17.4421C134.631 17.0293 134.664 16.6094 134.779 16.2108C134.895 15.8123 135.091 15.4444 135.354 15.1321C135.617 14.8198 135.942 14.5704 136.305 14.4007C136.668 14.231 137.062 14.145 137.46 14.1485C139.135 14.1485 140.146 15.3469 140.146 17.3265V17.7607H135.894V17.8304C135.876 18.0617 135.903 18.2946 135.976 18.514C136.048 18.7335 136.164 18.9347 136.315 19.1047C136.465 19.2748 136.649 19.4099 136.852 19.5014C137.056 19.593 137.276 19.639 137.498 19.6364C137.782 19.6721 138.07 19.6185 138.325 19.4824C138.58 19.3463 138.791 19.1339 138.93 18.8721L140.074 18.8722ZM135.894 16.8405H138.935C138.95 16.629 138.923 16.4164 138.855 16.2166C138.787 16.0168 138.679 15.8342 138.54 15.6804C138.4 15.5266 138.231 15.405 138.044 15.3236C137.857 15.2421 137.656 15.2026 137.453 15.2074C137.248 15.2047 137.044 15.2451 136.854 15.3263C136.663 15.4074 136.49 15.5276 136.345 15.6798C136.2 15.832 136.085 16.0131 136.008 16.2124C135.93 16.4118 135.892 16.6254 135.894 16.8405H135.894Z" fill="white"/>
</svg>
