<svg width="257" height="74" viewBox="0 0 257 74" fill="none" xmlns="http://www.w3.org/2000/svg">
<path d="M254.731 65.4659C254.731 69.4094 251.47 72.6038 247.437 72.6038H8.72706C4.69558 72.6038 1.42322 69.4094 1.42322 65.4659V8.54346C1.42322 4.60177 4.69558 1.39624 8.72706 1.39624H247.435C251.47 1.39624 254.729 4.60177 254.729 8.54346L254.731 65.4659Z" fill="#0C353E"/>
<path d="M246.667 1.48232C251.059 1.48232 254.634 4.96726 254.634 9.25001V64.75C254.634 69.0328 251.059 72.5177 246.667 72.5177H9.48718C5.09462 72.5177 1.52032 69.0328 1.52032 64.75V9.25001C1.52032 4.96726 5.09462 1.48232 9.48718 1.48232H246.667ZM246.667 1.33592e-05H9.48718C4.2716 1.33592e-05 0 4.16483 0 9.25001V64.75C0 69.8352 4.2716 74 9.48718 74H246.667C251.882 74 256.154 69.8352 256.154 64.75V9.25001C256.154 4.16483 251.882 1.33592e-05 246.667 1.33592e-05Z" fill="#2A4E55"/>
<path d="M57.1661 36.6004C57.1111 30.6379 62.1734 27.7371 62.4049 27.602C59.5379 23.5265 55.0941 22.9696 53.5325 22.9252C49.8003 22.5423 46.1799 25.1027 44.2787 25.1027C42.3395 25.1027 39.4118 22.9622 36.2564 23.0251C32.1958 23.0862 28.3972 25.3783 26.3138 28.9377C22.0142 36.1953 25.2209 46.8605 29.3402 52.7269C31.4008 55.5999 33.8087 58.8078 36.9603 58.695C40.0436 58.571 41.1954 56.7784 44.9163 56.7784C48.603 56.7784 49.6845 58.695 52.8988 58.6228C56.2079 58.571 58.2913 55.7368 60.2798 52.8379C62.6611 49.5449 63.6174 46.3018 63.6553 46.1353C63.5775 46.1094 57.2287 43.747 57.1661 36.6004Z" fill="white"/>
<path d="M51.0943 19.0661C52.7527 17.0441 53.8873 14.2931 53.5724 11.5015C51.1721 11.6051 48.1704 13.1202 46.4418 15.0979C44.9125 16.8406 43.5463 19.697 43.8992 22.3832C46.5955 22.5793 49.3638 21.0567 51.0943 19.0661Z" fill="white"/>
<path d="M101.788 58.2822H97.4787L95.1183 51.0505H86.9138L84.6653 58.2822H80.4701L88.5987 33.6624H93.6193L101.788 58.2822ZM94.4068 48.0165L92.2721 41.5878C92.0463 40.931 91.6232 39.3844 90.999 36.9498H90.9231C90.6745 37.9969 90.2741 39.5435 89.7239 41.5878L87.6272 48.0165H94.4068Z" fill="white"/>
<path d="M122.692 49.1877C122.692 52.2069 121.855 54.5934 120.182 56.3454C118.683 57.9049 116.821 58.6838 114.599 58.6838C112.201 58.6838 110.478 57.8439 109.429 56.1641H109.353V65.5158H105.308V46.3739C105.308 44.4758 105.256 42.5277 105.158 40.5297H108.715L108.941 43.3436H109.017C110.366 41.2235 112.414 40.1653 115.161 40.1653C117.309 40.1653 119.102 40.9922 120.536 42.648C121.975 44.3056 122.692 46.4849 122.692 49.1877ZM118.571 49.332C118.571 47.6041 118.172 46.1796 117.372 45.0585C116.497 43.8893 115.322 43.3047 113.85 43.3047C112.852 43.3047 111.945 43.6303 111.135 44.2723C110.323 44.9198 109.791 45.7652 109.543 46.8123C109.417 47.3007 109.355 47.7003 109.355 48.0148V50.9748C109.355 52.2661 109.761 53.3558 110.573 54.2456C111.385 55.1355 112.44 55.5795 113.738 55.5795C115.262 55.5795 116.447 55.006 117.296 53.8627C118.146 52.7175 118.571 51.2079 118.571 49.332Z" fill="white"/>
<path d="M143.634 49.1877C143.634 52.2069 142.797 54.5934 141.122 56.3454C139.625 57.9049 137.763 58.6838 135.541 58.6838C133.143 58.6838 131.42 57.8439 130.373 56.1641H130.297V65.5158H126.252V46.3739C126.252 44.4758 126.2 42.5277 126.102 40.5297H129.659L129.885 43.3436H129.961C131.308 41.2235 133.356 40.1653 136.105 40.1653C138.251 40.1653 140.044 40.9922 141.482 42.648C142.915 44.3056 143.634 46.4849 143.634 49.1877ZM139.513 49.332C139.513 47.6041 139.112 46.1796 138.312 45.0585C137.437 43.8893 136.266 43.3047 134.792 43.3047C133.792 43.3047 132.887 43.6303 132.075 44.2723C131.263 44.9198 130.733 45.7652 130.485 46.8123C130.361 47.3007 130.297 47.7003 130.297 48.0148V50.9748C130.297 52.2661 130.703 53.3558 131.511 54.2456C132.323 55.1336 133.378 55.5795 134.68 55.5795C136.204 55.5795 137.39 55.006 138.238 53.8627C139.088 52.7175 139.513 51.2079 139.513 49.332Z" fill="white"/>
<path d="M167.048 51.3781C167.048 53.4723 166.302 55.1762 164.805 56.4915C163.16 57.929 160.87 58.6468 157.927 58.6468C155.21 58.6468 153.032 58.1362 151.383 57.1131L152.32 53.8257C154.096 54.8728 156.045 55.3982 158.168 55.3982C159.692 55.3982 160.878 55.0615 161.73 54.3918C162.578 53.7221 163.001 52.823 163.001 51.7019C163.001 50.7029 162.652 49.8611 161.952 49.1785C161.255 48.4958 160.092 47.8613 158.468 47.2748C154.047 45.6672 151.838 43.3121 151.838 40.2152C151.838 38.1913 152.612 36.5319 154.163 35.2406C155.707 33.9474 157.768 33.3018 160.344 33.3018C162.642 33.3018 164.551 33.6921 166.075 34.471L165.063 37.6863C163.64 36.9315 162.031 36.5541 160.231 36.5541C158.807 36.5541 157.696 36.8963 156.899 37.5771C156.225 38.1858 155.887 38.9276 155.887 39.8064C155.887 40.7795 156.273 41.5842 157.047 42.2169C157.72 42.8015 158.944 43.4342 160.72 44.1169C162.893 44.9697 164.488 45.9669 165.515 47.1102C166.538 48.2498 167.048 49.6761 167.048 51.3781Z" fill="white"/>
<path d="M180.423 43.4898H175.964V52.1089C175.964 54.3012 176.75 55.3964 178.325 55.3964C179.048 55.3964 179.647 55.3353 180.122 55.2132L180.234 58.2084C179.437 58.4988 178.387 58.645 177.088 58.645C175.49 58.645 174.241 58.1695 173.34 57.2205C172.443 56.2696 171.991 54.6749 171.991 52.4345V43.4861H169.335V40.5261H171.991V37.2756L175.964 36.1064V40.5261H180.423V43.4898Z" fill="white"/>
<path d="M200.542 49.2597C200.542 51.9885 199.741 54.2288 198.143 55.9808C196.468 57.7845 194.244 58.6836 191.472 58.6836C188.8 58.6836 186.673 57.8197 185.087 56.0918C183.501 54.3639 182.708 52.1827 182.708 49.5539C182.708 46.8029 183.524 44.5496 185.161 42.7977C186.795 41.0439 189 40.167 191.772 40.167C194.443 40.167 196.593 41.0309 198.215 42.7607C199.768 44.4386 200.542 46.605 200.542 49.2597ZM196.345 49.3874C196.345 47.7501 195.986 46.346 195.259 45.1749C194.411 43.7578 193.199 43.0511 191.628 43.0511C190.001 43.0511 188.766 43.7597 187.918 45.1749C187.191 46.3478 186.833 47.7742 186.833 49.4614C186.833 51.0986 187.191 52.5028 187.918 53.672C188.793 55.0891 190.015 55.7958 191.592 55.7958C193.136 55.7958 194.349 55.0743 195.223 53.635C195.969 52.4417 196.345 51.0228 196.345 49.3874Z" fill="white"/>
<path d="M213.691 43.9985C213.291 43.9263 212.864 43.8893 212.416 43.8893C210.993 43.8893 209.893 44.4129 209.118 45.4618C208.445 46.3868 208.107 47.556 208.107 48.9676V58.2823H204.064L204.102 46.1204C204.102 44.0743 204.05 42.2114 203.95 40.5316H207.473L207.621 43.9282H207.733C208.16 42.7608 208.834 41.821 209.756 41.1162C210.657 40.4816 211.631 40.1653 212.68 40.1653C213.054 40.1653 213.391 40.1912 213.691 40.2374V43.9985Z" fill="white"/>
<path d="M231.783 48.566C231.783 49.2727 231.736 49.8684 231.635 50.3549H219.499C219.547 52.1087 220.133 53.45 221.26 54.375C222.283 55.2019 223.605 55.6163 225.23 55.6163C227.026 55.6163 228.666 55.337 230.14 54.7764L230.774 57.5144C229.051 58.247 227.017 58.6115 224.67 58.6115C221.846 58.6115 219.63 57.8012 218.017 56.1824C216.408 54.5637 215.602 52.3899 215.602 49.663C215.602 46.9861 216.351 44.7568 217.852 42.979C219.423 41.0809 221.547 40.1318 224.218 40.1318C226.842 40.1318 228.829 41.0809 230.178 42.979C231.246 44.4867 231.783 46.3515 231.783 48.566ZM227.926 47.5429C227.952 46.3737 227.689 45.3636 227.14 44.5108C226.44 43.4137 225.364 42.8661 223.916 42.8661C222.594 42.8661 221.518 43.4008 220.697 44.4738C220.023 45.3266 219.623 46.3497 219.499 47.5411H227.926V47.5429Z" fill="white"/>
<path d="M93.0693 18.5168C93.0693 20.6943 92.3995 22.3334 91.0618 23.4341C89.8228 24.4498 88.0619 24.9585 85.7812 24.9585C84.6503 24.9585 83.6826 24.9104 82.8724 24.8142V12.9169C83.9293 12.7504 85.0678 12.6653 86.2973 12.6653C88.4699 12.6653 90.1074 13.1259 91.2117 14.0472C92.4488 15.0888 93.0693 16.578 93.0693 18.5168ZM90.9726 18.5705C90.9726 17.1589 90.5893 16.0767 89.8228 15.3219C89.0562 14.5689 87.9367 14.1915 86.4624 14.1915C85.8362 14.1915 85.3031 14.2322 84.861 14.3173V23.362C85.1057 23.399 85.5535 23.4156 86.2043 23.4156C87.7261 23.4156 88.9006 23.0031 89.7279 22.178C90.5552 21.3529 90.9726 20.1504 90.9726 18.5705Z" fill="white"/>
<path d="M104.186 20.4183C104.186 21.7595 103.794 22.8584 103.008 23.7205C102.185 24.6067 101.094 25.0488 99.7313 25.0488C98.4183 25.0488 97.3728 24.6252 96.593 23.7742C95.815 22.925 95.426 21.8539 95.426 20.5626C95.426 19.2121 95.8264 18.1039 96.6309 17.2437C97.4354 16.3834 98.517 15.9524 99.8793 15.9524C101.192 15.9524 102.247 16.376 103.046 17.2252C103.805 18.0503 104.186 19.1159 104.186 20.4183ZM102.124 20.4812C102.124 19.6764 101.946 18.9864 101.591 18.411C101.173 17.7154 100.579 17.3676 99.8072 17.3676C99.0084 17.3676 98.4012 17.7154 97.9838 18.411C97.6271 18.9864 97.4506 19.6875 97.4506 20.5163C97.4506 21.3211 97.6289 22.0111 97.9838 22.5865C98.4145 23.2821 99.0141 23.6299 99.7882 23.6299C100.547 23.6299 101.143 23.2765 101.572 22.568C101.94 21.9815 102.124 21.2859 102.124 20.4812Z" fill="white"/>
<path d="M119.093 16.1301L116.294 24.851H114.472L113.313 21.0641C113.019 20.1187 112.78 19.1789 112.594 18.2465H112.558C112.385 19.2048 112.146 20.1428 111.839 21.0641L110.607 24.851H108.765L106.133 16.1301H108.177L109.188 20.276C109.433 21.2565 109.634 22.1907 109.795 23.075H109.831C109.979 22.3461 110.224 21.4174 110.569 20.2945L111.839 16.132H113.459L114.675 20.2057C114.969 21.1991 115.208 22.1556 115.393 23.0769H115.448C115.582 22.1796 115.785 21.2232 116.055 20.2057L117.14 16.132H119.093V16.1301Z" fill="white"/>
<path d="M129.401 24.8511H127.413V19.8561C127.413 18.3169 126.813 17.5473 125.61 17.5473C125.02 17.5473 124.544 17.7582 124.174 18.1818C123.808 18.6055 123.622 19.105 123.622 19.6766V24.8492H121.633V18.6221C121.633 17.8562 121.609 17.0256 121.561 16.1265H123.309L123.402 17.4899H123.457C123.688 17.0663 124.034 16.7166 124.487 16.4373C125.026 16.1117 125.629 15.947 126.29 15.947C127.125 15.947 127.819 16.2097 128.371 16.737C129.058 17.3826 129.401 18.3465 129.401 19.6267V24.8511Z" fill="white"/>
<path d="M134.885 24.8509H132.898V12.1284H134.885V24.8509Z" fill="white"/>
<path d="M146.592 20.4183C146.592 21.7595 146.199 22.8584 145.414 23.7205C144.59 24.6067 143.497 25.0488 142.137 25.0488C140.822 25.0488 139.776 24.6252 138.998 23.7742C138.22 22.925 137.831 21.8539 137.831 20.5626C137.831 19.2121 138.232 18.1039 139.036 17.2437C139.841 16.3834 140.922 15.9524 142.283 15.9524C143.598 15.9524 144.651 16.376 145.452 17.2252C146.21 18.0503 146.592 19.1159 146.592 20.4183ZM144.527 20.4812C144.527 19.6764 144.349 18.9864 143.994 18.411C143.579 17.7154 142.983 17.3676 142.213 17.3676C141.412 17.3676 140.805 17.7154 140.389 18.411C140.032 18.9864 139.856 19.6875 139.856 20.5163C139.856 21.3211 140.034 22.0111 140.389 22.5865C140.82 23.2821 141.419 23.6299 142.194 23.6299C142.953 23.6299 143.546 23.2765 143.975 22.568C144.345 21.9815 144.527 21.2859 144.527 20.4812Z" fill="white"/>
<path d="M156.216 24.8509H154.431L154.283 23.8463H154.228C153.617 24.6474 152.746 25.0488 151.615 25.0488C150.771 25.0488 150.088 24.7843 149.573 24.2589C149.107 23.7816 148.873 23.1877 148.873 22.4829C148.873 21.4173 149.329 20.6051 150.245 20.0427C151.16 19.4803 152.446 19.2047 154.103 19.2176V19.0548C154.103 17.906 153.484 17.3325 152.245 17.3325C151.363 17.3325 150.585 17.5489 149.913 17.9781L149.509 16.7053C150.34 16.204 151.366 15.9524 152.577 15.9524C154.915 15.9524 156.087 17.1549 156.087 19.5599V22.7715C156.087 23.6428 156.131 24.3366 156.216 24.8509ZM154.152 21.8539V20.5089C151.958 20.4719 150.862 21.0584 150.862 22.2664C150.862 22.7215 150.987 23.0619 151.243 23.2895C151.499 23.517 151.826 23.6299 152.215 23.6299C152.651 23.6299 153.059 23.4948 153.431 23.2266C153.805 22.9565 154.034 22.6142 154.12 22.1943C154.14 22.0999 154.152 21.9852 154.152 21.8539Z" fill="white"/>
<path d="M167.515 24.8509H165.751L165.658 23.4504H165.603C165.039 24.516 164.079 25.0488 162.73 25.0488C161.652 25.0488 160.755 24.6363 160.043 23.8112C159.332 22.9861 158.977 21.9149 158.977 20.5996C158.977 19.188 159.362 18.0447 160.136 17.1715C160.886 16.3575 161.804 15.9505 162.897 15.9505C164.098 15.9505 164.939 16.3446 165.417 17.1345H165.455V12.1284H167.445V22.5014C167.445 23.3505 167.468 24.1331 167.515 24.8509ZM165.455 21.1731V19.719C165.455 19.4674 165.436 19.2639 165.4 19.1085C165.288 18.6423 165.047 18.2501 164.68 17.9337C164.31 17.6174 163.865 17.4583 163.35 17.4583C162.608 17.4583 162.028 17.745 161.601 18.3204C161.178 18.8957 160.963 19.6302 160.963 20.5274C160.963 21.3895 161.166 22.0888 161.574 22.6272C162.005 23.2007 162.586 23.4874 163.312 23.4874C163.965 23.4874 164.487 23.2488 164.884 22.7696C165.267 22.3275 165.455 21.7947 165.455 21.1731Z" fill="white"/>
<path d="M184.522 20.4183C184.522 21.7595 184.129 22.8584 183.344 23.7205C182.52 24.6067 181.431 25.0488 180.067 25.0488C178.756 25.0488 177.71 24.6252 176.928 23.7742C176.15 22.925 175.761 21.8539 175.761 20.5626C175.761 19.2121 176.162 18.1039 176.966 17.2437C177.771 16.3834 178.852 15.9524 180.217 15.9524C181.528 15.9524 182.585 16.376 183.381 17.2252C184.14 18.0503 184.522 19.1159 184.522 20.4183ZM182.461 20.4812C182.461 19.6764 182.283 18.9864 181.928 18.411C181.509 17.7154 180.917 17.3676 180.143 17.3676C179.346 17.3676 178.738 17.7154 178.319 18.411C177.962 18.9864 177.786 19.6875 177.786 20.5163C177.786 21.3211 177.964 22.0111 178.319 22.5865C178.75 23.2821 179.349 23.6299 180.124 23.6299C180.883 23.6299 181.48 23.2765 181.909 22.568C182.275 21.9815 182.461 21.2859 182.461 20.4812Z" fill="white"/>
<path d="M195.214 24.8511H193.227V19.8561C193.227 18.3169 192.628 17.5473 191.423 17.5473C190.833 17.5473 190.356 17.7582 189.988 18.1818C189.62 18.6055 189.436 19.105 189.436 19.6766V24.8492H187.446V18.6221C187.446 17.8562 187.423 17.0256 187.376 16.1265H189.121L189.214 17.4899H189.269C189.503 17.0663 189.848 16.7166 190.3 16.4373C190.84 16.1117 191.442 15.947 192.104 15.947C192.937 15.947 193.631 16.2097 194.184 16.737C194.872 17.3826 195.214 18.3465 195.214 19.6267V24.8511Z" fill="white"/>
<path d="M208.597 17.5824H206.407V21.8189C206.407 22.8956 206.796 23.434 207.566 23.434C207.923 23.434 208.219 23.4044 208.452 23.3433L208.504 24.8141C208.111 24.9584 207.595 25.0305 206.959 25.0305C206.174 25.0305 205.563 24.7974 205.121 24.3312C204.677 23.865 204.456 23.0806 204.456 21.9799V17.5824H203.149V16.1302H204.456V14.5318L206.405 13.9583V16.1283H208.595V17.5824H208.597Z" fill="white"/>
<path d="M219.123 24.8509H217.133V19.8929C217.133 18.3296 216.533 17.5471 215.332 17.5471C214.41 17.5471 213.78 18.0003 213.435 18.9068C213.376 19.0974 213.342 19.3305 213.342 19.6043V24.849H211.355V12.1284H213.342V17.3843H213.38C214.006 16.4278 214.904 15.9505 216.067 15.9505C216.89 15.9505 217.571 16.2132 218.112 16.7405C218.786 17.3972 219.123 18.374 219.123 19.6653V24.8509Z" fill="white"/>
<path d="M229.982 20.0779C229.982 20.4257 229.956 20.718 229.908 20.9567H223.945C223.971 21.8188 224.256 22.4755 224.808 22.9306C225.313 23.3376 225.963 23.5411 226.76 23.5411C227.643 23.5411 228.447 23.4042 229.172 23.1286L229.483 24.4754C228.635 24.8343 227.637 25.0137 226.481 25.0137C225.096 25.0137 224.005 24.616 223.216 23.8205C222.423 23.025 222.03 21.9575 222.03 20.6181C222.03 19.3028 222.396 18.2076 223.134 17.3344C223.905 16.402 224.946 15.9358 226.261 15.9358C227.548 15.9358 228.525 16.402 229.185 17.3344C229.718 18.0744 229.982 18.9901 229.982 20.0779ZM228.085 19.5766C228.1 19.0012 227.969 18.5054 227.7 18.0873C227.354 17.549 226.829 17.2789 226.117 17.2789C225.468 17.2789 224.939 17.5416 224.535 18.0688C224.204 18.4888 224.009 18.9901 223.945 19.5766H228.085Z" fill="white"/>
</svg>
