<svg width="199" height="59" viewBox="0 0 199 59" fill="none" xmlns="http://www.w3.org/2000/svg">
<path d="M197.763 51.4086C197.763 54.4703 195.231 56.9502 192.1 56.9502H6.77527C3.64539 56.9502 1.10486 54.4703 1.10486 51.4086V7.2163C1.10486 4.15613 3.64539 1.66748 6.77527 1.66748H192.098C195.231 1.66748 197.762 4.15613 197.762 7.2163L197.763 51.4086Z" fill="white" fill-opacity="0.1"/>
<path d="M191.502 1.73431C194.912 1.73431 197.687 4.43988 197.687 7.76484V50.8528C197.687 54.1778 194.912 56.8834 191.502 56.8834H7.36544C3.95523 56.8834 1.18029 54.1778 1.18029 50.8528V7.76484C1.18029 4.43988 3.95523 1.73431 7.36544 1.73431H191.502ZM191.502 0.583504H7.36544C3.31627 0.583504 -3.05176e-05 3.8169 -3.05176e-05 7.76484V50.8528C-3.05176e-05 54.8008 3.31627 58.0342 7.36544 58.0342H191.502C195.551 58.0342 198.868 54.8008 198.868 50.8528V7.76484C198.868 3.8169 195.551 0.583504 191.502 0.583504Z" fill="white"/>
<path d="M44.3815 28.9985C44.3388 24.3694 48.269 22.1174 48.4487 22.0125C46.2229 18.8484 42.7729 18.4161 41.5605 18.3816C38.663 18.0843 35.8523 20.0721 34.3763 20.0721C32.8708 20.0721 30.5978 18.4104 28.148 18.4592C24.9956 18.5066 22.0465 20.2861 20.429 23.0495C17.091 28.684 19.5805 36.9641 22.7786 41.5185C24.3784 43.749 26.2477 46.2395 28.6945 46.1519C31.0883 46.0556 31.9825 44.6639 34.8712 44.6639C37.7334 44.6639 38.5731 46.1519 41.0685 46.0959C43.6376 46.0556 45.2551 43.8553 46.7989 41.6046C48.6476 39.0481 49.39 36.5303 49.4195 36.4011C49.3591 36.3809 44.4301 34.5468 44.3815 28.9985Z" fill="white"/>
<path d="M39.6676 15.3856C40.9551 13.8158 41.836 11.68 41.5915 9.5127C39.728 9.59313 37.3976 10.7694 36.0556 12.3048C34.8683 13.6578 33.8076 15.8754 34.0816 17.9608C36.1749 18.1131 38.3242 16.931 39.6676 15.3856Z" fill="white"/>
<path d="M79.024 45.8316H75.6786L73.8461 40.2173H67.4764L65.7308 45.8316H62.4738L68.7846 26.7178H72.6824L79.024 45.8316ZM73.2937 37.8618L71.6365 32.8707C71.4612 32.3609 71.1327 31.1601 70.648 29.27H70.5891C70.3961 30.0829 70.0853 31.2837 69.6581 32.8707L68.0303 37.8618H73.2937Z" fill="white"/>
<path d="M95.2533 38.771C95.2533 41.115 94.6037 42.9678 93.3044 44.328C92.1407 45.5387 90.6956 46.1434 88.9706 46.1434C87.1086 46.1434 85.771 45.4913 84.9564 44.1872H84.8975V51.4475H81.7568V36.5865C81.7568 35.1129 81.717 33.6005 81.6404 32.0493H84.4025L84.5778 34.2339H84.6367C85.6841 32.5879 87.2736 31.7664 89.4066 31.7664C91.0741 31.7664 92.4662 32.4084 93.5799 33.6938C94.6965 34.9807 95.2533 36.6726 95.2533 38.771ZM92.0537 38.8831C92.0537 37.5416 91.7444 36.4357 91.1228 35.5653C90.4437 34.6576 89.5318 34.2037 88.3887 34.2037C87.6138 34.2037 86.9097 34.4565 86.2807 34.9549C85.6502 35.4576 85.2377 36.1139 85.0448 36.9269C84.9475 37.306 84.8989 37.6163 84.8989 37.8604V40.1585C84.8989 41.161 85.2142 42.0069 85.8447 42.6978C86.4751 43.3886 87.2942 43.7333 88.3018 43.7333C89.4847 43.7333 90.4054 43.2881 91.0638 42.4005C91.7238 41.5114 92.0537 40.3394 92.0537 38.8831Z" fill="white"/>
<path d="M111.512 38.771C111.512 41.115 110.862 42.9678 109.562 44.328C108.399 45.5387 106.954 46.1434 105.229 46.1434C103.367 46.1434 102.03 45.4913 101.216 44.1872H101.158V51.4475H98.0169V36.5865C98.0169 35.1129 97.9771 33.6005 97.9005 32.0493H100.663L100.838 34.2339H100.897C101.943 32.5879 103.532 31.7664 105.667 31.7664C107.333 31.7664 108.725 32.4084 109.841 33.6938C110.954 34.9807 111.512 36.6726 111.512 38.771ZM108.312 38.8831C108.312 37.5416 108.002 36.4357 107.38 35.5653C106.701 34.6576 105.792 34.2037 104.647 34.2037C103.871 34.2037 103.168 34.4565 102.538 34.9549C101.907 35.4576 101.496 36.1139 101.303 36.9269C101.208 37.306 101.158 37.6163 101.158 37.8604V40.1585C101.158 41.161 101.473 42.0069 102.1 42.6978C102.731 43.3872 103.55 43.7333 104.56 43.7333C105.743 43.7333 106.664 43.2881 107.322 42.4005C107.982 41.5114 108.312 40.3394 108.312 38.8831Z" fill="white"/>
<path d="M129.69 40.4715C129.69 42.0974 129.111 43.4202 127.948 44.4414C126.671 45.5573 124.893 46.1146 122.608 46.1146C120.499 46.1146 118.808 45.7182 117.528 44.9239L118.255 42.3717C119.634 43.1846 121.147 43.5925 122.796 43.5925C123.978 43.5925 124.899 43.3311 125.56 42.8112C126.219 42.2913 126.547 41.5932 126.547 40.7229C126.547 39.9473 126.276 39.2938 125.733 38.7638C125.192 38.2338 124.289 37.7412 123.028 37.2859C119.596 36.0378 117.881 34.2094 117.881 31.8051C117.881 30.2338 118.482 28.9455 119.686 27.943C120.885 26.939 122.485 26.4377 124.485 26.4377C126.269 26.4377 127.751 26.7408 128.934 27.3455L128.149 29.8417C127.044 29.2557 125.795 28.9627 124.397 28.9627C123.292 28.9627 122.429 29.2284 121.81 29.757C121.287 30.2295 121.025 30.8054 121.025 31.4877C121.025 32.2431 121.324 32.8679 121.925 33.3591C122.448 33.813 123.398 34.3042 124.777 34.8342C126.464 35.4963 127.702 36.2704 128.499 37.158C129.293 38.0428 129.69 39.1501 129.69 40.4715Z" fill="white"/>
<path d="M140.073 34.3474H136.612V41.0389C136.612 42.7409 137.222 43.5912 138.444 43.5912C139.005 43.5912 139.471 43.5438 139.839 43.449L139.926 45.7743C139.307 45.9998 138.493 46.1133 137.484 46.1133C136.243 46.1133 135.274 45.7442 134.574 45.0074C133.878 44.2691 133.527 43.031 133.527 41.2917V34.3445H131.465V32.0465H133.527V29.523L136.612 28.6152V32.0465H140.073V34.3474Z" fill="white"/>
<path d="M155.693 38.8268C155.693 40.9453 155.071 42.6846 153.831 44.0448C152.53 45.4452 150.804 46.1432 148.652 46.1432C146.578 46.1432 144.926 45.4724 143.695 44.131C142.463 42.7895 141.847 41.0961 141.847 39.0552C141.847 36.9195 142.481 35.1701 143.752 33.81C145.02 32.4484 146.732 31.7676 148.884 31.7676C150.958 31.7676 152.628 32.4383 153.887 33.7812C155.092 35.0839 155.693 36.7658 155.693 38.8268ZM152.435 38.9259C152.435 37.6548 152.156 36.5647 151.592 35.6556C150.933 34.5554 149.992 34.0067 148.772 34.0067C147.51 34.0067 146.551 34.5568 145.893 35.6556C145.328 36.5661 145.05 37.6735 145.05 38.9834C145.05 40.2545 145.328 41.3446 145.893 42.2523C146.572 43.3525 147.52 43.9012 148.744 43.9012C149.944 43.9012 150.885 43.341 151.564 42.2236C152.143 41.2972 152.435 40.1956 152.435 38.9259Z" fill="white"/>
<path d="M165.901 34.7423C165.59 34.6863 165.259 34.6576 164.911 34.6576C163.807 34.6576 162.952 35.064 162.351 35.8784C161.828 36.5965 161.566 37.5042 161.566 38.6001V45.8317H158.427L158.456 36.3897C158.456 34.8012 158.416 33.3549 158.338 32.0507H161.074L161.189 34.6877H161.276C161.607 33.7814 162.13 33.0518 162.846 32.5046C163.546 32.012 164.301 31.7664 165.116 31.7664C165.406 31.7664 165.669 31.7865 165.901 31.8224V34.7423Z" fill="white"/>
<path d="M179.948 38.2884C179.948 38.8371 179.911 39.2996 179.833 39.6773H170.411C170.448 41.0389 170.903 42.0802 171.778 42.7983C172.572 43.4403 173.599 43.762 174.859 43.762C176.255 43.762 177.527 43.5452 178.672 43.11L179.164 45.2356C177.826 45.8044 176.247 46.0873 174.425 46.0873C172.233 46.0873 170.512 45.4583 169.26 44.2015C168.011 42.9448 167.385 41.2572 167.385 39.1401C167.385 37.0618 167.967 35.3311 169.132 33.9509C170.352 32.4773 172 31.7405 174.074 31.7405C176.112 31.7405 177.654 32.4773 178.701 33.9509C179.531 35.1215 179.948 36.5692 179.948 38.2884ZM176.953 37.4942C176.973 36.5864 176.769 35.8022 176.343 35.1401C175.799 34.2884 174.964 33.8633 173.84 33.8633C172.813 33.8633 171.978 34.2784 171.34 35.1114C170.817 35.7735 170.506 36.5678 170.411 37.4927H176.953V37.4942Z" fill="white"/>
<path d="M72.2553 14.9592C72.2553 16.6497 71.7353 17.9222 70.6968 18.7768C69.7349 19.5653 68.3678 19.9603 66.5972 19.9603C65.7192 19.9603 64.9679 19.9229 64.3389 19.8482V10.6116C65.1594 10.4823 66.0433 10.4163 66.9979 10.4163C68.6846 10.4163 69.9558 10.7739 70.8132 11.4892C71.7736 12.2978 72.2553 13.454 72.2553 14.9592ZM70.6276 15.0008C70.6276 13.905 70.33 13.0647 69.7349 12.4787C69.1398 11.8942 68.2706 11.6012 67.126 11.6012C66.6399 11.6012 66.226 11.6328 65.8827 11.6988V18.7208C66.0728 18.7495 66.4204 18.7624 66.9257 18.7624C68.1071 18.7624 69.019 18.4421 69.6612 17.8015C70.3035 17.161 70.6276 16.2274 70.6276 15.0008Z" fill="white"/>
<path d="M80.8862 16.4357C80.8862 17.4769 80.5813 18.3301 79.9714 18.9994C79.3321 19.6874 78.4851 20.0306 77.4274 20.0306C76.408 20.0306 75.5964 19.7017 74.9909 19.041C74.3869 18.3818 74.085 17.5502 74.085 16.5477C74.085 15.4992 74.3958 14.6389 75.0204 13.971C75.645 13.3032 76.4846 12.9685 77.5423 12.9685C78.5617 12.9685 79.3807 13.2974 80.0009 13.9567C80.5901 14.5972 80.8862 15.4245 80.8862 16.4357ZM79.285 16.4845C79.285 15.8597 79.1465 15.324 78.871 14.8773C78.547 14.3373 78.0859 14.0672 77.4863 14.0672C76.8662 14.0672 76.3948 14.3373 76.0707 14.8773C75.7938 15.324 75.6568 15.8683 75.6568 16.5118C75.6568 17.1366 75.7952 17.6723 76.0707 18.119C76.4051 18.659 76.8706 18.929 77.4716 18.929C78.0608 18.929 78.5234 18.6547 78.8563 18.1046C79.1421 17.6493 79.285 17.1093 79.285 16.4845Z" fill="white"/>
<path d="M92.4589 13.1062L90.2861 19.8768H88.872L87.9719 16.9367C87.7436 16.2028 87.558 15.4732 87.4136 14.7493H87.3856C87.2515 15.4933 87.0659 16.2215 86.8273 16.9367L85.8713 19.8768H84.4409L82.3977 13.1062H83.9842L84.7694 16.3249C84.9594 17.0861 85.1156 17.8114 85.2408 18.4979H85.2688C85.3837 17.9321 85.5737 17.2111 85.8418 16.3392L86.8273 13.1076H88.0853L89.0296 16.2703C89.2579 17.0416 89.4435 17.7841 89.5864 18.4994H89.6291C89.7337 17.8028 89.8913 17.0602 90.1005 16.2703L90.9431 13.1076H92.4589V13.1062Z" fill="white"/>
<path d="M100.462 19.8769H98.9183V15.9989C98.9183 14.804 98.4528 14.2065 97.5189 14.2065C97.0607 14.2065 96.691 14.3702 96.4038 14.6991C96.1194 15.028 95.9751 15.4158 95.9751 15.8596V19.8754H94.4313V15.041C94.4313 14.4463 94.4121 13.8015 94.3753 13.1034H95.732L95.8042 14.162H95.8469C96.0266 13.8331 96.2947 13.5616 96.6468 13.3447C97.0652 13.0919 97.5336 12.9641 98.0462 12.9641C98.6944 12.9641 99.2336 13.1681 99.6622 13.5774C100.195 14.0787 100.462 14.827 100.462 15.8208V19.8769Z" fill="white"/>
<path d="M104.719 19.8767H103.177V9.99951H104.719V19.8767Z" fill="white"/>
<path d="M113.808 16.4357C113.808 17.4769 113.503 18.3301 112.893 18.9994C112.254 19.6874 111.406 20.0306 110.349 20.0306C109.328 20.0306 108.517 19.7017 107.913 19.041C107.309 18.3818 107.007 17.5502 107.007 16.5477C107.007 15.4992 107.318 14.6389 107.942 13.971C108.567 13.3032 109.407 12.9685 110.463 12.9685C111.484 12.9685 112.301 13.2974 112.923 13.9567C113.512 14.5972 113.808 15.4245 113.808 16.4357ZM112.205 16.4845C112.205 15.8597 112.067 15.324 111.791 14.8773C111.469 14.3373 111.006 14.0672 110.408 14.0672C109.787 14.0672 109.315 14.3373 108.993 14.8773C108.716 15.324 108.579 15.8683 108.579 16.5118C108.579 17.1366 108.717 17.6723 108.993 18.119C109.327 18.659 109.792 18.929 110.393 18.929C110.983 18.929 111.444 18.6547 111.777 18.1046C112.064 17.6493 112.205 17.1093 112.205 16.4845Z" fill="white"/>
<path d="M121.28 19.8769H119.894L119.779 19.0971H119.736C119.262 19.719 118.586 20.0306 117.708 20.0306C117.052 20.0306 116.522 19.8252 116.123 19.4173C115.76 19.0468 115.579 18.5857 115.579 18.0385C115.579 17.2112 115.933 16.5807 116.644 16.1441C117.354 15.7075 118.353 15.4935 119.639 15.5035V15.3771C119.639 14.4852 119.159 14.04 118.197 14.04C117.512 14.04 116.908 14.208 116.386 14.5412L116.073 13.5531C116.718 13.1638 117.515 12.9685 118.455 12.9685C120.27 12.9685 121.18 13.9021 121.18 15.7692V18.2626C121.18 18.9391 121.214 19.4777 121.28 19.8769ZM119.677 17.5502V16.506C117.974 16.4773 117.123 16.9326 117.123 17.8705C117.123 18.2238 117.22 18.4881 117.419 18.6647C117.618 18.8414 117.871 18.929 118.173 18.929C118.512 18.929 118.829 18.8242 119.118 18.6159C119.408 18.4062 119.586 18.1405 119.652 17.8145C119.669 17.7412 119.677 17.6522 119.677 17.5502Z" fill="white"/>
<path d="M130.052 19.8767H128.682L128.61 18.7895H128.567C128.13 19.6168 127.385 20.0304 126.337 20.0304C125.501 20.0304 124.804 19.7101 124.251 19.0695C123.699 18.429 123.423 17.5974 123.423 16.5762C123.423 15.4803 123.722 14.5927 124.324 13.9148C124.905 13.2828 125.618 12.9668 126.467 12.9668C127.399 12.9668 128.052 13.2728 128.423 13.886H128.453V9.99951H129.998V18.0527C129.998 18.7119 130.016 19.3194 130.052 19.8767ZM128.453 17.0214V15.8925C128.453 15.6972 128.438 15.5392 128.41 15.4185C128.323 15.0566 128.136 14.7521 127.852 14.5065C127.564 14.2609 127.218 14.1374 126.819 14.1374C126.243 14.1374 125.792 14.36 125.461 14.8067C125.132 15.2534 124.966 15.8236 124.966 16.5202C124.966 17.1895 125.123 17.7324 125.44 18.1503C125.775 18.5956 126.225 18.8182 126.789 18.8182C127.296 18.8182 127.701 18.6329 128.009 18.2609C128.307 17.9177 128.453 17.504 128.453 17.0214Z" fill="white"/>
<path d="M143.255 16.4357C143.255 17.4769 142.95 18.3301 142.341 18.9994C141.701 19.6874 140.856 20.0306 139.797 20.0306C138.779 20.0306 137.967 19.7017 137.36 19.041C136.756 18.3818 136.454 17.5502 136.454 16.5477C136.454 15.4992 136.765 14.6389 137.39 13.971C138.014 13.3032 138.854 12.9685 139.913 12.9685C140.931 12.9685 141.751 13.2974 142.37 13.9567C142.959 14.5972 143.255 15.4245 143.255 16.4357ZM141.656 16.4845C141.656 15.8597 141.517 15.324 141.242 14.8773C140.916 14.3373 140.457 14.0672 139.855 14.0672C139.237 14.0672 138.765 14.3373 138.44 14.8773C138.163 15.324 138.026 15.8683 138.026 16.5118C138.026 17.1366 138.164 17.6723 138.44 18.119C138.774 18.659 139.24 18.929 139.841 18.929C140.43 18.929 140.894 18.6547 141.227 18.1046C141.511 17.6493 141.656 17.1093 141.656 16.4845Z" fill="white"/>
<path d="M151.556 19.8769H150.014V15.9989C150.014 14.804 149.548 14.2065 148.613 14.2065C148.155 14.2065 147.785 14.3702 147.499 14.6991C147.214 15.028 147.071 15.4158 147.071 15.8596V19.8754H145.525V15.041C145.525 14.4463 145.508 13.8015 145.471 13.1034H146.826L146.898 14.162H146.941C147.122 13.8331 147.39 13.5616 147.741 13.3447C148.161 13.0919 148.628 12.9641 149.142 12.9641C149.789 12.9641 150.328 13.1681 150.756 13.5774C151.291 14.0787 151.556 14.827 151.556 15.8208V19.8769Z" fill="white"/>
<path d="M161.946 14.2338H160.246V17.5229C160.246 18.3588 160.548 18.7767 161.147 18.7767C161.423 18.7767 161.653 18.7537 161.834 18.7064L161.874 19.8482C161.569 19.9602 161.169 20.0162 160.675 20.0162C160.065 20.0162 159.591 19.8353 159.248 19.4733C158.903 19.1114 158.732 18.5024 158.732 17.6478V14.2338H157.717V13.1063H158.732V11.8654L160.245 11.4202V13.1049H161.945V14.2338H161.946Z" fill="white"/>
<path d="M170.119 19.8767H168.574V16.0275C168.574 14.8139 168.108 14.2063 167.176 14.2063C166.46 14.2063 165.971 14.5582 165.703 15.262C165.657 15.4099 165.63 15.5909 165.63 15.8035V19.8753H164.088V9.99951H165.63V14.0799H165.66C166.146 13.3374 166.843 12.9668 167.746 12.9668C168.385 12.9668 168.914 13.1708 169.334 13.5801C169.857 14.09 170.119 14.8483 170.119 15.8509V19.8767Z" fill="white"/>
<path d="M178.549 16.1711C178.549 16.4411 178.528 16.6681 178.492 16.8534H173.862C173.882 17.5227 174.103 18.0325 174.532 18.3858C174.924 18.7018 175.429 18.8598 176.048 18.8598C176.733 18.8598 177.357 18.7535 177.92 18.5395L178.162 19.5851C177.503 19.8638 176.728 20.0031 175.831 20.0031C174.756 20.0031 173.909 19.6943 173.296 19.0767C172.68 18.4591 172.375 17.6304 172.375 16.5905C172.375 15.5693 172.66 14.7191 173.233 14.0411C173.831 13.3173 174.64 12.9553 175.66 12.9553C176.659 12.9553 177.418 13.3173 177.93 14.0411C178.344 14.6156 178.549 15.3266 178.549 16.1711ZM177.076 15.7819C177.088 15.3352 176.986 14.9503 176.777 14.6257C176.509 14.2077 176.101 13.9981 175.548 13.9981C175.045 13.9981 174.634 14.202 174.32 14.6113C174.064 14.9374 173.912 15.3266 173.862 15.7819H177.076Z" fill="white"/>
</svg>
