<svg width="199" height="58" viewBox="0 0 199 58" fill="none" xmlns="http://www.w3.org/2000/svg">
<path d="M197.764 50.8251C197.764 53.8868 195.232 56.3667 192.101 56.3667H6.77589C3.646 56.3667 1.10547 53.8868 1.10547 50.8251V6.6328C1.10547 3.57263 3.646 1.08398 6.77589 1.08398H192.099C195.232 1.08398 197.762 3.57263 197.762 6.6328L197.764 50.8251Z" fill="white" fill-opacity="0.1"/>
<path d="M191.502 1.15082C194.913 1.15082 197.687 3.85638 197.687 7.18134V50.2693C197.687 53.5943 194.913 56.2999 191.502 56.2999H7.36547C3.95526 56.2999 1.18032 53.5943 1.18032 50.2693V7.18134C1.18032 3.85638 3.95526 1.15082 7.36547 1.15082H191.502ZM191.502 8.1214e-06H7.36547C3.3163 8.1214e-06 0 3.2334 0 7.18134V50.2693C0 54.2173 3.3163 57.4507 7.36547 57.4507H191.502C195.551 57.4507 198.868 54.2173 198.868 50.2693V7.18134C198.868 3.2334 195.551 8.1214e-06 191.502 8.1214e-06Z" fill="white"/>
<path d="M44.3815 28.415C44.3387 23.7859 48.269 21.5339 48.4487 21.429C46.2228 18.2649 42.7728 17.8326 41.5605 17.7981C38.6629 17.5008 35.8522 19.4886 34.3762 19.4886C32.8707 19.4886 30.5977 17.8269 28.148 17.8757C24.9955 17.9231 22.0464 19.7026 20.4289 22.466C17.0909 28.1005 19.5804 36.3806 22.7785 40.935C24.3783 43.1655 26.2477 45.656 28.6945 45.5684C31.0883 45.4721 31.9824 44.0804 34.8712 44.0804C37.7334 44.0804 38.573 45.5684 41.0685 45.5124C43.6375 45.4721 45.255 43.2718 46.7988 41.0212C48.6475 38.4646 49.39 35.9468 49.4194 35.8176C49.359 35.7974 44.4301 33.9633 44.3815 28.415Z" fill="white"/>
<path d="M39.6676 14.8021C40.955 13.2323 41.8359 11.0965 41.5914 8.9292C39.728 9.00963 37.3975 10.1859 36.0555 11.7213C34.8682 13.0743 33.8076 15.2919 34.0816 17.3773C36.1748 17.5296 38.3241 16.3475 39.6676 14.8021Z" fill="white"/>
<path d="M79.0248 45.2481H75.6794L73.8469 39.6338H67.4772L65.7316 45.2481H62.4746L68.7853 26.1343H72.6832L79.0248 45.2481ZM73.2945 37.2783L71.6373 32.2872C71.462 31.7774 71.1335 30.5767 70.6488 28.6865H70.5899C70.3969 29.4995 70.0861 30.7002 69.6589 32.2872L68.0311 37.2783H73.2945Z" fill="white"/>
<path d="M95.2535 38.1875C95.2535 40.5315 94.6039 42.3843 93.3046 43.7445C92.1408 44.9552 90.6957 45.5599 88.9707 45.5599C87.1087 45.5599 85.7712 44.9078 84.9566 43.6037H84.8976V50.864H81.757V36.003C81.757 34.5294 81.7172 33.017 81.6406 31.4658H84.4027L84.578 33.6504H84.6369C85.6843 32.0044 87.2737 31.1829 89.4068 31.1829C91.0743 31.1829 92.4664 31.8249 93.5801 33.1103C94.6967 34.3972 95.2535 36.0891 95.2535 38.1875ZM92.0539 38.2996C92.0539 36.9581 91.7446 35.8522 91.1229 34.9818C90.4438 34.0741 89.532 33.6202 88.3889 33.6202C87.614 33.6202 86.9099 33.873 86.2809 34.3714C85.6504 34.8741 85.2379 35.5304 85.0449 36.3434C84.9477 36.7225 84.8991 37.0328 84.8991 37.2769V39.575C84.8991 40.5775 85.2144 41.4234 85.8448 42.1143C86.4753 42.8051 87.2944 43.1498 88.302 43.1498C89.4849 43.1498 90.4055 42.7046 91.064 41.817C91.724 40.9279 92.0539 39.7559 92.0539 38.2996Z" fill="white"/>
<path d="M111.512 38.1875C111.512 40.5315 110.862 42.3843 109.561 43.7445C108.399 44.9552 106.954 45.5599 105.229 45.5599C103.367 45.5599 102.029 44.9078 101.216 43.6037H101.157V50.864H98.0168V36.003C98.0168 34.5294 97.977 33.017 97.9004 31.4658H100.662L100.838 33.6504H100.897C101.943 32.0044 103.532 31.1829 105.667 31.1829C107.333 31.1829 108.725 31.8249 109.841 33.1103C110.953 34.3972 111.512 36.0891 111.512 38.1875ZM108.312 38.2996C108.312 36.9581 108.001 35.8522 107.38 34.9818C106.701 34.0741 105.792 33.6202 104.647 33.6202C103.871 33.6202 103.168 33.873 102.538 34.3714C101.907 34.8741 101.496 35.5304 101.303 36.3434C101.207 36.7225 101.157 37.0328 101.157 37.2769V39.575C101.157 40.5775 101.473 41.4234 102.1 42.1143C102.731 42.8037 103.55 43.1498 104.56 43.1498C105.743 43.1498 106.664 42.7046 107.322 41.817C107.982 40.9279 108.312 39.7559 108.312 38.2996Z" fill="white"/>
<path d="M129.691 39.888C129.691 41.5139 129.112 42.8367 127.95 43.8579C126.673 44.9738 124.895 45.5311 122.61 45.5311C120.501 45.5311 118.809 45.1347 117.529 44.3404L118.257 41.7882C119.636 42.6011 121.149 43.009 122.797 43.009C123.98 43.009 124.901 42.7476 125.562 42.2277C126.221 41.7078 126.549 41.0097 126.549 40.1394C126.549 39.3638 126.278 38.7103 125.734 38.1803C125.194 37.6503 124.291 37.1577 123.03 36.7024C119.598 35.4543 117.883 33.6259 117.883 31.2216C117.883 29.6503 118.484 28.362 119.687 27.3595C120.886 26.3555 122.486 25.8542 124.487 25.8542C126.271 25.8542 127.753 26.1573 128.935 26.762L128.15 29.2582C127.045 28.6722 125.796 28.3792 124.398 28.3792C123.294 28.3792 122.43 28.6449 121.812 29.1735C121.289 29.646 121.026 30.2219 121.026 30.9042C121.026 31.6596 121.325 32.2844 121.926 32.7756C122.449 33.2295 123.4 33.7207 124.778 34.2507C126.465 34.9128 127.704 35.6869 128.501 36.5745C129.295 37.4593 129.691 38.5667 129.691 39.888Z" fill="white"/>
<path d="M140.074 33.7639H136.612V40.4554C136.612 42.1574 137.222 43.0077 138.444 43.0077C139.006 43.0077 139.471 42.9603 139.839 42.8655L139.926 45.1908C139.308 45.4163 138.493 45.5298 137.484 45.5298C136.244 45.5298 135.274 45.1607 134.575 44.4239C133.878 43.6856 133.527 42.4476 133.527 40.7082V33.761H131.465V31.463H133.527V28.9395L136.612 28.0317V31.463H140.074V33.7639Z" fill="white"/>
<path d="M155.693 38.2433C155.693 40.3618 155.072 42.1011 153.831 43.4613C152.531 44.8617 150.804 45.5597 148.652 45.5597C146.578 45.5597 144.926 44.8889 143.695 43.5475C142.463 42.206 141.848 40.5126 141.848 38.4717C141.848 36.336 142.481 34.5866 143.752 33.2265C145.021 31.8649 146.732 31.1841 148.885 31.1841C150.959 31.1841 152.628 31.8548 153.887 33.1977C155.092 34.5004 155.693 36.1823 155.693 38.2433ZM152.435 38.3424C152.435 37.0713 152.156 35.9812 151.592 35.0721C150.934 33.9719 149.992 33.4232 148.773 33.4232C147.51 33.4232 146.551 33.9733 145.893 35.0721C145.329 35.9827 145.05 37.09 145.05 38.3999C145.05 39.671 145.329 40.7611 145.893 41.6688C146.572 42.769 147.521 43.3177 148.745 43.3177C149.944 43.3177 150.885 42.7575 151.564 41.6401C152.143 40.7137 152.435 39.6121 152.435 38.3424Z" fill="white"/>
<path d="M165.903 34.1588C165.592 34.1028 165.26 34.0741 164.913 34.0741C163.808 34.0741 162.954 34.4805 162.353 35.2949C161.83 36.013 161.567 36.9207 161.567 38.0166V45.2482H158.428L158.458 35.8062C158.458 34.2177 158.418 32.7714 158.34 31.4672H161.075L161.19 34.1042H161.277C161.609 33.1979 162.132 32.4683 162.848 31.9211C163.547 31.4285 164.303 31.1829 165.118 31.1829C165.408 31.1829 165.67 31.203 165.903 31.2389V34.1588Z" fill="white"/>
<path d="M179.949 37.7049C179.949 38.2536 179.912 38.7161 179.834 39.0938H170.412C170.449 40.4554 170.904 41.4967 171.779 42.2148C172.573 42.8568 173.6 43.1785 174.861 43.1785C176.256 43.1785 177.529 42.9617 178.674 42.5265L179.166 44.6521C177.828 45.2209 176.249 45.5039 174.427 45.5039C172.235 45.5039 170.514 44.8748 169.262 43.618C168.013 42.3613 167.387 40.6737 167.387 38.5566C167.387 36.4784 167.969 34.7476 169.134 33.3674C170.354 31.8938 172.002 31.157 174.076 31.157C176.113 31.157 177.656 31.8938 178.703 33.3674C179.532 34.538 179.949 35.9857 179.949 37.7049ZM176.954 36.9107C176.975 36.0029 176.77 35.2187 176.345 34.5566C175.801 33.7049 174.966 33.2798 173.842 33.2798C172.815 33.2798 171.98 33.6949 171.342 34.5279C170.819 35.19 170.508 35.9843 170.412 36.9092H176.954V36.9107Z" fill="white"/>
<path d="M72.2563 14.3757C72.2563 16.0662 71.7363 17.3387 70.6977 18.1933C69.7358 18.9818 68.3688 19.3768 66.5981 19.3768C65.7201 19.3768 64.9689 19.3394 64.3398 19.2647V10.0281C65.1604 9.89883 66.0442 9.83276 66.9988 9.83276C68.6855 9.83276 69.9568 10.1904 70.8141 10.9057C71.7746 11.7143 72.2563 12.8705 72.2563 14.3757ZM70.6285 14.4173C70.6285 13.3215 70.3309 12.4812 69.7358 11.8952C69.1407 11.3107 68.2715 11.0177 67.1269 11.0177C66.6408 11.0177 66.2269 11.0493 65.8836 11.1154V18.1373C66.0737 18.166 66.4213 18.1789 66.9266 18.1789C68.108 18.1789 69.0199 17.8586 69.6621 17.2181C70.3044 16.5775 70.6285 15.6439 70.6285 14.4173Z" fill="white"/>
<path d="M80.8872 15.8522C80.8872 16.8935 80.5823 17.7466 79.9724 18.4159C79.3331 19.1039 78.4861 19.4471 77.4284 19.4471C76.409 19.4471 75.5973 19.1182 74.9919 18.4575C74.3879 17.7983 74.0859 16.9667 74.0859 15.9642C74.0859 14.9157 74.3968 14.0554 75.0214 13.3875C75.6459 12.7197 76.4856 12.385 77.5433 12.385C78.5627 12.385 79.3817 12.7139 80.0019 13.3732C80.5911 14.0137 80.8872 14.841 80.8872 15.8522ZM79.286 15.901C79.286 15.2762 79.1475 14.7405 78.872 14.2938C78.5479 13.7538 78.0869 13.4838 77.4873 13.4838C76.8671 13.4838 76.3958 13.7538 76.0717 14.2938C75.7947 14.7405 75.6577 15.2848 75.6577 15.9283C75.6577 16.5531 75.7962 17.0888 76.0717 17.5355C76.4061 18.0755 76.8716 18.3455 77.4726 18.3455C78.0618 18.3455 78.5244 18.0712 78.8573 17.5211C79.1431 17.0658 79.286 16.5258 79.286 15.901Z" fill="white"/>
<path d="M92.4597 12.5227L90.2869 19.2933H88.8727L87.9726 16.3532C87.7443 15.6193 87.5587 14.8897 87.4143 14.1658H87.3863C87.2523 14.9098 87.0667 15.638 86.828 16.3532L85.872 19.2933H84.4416L82.3984 12.5227H83.985L84.7701 15.7414C84.9601 16.5026 85.1163 17.2279 85.2415 17.9145H85.2695C85.3844 17.3486 85.5744 16.6276 85.8425 15.7557L86.828 12.5241H88.0861L89.0303 15.6868C89.2586 16.4581 89.4442 17.2006 89.5871 17.9159H89.6299C89.7344 17.2193 89.8921 16.4767 90.1012 15.6868L90.9439 12.5241H92.4597V12.5227Z" fill="white"/>
<path d="M100.464 19.2934H98.92V15.4154C98.92 14.2205 98.4545 13.623 97.5205 13.623C97.0624 13.623 96.6927 13.7867 96.4054 14.1156C96.1211 14.4445 95.9767 14.8323 95.9767 15.2761V19.2919H94.4329V14.4575C94.4329 13.8628 94.4138 13.218 94.377 12.5199H95.7337L95.8059 13.5785H95.8486C96.0283 13.2496 96.2964 12.9781 96.6485 12.7612C97.0668 12.5084 97.5353 12.3806 98.0479 12.3806C98.6961 12.3806 99.2352 12.5846 99.6639 12.9939C100.197 13.4952 100.464 14.2435 100.464 15.2374V19.2934Z" fill="white"/>
<path d="M104.72 19.2932H103.178V9.41602H104.72V19.2932Z" fill="white"/>
<path d="M113.809 15.8522C113.809 16.8935 113.504 17.7466 112.894 18.4159C112.255 19.1039 111.406 19.4471 110.35 19.4471C109.329 19.4471 108.518 19.1182 107.914 18.4575C107.31 17.7983 107.008 16.9667 107.008 15.9642C107.008 14.9157 107.319 14.0554 107.943 13.3875C108.568 12.7197 109.407 12.385 110.464 12.385C111.485 12.385 112.302 12.7139 112.924 13.3732C113.513 14.0137 113.809 14.841 113.809 15.8522ZM112.206 15.901C112.206 15.2762 112.068 14.7405 111.792 14.2938C111.47 13.7538 111.007 13.4838 110.409 13.4838C109.788 13.4838 109.316 13.7538 108.994 14.2938C108.717 14.7405 108.58 15.2848 108.58 15.9283C108.58 16.5531 108.718 17.0888 108.994 17.5355C109.328 18.0755 109.793 18.3455 110.394 18.3455C110.984 18.3455 111.445 18.0712 111.778 17.5211C112.065 17.0658 112.206 16.5258 112.206 15.901Z" fill="white"/>
<path d="M121.281 19.2935H119.895L119.78 18.5136H119.737C119.263 19.1355 118.587 19.4471 117.709 19.4471C117.053 19.4471 116.523 19.2417 116.124 18.8338C115.761 18.4633 115.58 18.0022 115.58 17.455C115.58 16.6277 115.934 15.9972 116.645 15.5606C117.355 15.124 118.354 14.91 119.64 14.92V14.7936C119.64 13.9017 119.16 13.4565 118.198 13.4565C117.513 13.4565 116.909 13.6245 116.387 13.9577L116.074 12.9696C116.719 12.5803 117.516 12.385 118.456 12.385C120.27 12.385 121.181 13.3186 121.181 15.1857V17.6791C121.181 18.3556 121.215 18.8942 121.281 19.2935ZM119.678 16.9667V15.9225C117.975 15.8938 117.124 16.3491 117.124 17.287C117.124 17.6403 117.221 17.9046 117.42 18.0812C117.619 18.2579 117.872 18.3455 118.174 18.3455C118.513 18.3455 118.83 18.2407 119.118 18.0324C119.409 17.8227 119.587 17.557 119.653 17.231C119.669 17.1577 119.678 17.0687 119.678 16.9667Z" fill="white"/>
<path d="M130.053 19.2932H128.683L128.611 18.206H128.568C128.13 19.0333 127.385 19.4469 126.338 19.4469C125.501 19.4469 124.804 19.1266 124.252 18.486C123.699 17.8455 123.424 17.0139 123.424 15.9927C123.424 14.8968 123.723 14.0092 124.324 13.3313C124.906 12.6993 125.619 12.3833 126.467 12.3833C127.4 12.3833 128.052 12.6893 128.424 13.3026H128.453V9.41602H129.998V17.4692C129.998 18.1284 130.016 18.736 130.053 19.2932ZM128.453 16.4379V15.309C128.453 15.1137 128.438 14.9557 128.41 14.8351C128.323 14.4731 128.136 14.1686 127.852 13.923C127.565 13.6774 127.219 13.5539 126.819 13.5539C126.243 13.5539 125.793 13.7765 125.461 14.2232C125.133 14.6699 124.966 15.2401 124.966 15.9367C124.966 16.606 125.124 17.1489 125.44 17.5668C125.775 18.0121 126.226 18.2347 126.79 18.2347C127.297 18.2347 127.702 18.0494 128.01 17.6774C128.307 17.3342 128.453 16.9205 128.453 16.4379Z" fill="white"/>
<path d="M143.256 15.8522C143.256 16.8935 142.951 17.7466 142.342 18.4159C141.702 19.1039 140.857 19.4471 139.798 19.4471C138.78 19.4471 137.968 19.1182 137.361 18.4575C136.757 17.7983 136.455 16.9667 136.455 15.9642C136.455 14.9157 136.766 14.0554 137.39 13.3875C138.015 12.7197 138.855 12.385 139.914 12.385C140.932 12.385 141.752 12.7139 142.371 13.3732C142.96 14.0137 143.256 14.841 143.256 15.8522ZM141.657 15.901C141.657 15.2762 141.518 14.7405 141.243 14.2938C140.917 13.7538 140.457 13.4838 139.856 13.4838C139.238 13.4838 138.766 13.7538 138.441 14.2938C138.164 14.7405 138.027 15.2848 138.027 15.9283C138.027 16.5531 138.165 17.0888 138.441 17.5355C138.775 18.0755 139.241 18.3455 139.842 18.3455C140.431 18.3455 140.895 18.0712 141.228 17.5211C141.512 17.0658 141.657 16.5258 141.657 15.901Z" fill="white"/>
<path d="M151.558 19.2934H150.016V15.4154C150.016 14.2205 149.55 13.623 148.615 13.623C148.157 13.623 147.787 13.7867 147.501 14.1156C147.215 14.4445 147.072 14.8323 147.072 15.2761V19.2919H145.527V14.4575C145.527 13.8628 145.509 13.218 145.473 12.5199H146.828L146.9 13.5785H146.943C147.124 13.2496 147.392 12.9781 147.743 12.7612C148.163 12.5084 148.629 12.3806 149.144 12.3806C149.79 12.3806 150.329 12.5846 150.758 12.9939C151.293 13.4952 151.558 14.2435 151.558 15.2374V19.2934Z" fill="white"/>
<path d="M161.948 13.6503H160.248V16.9394C160.248 17.7753 160.55 18.1932 161.148 18.1932C161.425 18.1932 161.655 18.1703 161.836 18.1229L161.876 19.2647C161.571 19.3767 161.17 19.4327 160.677 19.4327C160.067 19.4327 159.593 19.2518 159.249 18.8898C158.905 18.5279 158.734 17.9189 158.734 17.0643V13.6503H157.719V12.5228H158.734V11.2819L160.247 10.8367V12.5214H161.947V13.6503H161.948Z" fill="white"/>
<path d="M170.121 19.2932H168.575V15.444C168.575 14.2304 168.11 13.6228 167.177 13.6228C166.462 13.6228 165.972 13.9747 165.704 14.6785C165.659 14.8264 165.632 15.0074 165.632 15.22V19.2918H164.09V9.41602H165.632V13.4965H165.662C166.148 12.7539 166.845 12.3833 167.748 12.3833C168.387 12.3833 168.916 12.5873 169.336 12.9966C169.859 13.5065 170.121 14.2649 170.121 15.2674V19.2932Z" fill="white"/>
<path d="M178.551 15.5876C178.551 15.8576 178.53 16.0846 178.493 16.2699H173.863C173.884 16.9392 174.105 17.449 174.534 17.8024C174.925 18.1183 175.431 18.2763 176.049 18.2763C176.734 18.2763 177.359 18.17 177.922 17.956L178.163 19.0016C177.505 19.2803 176.73 19.4196 175.833 19.4196C174.757 19.4196 173.91 19.1108 173.298 18.4932C172.682 17.8756 172.377 17.0469 172.377 16.007C172.377 14.9858 172.661 14.1356 173.234 13.4576C173.832 12.7338 174.641 12.3718 175.662 12.3718C176.661 12.3718 177.419 12.7338 177.932 13.4576C178.346 14.0322 178.551 14.7431 178.551 15.5876ZM177.078 15.1984C177.089 14.7517 176.988 14.3668 176.779 14.0422C176.51 13.6243 176.102 13.4146 175.55 13.4146C175.046 13.4146 174.635 13.6185 174.321 14.0278C174.065 14.3539 173.913 14.7431 173.863 15.1984H177.078Z" fill="white"/>
</svg>
