<svg width="306" height="90" viewBox="0 0 306 90" fill="none" xmlns="http://www.w3.org/2000/svg">
<g clip-path="url(#clip0_113_166)">
<path d="M108.725 42.5347L114.861 58.4089H113.239L111.46 53.6383H104.5L102.612 58.4089H101.055L107.502 42.5347H108.725ZM110.971 52.3898L108.036 44.5635L105.015 52.3898H110.971Z" fill="#E2D243"/>
<path d="M122.709 53.6384C122.721 54.2299 122.849 54.8133 123.086 55.3549C123.296 55.8136 123.608 56.2176 123.998 56.5356C124.403 56.8591 124.874 57.0911 125.377 57.2156C125.958 57.3634 126.556 57.4351 127.155 57.4291C127.738 57.434 128.318 57.3553 128.878 57.1953C129.371 57.0548 129.837 56.8319 130.256 56.5361C130.633 56.2723 130.945 55.9254 131.168 55.522C131.386 55.1149 131.497 54.6585 131.49 54.1961C131.514 53.6706 131.37 53.151 131.079 52.7134C130.794 52.3251 130.43 52.002 130.012 51.7654C129.536 51.4973 129.028 51.2916 128.5 51.1532C127.929 50.997 127.351 50.841 126.765 50.6851C126.179 50.5293 125.602 50.3505 125.032 50.1487C124.49 49.9645 123.981 49.6975 123.521 49.3572C123.075 49.0224 122.71 48.592 122.452 48.0975C122.159 47.4984 122.018 46.836 122.042 46.1691C122.021 45.5194 122.188 44.8775 122.521 44.3202C122.832 43.822 123.245 43.3959 123.733 43.0701C124.229 42.7409 124.778 42.5 125.355 42.3581C125.922 42.2123 126.505 42.1374 127.09 42.135C128.3 42.1024 129.499 42.3705 130.58 42.9153C131.629 43.5219 132.402 44.5132 132.736 45.6802L131.335 46.4365C131.094 45.5112 130.515 44.7108 129.712 44.1947C128.916 43.7309 128.009 43.4957 127.088 43.5147C126.672 43.5167 126.257 43.5726 125.854 43.6813C125.448 43.7857 125.062 43.9553 124.71 44.1835C124.376 44.3989 124.091 44.6835 123.876 45.0183C123.659 45.3614 123.548 45.7606 123.556 46.1664C123.531 46.6792 123.676 47.1859 123.968 47.6075C124.253 47.982 124.617 48.2899 125.032 48.5101C125.511 48.7639 126.019 48.9586 126.544 49.0898C127.114 49.2371 127.693 49.3856 128.279 49.5354C128.864 49.6852 129.442 49.8559 130.012 50.0473C130.552 50.2254 131.062 50.4854 131.524 50.818C131.968 51.1447 132.333 51.5676 132.591 52.0553C132.884 52.6423 133.026 53.2936 133.003 53.9496C133.045 54.6298 132.928 55.3105 132.662 55.9375C132.395 56.5645 131.986 57.1204 131.468 57.5609C130.445 58.3943 129.008 58.8104 127.157 58.8094C126.42 58.8163 125.685 58.7384 124.966 58.5772C124.339 58.4344 123.744 58.1769 123.21 57.8176C122.692 57.4612 122.257 56.9976 121.932 56.4582C121.566 55.8288 121.317 55.1374 121.199 54.4182L122.709 53.6384Z" fill="#E2D243"/>
<path d="M141.85 53.6384C141.862 54.2299 141.991 54.8133 142.228 55.3549C142.437 55.8137 142.749 56.2178 143.14 56.5356C143.545 56.8592 144.015 57.0912 144.518 57.2156C145.1 57.3634 145.698 57.4351 146.297 57.4291C146.88 57.434 147.46 57.3553 148.02 57.1953C148.513 57.0548 148.979 56.8319 149.398 56.5361C149.775 56.2722 150.087 55.9253 150.309 55.522C150.528 55.1148 150.639 54.6584 150.631 54.1961C150.656 53.6706 150.512 53.1511 150.221 52.7134C149.936 52.3252 149.572 52.0021 149.153 51.7654C148.678 51.4973 148.17 51.2916 147.642 51.1532C147.071 50.997 146.493 50.841 145.907 50.6851C145.321 50.5293 144.743 50.3505 144.174 50.1487C143.632 49.9646 143.122 49.6976 142.662 49.3572C142.217 49.0224 141.852 48.592 141.594 48.0975C141.301 47.4985 141.16 46.836 141.184 46.1691C141.163 45.5194 141.329 44.8775 141.663 44.3201C141.974 43.822 142.387 43.3959 142.875 43.0701C143.371 42.7408 143.92 42.5 144.497 42.3581C145.064 42.2123 145.647 42.1374 146.232 42.135C147.441 42.1024 148.64 42.3705 149.722 42.9153C150.771 43.5219 151.544 44.5132 151.878 45.6801L150.476 46.4365C150.236 45.5111 149.656 44.7107 148.854 44.1947C148.058 43.731 147.15 43.4958 146.23 43.5147C145.813 43.5167 145.398 43.5726 144.996 43.6812C144.59 43.7857 144.203 43.9553 143.851 44.1835C143.517 44.3989 143.233 44.6835 143.017 45.0183C142.8 45.361 142.688 45.7603 142.695 46.1664C142.67 46.6792 142.815 47.186 143.107 47.6075C143.392 47.9822 143.756 48.2902 144.171 48.5101C144.65 48.7639 145.158 48.9586 145.683 49.0897C146.254 49.2371 146.832 49.3856 147.418 49.5354C148.003 49.6852 148.581 49.8559 149.151 50.0473C149.691 50.2256 150.201 50.4855 150.663 50.818C151.106 51.145 151.47 51.5679 151.728 52.0553C152.021 52.6423 152.162 53.2936 152.139 53.9495C152.182 54.6296 152.065 55.3102 151.799 55.9371C151.532 56.5639 151.124 57.1198 150.605 57.5604C149.582 58.3937 148.145 58.8099 146.294 58.8088C145.557 58.8158 144.822 58.7379 144.103 58.5766C143.476 58.4338 142.881 58.1764 142.347 57.8171C141.829 57.4606 141.393 56.9971 141.069 56.4576C140.703 55.8283 140.454 55.1369 140.336 54.4176L141.85 53.6384Z" fill="#E2D243"/>
<path d="M171.82 53.2588C171.835 54.0765 171.696 54.8898 171.409 55.6553C171.154 56.318 170.75 56.913 170.23 57.3948C169.697 57.8755 169.068 58.2367 168.385 58.4543C166.827 58.9276 165.164 58.9276 163.605 58.4543C162.922 58.2369 162.293 57.8757 161.759 57.3948C161.239 56.9129 160.836 56.3178 160.582 55.6553C160.294 54.8898 160.155 54.0766 160.17 53.2588V42.5347H161.682V53.215C161.663 53.8852 161.78 54.5523 162.027 55.1755C162.224 55.6696 162.533 56.1106 162.931 56.4629C163.328 56.8152 163.803 57.0689 164.316 57.2037C165.415 57.5005 166.573 57.5005 167.673 57.2037C168.186 57.0686 168.66 56.8148 169.058 56.4625C169.455 56.1103 169.765 55.6695 169.962 55.1755C170.207 54.5521 170.325 53.8851 170.306 53.215V42.5347H171.818L171.82 53.2588Z" fill="#E2D243"/>
<path d="M180.401 42.5349H187.403C188.122 42.5167 188.837 42.646 189.504 42.9149C190.048 43.1384 190.537 43.4764 190.938 43.9061C191.309 44.3151 191.589 44.7978 191.761 45.3227C191.937 45.8467 192.027 46.396 192.027 46.949C192.066 47.5297 191.974 48.1117 191.759 48.652C191.544 49.1924 191.21 49.6773 190.782 50.0709C189.811 50.8385 188.618 51.2693 187.381 51.2985L192.45 58.4113H190.538L185.514 51.3658H181.912V58.4113H180.401V42.5349ZM181.912 49.9818H186.604C187.267 50.0028 187.929 49.9084 188.56 49.7026C189.003 49.554 189.408 49.3111 189.749 48.9906C190.026 48.7211 190.232 48.3877 190.35 48.0197C190.459 47.6734 190.515 47.3123 190.516 46.949C190.536 46.5445 190.473 46.1404 190.331 45.7611C190.19 45.3818 189.973 45.0354 189.693 44.743C189.146 44.1933 188.197 43.9182 186.848 43.9178H181.912V49.9818Z" fill="#E2D243"/>
<path d="M199.544 42.5347H209.904V43.9176H201.054V49.5359H209.038V50.9199H201.054V57.0281H210.369V58.4105H199.544V42.5347Z" fill="#E2D243"/>
<path d="M230.356 42.535H236.581C237.311 42.5234 238.037 42.6404 238.727 42.8808C239.323 43.0928 239.876 43.41 240.361 43.8176C240.82 44.2133 241.214 44.68 241.528 45.2C241.846 45.726 242.104 46.2869 242.295 46.8717C242.487 47.4594 242.625 48.0637 242.706 48.6768C242.786 49.2722 242.826 49.8722 242.828 50.4729C242.82 51.3661 242.712 52.2557 242.506 53.1246C242.299 54.0419 241.93 54.9146 241.416 55.701C240.89 56.4948 240.191 57.1581 239.371 57.6406C238.39 58.1851 237.279 58.4508 236.159 58.4092H230.358L230.356 42.535ZM231.868 57.0268H236.07C236.933 57.0549 237.788 56.8548 238.549 56.4466C239.201 56.0814 239.758 55.5654 240.171 54.9415C240.589 54.3028 240.887 53.593 241.05 52.847C241.228 52.0682 241.317 51.2718 241.316 50.4729C241.312 49.7117 241.23 48.953 241.071 48.2087C240.921 47.4607 240.643 46.7444 240.249 46.0913C239.866 45.4626 239.345 44.9293 238.726 44.5317C238.021 44.1018 237.205 43.8884 236.381 43.9179H231.867L231.868 57.0268Z" fill="#E2D243"/>
<path d="M250.81 42.5347H261.169V43.9176H252.321V49.5359H260.305V50.9199H252.321V57.0281H261.636V58.4105H250.81V42.5347Z" fill="#E2D243"/>
<path d="M269.551 42.5347H279.866V43.9176H271.062V49.2247H278.933V50.605H271.062V58.4089H269.551V42.5347Z" fill="#E2D243"/>
<path d="M287.739 42.5347H289.251V58.4089H287.739V42.5347Z" fill="#E2D243"/>
<path d="M88.4007 88.9613V90.0021H51.9303V88.9613C54.3468 88.9613 56.1157 87.1893 57.237 83.6452C57.7125 82.1583 57.9513 80.6056 57.9449 79.0442C57.8954 76.4467 57.3928 73.878 56.4599 71.4543L52.7074 62.2471L52.255 61.2116H52.3189L36.218 21.7194L35.7656 20.3583L44.0423 0H45.0823L74.9527 73.332C76.6035 77.3785 78.8733 81.1422 81.6804 84.4874C84.2179 87.4718 86.458 88.9631 88.4007 88.9613Z" fill="#E2D243"/>
<path d="M43.3184 66.2555C31.3532 66.2555 21.6554 76.8398 21.6554 89.9006C21.6554 76.8398 11.963 66.2555 -0.00219727 66.2555C11.963 66.2555 21.6554 55.6659 21.6554 42.605C21.6554 55.6659 31.3532 66.2555 43.3184 66.2555Z" fill="#E2D243"/>
<path d="M299.304 36.0155H297.913V40.0849H297.067V36.0155H295.683V35.3516H299.306L299.304 36.0155Z" fill="#E2D243"/>
<path d="M306.001 35.3516V40.0849H305.154L305.179 36.3646H305.167L303.761 40.0849H303.092L301.768 36.3646H301.756L301.78 40.0849H300.977V35.3516H302.136L303.448 39.0841H303.466L304.84 35.3516H306.001Z" fill="#E2D243"/>
<path d="M101.055 67.8677H105.009V68.348H103.294V73.3653H102.771V68.348H101.055V67.8677Z" fill="#E2D243"/>
<path d="M107.633 67.8677H108.156V70.2904H111.434V67.8677H111.957V73.361H111.434V70.7686H108.155V73.361H107.632L107.633 67.8677Z" fill="#E2D243"/>
<path d="M114.996 67.8677H118.582V68.348H115.519V70.2925H118.282V70.7729H115.519V72.8871H118.743V73.3674H114.996V67.8677Z" fill="#E2D243"/>
<path d="M125.044 67.8677H125.606L127.322 72.5279L129.068 67.8677H129.605L127.551 73.361H127.09L125.044 67.8677Z" fill="#E2D243"/>
<path d="M132.031 67.8677H135.616V68.348H132.554V70.2925H135.316V70.7729H132.554V72.8871H135.779V73.3674H132.032L132.031 67.8677Z" fill="#E2D243"/>
<path d="M138.516 67.8677H140.942C141.191 67.8616 141.439 67.9061 141.67 67.9985C141.858 68.0763 142.027 68.1935 142.166 68.3423C142.294 68.4836 142.391 68.6506 142.451 68.8322C142.511 69.0137 142.542 69.2039 142.543 69.3953C142.556 69.5962 142.525 69.7975 142.45 69.9844C142.376 70.1714 142.26 70.3391 142.112 70.4751C141.776 70.7416 141.363 70.8915 140.935 70.9021L142.691 73.3633H142.03L140.291 70.9251H139.044V73.3633H138.521L138.516 67.8677ZM139.039 70.4447H140.663C140.892 70.4518 141.121 70.4193 141.34 70.3486C141.493 70.2968 141.634 70.2125 141.752 70.1015C141.847 70.0083 141.919 69.893 141.959 69.7658C141.997 69.646 142.017 69.5211 142.017 69.3953C142.024 69.2553 142.002 69.1154 141.953 68.9841C141.904 68.8528 141.829 68.7329 141.733 68.6315C141.453 68.4122 141.1 68.3099 140.747 68.346H139.039V70.4447Z" fill="#E2D243"/>
<path d="M145.233 67.8677H145.756V73.361H145.233V67.8677Z" fill="#E2D243"/>
<path d="M148.772 67.8677H152.342V68.348H149.295V70.1842H152.019V70.6645H149.295V73.3648H148.772V67.8677Z" fill="#E2D243"/>
<path d="M155.066 67.8677H155.589V73.361H155.066V67.8677Z" fill="#E2D243"/>
<path d="M162.398 69.4108C162.347 69.2342 162.277 69.0635 162.191 68.9016C162.112 68.7576 162.008 68.6295 161.883 68.5237C161.75 68.4158 161.597 68.3356 161.433 68.2878C161.226 68.2301 161.012 68.2029 160.798 68.2072C160.52 68.2005 160.244 68.2599 159.994 68.3807C159.767 68.4951 159.572 68.6633 159.424 68.8706C159.264 69.1005 159.148 69.3583 159.082 69.6307C159.002 69.9523 158.963 70.2829 158.967 70.6144C158.958 70.9909 159.006 71.3665 159.109 71.7289C159.186 72.0043 159.323 72.2594 159.509 72.4761C159.675 72.6624 159.884 72.8054 160.117 72.893C160.362 72.9821 160.621 73.0264 160.882 73.0238C161.243 73.0469 161.599 72.9355 161.883 72.711C162.134 72.4788 162.32 72.1842 162.421 71.857L162.921 72.1271C162.771 72.5647 162.477 72.9378 162.086 73.1844C161.687 73.4048 161.237 73.5141 160.782 73.5009C160.471 73.5023 160.162 73.4481 159.87 73.3408C159.585 73.2346 159.33 73.0612 159.125 72.8354C158.897 72.5764 158.726 72.2714 158.625 71.9408C158.495 71.5106 158.435 71.0626 158.444 70.6133C158.434 70.1634 158.499 69.7148 158.637 69.2864C158.744 68.9562 158.918 68.6515 159.148 68.3913C159.35 68.1673 159.602 67.9941 159.883 67.8859C160.158 67.7802 160.45 67.7259 160.745 67.7258C160.993 67.7232 161.241 67.749 161.484 67.8026C161.695 67.8504 161.897 67.934 162.08 68.0497C162.262 68.1675 162.422 68.3164 162.553 68.4895C162.704 68.6912 162.828 68.9117 162.922 69.1455L162.398 69.4108Z" fill="#E2D243"/>
<path d="M167.63 67.8677L169.753 73.361H169.192L168.576 71.7096H166.168L165.514 73.361H164.976L167.207 67.8677H167.63ZM168.407 71.2778L167.391 68.5696L166.345 71.2778H168.407Z" fill="#E2D243"/>
<path d="M171.154 67.8677H175.108V68.348H173.393V73.3653H172.87V68.348H171.154V67.8677Z" fill="#E2D243"/>
<path d="M177.709 67.8677H178.232V73.361H177.709V67.8677Z" fill="#E2D243"/>
<path d="M181.087 70.6152C181.086 70.2545 181.134 69.8954 181.229 69.5477C181.318 69.2167 181.465 68.9044 181.664 68.6259C181.859 68.3561 182.111 68.1333 182.402 67.9736C182.73 67.8114 183.091 67.7271 183.457 67.7271C183.822 67.7271 184.183 67.8114 184.511 67.9736C184.802 68.1335 185.054 68.3563 185.249 68.6259C185.448 68.9044 185.596 69.2167 185.684 69.5477C185.874 70.2448 185.874 70.9803 185.684 71.6773C185.595 72.0083 185.448 72.3205 185.249 72.5991C185.055 72.8689 184.802 73.0917 184.511 73.2514C184.183 73.4139 183.822 73.4985 183.457 73.4985C183.091 73.4985 182.73 73.4139 182.402 73.2514C182.111 73.0919 181.858 72.869 181.664 72.5991C181.465 72.3205 181.318 72.0083 181.229 71.6773C181.134 71.3314 181.086 70.9741 181.087 70.6152ZM181.61 70.6152C181.61 70.9051 181.645 71.194 181.714 71.4756C181.779 71.7501 181.891 72.0112 182.045 72.2474C182.194 72.4739 182.391 72.6647 182.622 72.8062C182.877 72.948 183.165 73.0224 183.457 73.0224C183.749 73.0224 184.036 72.948 184.291 72.8062C184.522 72.6645 184.719 72.4738 184.868 72.2474C185.022 72.0112 185.134 71.7501 185.199 71.4756C185.338 70.9118 185.338 70.3228 185.199 69.759C185.135 69.4831 185.023 69.2206 184.868 68.9835C184.719 68.7567 184.522 68.5657 184.291 68.4241C184.036 68.2824 183.749 68.208 183.457 68.208C183.165 68.208 182.877 68.2824 182.622 68.4241C182.391 68.5656 182.194 68.7566 182.045 68.9835C181.89 69.2206 181.778 69.4831 181.714 69.759C181.645 70.0393 181.611 70.3267 181.61 70.6152Z" fill="#E2D243"/>
<path d="M188.703 67.8677H189.219L192.35 72.4814H192.366V67.8677H192.889V73.361H192.373L189.242 68.7473H189.227V73.361H188.703V67.8677Z" fill="#E2D243"/>
<path d="M203.855 69.5881C203.73 69.3581 203.541 69.1685 203.313 69.0415C203.084 68.9145 202.824 68.8553 202.563 68.8707C202.373 68.8633 202.183 68.8971 202.007 68.9696C201.832 69.0422 201.673 69.1519 201.544 69.2913C201.253 69.668 201.115 70.1402 201.155 70.6145C201.131 71.0663 201.255 71.5136 201.509 71.8875C201.633 72.046 201.794 72.1717 201.978 72.2537C202.161 72.3358 202.362 72.3717 202.563 72.3583C202.696 72.3566 202.827 72.3372 202.955 72.3006C203.091 72.2634 203.22 72.2033 203.336 72.1229C203.454 72.0405 203.555 71.9356 203.632 71.8144C203.717 71.6783 203.768 71.5232 203.778 71.3628H202.563V70.2953H204.932V73.3585H203.868V72.8648C203.683 73.0757 203.451 73.2402 203.191 73.3452C202.9 73.4621 202.589 73.52 202.275 73.5154C201.901 73.5236 201.53 73.4497 201.187 73.2987C200.885 73.1618 200.619 72.9573 200.409 72.7009C200.194 72.4318 200.035 72.1222 199.94 71.7903C199.831 71.4159 199.778 71.0275 199.781 70.6374C199.777 70.2438 199.834 69.852 199.95 69.476C200.054 69.1351 200.225 68.8188 200.454 68.5462C200.683 68.2796 200.97 68.0697 201.293 67.9329C201.664 67.7796 202.063 67.7048 202.464 67.713C202.973 67.705 203.477 67.8242 203.929 68.06C204.369 68.2978 204.736 68.653 204.987 69.0864L203.855 69.5881Z" fill="#E2D243"/>
<path d="M213.086 70.6149C213.088 70.9908 213.024 71.3642 212.897 71.7181C212.777 72.0586 212.593 72.373 212.355 72.6442C212.114 72.9159 211.817 73.1328 211.486 73.2804C211.115 73.4365 210.717 73.5169 210.315 73.5169C209.913 73.5169 209.514 73.4365 209.144 73.2804C208.812 73.1326 208.516 72.9157 208.274 72.6442C208.036 72.373 207.852 72.0586 207.732 71.7181C207.481 71.0042 207.481 70.2255 207.732 69.5116C207.852 69.1711 208.036 68.8567 208.274 68.5855C208.516 68.3141 208.812 68.0971 209.144 67.9488C209.515 67.7934 209.913 67.7134 210.315 67.7134C210.717 67.7134 211.115 67.7934 211.486 67.9488C211.817 68.097 212.113 68.314 212.355 68.5855C212.593 68.8567 212.777 69.1711 212.897 69.5116C213.024 69.8655 213.088 70.2389 213.086 70.6149ZM211.716 70.6149C211.716 70.4004 211.691 70.1868 211.639 69.9786C211.592 69.7792 211.51 69.5898 211.397 69.4192C211.286 69.2536 211.137 69.1172 210.962 69.0216C210.763 68.9166 210.541 68.8648 210.316 68.8711C210.126 68.8695 209.937 68.9035 209.758 68.9714C209.588 69.037 209.437 69.1428 209.316 69.2799C209.182 69.4378 209.083 69.6217 209.023 69.8201C208.947 70.0778 208.911 70.346 208.917 70.6149C208.917 70.8198 208.939 71.0241 208.982 71.2244C209.024 71.4242 209.1 71.615 209.209 71.7875C209.318 71.9579 209.466 72.0996 209.64 72.2006C209.848 72.3135 210.081 72.3688 210.317 72.3607C210.53 72.3686 210.741 72.3217 210.93 72.2244C211.119 72.1271 211.28 71.9827 211.398 71.8051C211.511 71.6346 211.593 71.4451 211.64 71.2457C211.691 71.0393 211.716 70.8274 211.716 70.6149Z" fill="#E2D243"/>
<path d="M215.831 67.8677H217.201V72.2039H219.344V73.361H215.831V67.8677Z" fill="#E2D243"/>
<path d="M221.996 67.8679H224.119C224.504 67.8637 224.888 67.9156 225.258 68.0222C225.585 68.1159 225.887 68.2821 226.142 68.5084C226.398 68.743 226.593 69.036 226.712 69.3624C226.979 70.1772 226.979 71.0563 226.712 71.871C226.593 72.1976 226.398 72.4905 226.142 72.7251C225.887 72.9514 225.585 73.1175 225.258 73.2113C224.888 73.3179 224.504 73.3698 224.119 73.3656H221.996V67.8679ZM223.365 72.2041H224.15C224.373 72.2108 224.595 72.1686 224.8 72.0803C224.969 72.0044 225.118 71.8878 225.231 71.7408C225.344 71.5908 225.425 71.4188 225.469 71.2359C225.567 70.8275 225.567 70.4017 225.469 69.9933C225.425 69.8102 225.344 69.6382 225.231 69.4879C225.116 69.3405 224.967 69.224 224.796 69.1489C224.589 69.0612 224.366 69.0189 224.142 69.0251H223.365V72.2041Z" fill="#E2D243"/>
<path d="M234.252 71.7177C234.47 71.9183 234.715 72.0884 234.979 72.2231C235.247 72.3492 235.541 72.4111 235.837 72.4041C235.943 72.4028 236.048 72.3926 236.153 72.3736C236.268 72.3536 236.381 72.3186 236.487 72.2696C236.589 72.2234 236.68 72.1563 236.753 72.0726C236.825 71.9891 236.863 71.8817 236.86 71.7716C236.863 71.7095 236.85 71.6478 236.823 71.5919C236.796 71.5359 236.756 71.4876 236.706 71.4513C236.566 71.363 236.408 71.3065 236.245 71.2859L235.106 71.1001C234.672 71.0548 234.263 70.8756 233.935 70.5872C233.802 70.4578 233.698 70.3021 233.629 70.13C233.56 69.958 233.528 69.7733 233.534 69.588C233.526 69.2926 233.59 68.9996 233.719 68.734C233.835 68.5027 234.005 68.303 234.215 68.1517C234.432 67.9983 234.674 67.8858 234.931 67.8197C235.206 67.7474 235.489 67.7115 235.773 67.7129C236.226 67.7117 236.675 67.8025 237.093 67.9798C237.512 68.1576 237.886 68.4265 238.189 68.7671L237.151 69.5143C236.974 69.2951 236.749 69.1189 236.495 68.9987C236.24 68.8786 235.962 68.8176 235.681 68.8205C235.595 68.8218 235.51 68.8347 235.427 68.8589C235.338 68.8828 235.253 68.9187 235.173 68.9657C235.098 69.0101 235.033 69.069 234.981 69.1391C234.949 69.1837 234.926 69.2343 234.914 69.2881C234.902 69.3418 234.9 69.3974 234.91 69.4516C234.92 69.5058 234.941 69.5573 234.972 69.6032C235.002 69.649 235.041 69.6882 235.087 69.7182C235.266 69.8161 235.462 69.8776 235.664 69.8992L236.188 69.984C236.447 70.0276 236.704 70.0855 236.957 70.1575C237.181 70.2195 237.395 70.3145 237.592 70.4393C237.769 70.5523 237.916 70.7055 238.023 70.8866C238.134 71.0897 238.189 71.3189 238.183 71.5506C238.198 71.9017 238.113 72.2499 237.936 72.5535C237.781 72.8019 237.567 73.0074 237.313 73.1513C237.06 73.2934 236.784 73.3901 236.497 73.4369C236.226 73.4842 235.95 73.5088 235.675 73.5105C235.228 73.5144 234.784 73.429 234.371 73.2591C233.923 73.0594 233.525 72.7631 233.204 72.3913L234.252 71.7177Z" fill="#E2D243"/>
<path d="M240.475 67.8677H244.707V68.932H243.275V73.3621H241.906V68.932H240.475V67.8677Z" fill="#E2D243"/>
<path d="M248.202 67.8677H249.617L251.686 73.361H250.215L249.938 72.4969H247.916L247.638 73.361H246.176L248.202 67.8677ZM249.609 71.4785L248.932 69.2101H248.916L248.24 71.4785H249.609Z" fill="#E2D243"/>
<path d="M254.164 67.8677H255.548L257.54 71.3782H257.555V67.8677H258.802V73.361H257.432L255.424 69.9045H255.409V73.361H254.162L254.164 67.8677Z" fill="#E2D243"/>
<path d="M261.75 67.8679H263.874C264.259 67.8637 264.642 67.9156 265.012 68.0222C265.34 68.1159 265.642 68.2821 265.897 68.5084C266.152 68.743 266.348 69.036 266.466 69.3624C266.733 70.1772 266.733 71.0563 266.466 71.871C266.348 72.1976 266.152 72.4905 265.897 72.7251C265.642 72.9514 265.34 73.1175 265.012 73.2113C264.642 73.3179 264.259 73.3698 263.874 73.3656H261.75V67.8679ZM263.12 72.2041H263.904C264.127 72.2109 264.349 72.1686 264.554 72.0803C264.724 72.0044 264.872 71.8878 264.986 71.7408C265.099 71.5908 265.18 71.4188 265.224 71.2359C265.321 70.8275 265.321 70.4017 265.224 69.9933C265.18 69.8102 265.099 69.6382 264.986 69.4879C264.871 69.3405 264.721 69.224 264.55 69.1489C264.344 69.0612 264.121 69.0189 263.897 69.0251H263.12V72.2041Z" fill="#E2D243"/>
<path d="M270.929 67.8677H272.345L274.415 73.361H272.942L272.666 72.4969H270.643L270.366 73.361H268.904L270.929 67.8677ZM272.337 71.4785L271.66 69.2101H271.645L270.968 71.4785H272.337Z" fill="#E2D243"/>
<path d="M276.892 67.8679H279.631C280.152 67.838 280.667 67.9938 281.085 68.3077C281.272 68.4797 281.416 68.6922 281.509 68.9289C281.601 69.1656 281.638 69.4203 281.617 69.6736C281.624 70.0094 281.515 70.3374 281.31 70.6028C281.101 70.8702 280.812 71.0636 280.486 71.1547L281.74 73.3612H280.208L279.131 71.3864H278.261V73.3612H276.892V67.8679ZM278.261 70.368H279.515C279.709 70.3728 279.897 70.3083 280.048 70.186C280.177 70.0283 280.247 69.8308 280.247 69.6269C280.247 69.4229 280.177 69.2254 280.048 69.0677C279.897 68.9456 279.709 68.8813 279.515 68.8863H278.261V70.368Z" fill="#E2D243"/>
<path d="M284.333 67.8679H286.456C286.841 67.8636 287.225 67.9156 287.595 68.0222C287.922 68.1159 288.225 68.2821 288.48 68.5084C288.735 68.743 288.93 69.036 289.049 69.3624C289.316 70.1772 289.316 71.0563 289.049 71.8711C288.931 72.1976 288.735 72.4905 288.48 72.7251C288.225 72.9514 287.922 73.1176 287.595 73.2113C287.225 73.3179 286.841 73.3699 286.456 73.3656H284.333V67.8679ZM285.702 72.2041H286.487C286.71 72.2108 286.932 72.1686 287.137 72.0803C287.307 72.0044 287.455 71.8878 287.568 71.7408C287.682 71.5908 287.763 71.4188 287.806 71.2359C287.904 70.8275 287.904 70.4017 287.806 69.9933C287.762 69.8102 287.681 69.6382 287.568 69.4879C287.453 69.3405 287.304 69.224 287.133 69.1489C286.926 69.0612 286.704 69.0189 286.479 69.0251H285.702V72.2041Z" fill="#E2D243"/>
</g>
<defs>
<clipPath id="clip0_113_166">
<rect width="306" height="90" fill="white"/>
</clipPath>
</defs>
</svg>
