<svg width="48" height="48" viewBox="0 0 48 48" fill="none" xmlns="http://www.w3.org/2000/svg">
<g clip-path="url(#clip0_28_84)">
<mask id="path-1-outside-1_28_84" maskUnits="userSpaceOnUse" x="-0.999592" y="-1" width="50" height="50" fill="black">
<rect fill="white" x="-0.999592" y="-1" width="50" height="50"/>
<path d="M14.8693 48.001C14.7696 47.9634 14.6659 47.9375 14.5603 47.9237C9.42275 47.355 5.38783 44.9092 2.56465 40.6539C0.28408 37.2145 -0.220893 33.5327 1.06325 29.71C1.68601 27.8589 2.86009 26.2657 3.927 24.9516C4.58741 24.1376 5.26907 23.3169 5.92852 22.5231C6.76563 21.516 7.62495 20.4819 8.45723 19.4429C9.8022 17.7628 10.6779 16.2662 11.2012 14.7309C11.2582 14.5639 11.2978 14.4045 11.3345 14.2365V14.2259C11.3509 14.1554 11.3683 14.0811 11.3886 14.0019L11.601 13.1599H10.732C10.5167 13.1599 10.3101 13.1599 10.1073 13.1599H9.55503C9.29916 13.1599 9.09254 13.1599 8.90233 13.1512C8.54123 13.1406 8.17626 13.1377 7.82384 13.1358C6.9346 13.1358 6.10328 13.1271 5.29707 12.9929C2.08285 12.4657 -0.279788 9.34103 0.0272484 6.03005C0.341043 2.66694 3.16037 0.018346 6.44508 0H6.45473C7.04756 0 7.33915 0.289675 7.34591 0.869024C7.34591 1.24753 7.34591 1.6328 7.34591 2.00455C7.34591 2.34926 7.34591 2.69204 7.34591 3.03482C7.35943 4.69659 8.43406 5.77997 10.0812 5.79542H10.3912C10.6007 5.79542 10.8102 5.79542 11.0207 5.79542H11.039C11.2389 5.79542 11.4378 5.79542 11.6377 5.79542C12.0017 5.79542 12.2952 5.79542 12.5626 5.81183H12.6592C13.3766 5.81183 13.7695 5.4256 14.0312 5.08282C16.6265 1.72163 19.9363 0.0164147 23.8679 0.0164147C24.4738 0.0177191 25.079 0.0557692 25.6802 0.130354C29.0933 0.546519 31.9146 2.25463 34.0668 5.19579C34.2599 5.45746 34.5852 5.80701 35.2138 5.80701H35.2514C35.5334 5.80121 35.8308 5.79831 36.217 5.79831H36.7789H37.3447C37.5423 5.79831 37.7402 5.79831 37.9385 5.79831C39.5702 5.78093 40.6371 4.7101 40.6564 3.07055C40.6564 2.67756 40.6564 2.2836 40.6564 1.90316C40.6564 1.56907 40.6564 1.23498 40.6564 0.899922C40.6564 0.279054 40.9393 0.00193157 41.5582 0.00193157H41.5737C44.4867 0.0251055 47.1737 2.21311 47.8187 5.08958C47.8554 5.25083 47.9674 5.74907 47.9925 5.86204V7.30076C47.9555 7.39251 47.9286 7.48802 47.9123 7.58561C47.4296 10.6755 44.9298 12.9542 41.8353 13.1261C41.1469 13.1638 40.473 13.1696 39.9043 13.1696H39.1242H39.074C38.8287 13.1696 38.5835 13.1696 38.3382 13.1696H37.8709H36.217L36.5723 14.0888C36.6495 14.2896 36.72 14.4808 36.7876 14.6681C36.9363 15.0708 37.0773 15.4474 37.2472 15.8191C38.1277 17.7319 39.436 19.3483 40.5898 20.7735C41.0822 21.3818 41.5901 21.993 42.0816 22.583L42.0922 22.5956C43.1543 23.8769 44.2588 25.2026 45.2494 26.5544C47.7386 29.9697 48.3256 33.6312 46.9874 37.4365C45.2166 42.4914 41.5621 45.8564 36.1233 47.439C35.4431 47.6203 34.752 47.7577 34.0542 47.8503C33.7375 47.8996 33.4141 47.9469 33.0887 48.0087L14.8693 48.001ZM10.4279 19.4903C10.0581 19.9402 9.69503 20.3796 9.33682 20.8131C8.52192 21.797 7.75336 22.7259 6.98481 23.6857C6.72411 24.0111 6.46053 24.3336 6.19597 24.6571L6.18632 24.6696C5.3299 25.7173 4.44837 26.8007 3.67596 27.9526C1.60588 31.0598 1.29401 34.4423 2.77223 37.7349C4.00424 40.4791 5.73252 42.613 7.90881 44.0749C10.0851 45.5368 12.7123 46.3295 15.7083 46.4203C18.0449 46.4918 20.5205 46.5265 23.2761 46.5265C26.3783 46.5265 29.4863 46.4811 32.1183 46.4377C37.4905 46.3479 41.6548 43.9368 44.4983 39.2692C46.129 36.5926 46.5201 33.7171 45.6627 30.7219C45.1616 28.9703 44.1961 27.5413 42.9013 25.9336C41.6065 24.3259 40.2944 22.725 39.0276 21.1752L37.756 19.6206C37.6571 19.5028 37.5264 19.416 37.3795 19.3705C37.364 19.3647 37.3505 19.3609 37.335 19.3541L36.3908 18.9457V20.6625C36.3908 21.1568 36.3908 21.6387 36.3908 22.1205V22.8176C36.3908 23.6268 36.3908 24.4591 36.3715 25.2915C36.3598 26.8014 35.8507 28.2655 34.9232 29.457L34.2676 30.3202L35.3297 30.5288C36.5086 30.7605 37.4162 30.8638 38.2706 30.8638C38.736 30.8651 39.2008 30.8309 39.661 30.7615C39.7364 30.7494 39.8125 30.7433 39.8889 30.7431C40.2123 30.7431 40.4295 30.8629 40.5715 31.1187C40.7453 31.4326 40.7018 31.7473 40.444 32.0293C37.8072 34.9096 34.5543 36.3744 30.784 36.3744C30.7 36.3744 30.6179 36.3744 30.5339 36.3744C28.18 36.3358 26.1147 35.7313 24.398 34.5784L24.0466 34.3428L23.6806 34.5562C23.5387 34.6383 23.4016 34.7233 23.2693 34.8053C23.0275 34.9628 22.776 35.1047 22.5162 35.2302C20.864 35.9905 19.068 36.3879 17.2493 36.3956C16.2701 36.3931 15.2944 36.281 14.3402 36.0616C11.7332 35.4677 9.46813 34.1217 7.6066 32.0583C7.3295 31.7512 7.28026 31.4596 7.45115 31.14C7.59598 30.8696 7.84605 30.7431 8.23805 30.7431H8.28343C8.71116 30.7547 9.1524 30.7596 9.62068 30.7596C10.1874 30.7596 10.7957 30.7518 11.4822 30.7354C11.7692 30.721 12.0543 30.6803 12.3338 30.6137H12.3435C12.4593 30.5896 12.579 30.5645 12.7007 30.5442L13.8226 30.3511L13.1168 29.4579C12.075 28.1399 11.6029 26.5747 11.6299 24.5335C11.6415 23.6123 11.6386 22.6786 11.6357 21.7748V21.7594C11.6357 21.348 11.6357 20.9364 11.6357 20.5244V18.0313L10.4279 19.4903ZM11.8385 33.4081C11.9136 33.4966 12.0059 33.5689 12.1098 33.6206C13.7811 34.4365 15.4891 34.8507 17.1856 34.8507C18.7835 34.8507 20.4046 34.4838 22.0035 33.7596C22.3007 33.6157 22.5607 33.4052 22.7634 33.1445C23.0606 32.7776 23.2271 32.3221 23.2365 31.8499C23.246 31.3778 23.0978 30.916 22.8155 30.5375C22.6208 30.2623 22.3621 30.0385 22.0617 29.8854C21.7613 29.7324 21.4282 29.6546 21.0911 29.6588C20.7981 29.6607 20.5076 29.7136 20.2327 29.8152C19.8465 29.9543 19.4603 30.1001 19.0809 30.241L19.0519 30.2517C18.1646 30.5848 17.2464 30.9276 16.334 31.2066C15.3887 31.4963 14.4029 31.7358 13.449 31.9675C13.028 32.0708 12.5916 32.177 12.1629 32.2861L10.9782 32.5884L11.8385 33.4081ZM26.919 29.6607C26.4945 29.6569 26.0787 29.7815 25.7262 30.0181C25.3737 30.2546 25.1009 30.5922 24.9435 30.9865C24.4753 32.1201 25.0063 33.328 26.2074 33.8581C27.5801 34.4727 29.0621 34.8057 30.5658 34.8372C30.642 34.8372 30.7174 34.8372 30.7927 34.8372C32.659 34.8432 34.4971 34.3821 36.1397 33.496L37.8526 32.5913L35.5353 32.1567L34.9879 32.0534C32.8473 31.6411 30.588 30.942 27.8749 29.8509C27.5705 29.7264 27.2449 29.6618 26.9161 29.6607H26.919ZM13.1622 15.6559C13.1622 16.9498 13.1622 18.2881 13.1622 19.6148C13.1622 20.0854 13.1622 20.5553 13.1622 21.0246C13.1622 22.5145 13.1622 24.0478 13.2057 25.5628C13.2443 26.8943 13.8207 28.0897 14.9195 29.1161C15.185 29.3643 15.5548 29.6482 16.0694 29.6482C16.3205 29.6454 16.5673 29.5821 16.7887 29.4637C16.9976 29.3675 17.2139 29.2884 17.4356 29.2272C17.6036 29.175 17.7726 29.1229 17.9445 29.0582C18.4745 28.8583 19.0065 28.6488 19.5231 28.447L19.5578 28.4335L20.2125 28.1766L20.7783 27.9565L20.6199 27.3704C20.5919 27.2661 20.562 27.1686 20.534 27.0749C20.4887 26.9353 20.452 26.7931 20.4239 26.6491C20.1526 24.941 20.6402 23.3468 21.9128 21.7768C22.5162 21.0323 23.2645 20.6181 24.005 20.6181C24.7456 20.6181 25.491 21.0246 26.0877 21.7671C27.5572 23.6017 27.9878 25.4363 27.4027 27.382L27.2183 27.9941L27.8198 28.2123L28.6888 28.53L28.7178 28.5406C29.6427 28.8776 30.5938 29.2243 31.54 29.5449C31.6646 29.5857 31.7951 29.6059 31.9262 29.6047C32.2409 29.6048 32.5476 29.5058 32.8029 29.3218C34.1652 28.2597 34.8537 26.7466 34.8479 24.8154C34.8411 22.3262 34.843 19.8195 34.8479 17.3959V17.03C34.8479 16.1397 34.8479 15.2494 34.8479 14.3592V13.2034H13.1632C13.1632 13.2034 13.1622 15.0679 13.1622 15.6559ZM23.9973 22.2354C23.6893 22.2354 23.4083 22.3812 23.1641 22.6661C22.3996 23.5303 21.9501 24.6278 21.8886 25.78C21.8718 26.0602 21.9127 26.3408 22.0087 26.6046C22.1047 26.8683 22.2537 27.1096 22.4467 27.3134C22.6466 27.5218 22.8864 27.6877 23.1518 27.8014C23.4172 27.915 23.7028 27.974 23.9915 27.9748C24.2732 27.9762 24.5524 27.9216 24.8128 27.8141C25.0732 27.7066 25.3097 27.5483 25.5083 27.3486C25.707 27.1488 25.8639 26.9115 25.97 26.6505C26.0761 26.3895 26.1292 26.1101 26.1263 25.8283C26.1263 24.8627 25.5209 23.3709 24.8277 22.6419C24.735 22.5444 24.4376 22.2354 23.9973 22.2354ZM35.7342 8.15047C35.7773 8.36161 35.8201 8.57114 35.8626 8.77906C36.0094 9.50132 36.1523 10.183 36.3087 10.8773C36.4197 11.3533 36.9643 11.6092 37.3148 11.6101C37.6653 11.6111 38.0273 11.615 38.3836 11.6179C38.7862 11.6227 39.2429 11.6266 39.6803 11.6266C40.5039 11.6266 41.173 11.6101 41.7851 11.5754C42.5384 11.5332 43.2718 11.3184 43.9289 10.9478C44.586 10.5771 45.1491 10.0604 45.5748 9.43759C46.0104 8.80917 46.2957 8.08897 46.4085 7.33268C46.5214 6.5764 46.4588 5.80429 46.2256 5.07606C45.7428 3.5543 44.701 2.46899 43.1272 1.83847L42.2013 1.46865V2.46609C42.2013 2.56265 42.2013 2.65149 42.2013 2.73356V2.75577C42.2013 2.89771 42.2013 3.02034 42.2013 3.142C42.1472 5.52988 40.3774 7.294 37.9926 7.34035C37.7995 7.34035 37.6044 7.34035 37.4075 7.34035H36.9247H36.9025H36.3975H35.5681L35.7342 8.15047ZM9.55696 11.6169C9.73848 11.6169 9.92096 11.6169 10.1034 11.6169H10.2965C11.2254 11.6169 11.5759 11.418 11.823 10.2438L11.8298 10.2101C11.9263 9.75333 12.0355 9.30144 12.1513 8.82252C12.2041 8.60236 12.2578 8.37899 12.3126 8.1524L12.5163 7.28338L11.627 7.32007C11.2881 7.33359 10.928 7.34711 10.5746 7.34711C9.48744 7.34711 8.34716 7.23606 7.37971 6.42594C6.24425 5.47484 5.73252 4.20511 5.81652 2.53272L5.8648 1.56714L4.93983 1.85681C2.7954 2.52596 1.34808 4.75356 1.57305 7.04198C1.80671 9.42311 3.76286 11.4064 6.02507 11.557C6.83322 11.6101 7.6346 11.6179 8.37999 11.6179H9.56179L9.55696 11.6169ZM24.8006 11.5937H34.7243L34.6731 10.8695C34.3941 6.96956 30.8313 2.3454 25.5615 1.67528L24.8006 1.57873V11.5937ZM22.4573 1.67915C20.0589 1.96882 17.7871 3.15745 16.0598 5.02199C14.4792 6.72817 13.4866 8.85824 13.3341 10.8522L13.279 11.5792H23.2143V1.58742L22.4573 1.67915Z"/>
</mask>
<path d="M14.8693 48.001C14.7696 47.9634 14.6659 47.9375 14.5603 47.9237C9.42275 47.355 5.38783 44.9092 2.56465 40.6539C0.28408 37.2145 -0.220893 33.5327 1.06325 29.71C1.68601 27.8589 2.86009 26.2657 3.927 24.9516C4.58741 24.1376 5.26907 23.3169 5.92852 22.5231C6.76563 21.516 7.62495 20.4819 8.45723 19.4429C9.8022 17.7628 10.6779 16.2662 11.2012 14.7309C11.2582 14.5639 11.2978 14.4045 11.3345 14.2365V14.2259C11.3509 14.1554 11.3683 14.0811 11.3886 14.0019L11.601 13.1599H10.732C10.5167 13.1599 10.3101 13.1599 10.1073 13.1599H9.55503C9.29916 13.1599 9.09254 13.1599 8.90233 13.1512C8.54123 13.1406 8.17626 13.1377 7.82384 13.1358C6.9346 13.1358 6.10328 13.1271 5.29707 12.9929C2.08285 12.4657 -0.279788 9.34103 0.0272484 6.03005C0.341043 2.66694 3.16037 0.018346 6.44508 0H6.45473C7.04756 0 7.33915 0.289675 7.34591 0.869024C7.34591 1.24753 7.34591 1.6328 7.34591 2.00455C7.34591 2.34926 7.34591 2.69204 7.34591 3.03482C7.35943 4.69659 8.43406 5.77997 10.0812 5.79542H10.3912C10.6007 5.79542 10.8102 5.79542 11.0207 5.79542H11.039C11.2389 5.79542 11.4378 5.79542 11.6377 5.79542C12.0017 5.79542 12.2952 5.79542 12.5626 5.81183H12.6592C13.3766 5.81183 13.7695 5.4256 14.0312 5.08282C16.6265 1.72163 19.9363 0.0164147 23.8679 0.0164147C24.4738 0.0177191 25.079 0.0557692 25.6802 0.130354C29.0933 0.546519 31.9146 2.25463 34.0668 5.19579C34.2599 5.45746 34.5852 5.80701 35.2138 5.80701H35.2514C35.5334 5.80121 35.8308 5.79831 36.217 5.79831H36.7789H37.3447C37.5423 5.79831 37.7402 5.79831 37.9385 5.79831C39.5702 5.78093 40.6371 4.7101 40.6564 3.07055C40.6564 2.67756 40.6564 2.2836 40.6564 1.90316C40.6564 1.56907 40.6564 1.23498 40.6564 0.899922C40.6564 0.279054 40.9393 0.00193157 41.5582 0.00193157H41.5737C44.4867 0.0251055 47.1737 2.21311 47.8187 5.08958C47.8554 5.25083 47.9674 5.74907 47.9925 5.86204V7.30076C47.9555 7.39251 47.9286 7.48802 47.9123 7.58561C47.4296 10.6755 44.9298 12.9542 41.8353 13.1261C41.1469 13.1638 40.473 13.1696 39.9043 13.1696H39.1242H39.074C38.8287 13.1696 38.5835 13.1696 38.3382 13.1696H37.8709H36.217L36.5723 14.0888C36.6495 14.2896 36.72 14.4808 36.7876 14.6681C36.9363 15.0708 37.0773 15.4474 37.2472 15.8191C38.1277 17.7319 39.436 19.3483 40.5898 20.7735C41.0822 21.3818 41.5901 21.993 42.0816 22.583L42.0922 22.5956C43.1543 23.8769 44.2588 25.2026 45.2494 26.5544C47.7386 29.9697 48.3256 33.6312 46.9874 37.4365C45.2166 42.4914 41.5621 45.8564 36.1233 47.439C35.4431 47.6203 34.752 47.7577 34.0542 47.8503C33.7375 47.8996 33.4141 47.9469 33.0887 48.0087L14.8693 48.001ZM10.4279 19.4903C10.0581 19.9402 9.69503 20.3796 9.33682 20.8131C8.52192 21.797 7.75336 22.7259 6.98481 23.6857C6.72411 24.0111 6.46053 24.3336 6.19597 24.6571L6.18632 24.6696C5.3299 25.7173 4.44837 26.8007 3.67596 27.9526C1.60588 31.0598 1.29401 34.4423 2.77223 37.7349C4.00424 40.4791 5.73252 42.613 7.90881 44.0749C10.0851 45.5368 12.7123 46.3295 15.7083 46.4203C18.0449 46.4918 20.5205 46.5265 23.2761 46.5265C26.3783 46.5265 29.4863 46.4811 32.1183 46.4377C37.4905 46.3479 41.6548 43.9368 44.4983 39.2692C46.129 36.5926 46.5201 33.7171 45.6627 30.7219C45.1616 28.9703 44.1961 27.5413 42.9013 25.9336C41.6065 24.3259 40.2944 22.725 39.0276 21.1752L37.756 19.6206C37.6571 19.5028 37.5264 19.416 37.3795 19.3705C37.364 19.3647 37.3505 19.3609 37.335 19.3541L36.3908 18.9457V20.6625C36.3908 21.1568 36.3908 21.6387 36.3908 22.1205V22.8176C36.3908 23.6268 36.3908 24.4591 36.3715 25.2915C36.3598 26.8014 35.8507 28.2655 34.9232 29.457L34.2676 30.3202L35.3297 30.5288C36.5086 30.7605 37.4162 30.8638 38.2706 30.8638C38.736 30.8651 39.2008 30.8309 39.661 30.7615C39.7364 30.7494 39.8125 30.7433 39.8889 30.7431C40.2123 30.7431 40.4295 30.8629 40.5715 31.1187C40.7453 31.4326 40.7018 31.7473 40.444 32.0293C37.8072 34.9096 34.5543 36.3744 30.784 36.3744C30.7 36.3744 30.6179 36.3744 30.5339 36.3744C28.18 36.3358 26.1147 35.7313 24.398 34.5784L24.0466 34.3428L23.6806 34.5562C23.5387 34.6383 23.4016 34.7233 23.2693 34.8053C23.0275 34.9628 22.776 35.1047 22.5162 35.2302C20.864 35.9905 19.068 36.3879 17.2493 36.3956C16.2701 36.3931 15.2944 36.281 14.3402 36.0616C11.7332 35.4677 9.46813 34.1217 7.6066 32.0583C7.3295 31.7512 7.28026 31.4596 7.45115 31.14C7.59598 30.8696 7.84605 30.7431 8.23805 30.7431H8.28343C8.71116 30.7547 9.1524 30.7596 9.62068 30.7596C10.1874 30.7596 10.7957 30.7518 11.4822 30.7354C11.7692 30.721 12.0543 30.6803 12.3338 30.6137H12.3435C12.4593 30.5896 12.579 30.5645 12.7007 30.5442L13.8226 30.3511L13.1168 29.4579C12.075 28.1399 11.6029 26.5747 11.6299 24.5335C11.6415 23.6123 11.6386 22.6786 11.6357 21.7748V21.7594C11.6357 21.348 11.6357 20.9364 11.6357 20.5244V18.0313L10.4279 19.4903ZM11.8385 33.4081C11.9136 33.4966 12.0059 33.5689 12.1098 33.6206C13.7811 34.4365 15.4891 34.8507 17.1856 34.8507C18.7835 34.8507 20.4046 34.4838 22.0035 33.7596C22.3007 33.6157 22.5607 33.4052 22.7634 33.1445C23.0606 32.7776 23.2271 32.3221 23.2365 31.8499C23.246 31.3778 23.0978 30.916 22.8155 30.5375C22.6208 30.2623 22.3621 30.0385 22.0617 29.8854C21.7613 29.7324 21.4282 29.6546 21.0911 29.6588C20.7981 29.6607 20.5076 29.7136 20.2327 29.8152C19.8465 29.9543 19.4603 30.1001 19.0809 30.241L19.0519 30.2517C18.1646 30.5848 17.2464 30.9276 16.334 31.2066C15.3887 31.4963 14.4029 31.7358 13.449 31.9675C13.028 32.0708 12.5916 32.177 12.1629 32.2861L10.9782 32.5884L11.8385 33.4081ZM26.919 29.6607C26.4945 29.6569 26.0787 29.7815 25.7262 30.0181C25.3737 30.2546 25.1009 30.5922 24.9435 30.9865C24.4753 32.1201 25.0063 33.328 26.2074 33.8581C27.5801 34.4727 29.0621 34.8057 30.5658 34.8372C30.642 34.8372 30.7174 34.8372 30.7927 34.8372C32.659 34.8432 34.4971 34.3821 36.1397 33.496L37.8526 32.5913L35.5353 32.1567L34.9879 32.0534C32.8473 31.6411 30.588 30.942 27.8749 29.8509C27.5705 29.7264 27.2449 29.6618 26.9161 29.6607H26.919ZM13.1622 15.6559C13.1622 16.9498 13.1622 18.2881 13.1622 19.6148C13.1622 20.0854 13.1622 20.5553 13.1622 21.0246C13.1622 22.5145 13.1622 24.0478 13.2057 25.5628C13.2443 26.8943 13.8207 28.0897 14.9195 29.1161C15.185 29.3643 15.5548 29.6482 16.0694 29.6482C16.3205 29.6454 16.5673 29.5821 16.7887 29.4637C16.9976 29.3675 17.2139 29.2884 17.4356 29.2272C17.6036 29.175 17.7726 29.1229 17.9445 29.0582C18.4745 28.8583 19.0065 28.6488 19.5231 28.447L19.5578 28.4335L20.2125 28.1766L20.7783 27.9565L20.6199 27.3704C20.5919 27.2661 20.562 27.1686 20.534 27.0749C20.4887 26.9353 20.452 26.7931 20.4239 26.6491C20.1526 24.941 20.6402 23.3468 21.9128 21.7768C22.5162 21.0323 23.2645 20.6181 24.005 20.6181C24.7456 20.6181 25.491 21.0246 26.0877 21.7671C27.5572 23.6017 27.9878 25.4363 27.4027 27.382L27.2183 27.9941L27.8198 28.2123L28.6888 28.53L28.7178 28.5406C29.6427 28.8776 30.5938 29.2243 31.54 29.5449C31.6646 29.5857 31.7951 29.6059 31.9262 29.6047C32.2409 29.6048 32.5476 29.5058 32.8029 29.3218C34.1652 28.2597 34.8537 26.7466 34.8479 24.8154C34.8411 22.3262 34.843 19.8195 34.8479 17.3959V17.03C34.8479 16.1397 34.8479 15.2494 34.8479 14.3592V13.2034H13.1632C13.1632 13.2034 13.1622 15.0679 13.1622 15.6559ZM23.9973 22.2354C23.6893 22.2354 23.4083 22.3812 23.1641 22.6661C22.3996 23.5303 21.9501 24.6278 21.8886 25.78C21.8718 26.0602 21.9127 26.3408 22.0087 26.6046C22.1047 26.8683 22.2537 27.1096 22.4467 27.3134C22.6466 27.5218 22.8864 27.6877 23.1518 27.8014C23.4172 27.915 23.7028 27.974 23.9915 27.9748C24.2732 27.9762 24.5524 27.9216 24.8128 27.8141C25.0732 27.7066 25.3097 27.5483 25.5083 27.3486C25.707 27.1488 25.8639 26.9115 25.97 26.6505C26.0761 26.3895 26.1292 26.1101 26.1263 25.8283C26.1263 24.8627 25.5209 23.3709 24.8277 22.6419C24.735 22.5444 24.4376 22.2354 23.9973 22.2354ZM35.7342 8.15047C35.7773 8.36161 35.8201 8.57114 35.8626 8.77906C36.0094 9.50132 36.1523 10.183 36.3087 10.8773C36.4197 11.3533 36.9643 11.6092 37.3148 11.6101C37.6653 11.6111 38.0273 11.615 38.3836 11.6179C38.7862 11.6227 39.2429 11.6266 39.6803 11.6266C40.5039 11.6266 41.173 11.6101 41.7851 11.5754C42.5384 11.5332 43.2718 11.3184 43.9289 10.9478C44.586 10.5771 45.1491 10.0604 45.5748 9.43759C46.0104 8.80917 46.2957 8.08897 46.4085 7.33268C46.5214 6.5764 46.4588 5.80429 46.2256 5.07606C45.7428 3.5543 44.701 2.46899 43.1272 1.83847L42.2013 1.46865V2.46609C42.2013 2.56265 42.2013 2.65149 42.2013 2.73356V2.75577C42.2013 2.89771 42.2013 3.02034 42.2013 3.142C42.1472 5.52988 40.3774 7.294 37.9926 7.34035C37.7995 7.34035 37.6044 7.34035 37.4075 7.34035H36.9247H36.9025H36.3975H35.5681L35.7342 8.15047ZM9.55696 11.6169C9.73848 11.6169 9.92096 11.6169 10.1034 11.6169H10.2965C11.2254 11.6169 11.5759 11.418 11.823 10.2438L11.8298 10.2101C11.9263 9.75333 12.0355 9.30144 12.1513 8.82252C12.2041 8.60236 12.2578 8.37899 12.3126 8.1524L12.5163 7.28338L11.627 7.32007C11.2881 7.33359 10.928 7.34711 10.5746 7.34711C9.48744 7.34711 8.34716 7.23606 7.37971 6.42594C6.24425 5.47484 5.73252 4.20511 5.81652 2.53272L5.8648 1.56714L4.93983 1.85681C2.7954 2.52596 1.34808 4.75356 1.57305 7.04198C1.80671 9.42311 3.76286 11.4064 6.02507 11.557C6.83322 11.6101 7.6346 11.6179 8.37999 11.6179H9.56179L9.55696 11.6169ZM24.8006 11.5937H34.7243L34.6731 10.8695C34.3941 6.96956 30.8313 2.3454 25.5615 1.67528L24.8006 1.57873V11.5937ZM22.4573 1.67915C20.0589 1.96882 17.7871 3.15745 16.0598 5.02199C14.4792 6.72817 13.4866 8.85824 13.3341 10.8522L13.279 11.5792H23.2143V1.58742L22.4573 1.67915Z" fill="#F85454"/>
<path d="M14.8693 48.001C14.7696 47.9634 14.6659 47.9375 14.5603 47.9237C9.42275 47.355 5.38783 44.9092 2.56465 40.6539C0.28408 37.2145 -0.220893 33.5327 1.06325 29.71C1.68601 27.8589 2.86009 26.2657 3.927 24.9516C4.58741 24.1376 5.26907 23.3169 5.92852 22.5231C6.76563 21.516 7.62495 20.4819 8.45723 19.4429C9.8022 17.7628 10.6779 16.2662 11.2012 14.7309C11.2582 14.5639 11.2978 14.4045 11.3345 14.2365V14.2259C11.3509 14.1554 11.3683 14.0811 11.3886 14.0019L11.601 13.1599H10.732C10.5167 13.1599 10.3101 13.1599 10.1073 13.1599H9.55503C9.29916 13.1599 9.09254 13.1599 8.90233 13.1512C8.54123 13.1406 8.17626 13.1377 7.82384 13.1358C6.9346 13.1358 6.10328 13.1271 5.29707 12.9929C2.08285 12.4657 -0.279788 9.34103 0.0272484 6.03005C0.341043 2.66694 3.16037 0.018346 6.44508 0H6.45473C7.04756 0 7.33915 0.289675 7.34591 0.869024C7.34591 1.24753 7.34591 1.6328 7.34591 2.00455C7.34591 2.34926 7.34591 2.69204 7.34591 3.03482C7.35943 4.69659 8.43406 5.77997 10.0812 5.79542H10.3912C10.6007 5.79542 10.8102 5.79542 11.0207 5.79542H11.039C11.2389 5.79542 11.4378 5.79542 11.6377 5.79542C12.0017 5.79542 12.2952 5.79542 12.5626 5.81183H12.6592C13.3766 5.81183 13.7695 5.4256 14.0312 5.08282C16.6265 1.72163 19.9363 0.0164147 23.8679 0.0164147C24.4738 0.0177191 25.079 0.0557692 25.6802 0.130354C29.0933 0.546519 31.9146 2.25463 34.0668 5.19579C34.2599 5.45746 34.5852 5.80701 35.2138 5.80701H35.2514C35.5334 5.80121 35.8308 5.79831 36.217 5.79831H36.7789H37.3447C37.5423 5.79831 37.7402 5.79831 37.9385 5.79831C39.5702 5.78093 40.6371 4.7101 40.6564 3.07055C40.6564 2.67756 40.6564 2.2836 40.6564 1.90316C40.6564 1.56907 40.6564 1.23498 40.6564 0.899922C40.6564 0.279054 40.9393 0.00193157 41.5582 0.00193157H41.5737C44.4867 0.0251055 47.1737 2.21311 47.8187 5.08958C47.8554 5.25083 47.9674 5.74907 47.9925 5.86204V7.30076C47.9555 7.39251 47.9286 7.48802 47.9123 7.58561C47.4296 10.6755 44.9298 12.9542 41.8353 13.1261C41.1469 13.1638 40.473 13.1696 39.9043 13.1696H39.1242H39.074C38.8287 13.1696 38.5835 13.1696 38.3382 13.1696H37.8709H36.217L36.5723 14.0888C36.6495 14.2896 36.72 14.4808 36.7876 14.6681C36.9363 15.0708 37.0773 15.4474 37.2472 15.8191C38.1277 17.7319 39.436 19.3483 40.5898 20.7735C41.0822 21.3818 41.5901 21.993 42.0816 22.583L42.0922 22.5956C43.1543 23.8769 44.2588 25.2026 45.2494 26.5544C47.7386 29.9697 48.3256 33.6312 46.9874 37.4365C45.2166 42.4914 41.5621 45.8564 36.1233 47.439C35.4431 47.6203 34.752 47.7577 34.0542 47.8503C33.7375 47.8996 33.4141 47.9469 33.0887 48.0087L14.8693 48.001ZM10.4279 19.4903C10.0581 19.9402 9.69503 20.3796 9.33682 20.8131C8.52192 21.797 7.75336 22.7259 6.98481 23.6857C6.72411 24.0111 6.46053 24.3336 6.19597 24.6571L6.18632 24.6696C5.3299 25.7173 4.44837 26.8007 3.67596 27.9526C1.60588 31.0598 1.29401 34.4423 2.77223 37.7349C4.00424 40.4791 5.73252 42.613 7.90881 44.0749C10.0851 45.5368 12.7123 46.3295 15.7083 46.4203C18.0449 46.4918 20.5205 46.5265 23.2761 46.5265C26.3783 46.5265 29.4863 46.4811 32.1183 46.4377C37.4905 46.3479 41.6548 43.9368 44.4983 39.2692C46.129 36.5926 46.5201 33.7171 45.6627 30.7219C45.1616 28.9703 44.1961 27.5413 42.9013 25.9336C41.6065 24.3259 40.2944 22.725 39.0276 21.1752L37.756 19.6206C37.6571 19.5028 37.5264 19.416 37.3795 19.3705C37.364 19.3647 37.3505 19.3609 37.335 19.3541L36.3908 18.9457V20.6625C36.3908 21.1568 36.3908 21.6387 36.3908 22.1205V22.8176C36.3908 23.6268 36.3908 24.4591 36.3715 25.2915C36.3598 26.8014 35.8507 28.2655 34.9232 29.457L34.2676 30.3202L35.3297 30.5288C36.5086 30.7605 37.4162 30.8638 38.2706 30.8638C38.736 30.8651 39.2008 30.8309 39.661 30.7615C39.7364 30.7494 39.8125 30.7433 39.8889 30.7431C40.2123 30.7431 40.4295 30.8629 40.5715 31.1187C40.7453 31.4326 40.7018 31.7473 40.444 32.0293C37.8072 34.9096 34.5543 36.3744 30.784 36.3744C30.7 36.3744 30.6179 36.3744 30.5339 36.3744C28.18 36.3358 26.1147 35.7313 24.398 34.5784L24.0466 34.3428L23.6806 34.5562C23.5387 34.6383 23.4016 34.7233 23.2693 34.8053C23.0275 34.9628 22.776 35.1047 22.5162 35.2302C20.864 35.9905 19.068 36.3879 17.2493 36.3956C16.2701 36.3931 15.2944 36.281 14.3402 36.0616C11.7332 35.4677 9.46813 34.1217 7.6066 32.0583C7.3295 31.7512 7.28026 31.4596 7.45115 31.14C7.59598 30.8696 7.84605 30.7431 8.23805 30.7431H8.28343C8.71116 30.7547 9.1524 30.7596 9.62068 30.7596C10.1874 30.7596 10.7957 30.7518 11.4822 30.7354C11.7692 30.721 12.0543 30.6803 12.3338 30.6137H12.3435C12.4593 30.5896 12.579 30.5645 12.7007 30.5442L13.8226 30.3511L13.1168 29.4579C12.075 28.1399 11.6029 26.5747 11.6299 24.5335C11.6415 23.6123 11.6386 22.6786 11.6357 21.7748V21.7594C11.6357 21.348 11.6357 20.9364 11.6357 20.5244V18.0313L10.4279 19.4903ZM11.8385 33.4081C11.9136 33.4966 12.0059 33.5689 12.1098 33.6206C13.7811 34.4365 15.4891 34.8507 17.1856 34.8507C18.7835 34.8507 20.4046 34.4838 22.0035 33.7596C22.3007 33.6157 22.5607 33.4052 22.7634 33.1445C23.0606 32.7776 23.2271 32.3221 23.2365 31.8499C23.246 31.3778 23.0978 30.916 22.8155 30.5375C22.6208 30.2623 22.3621 30.0385 22.0617 29.8854C21.7613 29.7324 21.4282 29.6546 21.0911 29.6588C20.7981 29.6607 20.5076 29.7136 20.2327 29.8152C19.8465 29.9543 19.4603 30.1001 19.0809 30.241L19.0519 30.2517C18.1646 30.5848 17.2464 30.9276 16.334 31.2066C15.3887 31.4963 14.4029 31.7358 13.449 31.9675C13.028 32.0708 12.5916 32.177 12.1629 32.2861L10.9782 32.5884L11.8385 33.4081ZM26.919 29.6607C26.4945 29.6569 26.0787 29.7815 25.7262 30.0181C25.3737 30.2546 25.1009 30.5922 24.9435 30.9865C24.4753 32.1201 25.0063 33.328 26.2074 33.8581C27.5801 34.4727 29.0621 34.8057 30.5658 34.8372C30.642 34.8372 30.7174 34.8372 30.7927 34.8372C32.659 34.8432 34.4971 34.3821 36.1397 33.496L37.8526 32.5913L35.5353 32.1567L34.9879 32.0534C32.8473 31.6411 30.588 30.942 27.8749 29.8509C27.5705 29.7264 27.2449 29.6618 26.9161 29.6607H26.919ZM13.1622 15.6559C13.1622 16.9498 13.1622 18.2881 13.1622 19.6148C13.1622 20.0854 13.1622 20.5553 13.1622 21.0246C13.1622 22.5145 13.1622 24.0478 13.2057 25.5628C13.2443 26.8943 13.8207 28.0897 14.9195 29.1161C15.185 29.3643 15.5548 29.6482 16.0694 29.6482C16.3205 29.6454 16.5673 29.5821 16.7887 29.4637C16.9976 29.3675 17.2139 29.2884 17.4356 29.2272C17.6036 29.175 17.7726 29.1229 17.9445 29.0582C18.4745 28.8583 19.0065 28.6488 19.5231 28.447L19.5578 28.4335L20.2125 28.1766L20.7783 27.9565L20.6199 27.3704C20.5919 27.2661 20.562 27.1686 20.534 27.0749C20.4887 26.9353 20.452 26.7931 20.4239 26.6491C20.1526 24.941 20.6402 23.3468 21.9128 21.7768C22.5162 21.0323 23.2645 20.6181 24.005 20.6181C24.7456 20.6181 25.491 21.0246 26.0877 21.7671C27.5572 23.6017 27.9878 25.4363 27.4027 27.382L27.2183 27.9941L27.8198 28.2123L28.6888 28.53L28.7178 28.5406C29.6427 28.8776 30.5938 29.2243 31.54 29.5449C31.6646 29.5857 31.7951 29.6059 31.9262 29.6047C32.2409 29.6048 32.5476 29.5058 32.8029 29.3218C34.1652 28.2597 34.8537 26.7466 34.8479 24.8154C34.8411 22.3262 34.843 19.8195 34.8479 17.3959V17.03C34.8479 16.1397 34.8479 15.2494 34.8479 14.3592V13.2034H13.1632C13.1632 13.2034 13.1622 15.0679 13.1622 15.6559ZM23.9973 22.2354C23.6893 22.2354 23.4083 22.3812 23.1641 22.6661C22.3996 23.5303 21.9501 24.6278 21.8886 25.78C21.8718 26.0602 21.9127 26.3408 22.0087 26.6046C22.1047 26.8683 22.2537 27.1096 22.4467 27.3134C22.6466 27.5218 22.8864 27.6877 23.1518 27.8014C23.4172 27.915 23.7028 27.974 23.9915 27.9748C24.2732 27.9762 24.5524 27.9216 24.8128 27.8141C25.0732 27.7066 25.3097 27.5483 25.5083 27.3486C25.707 27.1488 25.8639 26.9115 25.97 26.6505C26.0761 26.3895 26.1292 26.1101 26.1263 25.8283C26.1263 24.8627 25.5209 23.3709 24.8277 22.6419C24.735 22.5444 24.4376 22.2354 23.9973 22.2354ZM35.7342 8.15047C35.7773 8.36161 35.8201 8.57114 35.8626 8.77906C36.0094 9.50132 36.1523 10.183 36.3087 10.8773C36.4197 11.3533 36.9643 11.6092 37.3148 11.6101C37.6653 11.6111 38.0273 11.615 38.3836 11.6179C38.7862 11.6227 39.2429 11.6266 39.6803 11.6266C40.5039 11.6266 41.173 11.6101 41.7851 11.5754C42.5384 11.5332 43.2718 11.3184 43.9289 10.9478C44.586 10.5771 45.1491 10.0604 45.5748 9.43759C46.0104 8.80917 46.2957 8.08897 46.4085 7.33268C46.5214 6.5764 46.4588 5.80429 46.2256 5.07606C45.7428 3.5543 44.701 2.46899 43.1272 1.83847L42.2013 1.46865V2.46609C42.2013 2.56265 42.2013 2.65149 42.2013 2.73356V2.75577C42.2013 2.89771 42.2013 3.02034 42.2013 3.142C42.1472 5.52988 40.3774 7.294 37.9926 7.34035C37.7995 7.34035 37.6044 7.34035 37.4075 7.34035H36.9247H36.9025H36.3975H35.5681L35.7342 8.15047ZM9.55696 11.6169C9.73848 11.6169 9.92096 11.6169 10.1034 11.6169H10.2965C11.2254 11.6169 11.5759 11.418 11.823 10.2438L11.8298 10.2101C11.9263 9.75333 12.0355 9.30144 12.1513 8.82252C12.2041 8.60236 12.2578 8.37899 12.3126 8.1524L12.5163 7.28338L11.627 7.32007C11.2881 7.33359 10.928 7.34711 10.5746 7.34711C9.48744 7.34711 8.34716 7.23606 7.37971 6.42594C6.24425 5.47484 5.73252 4.20511 5.81652 2.53272L5.8648 1.56714L4.93983 1.85681C2.7954 2.52596 1.34808 4.75356 1.57305 7.04198C1.80671 9.42311 3.76286 11.4064 6.02507 11.557C6.83322 11.6101 7.6346 11.6179 8.37999 11.6179H9.56179L9.55696 11.6169ZM24.8006 11.5937H34.7243L34.6731 10.8695C34.3941 6.96956 30.8313 2.3454 25.5615 1.67528L24.8006 1.57873V11.5937ZM22.4573 1.67915C20.0589 1.96882 17.7871 3.15745 16.0598 5.02199C14.4792 6.72817 13.4866 8.85824 13.3341 10.8522L13.279 11.5792H23.2143V1.58742L22.4573 1.67915Z" stroke="#F85454" stroke-width="0.2" mask="url(#path-1-outside-1_28_84)"/>
<path d="M19.0225 17.2832C19.0246 16.8318 18.6684 16.4294 18.239 16.419L18.239 16.419H18.2378H18.2165C18.0076 16.419 17.8048 16.5049 17.6529 16.6366C17.5011 16.7682 17.3957 16.9494 17.3893 17.1433L17.3893 17.1433C17.3741 17.6218 17.7219 18.0327 18.1729 18.0513L18.1729 18.0514H18.175H18.2001C18.3982 18.0514 18.6029 17.9497 18.7568 17.807C18.9103 17.6647 19.0224 17.4729 19.0225 17.2832ZM19.0225 17.2832L18.9725 17.283M19.0225 17.2832C19.0225 17.2831 19.0225 17.2831 19.0225 17.283H18.9725M18.9725 17.283C18.9725 17.6248 18.5641 18.0014 18.2001 18.0014H18.175C17.755 17.984 17.4248 17.5997 17.4393 17.1449C17.4509 16.7915 17.8255 16.469 18.2165 16.469H18.2378C18.6365 16.4786 18.9745 16.8552 18.9725 17.283Z" fill="#F85454" stroke="#F85454" stroke-width="0.1"/>
<path d="M30.5704 17.2811C30.5704 17.6432 30.19 18.0004 29.8057 18.0024H29.8028C29.4098 18.0024 29.0381 17.5997 29.0371 17.1729L30.0962 16.525C30.1852 16.5618 30.266 16.616 30.3338 16.6843C30.4107 16.7633 30.4711 16.8567 30.5117 16.9591C30.5523 17.0615 30.5723 17.1709 30.5704 17.2811ZM30.5704 17.2811L30.6204 17.2819C30.6204 17.2818 30.6204 17.2816 30.6204 17.2815C30.6204 17.2814 30.6204 17.2812 30.6204 17.2811H30.5704ZM28.9871 17.1729L28.9871 17.173L29.8151 16.42C29.6074 16.421 29.4014 16.5164 29.2479 16.6551C29.0948 16.7934 28.9871 16.9812 28.9871 17.1729Z" fill="#F85454" stroke="#F85454" stroke-width="0.1"/>
</g>
<defs>
<clipPath id="clip0_28_84">
<rect width="48" height="48" fill="white"/>
</clipPath>
</defs>
</svg>
