<svg width="24" height="24" viewBox="0 0 24 24" fill="none" xmlns="http://www.w3.org/2000/svg">
<g clip-path="url(#clip0_2601_33467)">
<path d="M12 24.0003C5.41433 24.0003 0.0565186 18.6425 0.0565186 12.0568C0.0565186 5.47109 5.41433 0.113281 12 0.113281C18.5856 0.113281 23.9435 5.47109 23.9435 12.0568C23.9435 18.6425 18.5856 24.0003 12 24.0003Z" fill="#E5E4DF"/>
<path d="M21.134 19.7428C20.7946 20.1459 20.429 20.5263 20.0397 20.8816C18.2346 18.3142 17.262 15.2604 17.262 12.057C17.262 8.85358 18.2346 5.79981 20.0397 3.23242C20.429 3.58766 20.7945 3.96805 21.134 4.37116C19.6212 6.6272 18.8084 9.27958 18.8084 12.057C18.8084 14.8344 19.6212 17.4868 21.134 19.7428ZM2.86597 4.37116C4.37876 6.6272 5.19158 9.27958 5.19158 12.057C5.19158 14.8344 4.37876 17.4868 2.86597 19.7428C3.20543 20.1459 3.57096 20.5263 3.96022 20.8816C5.76537 18.3142 6.73798 15.2604 6.73798 12.057C6.73798 8.85358 5.76537 5.79981 3.96022 3.23242C3.57095 3.58766 3.20542 3.96805 2.86597 4.37116Z" fill="#BFBCAF"/>
<path d="M3.87584 6.78764C3.49301 6.78764 3.11112 6.6848 2.76598 6.47766C2.49181 6.31312 2.40294 5.95748 2.56751 5.68331C2.73205 5.40909 3.08769 5.32026 3.36186 5.48484C3.7122 5.69517 4.13065 5.67581 4.48119 5.43314C4.83176 5.19051 4.99719 4.80567 4.92378 4.40376C4.86631 4.08923 5.07476 3.78764 5.38934 3.73022C5.70369 3.6728 6.00542 3.8812 6.06289 4.19578C6.218 5.04506 5.86442 5.88403 5.1402 6.38526C4.75362 6.65278 4.31412 6.78764 3.87584 6.78764ZM5.86344 9.53906C6.69903 9.26044 7.2732 8.55389 7.36189 7.69514C7.39475 7.37709 7.16356 7.09261 6.84547 7.05975C6.5277 7.0267 6.24294 7.25808 6.21008 7.57617C6.16808 7.98258 5.90155 8.30573 5.49715 8.44064C5.09276 8.57541 4.68561 8.47701 4.40811 8.17711C4.19089 7.9424 3.82461 7.9283 3.58991 8.14542C3.35525 8.36259 3.34105 8.72892 3.55822 8.96362C3.97681 9.41592 4.54667 9.65775 5.1425 9.65775C5.38128 9.65766 5.62433 9.6188 5.86344 9.53906ZM7.64248 15.2072C7.82033 14.9415 7.74912 14.5819 7.48339 14.4041C7.2177 14.2261 6.85808 14.2974 6.68023 14.5632C6.45298 14.9027 6.0664 15.0637 5.64565 14.9936C5.22514 14.9235 4.91141 14.646 4.80645 14.2511C4.72433 13.9421 4.40717 13.758 4.09822 13.8403C3.78917 13.9224 3.60523 14.2395 3.68736 14.5485C3.90912 15.3828 4.58661 15.991 5.45539 16.1357C5.58369 16.1571 5.71114 16.1675 5.83705 16.1675C6.56375 16.1675 7.23317 15.8188 7.64248 15.2072ZM6.55756 19.0129C6.80267 18.8075 6.83492 18.4424 6.62956 18.1973C6.42415 17.9522 6.059 17.92 5.81394 18.1253C5.50076 18.3877 5.08442 18.434 4.70028 18.2491C4.31614 18.0642 4.09259 17.7099 4.1023 17.3015C4.10989 16.9818 3.85695 16.7165 3.53726 16.7089C3.53259 16.7087 3.52792 16.7087 3.52325 16.7087C3.20989 16.7087 2.95222 16.959 2.94472 17.2739C2.92419 18.137 3.40447 18.9104 4.19811 19.2924C4.51339 19.4442 4.84606 19.5187 5.17409 19.5187C5.67172 19.5187 6.1587 19.347 6.55756 19.0129ZM6.04226 12.7504C6.91653 12.6435 7.6197 12.0652 7.87742 11.2413C7.97286 10.9361 7.80284 10.6113 7.49769 10.5159C7.19239 10.4204 6.86773 10.5905 6.7723 10.8956C6.65033 11.2856 6.32487 11.5493 5.90169 11.601C5.4784 11.6528 5.09905 11.4752 4.88675 11.1262C4.72058 10.8531 4.36442 10.7663 4.09119 10.9325C3.818 11.0986 3.73128 11.4548 3.89745 11.728C4.2972 12.3852 4.99315 12.7678 5.75858 12.7678C5.8534 12.7677 5.94814 12.7619 6.04226 12.7504ZM21.2143 6.47766C21.4886 6.31312 21.5774 5.95748 21.4129 5.68331C21.2483 5.40914 20.8926 5.32026 20.6185 5.48484C20.2682 5.69512 19.8497 5.67581 19.4991 5.43314C19.1486 5.19051 18.9831 4.80567 19.0565 4.40376C19.114 4.08923 18.9056 3.78764 18.591 3.73022C18.277 3.67298 17.9749 3.88116 17.9174 4.19578C17.7623 5.04501 18.1159 5.88403 18.8401 6.38526C19.2267 6.65283 19.6662 6.78769 20.1045 6.78769C20.4873 6.78764 20.8693 6.6848 21.2143 6.47766ZM20.4222 8.96358C20.6393 8.72887 20.6251 8.36259 20.3904 8.14537C20.1558 7.92825 19.7895 7.94245 19.5723 8.17706C19.2948 8.47692 18.8877 8.5755 18.4832 8.44059C18.0788 8.30573 17.8123 7.98258 17.7703 7.57612C17.7374 7.25803 17.4535 7.02637 17.1349 7.0597C16.8168 7.09256 16.5856 7.37705 16.6184 7.69509C16.7072 8.55384 17.2813 9.26044 18.1169 9.53901C18.356 9.61875 18.599 9.65761 18.8379 9.65761C19.4337 9.65765 20.0036 9.41583 20.4222 8.96358ZM18.5249 16.1357C19.3937 15.991 20.0712 15.3828 20.293 14.5485C20.3751 14.2395 20.1912 13.9224 19.8822 13.8403C19.5728 13.7579 19.256 13.9421 19.1739 14.2511C19.069 14.646 18.7552 14.9235 18.3347 14.9936C17.9139 15.0636 17.5274 14.9027 17.3001 14.5632C17.1223 14.2974 16.7627 14.2261 16.497 14.4041C16.2312 14.5819 16.16 14.9415 16.3378 15.2072C16.7472 15.8188 17.4165 16.1675 18.1433 16.1675C18.2691 16.1675 18.3967 16.1571 18.5249 16.1357ZM19.7823 19.2924C20.5759 18.9105 21.0562 18.137 21.0357 17.2739C21.0281 16.9543 20.7623 16.6997 20.4431 16.7088C20.1234 16.7164 19.8704 16.9817 19.878 17.3014C19.8877 17.7099 19.6642 18.0641 19.28 18.249C18.8958 18.4339 18.4796 18.3877 18.1663 18.1252C17.9212 17.92 17.556 17.9522 17.3507 18.1972C17.1454 18.4424 17.1776 18.8075 17.4227 19.0128C17.8216 19.347 18.3085 19.5187 18.8062 19.5187C19.1343 19.5187 19.467 19.4441 19.7823 19.2924ZM20.0828 11.728C20.249 11.4548 20.1623 11.0986 19.8891 10.9325C19.616 10.7664 19.2598 10.853 19.0936 11.1262C18.8812 11.4752 18.5018 11.6529 18.0786 11.601C17.6555 11.5492 17.33 11.2855 17.208 10.8956C17.1126 10.5904 16.7877 10.4205 16.4826 10.5158C16.1774 10.6113 16.0074 10.936 16.1029 11.2412C16.3605 12.0652 17.0637 12.6435 17.938 12.7504C18.0321 12.7619 18.1269 12.7677 18.2217 12.7677C18.9871 12.7678 19.6831 12.3851 20.0828 11.728Z" fill="#FF473E"/>
</g>
<defs>
<clipPath id="clip0_2601_33467">
<rect width="24" height="24" fill="white"/>
</clipPath>
</defs>
</svg>
