<svg width="24" height="24" viewBox="0 0 24 24" fill="none" xmlns="http://www.w3.org/2000/svg">
<path d="M12.0002 22.5C17.7992 22.5 22.5002 17.799 22.5002 12C22.5002 6.201 17.7992 1.5 12.0002 1.5C6.20124 1.5 1.50024 6.201 1.50024 12C1.50024 17.799 6.20124 22.5 12.0002 22.5Z" fill="#FF6723"/>
<path d="M1.52251 11.3167C1.50457 11.5885 1.49707 11.861 1.50001 12.1334C1.76036 12.0325 2.01749 11.9234 2.27101 11.8064C3.09376 11.4284 4.16926 10.8374 5.16451 9.98767C5.89201 9.36667 6.58201 8.60317 7.09651 7.67842C7.69651 7.99117 8.26876 8.31592 8.81551 8.64892C7.52412 10.1673 6.48719 11.8847 5.74501 13.7347C5.11723 15.2982 4.71422 16.9428 4.54801 18.6194C4.52251 18.8827 4.50601 19.1249 4.49551 19.3432C4.72801 19.5817 4.97326 19.8089 5.22826 20.0249C5.22826 19.7002 5.24101 19.2457 5.29426 18.6914C5.45366 17.0858 5.84 15.5108 6.44176 14.0137C7.16748 12.205 8.18667 10.5285 9.45826 9.05167C10.2158 9.54 10.9499 10.0638 11.658 10.6214C11.1801 11.1565 10.773 11.7509 10.4468 12.3899C8.83051 15.5377 9.05851 19.7557 11.3955 22.4819C11.7424 22.5017 12.0901 22.5044 12.4373 22.4902C9.90151 20.0767 9.50476 15.8654 11.1143 12.7327C11.4195 12.1379 11.796 11.5852 12.2415 11.0939C13.6044 12.2263 14.8545 13.4879 15.9743 14.8612C17.0333 16.1538 17.9595 17.5499 18.7388 19.0282C18.8768 19.2914 18.9938 19.5307 19.0928 19.7407C19.2878 19.5622 19.476 19.3762 19.6575 19.1827C19.5753 19.0143 19.4908 18.847 19.404 18.6809C18.6011 17.1577 17.6468 15.7192 16.5555 14.3872C15.5505 13.1534 14.3055 11.8417 12.777 10.5644C13.5016 9.92006 14.3573 9.44031 15.285 9.15817C17.1128 8.59867 19.4513 8.70067 22.29 9.90217C22.2284 9.59897 22.1534 9.29868 22.065 9.00217C19.3275 7.94467 16.98 7.85467 15.0653 8.44117C13.9954 8.76665 13.0124 9.32851 12.189 10.0852C11.4726 9.51754 10.73 8.98371 9.96376 8.48542C11.7668 6.54517 14.2538 4.67992 17.6828 3.16867C17.4247 3.00235 17.1594 2.84745 16.8878 2.70442C13.5548 4.24492 11.1098 6.12292 9.31876 8.07742C8.71876 7.70842 8.08876 7.34992 7.42726 7.00492C7.48584 6.86724 7.53987 6.72766 7.58926 6.58642C8.00926 5.39092 8.12551 3.99667 7.76251 2.38867C7.52626 2.49367 7.29451 2.60617 7.06801 2.72617C7.35526 4.13167 7.23676 5.32642 6.88201 6.33817C6.84313 6.44835 6.80112 6.55739 6.75601 6.66517C5.80141 6.1972 4.82449 5.77619 3.82876 5.40367C3.66526 5.60617 3.50851 5.81542 3.36001 6.02992C4.40463 6.41269 5.42852 6.84978 6.42751 7.33942C5.96626 8.15767 5.34751 8.84542 4.67776 9.41692C3.75076 10.2082 2.74051 10.7654 1.95751 11.1254C1.80226 11.1967 1.65526 11.2604 1.52101 11.3167H1.52251Z" fill="#212121"/>
</svg>
