<svg width="22" height="22" viewBox="0 0 22 22" fill="none" xmlns="http://www.w3.org/2000/svg">
<path d="M11 0.5C8.9233 0.5 6.89323 1.11581 5.16652 2.26957C3.4398 3.42332 2.09399 5.0632 1.29927 6.98182C0.504549 8.90045 0.296614 11.0116 0.701759 13.0484C1.1069 15.0852 2.10693 16.9562 3.57538 18.4246C5.04383 19.8931 6.91476 20.8931 8.95156 21.2982C10.9884 21.7034 13.0996 21.4955 15.0182 20.7007C16.9368 19.906 18.5767 18.5602 19.7304 16.8335C20.8842 15.1068 21.5 13.0767 21.5 11C21.4968 8.2162 20.3896 5.54733 18.4211 3.57889C16.4527 1.61044 13.7838 0.503176 11 0.5ZM19.9625 10.25H15.53C15.718 8.30924 16.4276 6.4555 17.5835 4.88525C18.9566 6.35552 19.7946 8.2453 19.9625 10.25ZM11.75 10.25V2.0375C13.465 2.18038 15.1023 2.81529 16.4653 3.866C15.0619 5.71857 14.2171 7.93347 14.03 10.25H11.75ZM10.25 10.25H7.97001C7.78296 7.93347 6.93806 5.71857 5.53475 3.866C6.8978 2.81556 8.53508 2.18091 10.25 2.03825V10.25ZM10.25 11.75V19.9625C8.53501 19.8196 6.89771 19.1847 5.53475 18.134C6.93806 16.2814 7.78296 14.0665 7.97001 11.75H10.25ZM11.75 11.75H14.03C14.2173 14.0666 15.0624 16.2815 16.466 18.134C15.1028 19.1846 13.4652 19.8192 11.75 19.9618V11.75ZM4.415 4.88525C5.57148 6.45534 6.28157 8.30909 6.47 10.25H2.03825C2.20574 8.24548 3.04322 6.35573 4.41575 4.88525H4.415ZM2.0375 11.75H6.47C6.28201 13.6908 5.57245 15.5445 4.4165 17.1147C3.04343 15.6445 2.2054 13.7547 2.0375 11.75ZM17.585 17.1147C16.4285 15.5447 15.7184 13.6909 15.53 11.75H19.961C19.7935 13.7545 18.956 15.6443 17.5835 17.1147H17.585Z" fill="white"/>
</svg>
