<svg width="46" height="46" viewBox="0 0 46 46" fill="none" xmlns="http://www.w3.org/2000/svg">
<path d="M33.5417 28.2708C39.7503 26.5671 46 18.7407 46 6.81481C46 6.24691 45.4356 5.67901 44.8712 5.67901H38.3804V3.12346C38.0982 1.41975 36.6871 0 34.9939 0H10.7239C9.03067 0 7.61963 1.41975 7.61963 3.12346V5.67901H1.12883C0.564417 5.67901 0 6.24691 0 6.81481C0 18.7407 6.24974 26.5671 12.4583 28.2708C14.4338 30.2585 17.1912 31.8025 19.1667 32.9383V37.7654H18.0613C15.2393 37.7654 12.9816 40.037 12.9816 42.8765V44.8642C12.9816 45.4321 13.546 46 14.1104 46H31.0429C31.6074 46 32.1718 45.4321 32.1718 44.8642V42.8765C32.1718 40.037 29.9141 37.7654 27.092 37.7654H26.8098V32.9383C28.7853 32.0864 31.284 30.2585 33.5417 28.2708ZM21.1656 37.7654V34.0741C21.7301 34.358 22.2945 34.5 22.2945 34.5H23H23.4792C23.4792 34.5 24.3816 34.358 24.9461 34.0741V37.7654H21.1656ZM9.58333 17.321V7.38272C9.58333 7.38272 9.58333 7.09877 9.58333 6.81481V6.53086V3.12346C9.58333 2.39583 10.0625 1.91667 10.4417 1.91667H34.9939C35.9375 1.91667 36.4167 2.39583 36.5166 3.12346V17.321C36.5166 26.6914 25.5399 31.7315 23 32.5833C21.0245 31.7315 9.86554 26.6914 9.58333 17.321ZM9.58333 24.9167C5.75 22.0417 2.19888 14.4815 1.91667 7.66667H7.61963V17.321C7.61963 19.5926 8.73671 23.213 9.58333 24.9167ZM38.0982 17.321V7.66667H44.0833C43.8011 14.7654 39.7826 23.5857 35.4583 24.9167C36.5872 22.929 38.0982 19.8765 38.0982 17.321ZM30.6667 44.4028H14.5631V43.8349C14.375 41.2083 16.2917 39.2917 18.0613 39.3627H20.0368H25.681H27.6564C29.7083 39.2917 30.6667 41.6875 30.6667 43.8349V44.4028Z" fill="#F85454"/>
</svg>
