<svg width="16" height="20" viewBox="0 0 16 20" fill="none" xmlns="http://www.w3.org/2000/svg">
<path d="M15.339 12.4902L14.339 10.8302C14.129 10.4602 13.939 9.76016 13.939 9.35016V6.82016C13.9378 5.70419 13.6206 4.61137 13.0243 3.66813C12.4279 2.72489 11.5766 1.96978 10.569 1.49016C10.3118 1.0335 9.93666 0.654303 9.48281 0.392195C9.02896 0.130087 8.51304 -0.00530784 7.98897 0.000159243C6.89897 0.000159243 5.91897 0.590159 5.39897 1.52016C3.44897 2.49016 2.09897 4.50016 2.09897 6.82016V9.35016C2.09897 9.76016 1.90897 10.4602 1.69897 10.8202L0.688966 12.4902C0.288966 13.1602 0.198966 13.9002 0.448966 14.5802C0.688966 15.2502 1.25897 15.7702 1.99897 16.0202C3.93897 16.6802 5.97897 17.0002 8.01897 17.0002C10.059 17.0002 12.099 16.6802 14.039 16.0302C14.739 15.8002 15.279 15.2702 15.539 14.5802C15.799 13.8902 15.729 13.1302 15.339 12.4902ZM10.829 18.0102C10.6187 18.5923 10.2342 19.0956 9.72792 19.4516C9.2216 19.8077 8.61794 19.9992 7.99897 20.0002C7.20897 20.0002 6.42897 19.6802 5.87897 19.1102C5.55897 18.8102 5.31897 18.4102 5.17897 18.0002C5.30897 18.0202 5.43897 18.0302 5.57897 18.0502C5.80897 18.0802 6.04897 18.1102 6.28897 18.1302C6.85897 18.1802 7.43897 18.2102 8.01897 18.2102C8.58897 18.2102 9.15897 18.1802 9.71897 18.1302C9.92897 18.1102 10.139 18.1002 10.339 18.0702L10.829 18.0102Z" fill="#b5b5b5"/>
</svg>
