<svg width="16" height="20" viewBox="0 0 16 20" fill="none" xmlns="http://www.w3.org/2000/svg">
<path d="M6.09453 18.6145C6.14491 18.6194 6.19554 18.6241 6.24627 18.6283C6.24666 18.6284 6.24705 18.6284 6.24744 18.6284L6.28897 18.1302C6.85897 18.1802 7.43897 18.2102 8.01897 18.2102C8.58897 18.2102 9.15897 18.1802 9.71897 18.1302C9.78716 18.1237 9.85535 18.1182 9.9232 18.1128C10.036 18.1038 10.1478 18.0949 10.2572 18.0813C10.1639 18.274 10.0467 18.4535 9.9086 18.6157C9.91896 18.6149 9.92944 18.614 9.94004 18.6132C10.0873 18.6014 10.2555 18.5879 10.4061 18.5657L6.09453 18.6145ZM6.09453 18.6145C6.13496 18.6606 6.17715 18.7043 6.22094 18.7454L6.23008 18.754L6.23878 18.763C6.69122 19.2319 7.33957 19.5 7.99825 19.5002L6.09453 18.6145ZM14.9107 12.7482L14.912 12.7503C15.2223 13.2595 15.2765 13.8586 15.0711 14.4039C14.8627 14.9568 14.4345 15.3739 13.8829 15.5551L13.8829 15.5551L13.8801 15.5561C11.9932 16.1883 10.007 16.5002 8.01897 16.5002C6.03097 16.5002 4.04559 16.1883 2.16001 15.5468L2.159 15.5465C1.54195 15.338 1.10088 14.9174 0.919678 14.4115L0.919694 14.4115L0.918255 14.4076C0.726219 13.8853 0.786589 13.3027 1.11759 12.7476C1.11782 12.7472 1.11805 12.7468 1.11828 12.7465L2.12681 11.0789L2.12686 11.0789L2.13086 11.0721C2.26653 10.8395 2.3805 10.5282 2.4602 10.2351C2.5398 9.94231 2.59897 9.6171 2.59897 9.35016V6.82016C2.59897 4.6992 3.83308 2.85753 5.62165 1.96783L5.75998 1.89902L5.83538 1.76418C6.26826 0.989992 7.08262 0.500159 7.98897 0.500159V0.500186L7.99418 0.500132C8.4287 0.495599 8.85646 0.607858 9.23275 0.825176C9.60905 1.04249 9.92007 1.35689 10.1333 1.73552L10.211 1.87354L10.3541 1.94163C11.2765 2.38067 12.0557 3.0719 12.6016 3.93534C13.1476 4.79878 13.4379 5.79914 13.439 6.8207V9.35016C13.439 9.61709 13.4981 9.94225 13.5776 10.2358C13.6573 10.5305 13.7707 10.8419 13.9041 11.077L13.904 11.077L13.9107 11.0882L14.9107 12.7482Z" stroke="#b5b5b5"/>
</svg>
