<svg width="16" height="16" viewBox="0 0 16 16" fill="none" xmlns="http://www.w3.org/2000/svg">
<path d="M12.8926 9.65978L12.226 8.55311C12.086 8.30645 11.9593 7.83978 11.9593 7.56645V5.87978C11.9585 5.1358 11.7471 4.40726 11.3495 3.77843C10.9519 3.1496 10.3844 2.64619 9.71264 2.32645C9.54119 2.02201 9.29111 1.76921 8.98854 1.59447C8.68597 1.41973 8.34203 1.32947 7.99264 1.33311C7.26598 1.33311 6.61264 1.72645 6.26598 2.34645C4.96598 2.99311 4.06598 4.33311 4.06598 5.87978V7.56645C4.06598 7.83978 3.93931 8.30645 3.79931 8.54645L3.12598 9.65978C2.85931 10.1064 2.79931 10.5998 2.96598 11.0531C3.12598 11.4998 3.50598 11.8464 3.99931 12.0131C5.29264 12.4531 6.65264 12.6664 8.01264 12.6664C9.37264 12.6664 10.7326 12.4531 12.026 12.0198C12.4926 11.8664 12.8526 11.5131 13.026 11.0531C13.1993 10.5931 13.1526 10.0864 12.8926 9.65978ZM9.88598 13.3398C9.74578 13.7279 9.4895 14.0634 9.15195 14.3008C8.8144 14.5381 8.41196 14.6658 7.99931 14.6664C7.47264 14.6664 6.95264 14.4531 6.58598 14.0731C6.37264 13.8731 6.21264 13.6064 6.11931 13.3331C6.20598 13.3464 6.29264 13.3531 6.38598 13.3664C6.53931 13.3864 6.69931 13.4064 6.85931 13.4198C7.23931 13.4531 7.62598 13.4731 8.01264 13.4731C8.39264 13.4731 8.77264 13.4531 9.14598 13.4198C9.28598 13.4064 9.42598 13.3998 9.55931 13.3798L9.88598 13.3398Z" fill="white"/>
</svg>
