<svg width="297" height="81" viewBox="0 0 297 81" fill="none" xmlns="http://www.w3.org/2000/svg">
<path d="M40.0018 54.1241C40.0018 47.5556 36.9147 43.943 30.5433 41.5783V41.447C35.3382 38.951 37.7686 35.2726 37.7686 30.4777C37.7686 26.1425 36.1265 22.7926 32.9079 20.4279C29.6894 18.0633 25.8797 16.881 21.3474 16.881H0V68.3119H21.6759C30.6746 68.3119 40.0018 64.5679 40.0018 54.1241ZM27.3247 32.1198C27.3247 35.8638 24.6317 37.7686 19.1799 37.7686H10.3781V26.668H19.9024C24.1062 26.668 27.3247 28.1787 27.3247 32.1198ZM29.6237 52.7447C29.6237 56.5544 26.9306 58.4593 21.5445 58.4593H10.3781V46.9645H21.2161C26.7993 46.9645 29.6237 48.8693 29.6237 52.7447Z" fill="white"/>
<path d="M45.5942 16.881V68.3119H78.1737V58.1965H56.1694V16.881H45.5942Z" fill="white"/>
<path d="M76.8744 42.6293C76.8744 50.0516 79.4361 56.2917 84.6252 61.4151C89.8143 66.5384 96.0543 69.1001 103.477 69.1001C110.899 69.1001 117.205 66.5384 122.394 61.3494C127.649 56.1603 130.276 49.7889 130.276 42.3666C130.276 35.0099 127.714 28.7699 122.525 23.7122C117.402 18.6545 111.162 16.0928 103.739 16.0928C96.317 16.0928 90.0113 18.6545 84.7566 23.8435C79.5018 29.0326 76.8744 35.2726 76.8744 42.6293ZM92.3759 31.1345C95.4631 27.9817 99.2071 26.4052 103.608 26.4052C108.009 26.4052 111.753 27.9817 114.84 31.1345C117.927 34.2874 119.438 38.0971 119.438 42.5636C119.438 47.0302 117.927 50.8399 114.84 54.0584C111.753 57.2112 108.009 58.7877 103.608 58.7877C99.2071 58.7877 95.4631 57.2112 92.3759 54.0584C89.2888 50.8399 87.778 47.0302 87.778 42.5636C87.778 38.0971 89.2888 34.2874 92.3759 31.1345Z" fill="white"/>
<path d="M132.668 42.6293C132.668 50.1173 135.229 56.423 140.287 61.4807C145.345 66.5384 151.651 69.0344 159.139 69.0344C164.328 69.0344 169.188 67.6551 173.589 64.962C178.056 62.2033 181.143 58.4593 182.851 53.73L173.064 49.1977C170.765 54.9123 165.576 58.722 159.27 58.722C154.738 58.722 151.059 57.1456 148.104 54.0584C145.148 50.9055 143.703 47.0302 143.703 42.4979C143.703 38.0314 145.213 34.2217 148.169 31.1345C151.125 28.0473 154.869 26.4709 159.27 26.4709C165.641 26.4709 170.765 30.0179 172.932 35.7324L182.654 31.2659C180.946 26.6023 177.924 22.8583 173.589 20.1652C169.32 17.4721 164.525 16.0928 159.336 16.0928C151.913 16.0928 145.608 18.6545 140.418 23.8435C135.229 28.9669 132.668 35.207 132.668 42.6293Z" fill="white"/>
<path d="M197.763 68.3119V43.8773L216.286 68.3119H230.014L209.061 41.447L228.7 16.881H215.432L197.763 39.2794V16.881H187.188V68.3119H197.763Z" fill="white"/>
<path d="M263.37 16.0158L295.718 13.473L260.012 2.48145L263.37 16.0158Z" fill="white"/>
<path d="M279.339 79.832L295.635 64.8213L279.339 79.832L275.981 66.2977L243.551 68.841L279.339 79.832Z" fill="white"/>
<path d="M260.012 2.48145L254.853 7.23877L243.715 17.5745L263.697 35.7021L267.546 32.6675L263.37 16.0158L260.012 2.48145Z" fill="white"/>
<path d="M295.635 64.8212L275.817 46.7754L271.887 49.8922L275.981 66.2976L279.339 79.8319L295.635 64.8212Z" fill="white"/>
<path d="M295.718 25.367V13.4731L246.172 52.7633C244.534 54.0762 243.634 55.7161 243.634 57.5212V68.841L293.179 30.2067C294.817 28.8944 295.718 27.1716 295.718 25.367Z" fill="white"/>
</svg>
