<svg width="61" height="61" viewBox="0 0 61 61" fill="none" xmlns="http://www.w3.org/2000/svg">
<g filter="url(#filter0_biii_9692_52447)">
<rect width="61" height="61" rx="12" fill="url(#paint0_linear_9692_52447)" fill-opacity="0.01"/>
<path fill-rule="evenodd" clip-rule="evenodd" d="M21.7784 20.3648C22.1689 20.7553 22.1689 21.3885 21.7784 21.779C16.9619 26.5955 16.9619 34.4045 21.7784 39.221C22.1689 39.6115 22.1689 40.2447 21.7784 40.6352C21.3878 41.0257 20.7547 41.0257 20.3642 40.6352C14.7666 35.0377 14.7666 25.9623 20.3642 20.3648C20.7547 19.9743 21.3878 19.9743 21.7784 20.3648ZM39.2203 20.3649C39.6109 19.9743 40.244 19.9743 40.6345 20.3649C46.2321 25.9624 46.2321 35.0377 40.6345 40.6353C40.244 41.0258 39.6109 41.0258 39.2203 40.6353C38.8298 40.2447 38.8298 39.6116 39.2203 39.221C44.0368 34.4046 44.0368 26.5955 39.2203 21.7791C38.8298 21.3885 38.8298 20.7554 39.2203 20.3649ZM25.5496 24.136C25.9401 24.5265 25.9401 25.1597 25.5496 25.5502C22.8159 28.2839 22.8159 32.716 25.5496 35.4497C25.9401 35.8402 25.9401 36.4734 25.5496 36.8639C25.1591 37.2544 24.5259 37.2544 24.1354 36.8639C20.6207 33.3492 20.6207 27.6507 24.1354 24.136C24.5259 23.7455 25.1591 23.7455 25.5496 24.136ZM35.4491 24.136C35.8396 23.7455 36.4728 23.7455 36.8633 24.136C40.378 27.6507 40.378 33.3492 36.8633 36.864C36.4728 37.2545 35.8396 37.2545 35.4491 36.864C35.0586 36.4734 35.0586 35.8403 35.4491 35.4497C38.1828 32.7161 38.1828 28.2839 35.4491 25.5502C35.0586 25.1597 35.0586 24.5266 35.4491 24.136ZM30.4993 28.8333C29.5789 28.8333 28.8327 29.5795 28.8327 30.5C28.8327 31.4205 29.5789 32.1667 30.4993 32.1667C31.4198 32.1667 32.166 31.4205 32.166 30.5C32.166 29.5795 31.4198 28.8333 30.4993 28.8333ZM26.8327 30.5C26.8327 28.4749 28.4743 26.8333 30.4993 26.8333C32.5244 26.8333 34.166 28.4749 34.166 30.5C34.166 32.525 32.5244 34.1667 30.4993 34.1667C28.4743 34.1667 26.8327 32.525 26.8327 30.5Z" fill="white"/>
<rect x="0.5" y="0.5" width="60" height="60" rx="11.5" stroke="url(#paint1_linear_9692_52447)"/>
</g>
<defs>
<filter id="filter0_biii_9692_52447" x="-60" y="-60" width="181" height="181" filterUnits="userSpaceOnUse" color-interpolation-filters="sRGB">
<feFlood flood-opacity="0" result="BackgroundImageFix"/>
<feGaussianBlur in="BackgroundImageFix" stdDeviation="30"/>
<feComposite in2="SourceAlpha" operator="in" result="effect1_backgroundBlur_9692_52447"/>
<feBlend mode="normal" in="SourceGraphic" in2="effect1_backgroundBlur_9692_52447" result="shape"/>
<feColorMatrix in="SourceAlpha" type="matrix" values="0 0 0 0 0 0 0 0 0 0 0 0 0 0 0 0 0 0 127 0" result="hardAlpha"/>
<feMorphology radius="5" operator="dilate" in="SourceAlpha" result="effect2_innerShadow_9692_52447"/>
<feOffset dy="1"/>
<feGaussianBlur stdDeviation="15"/>
<feComposite in2="hardAlpha" operator="arithmetic" k2="-1" k3="1"/>
<feColorMatrix type="matrix" values="0 0 0 0 0.890196 0 0 0 0 0.870588 0 0 0 0 1 0 0 0 0.15 0"/>
<feBlend mode="normal" in2="shape" result="effect2_innerShadow_9692_52447"/>
<feColorMatrix in="SourceAlpha" type="matrix" values="0 0 0 0 0 0 0 0 0 0 0 0 0 0 0 0 0 0 127 0" result="hardAlpha"/>
<feOffset dy="4"/>
<feGaussianBlur stdDeviation="9"/>
<feComposite in2="hardAlpha" operator="arithmetic" k2="-1" k3="1"/>
<feColorMatrix type="matrix" values="0 0 0 0 0.572549 0 0 0 0 0.612706 0 0 0 0 0.823529 0 0 0 0.25 0"/>
<feBlend mode="normal" in2="effect2_innerShadow_9692_52447" result="effect3_innerShadow_9692_52447"/>
<feColorMatrix in="SourceAlpha" type="matrix" values="0 0 0 0 0 0 0 0 0 0 0 0 0 0 0 0 0 0 127 0" result="hardAlpha"/>
<feMorphology radius="48" operator="dilate" in="SourceAlpha" result="effect4_innerShadow_9692_52447"/>
<feOffset dy="98"/>
<feGaussianBlur stdDeviation="50"/>
<feComposite in2="hardAlpha" operator="arithmetic" k2="-1" k3="1"/>
<feColorMatrix type="matrix" values="0 0 0 0 0.666667 0 0 0 0 0.736 0 0 0 0 0.8 0 0 0 0.3 0"/>
<feBlend mode="normal" in2="effect3_innerShadow_9692_52447" result="effect4_innerShadow_9692_52447"/>
</filter>
<linearGradient id="paint0_linear_9692_52447" x1="0.711368" y1="-8.01008" x2="68.7726" y2="-1.24397" gradientUnits="userSpaceOnUse">
<stop/>
<stop offset="1" stop-color="#BABABA"/>
</linearGradient>
<linearGradient id="paint1_linear_9692_52447" x1="1.69444" y1="-1.69444" x2="41.8324" y2="28.8862" gradientUnits="userSpaceOnUse">
<stop stop-color="white"/>
<stop offset="1" stop-color="white" stop-opacity="0"/>
</linearGradient>
</defs>
</svg>
