<svg width="61" height="61" viewBox="0 0 61 61" fill="none" xmlns="http://www.w3.org/2000/svg">
<g filter="url(#filter0_biii_9692_52449)">
<rect width="61" height="61" rx="12" fill="url(#paint0_linear_9692_52449)" fill-opacity="0.01"/>
<path fill-rule="evenodd" clip-rule="evenodd" d="M30.4935 16.9265C27.7175 16.9265 25.4422 19.2018 25.4422 21.9779V30.9997C25.4422 33.7758 27.7175 36.0511 30.4935 36.0511C33.2695 36.0511 35.5448 33.7758 35.5448 30.9997V21.9779C35.5448 19.2018 33.2695 16.9265 30.4935 16.9265ZM23.5156 21.9779C23.5156 18.1378 26.6535 15 30.4935 15C34.3335 15 37.4713 18.1378 37.4713 21.9779V30.9997C37.4713 34.8398 34.3335 37.9776 30.4935 37.9776C26.6535 37.9776 23.5156 34.8398 23.5156 30.9997V21.9779Z" fill="white"/>
<path fill-rule="evenodd" clip-rule="evenodd" d="M19.9633 28.5312C20.4953 28.5312 20.9265 28.9625 20.9265 29.4945V30.8478C20.9265 36.1979 25.1743 40.5604 30.4888 40.5604C35.8033 40.5604 40.0511 36.1979 40.0511 30.8478V29.4945C40.0511 28.9625 40.4823 28.5312 41.0143 28.5312C41.5463 28.5312 41.9776 28.9625 41.9776 29.4945V30.8478C41.9776 37.2261 36.9028 42.487 30.4888 42.487C24.0749 42.487 19 37.2261 19 30.8478V29.4945C19 28.9625 19.4313 28.5312 19.9633 28.5312Z" fill="white"/>
<path fill-rule="evenodd" clip-rule="evenodd" d="M30.4867 40.5625C31.0187 40.5625 31.45 40.9938 31.45 41.5258V46.0367C31.45 46.5687 31.0187 47 30.4867 47C29.9547 47 29.5234 46.5687 29.5234 46.0367V41.5258C29.5234 40.9938 29.9547 40.5625 30.4867 40.5625Z" fill="white"/>
<path fill-rule="evenodd" clip-rule="evenodd" d="M25.0156 46.0336C25.0156 45.5016 25.4469 45.0703 25.9789 45.0703H35.0008C35.5328 45.0703 35.9641 45.5016 35.9641 46.0336C35.9641 46.5656 35.5328 46.9969 35.0008 46.9969H25.9789C25.4469 46.9969 25.0156 46.5656 25.0156 46.0336Z" fill="white"/>
<rect x="0.5" y="0.5" width="60" height="60" rx="11.5" stroke="url(#paint1_linear_9692_52449)"/>
</g>
<defs>
<filter id="filter0_biii_9692_52449" x="-60" y="-60" width="181" height="181" filterUnits="userSpaceOnUse" color-interpolation-filters="sRGB">
<feFlood flood-opacity="0" result="BackgroundImageFix"/>
<feGaussianBlur in="BackgroundImageFix" stdDeviation="30"/>
<feComposite in2="SourceAlpha" operator="in" result="effect1_backgroundBlur_9692_52449"/>
<feBlend mode="normal" in="SourceGraphic" in2="effect1_backgroundBlur_9692_52449" result="shape"/>
<feColorMatrix in="SourceAlpha" type="matrix" values="0 0 0 0 0 0 0 0 0 0 0 0 0 0 0 0 0 0 127 0" result="hardAlpha"/>
<feMorphology radius="5" operator="dilate" in="SourceAlpha" result="effect2_innerShadow_9692_52449"/>
<feOffset dy="1"/>
<feGaussianBlur stdDeviation="15"/>
<feComposite in2="hardAlpha" operator="arithmetic" k2="-1" k3="1"/>
<feColorMatrix type="matrix" values="0 0 0 0 0.890196 0 0 0 0 0.870588 0 0 0 0 1 0 0 0 0.15 0"/>
<feBlend mode="normal" in2="shape" result="effect2_innerShadow_9692_52449"/>
<feColorMatrix in="SourceAlpha" type="matrix" values="0 0 0 0 0 0 0 0 0 0 0 0 0 0 0 0 0 0 127 0" result="hardAlpha"/>
<feOffset dy="4"/>
<feGaussianBlur stdDeviation="9"/>
<feComposite in2="hardAlpha" operator="arithmetic" k2="-1" k3="1"/>
<feColorMatrix type="matrix" values="0 0 0 0 0.572549 0 0 0 0 0.612706 0 0 0 0 0.823529 0 0 0 0.25 0"/>
<feBlend mode="normal" in2="effect2_innerShadow_9692_52449" result="effect3_innerShadow_9692_52449"/>
<feColorMatrix in="SourceAlpha" type="matrix" values="0 0 0 0 0 0 0 0 0 0 0 0 0 0 0 0 0 0 127 0" result="hardAlpha"/>
<feMorphology radius="48" operator="dilate" in="SourceAlpha" result="effect4_innerShadow_9692_52449"/>
<feOffset dy="98"/>
<feGaussianBlur stdDeviation="50"/>
<feComposite in2="hardAlpha" operator="arithmetic" k2="-1" k3="1"/>
<feColorMatrix type="matrix" values="0 0 0 0 0.666667 0 0 0 0 0.736 0 0 0 0 0.8 0 0 0 0.3 0"/>
<feBlend mode="normal" in2="effect3_innerShadow_9692_52449" result="effect4_innerShadow_9692_52449"/>
</filter>
<linearGradient id="paint0_linear_9692_52449" x1="0.711368" y1="-8.01008" x2="68.7726" y2="-1.24397" gradientUnits="userSpaceOnUse">
<stop/>
<stop offset="1" stop-color="#BABABA"/>
</linearGradient>
<linearGradient id="paint1_linear_9692_52449" x1="1.69444" y1="-1.69444" x2="41.8324" y2="28.8862" gradientUnits="userSpaceOnUse">
<stop stop-color="white"/>
<stop offset="1" stop-color="white" stop-opacity="0"/>
</linearGradient>
</defs>
</svg>
