<svg width="20" height="20" viewBox="0 0 20 20" fill="none" xmlns="http://www.w3.org/2000/svg">
<g clip-path="url(#clip0_3319_26280)">
<path d="M19.2547 2.23602C18.882 1.86335 18.3851 1.61491 17.764 1.61491H16.5217V0.621118C16.5217 0.248447 16.2733 0 16.0248 0C15.7764 0 15.528 0.248447 15.528 0.621118V1.61491H10.559V0.621118C10.559 0.248447 10.3106 0 9.93789 0C9.56522 0 9.44099 0.248447 9.44099 0.621118V1.61491H4.34783V0.621118C4.34783 0.248447 4.09938 0 3.85093 0C3.47826 0 3.22981 0.248447 3.22981 0.621118V1.61491H2.1118C0.993789 1.61491 0 2.6087 0 3.85093V17.764C0 19.0062 0.993789 20 2.1118 20H17.8882C19.0062 20 20 19.0062 20 17.764V3.85093C20 3.22981 19.7516 2.6087 19.2547 2.23602ZM3.85093 4.09938C4.09938 4.09938 4.34783 3.85093 4.34783 3.47826V2.73292H9.44099V3.47826C9.44099 3.85093 9.68944 4.09938 9.93789 4.09938C10.1863 4.09938 10.4348 3.85093 10.4348 3.47826V2.73292H15.4037V3.47826C15.4037 3.85093 15.6522 4.09938 15.9006 4.09938C16.1491 4.09938 16.3975 3.85093 16.3975 3.47826V2.73292H17.6398C18.1366 2.73292 18.882 3.22981 18.882 3.85093V17.764C18.882 18.3851 18.1366 18.7578 17.6398 18.7578H2.1118C1.61491 18.7578 1.11801 18.2609 1.11801 17.764V3.85093C1.11801 3.22981 1.61491 2.73292 2.1118 2.73292H3.22981V3.47826C3.22981 3.85093 3.47826 4.09938 3.85093 4.09938Z" fill="white"/>
<path d="M7.70393 8.20082H8.57349C8.82194 8.20082 9.07039 7.95237 9.07039 7.70393C9.07039 7.45548 8.94616 7.20703 8.57349 7.20703H7.70393C7.45548 7.20703 7.20703 7.45548 7.20703 7.70393C7.20703 7.95237 7.45548 8.20082 7.70393 8.20082Z" fill="white"/>
<path d="M11.3016 8.20082H12.1711C12.4196 8.20082 12.668 7.95237 12.668 7.70393C12.668 7.45548 12.4196 7.20703 12.1711 7.20703H11.3016C11.0531 7.20703 10.8047 7.45548 10.8047 7.70393C10.8047 7.95237 11.0531 8.20082 11.3016 8.20082Z" fill="white"/>
<path d="M14.907 8.20082H15.7766C16.0251 8.20082 16.2735 7.95237 16.2735 7.70393C16.2735 7.45548 16.1493 7.20703 15.9008 7.20703H14.907C14.6586 7.20703 14.4102 7.45548 14.4102 7.70393C14.4102 7.95237 14.6586 8.20082 14.907 8.20082Z" fill="white"/>
<path d="M7.70393 11.8025H8.57349C8.82194 11.8025 9.07039 11.554 9.07039 11.3056C9.07039 11.0571 8.82194 10.8087 8.57349 10.8087H7.70393C7.45548 10.6845 7.20703 10.9329 7.20703 11.3056C7.20703 11.554 7.45548 11.8025 7.70393 11.8025Z" fill="white"/>
<path d="M4.09768 11.8025H4.96725C5.21569 11.8025 5.46414 11.554 5.46414 11.3056C5.46414 11.0571 5.21569 10.8087 4.96725 10.8087H4.09768C3.72501 10.6845 3.47656 10.9329 3.47656 11.3056C3.47656 11.554 3.72501 11.8025 4.09768 11.8025Z" fill="white"/>
<path d="M11.3016 11.7995H12.1711C12.4196 11.7995 12.668 11.551 12.668 11.3026C12.668 11.0541 12.4196 10.8057 12.1711 10.8057H11.3016C11.0531 10.8057 10.8047 11.0541 10.8047 11.3026C10.8047 11.551 11.0531 11.7995 11.3016 11.7995Z" fill="white"/>
<path d="M14.907 11.7995H15.7766C16.0251 11.7995 16.2735 11.551 16.2735 11.3026C16.2735 11.0541 16.0251 10.8057 15.7766 10.8057H14.907C14.6586 10.8057 14.4102 11.0541 14.4102 11.3026C14.4102 11.551 14.6586 11.7995 14.907 11.7995Z" fill="white"/>
<path d="M7.70393 15.2809H8.57349C8.82194 15.2809 9.07039 15.0325 9.07039 14.784C9.07039 14.5356 8.82194 14.2871 8.57349 14.2871H7.70393C7.45548 14.2871 7.20703 14.5356 7.20703 14.784C7.20703 15.0325 7.45548 15.2809 7.70393 15.2809Z" fill="white"/>
<path d="M4.09952 15.2809H4.96909C5.21753 15.2809 5.46598 15.0325 5.46598 14.784C5.46598 14.5356 5.21753 14.2871 4.96909 14.2871H4.09952C3.85107 14.2871 3.60263 14.5356 3.60263 14.784C3.4784 15.0325 3.72685 15.2809 4.09952 15.2809Z" fill="white"/>
<path d="M11.3016 15.2809H12.1711C12.4196 15.2809 12.668 15.0325 12.668 14.784C12.668 14.5356 12.4196 14.2871 12.1711 14.2871H11.3016C11.0531 14.2871 10.8047 14.5356 10.8047 14.784C10.8047 15.0325 11.0531 15.2809 11.3016 15.2809Z" fill="white"/>
</g>
<defs>
<clipPath id="clip0_3319_26280">
<rect width="20" height="20" fill="white"/>
</clipPath>
</defs>
</svg>
