<svg width="80" height="80" viewBox="0 0 80 80" fill="none" xmlns="http://www.w3.org/2000/svg">
<path d="M13.3346 13.3327H23.3346L30.0013 6.66602H50.0013L56.668 13.3327H66.668C68.4361 13.3327 70.1318 14.0351 71.382 15.2853C72.6323 16.5355 73.3346 18.2312 73.3346 19.9993V59.9993C73.3346 61.7675 72.6323 63.4632 71.382 64.7134C70.1318 65.9636 68.4361 66.666 66.668 66.666H13.3346C11.5665 66.666 9.87083 65.9636 8.62059 64.7134C7.37035 63.4632 6.66797 61.7675 6.66797 59.9993V19.9993C6.66797 18.2312 7.37035 16.5355 8.62059 15.2853C9.87083 14.0351 11.5665 13.3327 13.3346 13.3327ZM40.0013 23.3327C35.581 23.3327 31.3418 25.0886 28.2162 28.2142C25.0906 31.3398 23.3346 35.5791 23.3346 39.9993C23.3346 44.4196 25.0906 48.6589 28.2162 51.7845C31.3418 54.9101 35.581 56.666 40.0013 56.666C44.4216 56.666 48.6608 54.9101 51.7864 51.7845C54.912 48.6589 56.668 44.4196 56.668 39.9993C56.668 35.5791 54.912 31.3398 51.7864 28.2142C48.6608 25.0886 44.4216 23.3327 40.0013 23.3327ZM40.0013 29.9993C42.6535 29.9993 45.197 31.0529 47.0724 32.9283C48.9477 34.8036 50.0013 37.3472 50.0013 39.9993C50.0013 42.6515 48.9477 45.1951 47.0724 47.0704C45.197 48.9458 42.6535 49.9993 40.0013 49.9993C37.3491 49.9993 34.8056 48.9458 32.9302 47.0704C31.0549 45.1951 30.0013 42.6515 30.0013 39.9993C30.0013 37.3472 31.0549 34.8036 32.9302 32.9283C34.8056 31.0529 37.3491 29.9993 40.0013 29.9993Z" fill="#C3CDCF"/>
</svg>
