<svg width="24" height="24" viewBox="0 0 24 24" fill="none" xmlns="http://www.w3.org/2000/svg">
<path d="M11.9995 7.19999C10.7265 7.19999 9.50556 7.70571 8.60538 8.60588C7.70521 9.50606 7.1995 10.727 7.1995 12C7.1995 13.273 7.70521 14.4939 8.60538 15.3941C9.50556 16.2943 10.7265 16.8 11.9995 16.8C13.2725 16.8 14.4934 16.2943 15.3936 15.3941C16.2938 14.4939 16.7995 13.273 16.7995 12C16.7995 10.727 16.2938 9.50606 15.3936 8.60588C14.4934 7.70571 13.2725 7.19999 11.9995 7.19999ZM8.3995 12C8.3995 11.0452 8.77878 10.1295 9.45391 9.45441C10.129 8.77928 11.0447 8.39999 11.9995 8.39999C12.9543 8.39999 13.87 8.77928 14.5451 9.45441C15.2202 10.1295 15.5995 11.0452 15.5995 12C15.5995 12.9548 15.2202 13.8704 14.5451 14.5456C13.87 15.2207 12.9543 15.6 11.9995 15.6C11.0447 15.6 10.129 15.2207 9.45391 14.5456C8.77878 13.8704 8.3995 12.9548 8.3995 12ZM9.7483 2.39999C9.41475 2.4 9.08777 2.49269 8.80383 2.66772C8.51989 2.84274 8.29017 3.09322 8.1403 3.39119L7.4323 4.79999H5.4043C4.60865 4.79999 3.84559 5.11606 3.28298 5.67867C2.72037 6.24128 2.4043 7.00434 2.4043 7.79999V17.4C2.4043 18.1956 2.72037 18.9587 3.28298 19.5213C3.84559 20.0839 4.60865 20.4 5.4043 20.4H18.6043C19.3999 20.4 20.163 20.0839 20.7256 19.5213C21.2882 18.9587 21.6043 18.1956 21.6043 17.4V7.79999C21.6043 7.00434 21.2882 6.24128 20.7256 5.67867C20.163 5.11606 19.3999 4.79999 18.6043 4.79999H16.5763L15.8755 3.39599C15.7261 3.09675 15.4963 2.84505 15.2118 2.66913C14.9274 2.4932 14.5996 2.40001 14.2651 2.39999H9.7483ZM9.2119 3.92999C9.26194 3.83068 9.3386 3.74723 9.43332 3.68896C9.52804 3.63069 9.63709 3.59989 9.7483 3.59999H14.2651C14.3766 3.59977 14.486 3.63065 14.581 3.68915C14.676 3.74766 14.7527 3.83148 14.8027 3.93119L15.6703 5.66759C15.7202 5.76713 15.7968 5.85083 15.8915 5.90932C15.9862 5.96781 16.0954 5.99879 16.2067 5.99879H18.6055C19.0829 5.99879 19.5407 6.18844 19.8783 6.526C20.2159 6.86357 20.4055 7.3214 20.4055 7.79879V17.4C20.4055 17.8774 20.2159 18.3352 19.8783 18.6728C19.5407 19.0104 19.0829 19.2 18.6055 19.2H5.4055C4.92811 19.2 4.47027 19.0104 4.1327 18.6728C3.79514 18.3352 3.6055 17.8774 3.6055 17.4V7.79999C3.6055 7.3226 3.79514 6.86477 4.1327 6.5272C4.47027 6.18964 4.92811 5.99999 5.4055 5.99999H7.8031C7.91423 5.99977 8.02311 5.96868 8.11761 5.9102C8.21211 5.85172 8.28851 5.76815 8.3383 5.66879L9.2119 3.92999Z" fill="white"/>
</svg>
