<svg width="32" height="32" viewBox="0 0 32 32" fill="none" xmlns="http://www.w3.org/2000/svg">
<path d="M6.93138 11.8667H14.9314C15.4475 11.8667 15.8647 11.4484 15.8647 10.9333C15.8647 10.4183 15.4475 10 14.9314 10H6.93138C6.41527 10 5.99805 10.4183 5.99805 10.9333C5.99805 11.4484 6.41527 11.8667 6.93138 11.8667Z" fill="#F85454"/>
<path d="M25.0647 14.2666H6.93138C6.41527 14.2666 5.99805 14.6849 5.99805 15.1999C5.99805 15.715 6.41527 16.1333 6.93138 16.1333H25.0647C25.5808 16.1333 25.9981 15.715 25.9981 15.1999C25.9981 14.6849 25.5808 14.2666 25.0647 14.2666Z" fill="#F85454"/>
<path d="M25.0647 18.5332H6.93138C6.41527 18.5332 5.99805 18.9515 5.99805 19.4665C5.99805 19.9816 6.41527 20.3999 6.93138 20.3999H25.0647C25.5808 20.3999 25.9981 19.9816 25.9981 19.4665C25.9981 18.9515 25.5808 18.5332 25.0647 18.5332Z" fill="#F85454"/>
<path fill-rule="evenodd" clip-rule="evenodd" d="M15.9907 0C20.2664 0 24.2782 1.66427 27.3023 4.68837C30.3264 7.71247 31.9974 11.7243 31.9974 16C31.9974 20.2757 30.3332 24.2875 27.3091 27.3116C24.2241 30.3966 20.1243 32 15.9839 32C13.4063 32 10.8084 31.3776 8.43381 30.0989C6.30273 31.6347 4.21901 31.9662 2.80506 31.9662C2.27736 31.9662 1.84438 31.9188 1.53994 31.8715C0.89047 31.77 0.389835 31.2626 0.288356 30.6131C0.186876 29.9636 0.518377 29.3345 1.10696 29.0436C2.33148 28.4414 3.15685 27.2372 3.67102 26.2021C-1.57211 19.8901 -1.16619 10.5336 4.67905 4.68837C7.70316 1.66427 11.715 0 15.9907 0ZM8.81267 28.2249C14.3738 31.4926 21.4435 30.586 26.0101 26.0195C31.5374 20.4922 31.5374 11.5078 26.0034 5.98055C20.4829 0.453277 11.4917 0.453277 5.96447 5.98055C0.673979 11.271 0.416897 19.7953 5.36912 25.3903C5.49766 25.5391 5.57208 25.7218 5.59237 25.9044C5.63973 26.0939 5.6262 26.2968 5.54502 26.493C5.03762 27.6499 4.17165 29.1383 2.79829 30.1395H2.80506C3.99576 30.1395 5.79533 29.8419 7.62874 28.4211C7.64903 28.4008 7.67609 28.3805 7.70316 28.367C7.99406 28.0761 8.44734 28.0085 8.81267 28.2249Z" fill="#F85454"/>
</svg>
