<svg width="46" height="45" viewBox="0 0 46 45" fill="none" xmlns="http://www.w3.org/2000/svg">
<path d="M9.96465 16H21.4656C22.2075 16 22.8073 15.7555 22.8073 15.0312C22.8073 14.307 22.2075 14.0625 21.4656 14.0625H9.96465C9.22269 14.0625 8.62288 14.307 8.62288 15.0312C8.62288 15.7555 9.22269 16 9.96465 16Z" fill="#F85454"/>
<path d="M36.0334 20.0624H9.96465C9.22269 20.0624 8.62288 20.3069 8.62288 21.0312C8.62288 21.7555 9.22269 22 9.96465 22H36.0334C36.7754 22 37.3752 21.7555 37.3752 21.0312C37.3752 20.3069 36.7754 20.0624 36.0334 20.0624Z" fill="#F85454"/>
<path d="M36.0334 26.0623H9.96465C9.22269 26.0623 8.62288 26.3069 8.62288 27.0312C8.62288 27.7555 9.22269 28 9.96465 28H36.0334C36.7754 28 37.3752 27.7555 37.3752 27.0312C37.3752 26.3069 36.7754 26.0623 36.0334 26.0623Z" fill="#F85454"/>
<path fill-rule="evenodd" clip-rule="evenodd" d="M22.9884 0C29.1352 0 34.9027 2.34038 39.2502 6.59302C43.5977 10.8457 46 16.4873 46 22.5C46 28.5127 43.6074 34.1543 39.2599 38.407C34.8249 42.7452 28.931 45 22.9787 45C19.2731 45 15.5384 44.1247 12.1246 42.3266C10.4641 43.4971 8.8237 44.1701 7.34571 44.5411C6.09666 44.8546 4.96363 44.9524 4.03259 44.9524C3.27397 44.9524 2.65151 44.8858 2.21384 44.8192C1.28015 44.6765 0.414544 44 0.414544 43.0497C0.511111 42.5 0.511111 42 2.04444 41C3.80484 40.1533 4.53834 38.3023 5.27751 36.8467C1.47215 32.3655 -0.263337 26.7931 0.0322477 21.3158C0.322153 15.9437 2.56583 10.6631 6.72668 6.59302C11.0742 2.34038 16.8417 0 22.9884 0ZM12.6692 40C15.8804 41.8457 19.4415 43.0015 22.9787 43C28.248 42.9978 33.8941 40.8424 37.8222 37C41.7953 33.1136 43.9568 27.6017 43.9556 22.5C43.9543 17.3983 41.8001 11.8864 37.8222 8C33.8556 4.11515 28.2032 2.00151 22.9884 2C17.7697 1.99849 12.1524 4.11213 8.17778 8C4.52507 11.573 2.3618 16.6051 2.07511 21.3158C1.76486 26.4138 3.64548 31.6158 7.34571 35.7051C7.5305 35.9144 7.63749 36.1712 7.66667 36.4281C7.73475 36.6945 7.7153 36.9799 7.59859 37.2558C6.86914 38.8827 4.52992 41.592 2.55556 43H2.56528C3.58903 43 5.45072 43.1362 7.34571 42.5C8.61924 42.0724 9.9078 41.0789 10.9672 40.2759C10.9964 40.2474 11.0353 40.2188 11.0742 40.1998C11.4924 39.7907 12.144 39.6956 12.6692 40Z" fill="#F85454"/>
</svg>
