<svg width="46" height="46" viewBox="0 0 46 46" fill="none" xmlns="http://www.w3.org/2000/svg">
<path d="M45.0415 22.0525C45.0369 18.5729 43.9205 15.1858 41.8552 12.3853C39.7899 9.58485 36.8838 7.5176 33.5609 6.48514C30.2379 5.45268 26.672 5.50904 23.3834 6.646C20.0947 7.78295 17.2554 9.94101 15.2796 12.8053C4.14978 12.0968 -2.87063 24.4129 3.1943 33.5913L2.49792 39.1623C2.48081 39.3033 2.49898 39.4464 2.55079 39.5787C2.60261 39.711 2.68645 39.8284 2.79481 39.9202C2.90316 40.0121 3.03263 40.0757 3.1716 40.1052C3.31058 40.1348 3.45471 40.1293 3.59106 40.0894L9.00821 38.4862C11.1539 39.4446 13.515 39.8181 15.8517 39.5685C18.1884 39.3189 20.4174 38.4551 22.3122 37.0651C24.3816 37.9558 26.6139 38.4058 28.8668 38.3863C31.1197 38.3667 33.3439 37.8782 35.3975 36.9517L42.1103 38.9396C42.2466 38.9795 42.3908 38.9849 42.5297 38.9554C42.6687 38.9259 42.7982 38.8623 42.9065 38.7704C43.0149 38.6785 43.0987 38.5612 43.1505 38.4289C43.2024 38.2966 43.2205 38.1535 43.2034 38.0125L42.337 31.0933C44.116 28.415 45.0575 25.2678 45.0415 22.0525ZM9.41307 36.7979C9.22308 36.7085 9.00676 36.6927 8.80577 36.7533L4.35222 38.0691L4.92714 33.482C4.95118 33.2726 4.89948 33.0614 4.78138 32.8868C-0.583131 25.1943 4.89069 14.5949 14.2594 14.4774C12.2987 18.2052 11.8583 22.5475 13.0307 26.593C14.203 30.6385 16.8969 34.0725 20.547 36.1744C18.8929 37.2053 17.0058 37.8029 15.0599 37.9118C13.1139 38.0208 11.1719 37.6377 9.41307 36.7979ZM41.3167 36.9274L35.5514 35.2189C35.3497 35.1617 35.1342 35.179 34.9441 35.2675C33.003 36.1993 30.8785 36.6861 28.7253 36.6926C25.4493 36.6969 22.2666 35.6023 19.6862 33.584C17.1058 31.5656 15.277 28.7402 14.4922 25.5596C13.7075 22.379 14.0122 19.0271 15.3575 16.0401C16.7029 13.0532 19.0113 10.6038 21.9133 9.08376C24.8153 7.56376 28.1432 7.06101 31.3647 7.65594C34.5862 8.25087 37.5151 9.9091 39.6828 12.3653C41.8505 14.8216 43.1317 17.9339 43.3215 21.2044C43.5113 24.4748 42.5987 27.7145 40.7297 30.405C40.6084 30.5783 40.5551 30.7901 40.5799 31.0001L41.3167 36.9274Z" fill="#F85454"/>
<path d="M41.3167 36.9274L35.5514 35.2189C35.3497 35.1617 35.1342 35.179 34.9441 35.2675C33.003 36.1993 30.8785 36.6861 28.7253 36.6926C25.4493 36.6969 22.2666 35.6023 19.6862 33.584C17.1058 31.5656 15.277 28.7402 14.4922 25.5596C13.7075 22.379 14.0122 19.0271 15.3575 16.0401C16.7029 13.0532 19.0113 10.6038 21.9133 9.08376C24.8153 7.56376 28.1432 7.06101 31.3647 7.65594C34.5862 8.25087 37.5151 9.9091 39.6828 12.3653C41.8505 14.8216 43.1317 17.9339 43.3215 21.2044C43.5113 24.4748 42.5987 27.7145 40.7297 30.405C40.6084 30.5783 40.5551 30.7901 40.5799 31.0001L41.3167 36.9274Z" fill="#F85454"/>
<path d="M9.41307 36.7979C9.22308 36.7085 9.00676 36.6927 8.80577 36.7533L4.35222 38.0691L4.92714 33.482C4.95118 33.2726 4.89948 33.0614 4.78138 32.8868C-0.583131 25.1943 4.89069 14.5949 14.2594 14.4774C12.2987 18.2052 11.8583 22.5475 13.0307 26.593C14.203 30.6385 16.8969 34.0725 20.547 36.1744C18.8929 37.2053 17.0058 37.8029 15.0599 37.9118C13.1139 38.0208 11.1719 37.6377 9.41307 36.7979Z" fill="white"/>
<path d="M20.6114 18.8098C19.9708 18.8098 19.3446 18.9998 18.8119 19.3557C18.2793 19.7116 17.8641 20.2174 17.619 20.8093C17.3738 21.4011 17.3097 22.0524 17.4347 22.6807C17.5597 23.3089 17.8681 23.8861 18.3211 24.339C18.7741 24.792 19.3512 25.1005 19.9795 25.2255C20.6078 25.3505 21.259 25.2863 21.8509 25.0412C22.4427 24.796 22.9486 24.3809 23.3045 23.8482C23.6604 23.3156 23.8503 22.6894 23.8503 22.0488C23.8503 21.1897 23.5091 20.3659 22.9017 19.7585C22.2943 19.1511 21.4704 18.8098 20.6114 18.8098ZM20.6114 23.5873C20.3079 23.5873 20.0112 23.4973 19.7589 23.3287C19.5065 23.1601 19.3099 22.9204 19.1937 22.64C19.0776 22.3596 19.0472 22.0511 19.1064 21.7535C19.1656 21.4558 19.3118 21.1824 19.5264 20.9678C19.741 20.7532 20.0144 20.6071 20.312 20.5478C20.6097 20.4886 20.9182 20.519 21.1986 20.6352C21.479 20.7513 21.7186 20.948 21.8872 21.2003C22.0558 21.4527 22.1458 21.7493 22.1458 22.0528C22.1458 22.4598 21.9842 22.8501 21.6964 23.1378C21.4086 23.4256 21.0184 23.5873 20.6114 23.5873Z" fill="white"/>
<path d="M28.7254 18.8098C28.0848 18.8098 27.4586 18.9998 26.9259 19.3557C26.3933 19.7116 25.9781 20.2174 25.733 20.8093C25.4878 21.4011 25.4237 22.0524 25.5487 22.6807C25.6737 23.3089 25.9821 23.8861 26.4351 24.339C26.8881 24.792 27.4652 25.1005 28.0935 25.2255C28.7218 25.3505 29.3731 25.2863 29.9649 25.0412C30.5567 24.796 31.0626 24.3809 31.4185 23.8482C31.7744 23.3156 31.9644 22.6894 31.9644 22.0488C31.9644 21.1897 31.6231 20.3659 31.0157 19.7585C30.4083 19.1511 29.5844 18.8098 28.7254 18.8098ZM28.7254 23.5873C28.4217 23.5881 28.1247 23.4988 27.8718 23.3306C27.6189 23.1625 27.4216 22.9231 27.3049 22.6428C27.1881 22.3625 27.1571 22.0539 27.2159 21.7559C27.2746 21.458 27.4205 21.1842 27.6349 20.9692C27.8493 20.7542 28.1227 20.6077 28.4205 20.5481C28.7183 20.4886 29.027 20.5188 29.3076 20.6348C29.5882 20.7508 29.8281 20.9475 29.9969 21.1999C30.1657 21.4523 30.2558 21.7492 30.2558 22.0528C30.2558 22.4591 30.0947 22.8488 29.8078 23.1364C29.5209 23.4241 29.1317 23.5862 28.7254 23.5873Z" fill="white"/>
<path d="M36.8389 18.8098C36.1983 18.8098 35.5721 18.9998 35.0395 19.3557C34.5068 19.7116 34.0917 20.2174 33.8465 20.8093C33.6014 21.4011 33.5372 22.0524 33.6622 22.6807C33.7872 23.3089 34.0957 23.8861 34.5487 24.339C35.0016 24.792 35.5788 25.1005 36.207 25.2255C36.8353 25.3505 37.4866 25.2863 38.0784 25.0412C38.6703 24.796 39.1761 24.3809 39.532 23.8482C39.8879 23.3156 40.0779 22.6894 40.0779 22.0488C40.0779 21.1897 39.7366 20.3659 39.1292 19.7585C38.5218 19.1511 37.6979 18.8098 36.8389 18.8098ZM36.8389 23.5873C36.5353 23.5881 36.2382 23.4988 35.9853 23.3306C35.7325 23.1625 35.5352 22.9231 35.4184 22.6428C35.3016 22.3625 35.2707 22.0539 35.3294 21.7559C35.3882 21.458 35.534 21.1842 35.7484 20.9692C35.9629 20.7542 36.2363 20.6077 36.534 20.5481C36.8318 20.4886 37.1405 20.5188 37.4211 20.6348C37.7018 20.7508 37.9417 20.9475 38.1104 21.1999C38.2792 21.4523 38.3693 21.7492 38.3693 22.0528C38.3693 22.4591 38.2082 22.8488 37.9213 23.1364C37.6344 23.4241 37.2452 23.5862 36.8389 23.5873Z" fill="white"/>
</svg>
