<svg width="375" height="972" viewBox="0 0 375 972" fill="none" xmlns="http://www.w3.org/2000/svg">
<g opacity="0.7">
<mask id="mask0_9692_53151" style="mask-type:alpha" maskUnits="userSpaceOnUse" x="-336" y="0" width="1048" height="1047">
<rect width="1046.57" height="1046.39" transform="matrix(1 0 0 -1 -335.361 1046.94)" fill="#0C353E"/>
</mask>
<g mask="url(#mask0_9692_53151)">
<rect width="1046.57" height="1046.39" transform="matrix(1 0 0 -1 -335.361 1046.94)" fill="url(#paint0_radial_9692_53151)"/>
</g>
<path opacity="0.5" d="M331.38 523.753C331.38 444.54 267.154 380.326 187.927 380.326C108.7 380.326 44.4746 444.54 44.4746 523.753C44.4746 602.965 108.7 667.18 187.927 667.18C267.154 667.18 331.38 602.965 331.38 523.753Z" stroke="white" stroke-width="2"/>
<path opacity="0.3" d="M376.696 523.751C376.696 419.514 292.181 335.014 187.925 335.014C83.6698 335.014 -0.845703 419.514 -0.845703 523.751C-0.845703 627.988 83.6698 712.488 187.925 712.488C292.181 712.488 376.696 627.988 376.696 523.751Z" stroke="white" stroke-width="2"/>
<path opacity="0.1" d="M422.015 523.749C422.015 394.488 317.21 289.701 187.925 289.701C58.6412 289.701 -46.1641 394.488 -46.1641 523.749C-46.1641 653.01 58.6412 757.797 187.925 757.797C317.21 757.797 422.015 653.01 422.015 523.749Z" stroke="white" stroke-width="2"/>
<path opacity="0.05" d="M467.331 523.741C467.331 369.456 342.236 244.383 187.923 244.383C33.6106 244.383 -91.4844 369.456 -91.4844 523.741C-91.4844 678.027 33.6106 803.1 187.923 803.1C342.236 803.1 467.331 678.027 467.331 523.741Z" stroke="white" stroke-width="2"/>
<path opacity="0.05" d="M512.656 523.745C512.656 344.436 367.271 199.077 187.929 199.077C8.58789 199.077 -136.797 344.436 -136.797 523.745C-136.797 703.055 8.58789 848.414 187.929 848.414C367.271 848.414 512.656 703.055 512.656 523.745Z" stroke="white" stroke-width="2"/>
<path opacity="0.04" d="M580.629 523.746C580.629 306.9 404.809 131.111 187.925 131.111C-28.9599 131.111 -204.779 306.9 -204.779 523.746C-204.779 740.591 -28.9599 916.38 187.925 916.38C404.809 916.38 580.629 740.591 580.629 523.746Z" stroke="white" stroke-width="2"/>
<path opacity="0.04" d="M671.268 523.748C671.268 256.854 454.869 40.4928 187.927 40.4928C-79.0151 40.4928 -295.414 256.854 -295.414 523.748C-295.414 790.642 -79.0151 1007 187.927 1007C454.869 1007 671.268 790.642 671.268 523.748Z" stroke="white" stroke-width="2"/>
</g>
<defs>
<radialGradient id="paint0_radial_9692_53151" cx="0" cy="0" r="1" gradientUnits="userSpaceOnUse" gradientTransform="translate(543.113 523.194) rotate(90) scale(497.707 497.795)">
<stop stop-color="#194A55"/>
<stop offset="1" stop-color="#0C353E" stop-opacity="0"/>
</radialGradient>
</defs>
</svg>
