<svg width="24" height="24" viewBox="0 0 24 24" fill="none" xmlns="http://www.w3.org/2000/svg">
<path d="M10.4902 2.23055L5.50016 4.10055C4.35016 4.53055 3.41016 5.89055 3.41016 7.12055V14.5505C3.41016 15.7305 4.19016 17.2805 5.14016 17.9905L9.44016 21.2005C10.8502 22.2605 13.1702 22.2605 14.5802 21.2005L18.8802 17.9905C19.8302 17.2805 20.6102 15.7305 20.6102 14.5505V7.12055C20.6102 5.89055 19.6702 4.53055 18.5202 4.10055L13.5302 2.23055C12.6802 1.92055 11.3202 1.92055 10.4902 2.23055Z" stroke="white" stroke-width="1.5" stroke-linecap="round" stroke-linejoin="round"/>
<path d="M11.9991 10.9204H11.8691C10.9291 10.8904 10.1791 10.1104 10.1791 9.16039C10.1791 8.19039 10.9691 7.40039 11.9391 7.40039C12.9091 7.40039 13.6991 8.19039 13.6991 9.16039C13.6891 10.1204 12.9391 10.8904 11.9991 10.9204ZM10.0091 13.7204C9.04906 14.3604 9.04906 15.4104 10.0091 16.0504C11.0991 16.7804 12.8891 16.7804 13.9791 16.0504C14.9391 15.4104 14.9391 14.3604 13.9791 13.7204C12.8991 12.9904 11.1091 12.9904 10.0091 13.7204Z" stroke="white" stroke-width="1.5" stroke-linecap="round" stroke-linejoin="round"/>
</svg>
