<svg width="21" height="16" viewBox="0 0 21 16" fill="none" xmlns="http://www.w3.org/2000/svg">
<path d="M17.2096 1.45519C17.2043 1.44406 17.1954 1.43534 17.1846 1.43058C15.9336 0.815653 14.6136 0.377159 13.2573 0.126076C13.245 0.123621 13.2323 0.125392 13.221 0.131135C13.2096 0.136879 13.2003 0.146303 13.1943 0.158068C13.0145 0.507623 12.8513 0.866674 12.7053 1.23385C11.2434 0.996082 9.7564 0.996082 8.29449 1.23385C8.14755 0.865741 7.98175 0.506601 7.79787 0.158068C7.79156 0.146559 7.78217 0.137352 7.77091 0.131645C7.75965 0.125939 7.74704 0.123998 7.73474 0.126076C6.37839 0.376632 5.05823 0.815159 3.80747 1.43062C3.79677 1.43548 3.78773 1.44379 3.78162 1.45439C1.28035 5.45651 0.595161 9.36022 0.931292 13.2156C0.932238 13.2251 0.934947 13.2342 0.93926 13.2425C0.943572 13.2508 0.949399 13.2581 0.956394 13.2639C2.41286 14.4194 4.04193 15.3013 5.77409 15.8722C5.78629 15.8761 5.79932 15.8759 5.81142 15.8716C5.82352 15.8674 5.83412 15.8593 5.84178 15.8484C6.21382 15.306 6.54346 14.7317 6.82737 14.1313C6.83128 14.123 6.8335 14.114 6.83391 14.1048C6.83432 14.0956 6.83289 14.0863 6.82973 14.0777C6.82658 14.0691 6.82175 14.0614 6.81558 14.0549C6.80941 14.0485 6.80204 14.0435 6.79394 14.0403C6.27411 13.8272 5.77085 13.5703 5.28889 13.272C5.28014 13.2665 5.27279 13.2588 5.26748 13.2495C5.26218 13.2402 5.2591 13.2297 5.2585 13.2188C5.2579 13.208 5.2598 13.1971 5.26404 13.1872C5.26829 13.1773 5.27474 13.1687 5.28282 13.1621C5.38395 13.081 5.48515 12.9965 5.58171 12.9112C5.59029 12.9037 5.60067 12.8988 5.61169 12.8972C5.6227 12.8956 5.63391 12.8974 5.64406 12.9022C8.80157 14.4462 12.22 14.4462 15.3402 12.9022C15.3503 12.897 15.3617 12.8951 15.3728 12.8965C15.384 12.898 15.3946 12.9028 15.4033 12.9104C15.4999 12.9957 15.6011 13.081 15.7029 13.1621C15.7111 13.1686 15.7176 13.1772 15.7219 13.1871C15.7262 13.1969 15.7282 13.2077 15.7276 13.2186C15.7271 13.2295 15.7241 13.24 15.7189 13.2493C15.7136 13.2587 15.7063 13.2664 15.6976 13.272C15.2168 13.5728 14.713 13.8295 14.1919 14.0395C14.1838 14.0428 14.1764 14.0479 14.1703 14.0544C14.1641 14.061 14.1594 14.0689 14.1563 14.0775C14.1532 14.0862 14.1518 14.0955 14.1523 14.1047C14.1528 14.114 14.1551 14.123 14.159 14.1313C14.4477 14.7284 14.7769 15.302 15.1439 15.8474C15.1513 15.8586 15.1619 15.867 15.174 15.8714C15.1862 15.8759 15.1993 15.8761 15.2116 15.872C16.9468 15.3032 18.5788 14.4211 20.037 13.2639C20.0441 13.2584 20.0501 13.2513 20.0544 13.2431C20.0587 13.2349 20.0614 13.2258 20.0621 13.2164C20.4646 8.75919 19.3884 4.88747 17.2096 1.45519ZM7.29892 10.8681C6.34828 10.8681 5.56498 9.93338 5.56498 8.78545C5.56498 7.63753 6.33309 6.70276 7.29892 6.70276C8.27231 6.70276 9.04803 7.64565 9.03284 8.78538C9.03284 9.93338 8.26469 10.8681 7.29892 10.8681ZM13.7098 10.8681C12.7592 10.8681 11.9759 9.93338 11.9759 8.78545C11.9759 7.63753 12.744 6.70276 13.7098 6.70276C14.6833 6.70276 15.459 7.64565 15.4438 8.78538C15.4438 9.93338 14.6833 10.8681 13.7098 10.8681Z" fill="white"/>
</svg>
