<svg width="12" height="12" viewBox="0 0 12 12" fill="none" xmlns="http://www.w3.org/2000/svg">
<g clip-path="url(#clip0_2931_168224)">
<path d="M10.9438 1.49343C10.856 1.44916 10.75 1.46333 10.677 1.52916C10.0315 2.10796 9.43842 2.38903 8.862 2.38903C8.28558 2.38903 7.72583 2.12225 7.03032 1.51963C5.5202 0.231024 4.03627 0.233406 2.30225 1.46485C2.18078 1.5506 2.18078 1.5506 2.20221 4.03015C2.20221 5.00435 2.21889 6.21198 2.20221 6.38109C2.16928 6.50846 2.24583 6.63839 2.37317 6.67132C2.44975 6.69112 2.53115 6.67162 2.59046 6.61928C3.1949 6.15296 3.93281 5.89253 4.69606 5.87613C5.19307 5.87884 5.68252 5.99796 6.1252 6.22388C6.60893 6.48318 7.14626 6.62669 7.69487 6.6431C10.5722 6.6431 11.0462 1.93408 11.0653 1.734C11.0784 1.6364 11.0301 1.5408 10.9438 1.49343Z" fill="#65676B"/>
<path d="M1.46695 0H1.24305C0.970743 0 0.75 0.220742 0.75 0.493053V11.5069C0.75 11.7793 0.970743 12 1.24305 12H1.46695C1.73926 12 1.96001 11.7793 1.96001 11.5069V0.493053C1.96001 0.220742 1.73926 0 1.46695 0Z" fill="#65676B"/>
</g>
<defs>
<clipPath id="clip0_2931_168224">
<rect width="12" height="12" fill="white" transform="translate(0 12) rotate(-90)"/>
</clipPath>
</defs>
</svg>
