<svg width="57" height="48" viewBox="0 0 57 48" fill="none" xmlns="http://www.w3.org/2000/svg">
<g clip-path="url(#clip0_25_313)">
<path d="M18.3497 8.65376C21.5791 9.27283 25.864 9.61396 30.415 9.61396C34.966 9.61396 39.2508 9.27283 42.4808 8.65376C47.4098 7.70894 47.9798 6.51144 47.9798 5.69077C47.9798 4.8701 47.4098 3.6726 42.4808 2.72778C39.2514 2.1087 34.9665 1.76758 30.415 1.76758C25.8634 1.76758 21.5791 2.1087 18.3497 2.72778C13.4207 3.6726 12.8507 4.8701 12.8507 5.69077C12.8507 6.51144 13.4207 7.70894 18.3497 8.65376ZM18.8858 4.02415C22.0002 3.45507 26.0947 3.14086 30.415 3.14086C34.7353 3.14086 38.8298 3.45507 41.9447 4.02415C45.5216 4.67838 46.5295 5.45237 46.614 5.69077C46.529 5.92752 45.5232 6.70315 41.9441 7.35738C38.8298 7.92647 34.7353 8.24012 30.415 8.24012C26.0947 8.24012 22.0007 7.92647 18.8864 7.35738C15.3095 6.70315 14.301 5.92917 14.2164 5.69077C14.301 5.45401 15.3089 4.67838 18.8858 4.02415Z" fill="#F85454"/>
<path d="M18.3497 8.65376C21.5791 9.27283 25.864 9.61396 30.415 9.61396C34.966 9.61396 39.2508 9.27283 42.4808 8.65376C47.4098 7.70894 47.9798 6.51144 47.9798 5.69077C47.9798 4.8701 47.4098 3.6726 42.4808 2.72778C39.2514 2.1087 34.9665 1.76758 30.415 1.76758C25.8634 1.76758 21.5791 2.1087 18.3497 2.72778C13.4207 3.6726 12.8507 4.8701 12.8507 5.69077C12.8507 6.51144 13.4207 7.70894 18.3497 8.65376ZM18.8858 4.02415C22.0002 3.45507 26.0947 3.14086 30.415 3.14086C34.7353 3.14086 38.8298 3.45507 41.9447 4.02415C45.5216 4.67838 46.5295 5.45237 46.614 5.69077C46.529 5.92752 45.5232 6.70315 41.9441 7.35738C38.8298 7.92647 34.7353 8.24012 30.415 8.24012C26.0947 8.24012 22.0007 7.92647 18.8864 7.35738C15.3095 6.70315 14.301 5.92917 14.2164 5.69077C14.301 5.45401 15.3089 4.67838 18.8858 4.02415Z" stroke="#F85454"/>
<path d="M55.5257 29.2262C53.6336 25.147 50.1293 21.2221 45.6568 18.1745C44.6187 17.4676 43.5424 16.8194 42.4328 16.2327C43.9927 15.9778 45.8095 15.6109 47.4736 15.1006C47.5191 15.0919 47.5636 15.0783 47.6062 15.0599C50.3333 14.2063 52.6175 12.9621 52.6175 11.1862V5.9518C52.6178 5.94668 52.6178 5.94154 52.6175 5.93642C52.6175 2.03905 41.4467 0 30.4122 0C19.3778 0 8.21025 2.03905 8.21025 5.93642C8.21025 5.93971 8.21025 5.94301 8.21025 5.9463V10.633C5.1597 11.6504 3.61288 12.9077 3.61288 14.3755V17.7703C1.58336 18.6706 0.554694 19.7313 0.554694 20.9228V26.172C0.554694 27.6661 2.15987 28.9433 5.32497 29.9721V29.9963C1.79171 31.0493 0 32.3847 0 33.9684V39.2176C0 43.1144 11.1703 45.1535 22.2047 45.1535C25.6278 45.1535 28.8954 44.964 31.9242 44.5926C35.5785 46.5872 39.4008 47.7704 42.9335 47.9687C43.2888 47.9888 43.6375 47.9989 43.9797 47.9989C48.0703 47.9989 51.2523 46.585 53.0135 43.9626L55.583 40.1377C57.492 37.2983 57.4712 33.4224 55.5257 29.2262ZM54.4534 39.3698C52.8242 41.7955 49.6722 43.0051 45.5794 42.7755C41.3584 42.5382 36.6813 40.8046 32.4101 37.8943C23.697 31.9562 19.4083 22.958 22.8494 17.8351C23.1361 17.4093 23.4704 17.0182 23.8459 16.6694C23.8568 16.6601 23.8677 16.6508 23.8781 16.6409C25.5214 15.1308 27.9382 14.3887 30.7575 14.3887C33.5135 14.3887 36.6535 15.0989 39.829 16.4947C39.847 16.503 39.865 16.5118 39.8835 16.5184C41.6332 17.2962 43.3096 18.2316 44.8922 19.3133C53.6058 25.2491 57.895 34.2474 54.4534 39.3698ZM6.68907 30.3742C8.88331 30.9614 11.5477 31.4179 14.499 31.7112C16.0469 31.9941 17.7273 32.2238 19.4978 32.3962C20.2363 33.8444 21.1201 35.2125 22.1355 36.4793C12.0451 35.8404 6.68907 33.5729 6.68907 32.0848V30.3742ZM17.9319 23.8209C14.1363 23.4529 10.8888 22.8322 8.51296 22.023C5.90802 21.1331 4.97971 20.201 4.97971 19.6247V16.5667C7.66538 18.5519 13.8848 19.6753 19.687 20.0955L19.1531 20.8909C18.5599 21.7779 18.145 22.7733 17.9319 23.8209ZM47.3896 13.6938C47.3738 13.6938 47.358 13.6889 47.3416 13.6889C47.1876 13.6893 47.0384 13.743 46.9189 13.841C45.2516 14.3425 43.0464 14.8095 40.2102 15.1665C37.374 13.941 34.5035 13.2115 31.8009 13.0599C28.1929 12.8578 25.21 13.6927 23.1712 15.439C13.7992 14.615 9.57545 12.4655 9.57545 11.1856V8.13586C12.8796 10.5968 21.6898 11.8712 30.4161 11.8712C39.1423 11.8712 47.9525 10.5957 51.2567 8.13586V11.1856C51.2572 11.83 50.1364 12.8028 47.3896 13.6938ZM15.3564 2.89158C19.3707 1.91271 24.7186 1.37383 30.415 1.37383C36.1114 1.37383 41.4598 1.91271 45.4736 2.89158C49.7344 3.93088 51.2507 5.17782 51.2551 5.93202C51.2551 5.93202 51.2551 5.93202 51.2551 5.93642V5.9474C51.2403 6.70271 49.7202 7.9447 45.4736 8.98071C41.4598 9.95958 36.1119 10.4985 30.415 10.4985C24.718 10.4985 19.3707 9.95958 15.3564 8.98071C11.1021 7.94305 9.58418 6.69831 9.57491 5.94356V5.93367C9.57763 5.17947 11.0934 3.93143 15.3564 2.89158ZM8.38697 12.0239C9.67962 15.0451 17.8468 16.2723 21.98 16.7051C21.8906 16.8232 21.8033 16.943 21.7204 17.0666L20.5706 18.7777C9.93925 18.1262 4.97753 15.779 4.97753 14.3761C4.97699 13.7938 5.88948 12.8935 8.38697 12.0239ZM3.61343 19.2913V19.6247C3.61343 23.3947 13.671 24.7784 17.7513 25.1832C17.7481 25.2382 17.7464 25.2881 17.7443 25.3409C6.95578 24.713 1.9188 22.3576 1.9188 20.9228C1.9188 20.4317 2.53785 19.8461 3.61343 19.2913ZM1.9188 26.1736V23.1271C4.76209 25.2354 11.5772 26.3615 17.7748 26.7191C17.8806 27.9682 18.1931 29.2838 18.7146 30.6417C13.7867 30.4127 9.37473 29.7694 6.20528 28.8109C3.04182 27.8567 1.9188 26.8224 1.9188 26.1736ZM5.32497 31.4333V32.0853C5.32497 33.702 7.19631 35.0626 10.8883 36.1288C14.1063 37.0583 18.5242 37.6927 23.367 37.9229C23.5481 38.1217 23.7314 38.32 23.9201 38.5156C23.3447 38.5266 22.7747 38.5326 22.2069 38.5326C16.5105 38.5326 11.1626 37.9932 7.14831 37.0143C2.88038 35.9706 1.36683 34.7237 1.36683 33.97C1.36356 33.3284 2.4244 32.3523 5.32497 31.4333ZM22.2047 43.7813C16.5083 43.7813 11.1604 43.2424 7.14613 42.2635C2.8782 41.2198 1.36465 39.9729 1.36465 39.2192V36.1689C4.66882 38.6304 13.479 39.9042 22.2058 39.9042C23.2176 39.9042 24.2533 39.8861 25.2875 39.8493C26.4775 40.9407 27.7442 41.9441 29.0776 42.8518C29.3649 43.0474 29.6539 43.2378 29.9448 43.4231C27.4921 43.6588 24.8588 43.7813 22.2047 43.7813ZM43.0099 46.5993C39.6135 46.4081 35.9194 45.2468 32.3845 43.2847L32.3556 43.2693C31.5062 42.7977 30.6679 42.2806 29.8406 41.7181C28.4929 40.8012 27.2166 39.7822 26.0227 38.6699L25.9921 38.6419C25.358 38.0483 24.7628 37.4411 24.2064 36.8204C24.1909 36.8012 24.1743 36.7829 24.1568 36.7655C22.6509 35.0769 21.4482 33.313 20.593 31.569C20.5709 31.4877 20.5339 31.4113 20.4839 31.3438C20.4621 31.2982 20.4414 31.252 20.4201 31.2059C20.3995 31.1233 20.3638 31.0452 20.3148 30.9757C19.5731 29.3135 19.1547 27.6798 19.0991 26.1577C19.0991 26.139 19.1062 26.1209 19.1073 26.1028C19.1095 26.0475 19.1051 25.9922 19.0942 25.938C19.0882 25.5367 19.1097 25.1355 19.1585 24.7372C19.1687 24.6997 19.1758 24.6615 19.1798 24.6229C19.1798 24.6086 19.1798 24.5944 19.1798 24.5801C19.3219 23.5351 19.6985 22.5365 20.281 21.6599L20.3105 21.616C20.2461 23.5715 20.7354 25.7287 21.7782 27.9787C23.6703 32.0579 27.1779 35.9827 31.6471 39.0303C36.1163 42.0779 41.0409 43.8939 45.5041 44.1449C45.859 44.1654 46.2077 44.1755 46.5502 44.1751C48.5836 44.1751 50.3922 43.8247 51.9145 43.1507L51.885 43.1946C50.2547 45.6204 47.1027 46.8272 43.0099 46.5993Z" fill="#F85454"/>
<path d="M33.2103 15.8401C29.4959 15.5621 26.6188 16.6476 25.108 18.8965C23.5972 21.1453 23.6675 24.2385 25.3054 27.6069C26.8828 30.8517 29.7463 33.9965 33.3673 36.4684C36.9884 38.9403 40.9553 40.4432 44.5321 40.7113C44.9136 40.7399 45.2861 40.754 45.6497 40.7536C48.823 40.7536 51.2785 39.6725 52.6311 37.6549C54.142 35.4066 54.0716 32.3129 52.4342 28.9439C50.8569 25.6997 47.9929 22.5538 44.3707 20.0852C40.7485 17.6166 36.7871 16.1076 33.2103 15.8401ZM51.2136 29.5471C52.6273 32.4551 52.7315 35.0605 51.5065 36.8842C50.2814 38.7079 47.8407 39.5797 44.6341 39.3402C41.2907 39.0903 37.5611 37.6659 34.1326 35.3302C30.704 32.9946 28.0042 30.0371 26.5299 27.0048C25.1162 24.0968 25.012 21.4909 26.237 19.6671C27.3279 18.0417 29.3863 17.1727 32.0905 17.1727C32.4203 17.1727 32.7597 17.1855 33.1088 17.2112C36.4522 17.4616 40.1813 18.886 43.6098 21.2211C47.0384 23.5563 49.7393 26.5132 51.2136 29.5471Z" fill="#F85454"/>
<path d="M33.2103 15.8401C29.4959 15.5621 26.6188 16.6476 25.108 18.8965C23.5972 21.1453 23.6675 24.2385 25.3054 27.6069C26.8828 30.8517 29.7463 33.9965 33.3673 36.4684C36.9884 38.9403 40.9553 40.4432 44.5321 40.7113C44.9136 40.7399 45.2861 40.754 45.6497 40.7536C48.823 40.7536 51.2785 39.6725 52.6311 37.6549C54.142 35.4066 54.0716 32.3129 52.4342 28.9439C50.8569 25.6997 47.9929 22.5538 44.3707 20.0852C40.7485 17.6166 36.7871 16.1076 33.2103 15.8401ZM51.2136 29.5471C52.6273 32.4551 52.7315 35.0605 51.5065 36.8842C50.2814 38.7079 47.8407 39.5797 44.6341 39.3402C41.2907 39.0903 37.5611 37.6659 34.1326 35.3302C30.704 32.9946 28.0042 30.0371 26.5299 27.0048C25.1162 24.0968 25.012 21.4909 26.237 19.6671C27.3279 18.0417 29.3863 17.1727 32.0905 17.1727C32.4203 17.1727 32.7597 17.1855 33.1088 17.2112C36.4522 17.4616 40.1813 18.886 43.6098 21.2211C47.0384 23.5563 49.7393 26.5132 51.2136 29.5471Z" stroke="#F85454"/>
</g>
<defs>
<clipPath id="clip0_25_313">
<rect width="57" height="48" fill="white"/>
</clipPath>
</defs>
</svg>
