<svg width="20" height="20" viewBox="0 0 20 20" fill="none" xmlns="http://www.w3.org/2000/svg">
<path d="M4.75 10C4.64568 9.99985 4.54248 10.0215 4.44699 10.0635C4.3515 10.1054 4.26582 10.1669 4.19543 10.2439C4.12503 10.3209 4.07147 10.4117 4.03817 10.5105C4.00486 10.6094 3.99254 10.7141 4.002 10.818C4.282 13.892 6.552 16.5 10 16.5C13.448 16.5 15.717 13.892 15.998 10.818C16.0075 10.7141 15.9951 10.6094 15.9618 10.5105C15.9285 10.4117 15.875 10.3209 15.8046 10.2439C15.7342 10.1669 15.6485 10.1054 15.553 10.0635C15.4575 10.0215 15.3543 9.99985 15.25 10H4.75ZM10 15C7.743 15 6.129 13.52 5.632 11.5H14.368C13.872 13.52 12.258 15 10 15ZM13.25 6.75C12.842 6.75 12.54 7.037 12.492 7.36C12.4628 7.55679 12.3567 7.73393 12.1969 7.85246C12.0371 7.97098 11.8368 8.02117 11.64 7.992C11.4432 7.96283 11.2661 7.85667 11.1475 7.69689C11.029 7.53711 10.9788 7.33679 11.008 7.14C11.17 6.05 12.131 5.25 13.25 5.25C14.369 5.25 15.33 6.05 15.492 7.14C15.5212 7.33679 15.471 7.53711 15.3525 7.69689C15.2339 7.85667 15.0568 7.96283 14.86 7.992C14.6632 8.02117 14.4629 7.97098 14.3031 7.85246C14.1433 7.73393 14.0372 7.55679 14.008 7.36C13.96 7.037 13.658 6.75 13.25 6.75ZM5.992 7.36C6.04 7.037 6.342 6.75 6.75 6.75C7.159 6.75 7.46 7.037 7.508 7.36C7.53717 7.55679 7.64333 7.73393 7.80311 7.85246C7.96289 7.97098 8.16321 8.02117 8.36 7.992C8.55679 7.96283 8.73393 7.85667 8.85246 7.69689C8.97098 7.53711 9.02117 7.33679 8.992 7.14C8.831 6.05 7.869 5.25 6.75 5.25C5.631 5.25 4.67 6.05 4.508 7.14C4.47883 7.33679 4.52902 7.53711 4.64754 7.69689C4.76607 7.85667 4.94321 7.96283 5.14 7.992C5.33679 8.02117 5.53711 7.97098 5.69689 7.85246C5.85667 7.73393 5.96283 7.55679 5.992 7.36ZM10 0C4.477 0 0 4.477 0 10C0 15.523 4.477 20 10 20C15.523 20 20 15.523 20 10C20 4.477 15.523 0 10 0ZM1.5 10C1.5 7.74566 2.39553 5.58365 3.98959 3.98959C5.58365 2.39553 7.74566 1.5 10 1.5C12.2543 1.5 14.4163 2.39553 16.0104 3.98959C17.6045 5.58365 18.5 7.74566 18.5 10C18.5 12.2543 17.6045 14.4163 16.0104 16.0104C14.4163 17.6045 12.2543 18.5 10 18.5C7.74566 18.5 5.58365 17.6045 3.98959 16.0104C2.39553 14.4163 1.5 12.2543 1.5 10Z" fill="white"/>
</svg>
