<svg width="387" height="259" viewBox="0 0 387 259" fill="none" xmlns="http://www.w3.org/2000/svg">
<g filter="url(#filter0_bdddd_9692_52192)">
<rect x="9.56445" y="12.9739" width="243.436" height="138.02" rx="15" fill="white" fill-opacity="0.07"/>
<mask id="mask0_9692_52192" style="mask-type:alpha" maskUnits="userSpaceOnUse" x="19" y="24" width="225" height="116">
<rect x="19.2734" y="24.127" width="224.017" height="115.713" fill="#1C1C1C"/>
</mask>
<g mask="url(#mask0_9692_52192)">
<mask id="path-4-inside-1_9692_52192" fill="white">
<path d="M175.162 220.918C158.41 230.476 139.139 234.619 119.966 232.783C100.793 230.947 82.6457 223.221 67.9874 210.655C53.329 198.088 42.8694 181.289 38.0281 162.538C33.1868 143.787 34.1984 123.992 40.9255 105.838C47.6525 87.6853 59.7694 72.0538 75.6314 61.0654C91.4934 50.077 110.332 44.2638 129.592 44.4149C148.851 44.566 167.597 50.674 183.287 61.91C198.977 73.1459 210.85 88.9657 217.295 107.222L215.827 107.746C209.489 89.7927 197.813 74.2354 182.384 63.1859C166.955 52.1364 148.519 46.1297 129.58 45.9811C110.64 45.8325 92.1134 51.5492 76.5145 62.3553C60.9157 73.1614 48.9999 88.5336 42.3845 106.385C35.769 124.237 34.7742 143.704 39.5352 162.145C44.2961 180.585 54.5822 197.105 68.9973 209.463C83.4125 221.821 101.259 229.418 120.114 231.223C138.969 233.029 157.919 228.955 174.394 219.555L175.162 220.918Z"/>
</mask>
<path d="M175.162 220.918C158.41 230.476 139.139 234.619 119.966 232.783C100.793 230.947 82.6457 223.221 67.9874 210.655C53.329 198.088 42.8694 181.289 38.0281 162.538C33.1868 143.787 34.1984 123.992 40.9255 105.838C47.6525 87.6853 59.7694 72.0538 75.6314 61.0654C91.4934 50.077 110.332 44.2638 129.592 44.4149C148.851 44.566 167.597 50.674 183.287 61.91C198.977 73.1459 210.85 88.9657 217.295 107.222L215.827 107.746C209.489 89.7927 197.813 74.2354 182.384 63.1859C166.955 52.1364 148.519 46.1297 129.58 45.9811C110.64 45.8325 92.1134 51.5492 76.5145 62.3553C60.9157 73.1614 48.9999 88.5336 42.3845 106.385C35.769 124.237 34.7742 143.704 39.5352 162.145C44.2961 180.585 54.5822 197.105 68.9973 209.463C83.4125 221.821 101.259 229.418 120.114 231.223C138.969 233.029 157.919 228.955 174.394 219.555L175.162 220.918Z" stroke="#F85454" stroke-width="4.5" stroke-dasharray="30 3" mask="url(#path-4-inside-1_9692_52192)"/>
<path opacity="0.2" d="M214.835 138.81C214.835 128.318 212.937 117.913 209.233 108.105L180.645 119.027C183.031 125.346 184.254 132.05 184.254 138.81H214.835Z" fill="url(#paint0_radial_9692_52192)"/>
<path opacity="0.75" d="M209.485 108.781C202.29 89.235 188.319 72.96 170.143 62.9516C151.967 52.9432 130.809 49.8748 110.562 54.311C90.3158 58.7473 72.3433 70.3896 59.9522 87.0956C47.5611 103.802 41.5852 124.447 43.1242 145.233L73.6199 142.948C72.6283 129.556 76.4787 116.254 84.4624 105.49C92.4461 94.7262 104.026 87.2249 117.071 84.3666C130.116 81.5083 143.748 83.4853 155.459 89.9338C167.17 96.3823 176.172 106.868 180.808 119.462L209.485 108.781Z" fill="url(#paint1_radial_9692_52192)"/>
<path d="M217.545 108.043C217.33 107.29 217.105 106.54 216.869 105.793L179.763 117.623C179.891 118.032 180.015 118.443 180.132 118.855L217.545 108.043Z" fill="url(#paint2_radial_9692_52192)"/>
<path d="M185.409 133.524C185.635 135.534 185.757 137.575 185.771 139.643L185.021 139.647C185.022 139.774 185.022 139.901 185.022 140.028C185.022 140.155 185.022 140.281 185.021 140.408L185.771 140.413C185.757 142.48 185.635 144.521 185.409 146.531L184.663 146.447C184.635 146.699 184.605 146.949 184.574 147.2L185.318 147.293C185.06 149.339 184.695 151.351 184.229 153.323L183.499 153.151C183.441 153.396 183.382 153.64 183.321 153.884L184.048 154.067C183.548 156.062 182.944 158.016 182.241 159.922L181.537 159.663C181.45 159.9 181.361 160.137 181.271 160.372L181.971 160.641C181.235 162.558 180.4 164.425 179.471 166.236L178.804 165.894C178.689 166.118 178.572 166.341 178.454 166.564L179.117 166.915C178.157 168.727 177.103 170.48 175.962 172.169L175.341 171.749C175.2 171.958 175.057 172.166 174.913 172.373L175.529 172.801C174.36 174.482 173.104 176.097 171.767 177.639L171.2 177.148C171.035 177.338 170.868 177.528 170.701 177.716L171.261 178.215C169.901 179.742 168.46 181.195 166.946 182.567L166.443 182.011C166.256 182.181 166.068 182.349 165.879 182.516L166.375 183.078C164.844 184.429 163.24 185.699 161.57 186.881L161.137 186.269C160.931 186.415 160.724 186.559 160.516 186.702L160.941 187.32C159.261 188.475 157.515 189.543 155.712 190.515L155.356 189.855C155.134 189.975 154.912 190.093 154.688 190.209L155.035 190.874C153.23 191.817 151.369 192.664 149.457 193.411L149.184 192.713C148.949 192.804 148.713 192.895 148.477 192.983L148.74 193.685C146.838 194.399 144.886 195.013 142.893 195.522L142.708 194.795C142.465 194.857 142.22 194.918 141.976 194.977L142.151 195.706C140.18 196.18 138.169 196.551 136.124 196.813L136.029 196.069C135.779 196.101 135.529 196.132 135.277 196.161L135.363 196.906C133.353 197.136 131.312 197.26 129.245 197.274L129.24 196.524C129.113 196.525 128.986 196.525 128.86 196.525C128.733 196.525 128.606 196.525 128.479 196.524L128.474 197.274C126.407 197.26 124.366 197.136 122.356 196.906L122.442 196.161C122.191 196.132 121.94 196.101 121.69 196.069L121.595 196.813C119.55 196.551 117.539 196.18 115.568 195.706L115.744 194.977C115.499 194.918 115.255 194.857 115.011 194.795L114.826 195.522C112.833 195.013 110.882 194.399 108.979 193.685L109.242 192.983C109.006 192.895 108.77 192.804 108.535 192.713L108.262 193.411C106.351 192.664 104.489 191.817 102.684 190.874L103.031 190.209C102.808 190.093 102.585 189.975 102.363 189.855L102.007 190.515C100.204 189.543 98.4587 188.475 96.7782 187.32L97.2031 186.702C96.9953 186.559 96.7885 186.415 96.5826 186.269L96.1494 186.881C94.4793 185.699 92.8753 184.429 91.344 183.078L91.8402 182.516C91.6512 182.349 91.4633 182.181 91.2765 182.011L90.7728 182.567C89.2588 181.195 87.8184 179.742 86.4584 178.215L87.0184 177.716C86.8508 177.528 86.6844 177.338 86.5192 177.148L85.9525 177.639C84.6155 176.097 83.3593 174.482 82.1905 172.801L82.8062 172.373C82.6623 172.166 82.5196 171.958 82.3783 171.749L81.7569 172.169C80.6157 170.48 79.562 168.727 78.6022 166.915L79.2649 166.564C79.147 166.341 79.0305 166.118 78.9155 165.894L78.2481 166.236C77.3195 164.425 76.484 162.558 75.7482 160.641L76.4484 160.372C76.358 160.137 76.2691 159.9 76.1818 159.663L75.478 159.922C74.7757 158.016 74.1713 156.062 73.6711 154.067L74.3986 153.884C74.3375 153.64 74.278 153.396 74.22 153.151L73.4901 153.323C73.0238 151.351 72.6589 149.339 72.4013 147.293L73.1454 147.2C73.1139 146.949 73.084 146.699 73.0558 146.447L72.3105 146.531C72.0845 144.521 71.9621 142.48 71.9485 140.413L72.6985 140.408C72.6977 140.281 72.6973 140.155 72.6973 140.028C72.6973 139.901 72.6977 139.774 72.6985 139.647L71.9485 139.643C71.9621 137.575 72.0845 135.534 72.3105 133.524L73.0558 133.608C73.084 133.357 73.1139 133.106 73.1454 132.856L72.4013 132.762C72.6589 130.716 73.0238 128.704 73.4901 126.732L74.22 126.904C74.278 126.659 74.3375 126.415 74.3986 126.171L73.6711 125.989C74.1713 123.993 74.7757 122.039 75.478 120.133L76.1818 120.392C76.2691 120.155 76.358 119.919 76.4484 119.683L75.7482 119.415C76.484 117.498 77.3195 115.63 78.2481 113.819L78.9155 114.162C79.0305 113.937 79.147 113.714 79.2649 113.491L78.6022 113.14C79.562 111.329 80.6157 109.575 81.7569 107.887L82.3783 108.306C82.5196 108.097 82.6623 107.889 82.8062 107.682L82.1905 107.254C83.3593 105.573 84.6155 103.958 85.9525 102.416L86.5192 102.908C86.6844 102.717 86.8508 102.528 87.0184 102.34L86.4584 101.841C87.8184 100.314 89.2588 98.8607 90.7728 97.4883L91.2765 98.044C91.4633 97.8747 91.6512 97.7066 91.8402 97.5398L91.344 96.9774C92.8753 95.6261 94.4793 94.3562 96.1494 93.1743L96.5826 93.7865C96.7885 93.6408 96.9953 93.4965 97.2031 93.3536L96.7782 92.7356C98.4587 91.5799 100.204 90.5125 102.007 89.5399L102.363 90.2001C102.585 90.0805 102.808 89.9625 103.031 89.8459L102.684 89.181C104.489 88.2388 106.351 87.3911 108.262 86.6443L108.535 87.3428C108.77 87.2511 109.006 87.1608 109.242 87.0722L108.979 86.3699C110.882 85.6563 112.833 85.0421 114.826 84.5337L115.011 85.2604C115.255 85.1983 115.499 85.1377 115.744 85.0788L115.568 84.3496C117.539 83.8753 119.55 83.5041 121.595 83.2421L121.69 83.986C121.94 83.9539 122.191 83.9235 122.442 83.8948L122.356 83.1497C124.366 82.9198 126.407 82.7951 128.474 82.7813L128.479 83.5313C128.606 83.5305 128.733 83.53 128.86 83.53C128.986 83.53 129.113 83.5305 129.24 83.5313L129.245 82.7813C131.312 82.7951 133.353 82.9198 135.363 83.1497L135.277 83.8948C135.529 83.9235 135.779 83.9539 136.029 83.986L136.124 83.2421C138.169 83.5041 140.18 83.8753 142.151 84.3496L141.976 85.0788C142.22 85.1377 142.465 85.1983 142.708 85.2604L142.893 84.5337C144.886 85.0421 146.838 85.6563 148.74 86.3699L148.477 87.0722C148.713 87.1608 148.949 87.2511 149.184 87.3428L149.457 86.6443C151.369 87.3911 153.23 88.2388 155.035 89.181L154.688 89.8459C154.912 89.9625 155.134 90.0805 155.356 90.2001L155.712 89.5399C157.515 90.5125 159.261 91.5799 160.941 92.7356L160.516 93.3536C160.724 93.4965 160.931 93.6408 161.137 93.7865L161.57 93.1743C163.24 94.3562 164.844 95.6261 166.375 96.9774L165.879 97.5398C166.068 97.7066 166.256 97.8747 166.443 98.044L166.946 97.4883C168.46 98.8607 169.901 100.314 171.261 101.841L170.701 102.34C170.868 102.528 171.035 102.717 171.2 102.908L171.767 102.416C173.104 103.958 174.36 105.573 175.529 107.254L174.913 107.682C175.057 107.889 175.2 108.097 175.341 108.306L175.962 107.887C177.103 109.575 178.157 111.329 179.117 113.14L178.454 113.491C178.572 113.714 178.689 113.937 178.804 114.162L179.471 113.819C180.4 115.63 181.235 117.498 181.971 119.415L181.271 119.683C181.361 119.919 181.45 120.155 181.537 120.392L182.241 120.133C182.944 122.039 183.548 123.993 184.048 125.989L183.321 126.171C183.382 126.415 183.441 126.659 183.499 126.904L184.229 126.732C184.695 128.704 185.06 130.716 185.318 132.762L184.574 132.856C184.605 133.106 184.635 133.357 184.663 133.608L185.409 133.524Z" stroke="#F85454" stroke-width="1.5" stroke-dasharray="0.75 6"/>
<path d="M190.922 132.632C191.108 134.546 191.209 136.485 191.22 138.445L190.095 138.451C190.095 138.502 190.095 138.553 190.095 138.603C190.096 138.672 190.096 138.741 190.096 138.811C190.096 138.93 190.095 139.05 190.095 139.17L191.22 139.176C191.209 141.136 191.108 143.075 190.922 144.989L189.802 144.88C189.779 145.118 189.755 145.355 189.729 145.592L190.848 145.714C190.636 147.658 190.336 149.576 189.952 151.463L188.849 151.239C188.802 151.473 188.753 151.707 188.702 151.94L189.802 152.177C189.39 154.086 188.892 155.963 188.311 157.803L187.239 157.464C187.167 157.692 187.094 157.919 187.019 158.146L188.088 158.497C187.48 160.349 186.788 162.164 186.017 163.936L184.986 163.487C184.89 163.706 184.794 163.924 184.696 164.141L185.723 164.602C184.925 166.378 184.048 168.111 183.095 169.795L182.116 169.241C181.998 169.448 181.88 169.655 181.76 169.861L182.733 170.426C181.755 172.108 180.702 173.74 179.578 175.317L178.662 174.664C178.523 174.858 178.384 175.052 178.244 175.244L179.152 175.907C178.006 177.477 176.789 178.991 175.506 180.444L174.663 179.7C174.505 179.878 174.346 180.056 174.187 180.233L175.021 180.987C173.72 182.428 172.352 183.807 170.924 185.121L170.162 184.293C169.987 184.454 169.81 184.614 169.633 184.774L170.385 185.61C168.942 186.907 167.439 188.137 165.88 189.295L165.209 188.393C165.017 188.535 164.825 188.676 164.633 188.815L165.293 189.726C163.724 190.864 162.101 191.93 160.427 192.92L159.855 191.952C159.65 192.073 159.444 192.193 159.238 192.312L159.799 193.287C158.122 194.253 156.395 195.143 154.625 195.952L154.157 194.929C153.941 195.028 153.723 195.125 153.505 195.222L153.961 196.251C152.193 197.033 150.383 197.736 148.534 198.354L148.178 197.287C147.952 197.362 147.725 197.436 147.498 197.509L147.842 198.58C146.004 199.17 144.13 199.677 142.223 200.096L141.981 198.997C141.748 199.048 141.515 199.098 141.281 199.146L141.509 200.248C139.623 200.639 137.706 200.944 135.762 201.159L135.638 200.041C135.401 200.068 135.164 200.092 134.926 200.116L135.037 201.235C133.124 201.425 131.185 201.527 129.225 201.538L129.219 200.413C129.099 200.414 128.979 200.414 128.859 200.414C128.74 200.414 128.62 200.414 128.5 200.413L128.494 201.538C126.534 201.527 124.595 201.425 122.682 201.235L122.792 200.116C122.555 200.092 122.318 200.068 122.081 200.041L121.957 201.159C120.013 200.944 118.096 200.639 116.21 200.248L116.438 199.146C116.204 199.098 115.97 199.048 115.737 198.997L115.496 200.096C113.589 199.677 111.715 199.17 109.877 198.58L110.221 197.509C109.994 197.436 109.767 197.362 109.541 197.287L109.185 198.354C107.336 197.736 105.525 197.033 103.758 196.251L104.214 195.222C103.996 195.125 103.778 195.028 103.562 194.929L103.094 195.952C101.324 195.143 99.5973 194.253 97.9199 193.287L98.4813 192.312C98.2749 192.193 98.0691 192.073 97.8642 191.952L97.2914 192.92C95.618 191.93 93.9945 190.864 92.4257 189.726L93.0863 188.815C92.8934 188.676 92.7014 188.535 92.5103 188.393L91.8392 189.295C90.2803 188.137 88.7769 186.907 87.3338 185.61L88.0856 184.774C87.9084 184.614 87.7321 184.454 87.5567 184.293L86.7952 185.121C85.3668 183.807 83.9993 182.428 82.6975 180.987L83.5323 180.233C83.3726 180.056 83.2139 179.878 83.0562 179.7L82.2129 180.444C80.9297 178.991 79.7128 177.477 78.5666 175.907L79.4752 175.244C79.3348 175.052 79.1954 174.858 79.0571 174.664L78.141 175.317C77.0169 173.74 75.9637 172.108 74.9861 170.426L75.9587 169.861C75.8391 169.655 75.7205 169.448 75.6032 169.241L74.624 169.795C73.6712 168.111 72.7937 166.378 71.9961 164.602L73.0224 164.141C72.9248 163.924 72.8284 163.706 72.7333 163.487L71.7017 163.936C70.9308 162.164 70.239 160.349 69.6308 158.497L70.6996 158.146C70.6253 157.919 70.5522 157.692 70.4803 157.464L69.4075 157.803C68.8271 155.963 68.3288 154.086 67.9169 152.177L69.0166 151.94C68.9663 151.707 68.9172 151.473 68.8695 151.239L67.7671 151.463C67.3829 149.576 67.083 147.658 66.8713 145.714L67.9897 145.592C67.964 145.355 67.9395 145.118 67.9164 144.88L66.7967 144.989C66.6107 143.075 66.5102 141.136 66.4991 139.176L67.6241 139.17C67.6234 139.05 67.623 138.93 67.623 138.811C67.623 138.691 67.6234 138.571 67.6241 138.451L66.4991 138.445C66.5102 136.485 66.6107 134.546 66.7967 132.632L67.9164 132.741C67.9395 132.503 67.964 132.266 67.9897 132.029L66.8713 131.908C67.083 129.963 67.3829 128.045 67.7671 126.158L68.8695 126.383C68.9172 126.148 68.9663 125.914 69.0166 125.681L67.9169 125.444C68.3288 123.535 68.8271 121.658 69.4075 119.818L70.4803 120.157C70.5522 119.929 70.6253 119.702 70.6996 119.475L69.6308 119.124C70.2391 117.272 70.9308 115.457 71.7017 113.685L72.7333 114.134C72.8284 113.916 72.9248 113.698 73.0224 113.48L71.9961 113.019C72.7937 111.243 73.6712 109.51 74.624 107.826L75.6032 108.38C75.7205 108.173 75.8391 107.966 75.9587 107.76L74.9861 107.195C75.9637 105.513 77.0169 103.881 78.141 102.304L79.0571 102.957C79.1954 102.763 79.3348 102.57 79.4752 102.377L78.5667 101.714C79.7128 100.144 80.9297 98.6303 82.2129 97.1768L83.0563 97.9213C83.2139 97.7427 83.3726 97.5651 83.5323 97.3884L82.6975 96.6341C83.9993 95.1934 85.3668 93.8138 86.7952 92.5003L87.5567 93.3284C87.7321 93.1671 87.9084 93.0069 88.0856 92.8476L87.3338 92.0108C88.7769 90.7143 90.2803 89.4843 91.8393 88.3257L92.5103 89.2287C92.7015 89.0866 92.8934 88.9456 93.0863 88.8058L92.4257 87.8951C93.9945 86.7573 95.618 85.691 97.2914 84.701L97.8642 85.6693C98.0691 85.5481 98.2749 85.428 98.4813 85.3091L97.9199 84.3342C99.5973 83.3682 101.324 82.4783 103.094 81.6693L103.562 82.6925C103.778 82.5935 103.996 82.4957 104.214 82.3992L103.758 81.3706C105.525 80.5879 107.336 79.8854 109.185 79.2676L109.541 80.3346C109.767 80.2591 109.994 80.1848 110.221 80.1119L109.877 79.0407C111.715 78.4508 113.589 77.9442 115.496 77.5254L115.737 78.6242C115.97 78.573 116.204 78.5232 116.438 78.4747L116.21 77.3731C118.096 76.9822 120.013 76.677 121.957 76.4617L122.081 77.5799C122.318 77.5536 122.555 77.5288 122.792 77.5052L122.682 76.3857C124.595 76.1964 126.534 76.0942 128.494 76.0828L128.5 77.2078C128.62 77.2071 128.74 77.2068 128.859 77.2068C128.979 77.2068 129.099 77.2071 129.219 77.2078L129.225 76.0828C131.185 76.0942 133.124 76.1964 135.037 76.3857L134.926 77.5052C135.164 77.5288 135.401 77.5536 135.638 77.5799L135.762 76.4617C137.706 76.677 139.623 76.9822 141.509 77.3731L141.281 78.4747C141.515 78.5232 141.748 78.573 141.981 78.6242L142.223 77.5254C144.13 77.9442 146.004 78.4508 147.842 79.0407L147.498 80.1119C147.725 80.1848 147.952 80.2591 148.178 80.3346L148.534 79.2676C150.383 79.8854 152.193 80.5879 153.961 81.3706L153.505 82.3992C153.723 82.4957 153.941 82.5935 154.157 82.6925L154.625 81.6693C156.395 82.4783 158.122 83.3682 159.799 84.3342L159.238 85.3091C159.444 85.428 159.65 85.5481 159.855 85.6693L160.427 84.701C162.101 85.691 163.724 86.7573 165.293 87.8951L164.633 88.8058C164.825 88.9457 165.017 89.0866 165.209 89.2287L165.88 88.3257C167.439 89.4843 168.942 90.7143 170.385 92.0108L169.633 92.8476C169.81 93.0069 169.987 93.1671 170.162 93.3284L170.924 92.5003C172.352 93.8138 173.72 95.1934 175.021 96.6341L174.187 97.3884C174.346 97.5651 174.505 97.7428 174.663 97.9213L175.506 97.1768C176.789 98.6303 178.006 100.144 179.152 101.714L178.244 102.377C178.384 102.57 178.523 102.763 178.662 102.957L179.578 102.304C180.702 103.881 181.755 105.513 182.733 107.195L181.76 107.76C181.88 107.966 181.998 108.173 182.116 108.38L183.095 107.826C184.048 109.51 184.925 111.243 185.723 113.019L184.696 113.48C184.794 113.698 184.89 113.916 184.986 114.134L186.017 113.685C186.788 115.457 187.48 117.272 188.088 119.124L187.019 119.475C187.094 119.702 187.167 119.929 187.239 120.157L188.311 119.818C188.892 121.658 189.39 123.535 189.802 125.444L188.702 125.681C188.753 125.914 188.802 126.148 188.849 126.383L189.952 126.158C190.336 128.045 190.636 129.963 190.848 131.908L189.729 132.029C189.755 132.266 189.779 132.503 189.802 132.741L190.922 132.632Z" stroke="#F85454" stroke-width="2.25" stroke-dasharray="0.75 6"/>
<path opacity="0.2" d="M218.143 109.673C218.485 110.736 218.808 111.807 219.114 112.888L218.031 113.195C219.512 118.435 220.556 123.88 221.116 129.492C221.676 135.104 221.73 140.649 221.314 146.081L222.435 146.166C222.35 147.286 222.244 148.4 222.12 149.51L221.002 149.386C219.741 160.605 216.475 171.296 211.543 181.044L212.547 181.551C212.041 182.552 211.517 183.543 210.976 184.523L209.992 183.981C204.628 193.709 197.572 202.414 189.181 209.656L189.916 210.508C189.068 211.24 188.207 211.957 187.332 212.659L186.629 211.781C178.096 218.63 168.301 224.015 157.585 227.515L157.933 228.584C156.871 228.931 155.8 229.259 154.721 229.569L154.412 228.488C149.176 229.991 143.734 231.049 138.123 231.616C132.513 232.182 126.971 232.233 121.542 231.808L121.453 232.929C120.334 232.841 119.219 232.734 118.11 232.606L118.24 231.488C107.046 230.201 96.3822 226.883 86.6664 221.877L86.1504 222.878C85.1546 222.365 84.1687 221.834 83.1931 221.286L83.7445 220.305C74.0897 214.885 65.4542 207.765 58.2753 199.303L57.4173 200.032C56.6936 199.179 55.9846 198.313 55.2906 197.433L56.1739 196.735C49.414 188.168 44.1009 178.344 40.6476 167.601L39.5767 167.946C39.235 166.884 38.9114 165.812 38.6061 164.732L39.6886 164.425C38.2077 159.184 37.1641 153.739 36.6039 148.127C36.0437 142.515 35.9903 136.97 36.406 131.538L35.2845 131.454C35.3701 130.334 35.4755 129.219 35.6003 128.109L36.7181 128.234C37.9793 117.014 41.2446 106.323 46.1764 96.5756L45.1728 96.0685C45.6791 95.0677 46.2028 94.0768 46.7434 93.0962L47.7283 93.6387C53.0916 83.9108 60.1475 75.2058 68.5384 67.9631L67.804 67.1116C68.6519 66.3798 69.5133 65.6626 70.3878 64.9607L71.0912 65.8379C79.6238 58.989 89.419 53.6046 100.135 50.1048L99.7871 49.0352C100.849 48.6885 101.92 48.36 102.999 48.0502L103.308 49.1316C108.544 47.6286 113.986 46.5703 119.596 46.0037C125.207 45.4371 130.749 45.386 136.178 45.8119L136.267 44.6902C137.386 44.778 138.5 44.8858 139.61 45.0134L139.48 46.1311C150.674 47.4181 161.338 50.7362 171.053 55.7422L171.57 54.7418C172.565 55.2549 173.551 55.7854 174.527 56.3331L173.975 57.3144C183.63 62.7346 192.266 69.8549 199.445 78.316L200.303 77.5874C201.026 78.4404 201.735 79.3068 202.429 80.1863L201.546 80.884C208.306 89.4509 213.619 99.2757 217.072 110.019L218.143 109.673Z" stroke="#F85454" stroke-width="2.25" stroke-dasharray="30 3"/>
<path d="M176.866 131.152C177.133 133.172 177.278 135.231 177.294 137.321L176.544 137.326C176.545 137.454 176.546 137.582 176.546 137.709C176.546 137.837 176.545 137.965 176.544 138.092L177.294 138.098C177.278 140.188 177.133 142.246 176.866 144.266L176.123 144.168C176.09 144.419 176.055 144.67 176.018 144.92L176.759 145.03C176.455 147.091 176.023 149.11 175.473 151.079L174.751 150.877C174.682 151.121 174.612 151.365 174.54 151.608L175.259 151.821C174.669 153.812 173.957 155.75 173.132 157.626L172.446 157.324C172.343 157.556 172.239 157.788 172.134 158.018L172.815 158.331C171.952 160.214 170.973 162.033 169.889 163.777L169.252 163.381C169.118 163.597 168.982 163.811 168.845 164.025L169.476 164.43C168.357 166.169 167.132 167.832 165.81 169.408L165.236 168.927C165.072 169.121 164.908 169.315 164.742 169.506L165.309 169.997C163.958 171.558 162.511 173.032 160.977 174.408L160.476 173.85C160.287 174.019 160.097 174.187 159.906 174.354L160.398 174.92C158.842 176.272 157.201 177.525 155.484 178.671L155.068 178.047C154.857 178.188 154.644 178.327 154.431 178.465L154.837 179.095C153.109 180.209 151.305 181.215 149.437 182.104L149.115 181.427C148.886 181.536 148.656 181.643 148.425 181.748L148.736 182.43C146.87 183.282 144.94 184.017 142.957 184.626L142.737 183.909C142.495 183.984 142.252 184.056 142.008 184.127L142.217 184.847C140.252 185.417 138.237 185.863 136.178 186.179L136.065 185.438C135.815 185.476 135.565 185.513 135.314 185.547L135.415 186.29C133.396 186.566 131.338 186.717 129.248 186.734L129.242 185.984C129.115 185.985 128.987 185.985 128.86 185.985C128.732 185.985 128.605 185.985 128.477 185.984L128.471 186.734C126.382 186.717 124.323 186.566 122.304 186.29L122.406 185.547C122.155 185.513 121.905 185.476 121.655 185.438L121.541 186.179C119.483 185.863 117.467 185.417 115.503 184.847L115.711 184.127C115.468 184.056 115.225 183.984 114.983 183.909L114.763 184.626C112.779 184.017 110.85 183.282 108.983 182.43L109.295 181.748C109.064 181.643 108.834 181.536 108.605 181.427L108.283 182.104C106.414 181.215 104.611 180.209 102.882 179.095L103.289 178.465C103.075 178.327 102.863 178.188 102.652 178.047L102.236 178.671C100.518 177.525 98.8774 176.272 97.3221 174.92L97.8141 174.354C97.6225 174.187 97.4322 174.019 97.2433 173.85L96.7425 174.408C95.2085 173.032 93.7615 171.558 92.4108 169.997L92.9779 169.506C92.8118 169.315 92.6472 169.121 92.4841 168.927L91.9093 169.408C90.5877 167.832 89.3628 166.169 88.2439 164.43L88.8746 164.025C88.7373 163.811 88.6016 163.597 88.4676 163.381L87.8306 163.777C86.7466 162.033 85.7682 160.214 84.9044 158.331L85.5861 158.018C85.4804 157.788 85.3764 157.556 85.2741 157.324L84.5876 157.626C83.7627 155.75 83.0507 153.812 82.4604 151.821L83.1795 151.608C83.1075 151.365 83.0373 151.121 82.969 150.877L82.2467 151.079C81.6967 149.11 81.2651 147.091 80.9602 145.03L81.7021 144.92C81.6651 144.67 81.63 144.419 81.5968 144.168L80.8533 144.266C80.5866 142.246 80.4413 140.188 80.4253 138.098L81.1753 138.092C81.1743 137.965 81.1738 137.837 81.1738 137.709C81.1738 137.582 81.1743 137.454 81.1753 137.326L80.4253 137.321C80.4413 135.231 80.5866 133.172 80.8533 131.152L81.5968 131.25C81.63 130.999 81.6651 130.748 81.7021 130.498L80.9602 130.388C81.2651 128.327 81.6967 126.309 82.2467 124.34L82.969 124.542C83.0373 124.297 83.1075 124.054 83.1795 123.811L82.4604 123.597C83.0507 121.606 83.7627 119.668 84.5876 117.793L85.2741 118.095C85.3764 117.862 85.4804 117.631 85.5861 117.4L84.9044 117.087C85.7682 115.204 86.7466 113.386 87.8306 111.642L88.4676 112.038C88.6016 111.822 88.7373 111.607 88.8746 111.394L88.2439 110.988C89.3628 109.249 90.5877 107.587 91.9093 106.01L92.4841 106.492C92.6472 106.297 92.8118 106.104 92.9779 105.912L92.4108 105.421C93.7615 103.86 95.2085 102.387 96.7425 101.011L97.2433 101.569C97.4323 101.399 97.6225 101.231 97.8141 101.065L97.3221 100.499C98.8774 99.147 100.518 97.8934 102.236 96.7475L102.652 97.3713C102.863 97.2305 103.075 97.0914 103.289 96.9539L102.882 96.3235C104.611 95.2095 106.414 94.2034 108.283 93.3146L108.605 93.9919C108.834 93.883 109.064 93.7759 109.295 93.6706L108.983 92.9882C110.85 92.137 112.779 91.4019 114.763 90.7922L114.983 91.5091C115.225 91.4347 115.468 91.3622 115.711 91.2916L115.503 90.5712C117.467 90.0019 119.483 89.5551 121.541 89.2393L121.655 89.9807C121.905 89.9424 122.155 89.906 122.406 89.8716L122.304 89.1286C124.323 88.8521 126.382 88.7015 128.471 88.6849L128.477 89.4349C128.605 89.4339 128.732 89.4333 128.86 89.4333C128.987 89.4333 129.115 89.4339 129.242 89.4349L129.248 88.6849C131.338 88.7015 133.396 88.8521 135.415 89.1286L135.314 89.8716C135.565 89.906 135.815 89.9424 136.065 89.9807L136.178 89.2393C138.237 89.5551 140.252 90.0019 142.217 90.5712L142.008 91.2916C142.252 91.3622 142.495 91.4347 142.737 91.5091L142.957 90.7922C144.94 91.4019 146.87 92.137 148.736 92.9882L148.425 93.6706C148.656 93.7759 148.886 93.883 149.115 93.9919L149.437 93.3146C151.305 94.2034 153.109 95.2095 154.837 96.3235L154.431 96.9539C154.644 97.0914 154.857 97.2305 155.068 97.3713L155.484 96.7475C157.201 97.8934 158.842 99.147 160.398 100.499L159.906 101.065C160.097 101.231 160.287 101.399 160.476 101.569L160.977 101.011C162.511 102.387 163.958 103.86 165.309 105.421L164.742 105.912C164.908 106.104 165.072 106.297 165.236 106.492L165.81 106.01C167.132 107.587 168.357 109.249 169.476 110.988L168.845 111.394C168.982 111.607 169.118 111.822 169.252 112.038L169.889 111.642C170.973 113.386 171.952 115.204 172.815 117.087L172.134 117.4C172.239 117.631 172.343 117.862 172.446 118.095L173.132 117.793C173.957 119.668 174.669 121.606 175.259 123.597L174.54 123.811C174.612 124.054 174.682 124.297 174.751 124.542L175.473 124.34C176.023 126.309 176.455 128.327 176.759 130.388L176.018 130.498C176.055 130.748 176.09 130.999 176.123 131.25L176.866 131.152Z" stroke="#F85454" stroke-opacity="0.7" stroke-width="1.5" stroke-dasharray="0.75 6"/>
<path d="M170.784 131.119C171.068 133.051 171.223 135.025 171.24 137.032L170.49 137.038C170.491 137.16 170.492 137.282 170.492 137.404C170.492 137.527 170.491 137.649 170.49 137.771L171.24 137.777C171.223 139.784 171.068 141.758 170.784 143.69L170.042 143.581C170.007 143.822 169.969 144.062 169.93 144.302L170.67 144.424C170.345 146.396 169.886 148.323 169.301 150.194L168.585 149.97C168.513 150.202 168.438 150.434 168.362 150.665L169.074 150.901C168.447 152.792 167.692 154.623 166.819 156.386L166.147 156.053C166.039 156.271 165.929 156.488 165.818 156.704L166.484 157.048C165.572 158.813 164.54 160.505 163.4 162.114L162.788 161.681C162.648 161.879 162.506 162.076 162.362 162.272L162.967 162.716C161.793 164.313 160.511 165.825 159.132 167.24L158.595 166.717C158.425 166.891 158.254 167.064 158.082 167.235L158.61 167.767C157.205 169.16 155.705 170.455 154.118 171.641L153.669 171.04C153.475 171.185 153.279 171.329 153.082 171.471L153.521 172.08C151.92 173.234 150.236 174.278 148.479 175.203L148.13 174.539C147.915 174.652 147.699 174.763 147.482 174.873L147.819 175.543C146.062 176.428 144.235 177.195 142.348 177.831L142.109 177.121C141.878 177.198 141.647 177.274 141.415 177.348L141.643 178.062C139.774 178.656 137.849 179.123 135.878 179.454L135.754 178.714C135.515 178.754 135.275 178.792 135.034 178.828L135.145 179.57C133.213 179.859 131.24 180.017 129.233 180.034L129.226 179.284C129.104 179.285 128.982 179.286 128.86 179.286C128.738 179.286 128.616 179.285 128.494 179.284L128.487 180.034C126.48 180.017 124.507 179.859 122.575 179.57L122.686 178.828C122.445 178.792 122.205 178.754 121.966 178.714L121.842 179.454C119.871 179.123 117.946 178.656 116.078 178.062L116.305 177.348C116.073 177.274 115.842 177.198 115.611 177.121L115.372 177.831C113.485 177.195 111.658 176.428 109.901 175.543L110.238 174.873C110.021 174.763 109.805 174.652 109.59 174.539L109.241 175.203C107.485 174.278 105.8 173.234 104.199 172.08L104.638 171.471C104.441 171.329 104.245 171.185 104.051 171.04L103.602 171.641C102.016 170.455 100.515 169.16 99.1101 167.767L99.6382 167.235C99.4657 167.064 99.2946 166.891 99.125 166.717L98.5878 167.24C97.2087 165.825 95.927 164.313 94.7535 162.716L95.3579 162.272C95.2142 162.076 95.072 161.879 94.9316 161.681L94.3196 162.114C93.1798 160.505 92.1483 158.813 91.236 157.048L91.9022 156.704C91.7906 156.488 91.6809 156.271 91.573 156.053L90.9009 156.386C90.0282 154.623 89.2732 152.792 88.6463 150.901L89.3582 150.665C89.2817 150.434 89.2072 150.202 89.1346 149.97L88.4187 150.194C87.8345 148.323 87.3751 146.396 87.0503 144.424L87.7903 144.302C87.7508 144.062 87.7134 143.822 87.678 143.581L86.9359 143.69C86.6522 141.758 86.4972 139.784 86.4801 137.777L87.2301 137.771C87.229 137.649 87.2285 137.527 87.2285 137.404C87.2285 137.282 87.229 137.16 87.2301 137.038L86.4801 137.032C86.4972 135.025 86.6522 133.051 86.9359 131.119L87.678 131.228C87.7134 130.987 87.7508 130.747 87.7903 130.507L87.0503 130.385C87.3751 128.413 87.8345 126.486 88.4187 124.615L89.1346 124.839C89.2072 124.606 89.2817 124.375 89.3582 124.144L88.6463 123.908C89.2732 122.017 90.0282 120.185 90.9009 118.423L91.573 118.756C91.6809 118.538 91.7906 118.321 91.9022 118.105L91.236 117.761C92.1483 115.996 93.1798 114.304 94.3196 112.695L94.9316 113.128C95.072 112.93 95.2142 112.733 95.3579 112.537L94.7535 112.093C95.927 110.496 97.2087 108.984 98.5878 107.568L99.125 108.092C99.2946 107.918 99.4657 107.745 99.6382 107.574L99.1101 107.042C100.515 105.649 102.016 104.354 103.602 103.168L104.051 103.769C104.245 103.623 104.441 103.48 104.638 103.338L104.199 102.729C105.8 101.575 107.485 100.53 109.241 99.6061L109.59 100.27C109.805 100.157 110.021 100.045 110.238 99.9361L109.901 99.2663C111.658 98.3806 113.485 97.6142 115.372 96.9777L115.611 97.6883C115.842 97.6106 116.073 97.5349 116.305 97.4612L116.078 96.7464C117.946 96.1525 119.871 95.6854 121.842 95.355L121.966 96.0947C122.205 96.0545 122.445 96.0164 122.686 95.9804L122.575 95.2387C124.507 94.9499 126.48 94.7922 128.487 94.7748L128.494 95.5248C128.616 95.5237 128.738 95.5232 128.86 95.5232C128.982 95.5232 129.104 95.5237 129.226 95.5248L129.233 94.7748C131.24 94.7922 133.213 94.9499 135.145 95.2387L135.034 95.9804C135.275 96.0164 135.515 96.0545 135.754 96.0947L135.878 95.355C137.849 95.6854 139.774 96.1525 141.643 96.7464L141.415 97.4612C141.647 97.5349 141.878 97.6106 142.109 97.6883L142.348 96.9777C144.235 97.6142 146.062 98.3806 147.819 99.2663L147.482 99.9361C147.699 100.045 147.915 100.157 148.13 100.27L148.479 99.6061C150.236 100.53 151.92 101.575 153.521 102.729L153.082 103.338C153.279 103.48 153.475 103.623 153.669 103.769L154.118 103.168C155.705 104.354 157.205 105.649 158.61 107.042L158.082 107.574C158.254 107.745 158.425 107.918 158.595 108.092L159.132 107.568C160.511 108.984 161.793 110.496 162.967 112.093L162.362 112.537C162.506 112.733 162.648 112.93 162.788 113.128L163.401 112.695C164.54 114.304 165.572 115.996 166.484 117.761L165.818 118.105C165.929 118.321 166.039 118.538 166.147 118.756L166.819 118.423C167.692 120.185 168.447 122.017 169.074 123.908L168.362 124.144C168.438 124.375 168.513 124.606 168.585 124.839L169.301 124.615C169.886 126.486 170.345 128.413 170.67 130.385L169.93 130.507C169.969 130.747 170.007 130.987 170.042 131.228L170.784 131.119Z" stroke="#F85454" stroke-opacity="0.6" stroke-width="1.5" stroke-dasharray="0.75 6"/>
<path d="M164.707 130.483C165.004 132.324 165.168 134.211 165.186 136.134L164.436 136.141C164.437 136.257 164.437 136.373 164.437 136.49C164.437 136.607 164.437 136.723 164.436 136.84L165.186 136.847C165.168 138.769 165.004 140.656 164.707 142.497L163.966 142.378C163.929 142.607 163.89 142.836 163.849 143.064L164.587 143.197C164.245 145.08 163.763 146.912 163.151 148.683L162.442 148.438C162.366 148.657 162.289 148.875 162.209 149.092L162.913 149.351C162.256 151.14 161.466 152.863 160.554 154.509L159.898 154.145C159.786 154.348 159.672 154.55 159.556 154.75L160.205 155.126C159.253 156.77 158.178 158.333 156.994 159.801L156.411 159.33C156.265 159.51 156.118 159.689 155.969 159.867L156.544 160.349C155.326 161.801 153.999 163.156 152.576 164.401L152.082 163.837C151.908 163.989 151.732 164.14 151.555 164.289L152.038 164.863C150.591 166.08 149.05 167.185 147.428 168.166L147.04 167.524C146.842 167.644 146.642 167.761 146.442 167.877L146.817 168.527C145.186 169.469 143.476 170.288 141.699 170.968L141.43 170.268C141.214 170.351 140.997 170.432 140.779 170.51L141.034 171.216C139.269 171.852 137.442 172.354 135.564 172.71L135.425 171.973C135.197 172.016 134.969 172.056 134.741 172.095L134.865 172.835C133.026 173.145 131.139 173.315 129.217 173.334L129.209 172.584C129.093 172.585 128.977 172.586 128.86 172.586C128.744 172.586 128.627 172.585 128.511 172.584L128.504 173.334C126.581 173.315 124.695 173.145 122.855 172.835L122.98 172.095C122.751 172.056 122.523 172.016 122.296 171.973L122.156 172.71C120.278 172.354 118.451 171.852 116.687 171.216L116.941 170.51C116.723 170.432 116.506 170.351 116.29 170.268L116.022 170.968C114.245 170.288 112.535 169.469 110.903 168.527L111.279 167.877C111.078 167.761 110.879 167.644 110.681 167.524L110.293 168.166C108.67 167.185 107.129 166.08 105.683 164.863L106.166 164.289C105.988 164.14 105.812 163.989 105.638 163.837L105.144 164.401C103.721 163.156 102.394 161.801 101.177 160.349L101.751 159.867C101.603 159.689 101.455 159.51 101.31 159.33L100.726 159.801C99.5422 158.333 98.4679 156.77 97.5157 155.126L98.1647 154.75C98.0486 154.55 97.9344 154.348 97.8221 154.145L97.166 154.509C96.2548 152.863 95.4646 151.14 94.8075 149.351L95.5115 149.092C95.4318 148.875 95.354 148.657 95.2783 148.438L94.5694 148.683C93.9575 146.912 93.475 145.08 93.1336 143.197L93.8716 143.064C93.8303 142.836 93.7911 142.607 93.754 142.378L93.0136 142.497C92.7159 140.656 92.5528 138.769 92.5349 136.847L93.2848 136.84C93.2837 136.723 93.2832 136.607 93.2832 136.49C93.2832 136.373 93.2837 136.257 93.2848 136.141L92.5349 136.134C92.5528 134.211 92.7159 132.324 93.0136 130.483L93.754 130.602C93.7911 130.373 93.8303 130.145 93.8716 129.917L93.1337 129.783C93.475 127.9 93.9575 126.068 94.5694 124.297L95.2783 124.542C95.354 124.323 95.4318 124.105 95.5115 123.888L94.8075 123.629C95.4646 121.84 96.2548 120.117 97.166 118.471L97.8221 118.835C97.9344 118.632 98.0486 118.43 98.1647 118.23L97.5157 117.854C98.4679 116.21 99.5422 114.648 100.726 113.179L101.31 113.65C101.455 113.47 101.603 113.291 101.751 113.113L101.177 112.631C102.394 111.179 103.721 109.824 105.144 108.579L105.638 109.144C105.812 108.991 105.988 108.84 106.166 108.691L105.683 108.117C107.129 106.9 108.67 105.795 110.293 104.814L110.681 105.456C110.879 105.337 111.078 105.219 111.279 105.103L110.903 104.453C112.535 103.511 114.245 102.693 116.022 102.012L116.29 102.712C116.506 102.629 116.723 102.548 116.941 102.47L116.687 101.764C118.451 101.128 120.278 100.626 122.156 100.271L122.296 101.008C122.523 100.965 122.751 100.924 122.98 100.885L122.855 100.146C124.695 99.8352 126.581 99.665 128.504 99.6463L128.511 100.396C128.627 100.395 128.744 100.395 128.86 100.395C128.977 100.395 129.093 100.395 129.209 100.396L129.217 99.6463C131.139 99.665 133.026 99.8352 134.865 100.146L134.741 100.885C134.969 100.924 135.197 100.965 135.425 101.008L135.564 100.271C137.442 100.626 139.269 101.128 141.034 101.764L140.779 102.47C140.997 102.548 141.214 102.629 141.43 102.712L141.699 102.012C143.476 102.693 145.186 103.511 146.817 104.453L146.442 105.103C146.642 105.219 146.842 105.337 147.04 105.456L147.428 104.814C149.05 105.795 150.591 106.9 152.038 108.117L151.555 108.691C151.732 108.84 151.908 108.991 152.082 109.144L152.576 108.579C153.999 109.824 155.326 111.179 156.544 112.631L155.969 113.113C156.118 113.291 156.265 113.47 156.411 113.65L156.994 113.179C158.178 114.648 159.253 116.21 160.205 117.854L159.556 118.23C159.672 118.43 159.786 118.632 159.898 118.835L160.554 118.471C161.466 120.117 162.256 121.84 162.913 123.629L162.209 123.888C162.289 124.105 162.366 124.323 162.442 124.542L163.151 124.297C163.763 126.068 164.245 127.9 164.587 129.783L163.849 129.917C163.89 130.145 163.929 130.373 163.966 130.602L164.707 130.483Z" stroke="#F85454" stroke-opacity="0.5" stroke-width="1.5" stroke-dasharray="0.75 6"/>
<path d="M158.465 127.97C158.877 129.911 159.106 131.921 159.131 133.979L158.381 133.989C158.382 134.112 158.383 134.236 158.383 134.36C158.383 134.483 158.382 134.607 158.381 134.731L159.131 134.74C159.106 136.799 158.877 138.808 158.465 140.749L157.732 140.594C157.68 140.835 157.626 141.075 157.569 141.314L158.299 141.488C157.825 143.475 157.157 145.387 156.317 147.201L155.637 146.886C155.533 147.109 155.427 147.331 155.318 147.552L155.991 147.884C155.092 149.705 154.018 151.422 152.79 153.014L152.196 152.555C152.045 152.75 151.893 152.943 151.737 153.134L152.32 153.607C151.046 155.176 149.619 156.616 148.063 157.902L147.585 157.323C147.395 157.48 147.204 157.635 147.01 157.787L147.473 158.376C145.89 159.619 144.181 160.708 142.369 161.618L142.032 160.948C141.812 161.058 141.591 161.166 141.368 161.271L141.688 161.949C139.878 162.802 137.971 163.48 135.987 163.962L135.81 163.233C135.571 163.291 135.331 163.346 135.09 163.398L135.249 164.131C133.308 164.55 131.299 164.783 129.241 164.808L129.231 164.058C129.108 164.06 128.984 164.06 128.86 164.06C128.737 164.06 128.613 164.06 128.49 164.058L128.48 164.808C126.422 164.783 124.412 164.55 122.472 164.131L122.631 163.398C122.39 163.346 122.15 163.291 121.911 163.233L121.734 163.962C119.75 163.48 117.843 162.802 116.033 161.949L116.352 161.271C116.13 161.166 115.908 161.058 115.689 160.948L115.352 161.618C113.539 160.708 111.831 159.619 110.248 158.376L110.711 157.787C110.517 157.635 110.326 157.48 110.136 157.323L109.658 157.902C108.102 156.616 106.675 155.176 105.401 153.607L105.983 153.134C105.828 152.943 105.675 152.75 105.525 152.555L104.931 153.014C103.703 151.422 102.629 149.705 101.73 147.884L102.402 147.552C102.294 147.331 102.187 147.109 102.084 146.886L101.403 147.201C100.563 145.387 99.8959 143.475 99.422 141.488L100.152 141.314C100.095 141.075 100.04 140.835 99.9891 140.594L99.2555 140.749C98.8434 138.808 98.6152 136.799 98.5902 134.74L99.3401 134.731C99.3386 134.607 99.3379 134.483 99.3379 134.36C99.3379 134.236 99.3386 134.112 99.3401 133.989L98.5902 133.979C98.6152 131.921 98.8434 129.911 99.2555 127.97L99.9891 128.125C100.04 127.884 100.095 127.644 100.152 127.405L99.422 127.231C99.8958 125.244 100.563 123.332 101.403 121.518L102.084 121.833C102.187 121.61 102.294 121.388 102.402 121.167L101.73 120.835C102.629 119.015 103.703 117.297 104.931 115.706L105.525 116.164C105.675 115.969 105.828 115.776 105.983 115.585L105.401 115.112C106.675 113.543 108.102 112.104 109.658 110.818L110.136 111.396C110.326 111.239 110.517 111.085 110.711 110.933L110.248 110.343C111.831 109.1 113.539 108.012 115.352 107.101L115.689 107.771C115.908 107.661 116.13 107.553 116.352 107.448L116.033 106.77C117.843 105.917 119.75 105.239 121.734 104.757L121.911 105.486C122.15 105.428 122.39 105.373 122.631 105.321L122.472 104.588C124.412 104.169 126.422 103.937 128.48 103.911L128.49 104.661C128.613 104.659 128.737 104.659 128.86 104.659C128.984 104.659 129.108 104.659 129.231 104.661L129.241 103.911C131.299 103.937 133.308 104.169 135.249 104.588L135.09 105.321C135.331 105.373 135.571 105.428 135.81 105.486L135.987 104.757C137.971 105.239 139.878 105.917 141.688 106.77L141.368 107.448C141.591 107.553 141.812 107.661 142.032 107.771L142.369 107.101C144.181 108.012 145.89 109.1 147.473 110.343L147.01 110.933C147.204 111.085 147.395 111.239 147.585 111.396L148.063 110.818C149.619 112.104 151.046 113.543 152.32 115.112L151.737 115.585C151.893 115.776 152.045 115.969 152.196 116.164L152.79 115.706C154.018 117.297 155.092 119.015 155.991 120.835L155.318 121.167C155.427 121.388 155.533 121.61 155.637 121.833L156.317 121.518C157.157 123.332 157.825 125.244 158.299 127.231L157.569 127.405C157.626 127.644 157.68 127.884 157.732 128.125L158.465 127.97Z" stroke="#F85454" stroke-opacity="0.4" stroke-width="1.5" stroke-dasharray="0.75 6"/>
<path d="M154.132 126.896C154.601 128.78 154.864 130.746 154.892 132.769L154.142 132.78C154.144 132.9 154.145 133.021 154.145 133.141C154.145 133.262 154.144 133.383 154.142 133.503L154.892 133.514C154.864 135.537 154.601 137.503 154.132 139.387L153.404 139.205C153.346 139.439 153.284 139.671 153.219 139.902L153.941 140.104C153.4 142.032 152.641 143.867 151.69 145.582L151.034 145.218C150.918 145.428 150.798 145.636 150.676 145.843L151.321 146.225C150.308 147.935 149.101 149.515 147.733 150.936L147.192 150.416C147.026 150.589 146.857 150.76 146.685 150.928L147.21 151.463C145.799 152.846 144.229 154.066 142.529 155.091L142.142 154.449C141.937 154.573 141.729 154.694 141.52 154.812L141.889 155.465C140.18 156.43 138.349 157.201 136.426 157.75L136.22 157.029C135.989 157.095 135.758 157.158 135.524 157.217L135.709 157.944C133.827 158.422 131.861 158.688 129.839 158.718L129.828 157.968C129.707 157.969 129.587 157.97 129.466 157.97C129.345 157.97 129.225 157.969 129.104 157.968L129.094 158.718C127.071 158.688 125.105 158.422 123.223 157.944L123.408 157.217C123.175 157.158 122.943 157.095 122.712 157.029L122.506 157.75C120.583 157.201 118.752 156.43 117.043 155.465L117.412 154.812C117.203 154.694 116.996 154.573 116.79 154.449L116.403 155.091C114.703 154.066 113.133 152.846 111.722 151.463L112.247 150.928C112.075 150.76 111.906 150.589 111.74 150.416L111.199 150.936C109.831 149.515 108.625 147.935 107.611 146.225L108.256 145.843C108.134 145.636 108.014 145.428 107.898 145.218L107.242 145.582C106.292 143.867 105.532 142.032 104.991 140.104L105.713 139.902C105.648 139.671 105.586 139.439 105.528 139.205L104.8 139.387C104.331 137.503 104.068 135.537 104.04 133.514L104.79 133.503C104.788 133.383 104.787 133.262 104.787 133.141C104.787 133.021 104.788 132.9 104.79 132.78L104.04 132.769C104.068 130.746 104.331 128.78 104.8 126.896L105.528 127.078C105.586 126.844 105.648 126.612 105.713 126.381L104.991 126.179C105.532 124.251 106.292 122.415 107.242 120.701L107.898 121.065C108.014 120.855 108.134 120.647 108.256 120.44L107.611 120.058C108.625 118.348 109.831 116.768 111.199 115.346L111.74 115.867C111.906 115.694 112.075 115.523 112.247 115.355L111.722 114.82C113.133 113.436 114.703 112.217 116.403 111.191L116.79 111.834C116.996 111.71 117.203 111.589 117.412 111.471L117.043 110.818C118.752 109.853 120.583 109.082 122.506 108.533L122.712 109.254C122.943 109.188 123.175 109.125 123.408 109.066L123.223 108.339C125.105 107.861 127.071 107.595 129.094 107.565L129.104 108.315C129.225 108.314 129.345 108.313 129.466 108.313C129.587 108.313 129.707 108.314 129.828 108.315L129.839 107.565C131.861 107.595 133.827 107.861 135.709 108.339L135.524 109.066C135.758 109.125 135.989 109.188 136.22 109.254L136.426 108.533C138.349 109.082 140.18 109.853 141.889 110.818L141.52 111.471C141.729 111.589 141.937 111.71 142.142 111.834L142.529 111.191C144.229 112.217 145.799 113.436 147.21 114.82L146.685 115.355C146.857 115.523 147.026 115.694 147.192 115.867L147.733 115.346C149.101 116.768 150.308 118.348 151.321 120.058L150.676 120.44C150.798 120.647 150.918 120.855 151.034 121.065L151.69 120.701C152.641 122.415 153.4 124.251 153.941 126.179L153.219 126.381C153.284 126.612 153.346 126.844 153.404 127.078L154.132 126.896Z" stroke="#F85454" stroke-opacity="0.3" stroke-width="1.5" stroke-dasharray="0.75 6"/>
<path d="M149.715 127.543C150.292 129.45 150.618 131.467 150.654 133.555L150.279 133.561C150.281 133.687 150.282 133.812 150.282 133.938C150.282 134.064 150.281 134.189 150.279 134.315L150.654 134.321C150.618 136.409 150.292 138.426 149.715 140.333L149.356 140.224C149.284 140.464 149.207 140.703 149.126 140.939L149.481 141.06C148.816 143.008 147.886 144.833 146.734 146.49L146.426 146.276C146.283 146.481 146.137 146.684 145.987 146.884L146.288 147.108C145.066 148.741 143.623 150.197 142.003 151.43L141.776 151.132C141.577 151.283 141.375 151.431 141.171 151.576L141.388 151.882C139.738 153.049 137.92 153.992 135.978 154.667L135.855 154.313C135.619 154.395 135.382 154.473 135.142 154.546L135.252 154.905C133.347 155.492 131.331 155.823 129.244 155.859L129.237 155.484C129.112 155.487 128.986 155.488 128.861 155.488C128.735 155.488 128.609 155.487 128.484 155.484L128.478 155.859C126.39 155.823 124.374 155.492 122.469 154.905L122.579 154.546C122.34 154.473 122.102 154.395 121.866 154.313L121.743 154.667C119.801 153.992 117.983 153.049 116.333 151.882L116.55 151.576C116.346 151.431 116.144 151.283 115.945 151.132L115.718 151.43C114.099 150.197 112.655 148.741 111.434 147.108L111.734 146.884C111.584 146.684 111.438 146.481 111.295 146.276L110.987 146.49C109.835 144.833 108.905 143.008 108.24 141.06L108.595 140.939C108.514 140.703 108.438 140.464 108.365 140.224L108.006 140.333C107.429 138.426 107.103 136.409 107.068 134.321L107.443 134.315C107.441 134.189 107.439 134.064 107.439 133.938C107.439 133.812 107.441 133.687 107.443 133.561L107.068 133.555C107.103 131.467 107.429 129.45 108.006 127.543L108.365 127.652C108.438 127.412 108.514 127.174 108.595 126.937L108.24 126.816C108.905 124.868 109.835 123.043 110.987 121.386L111.295 121.601C111.438 121.395 111.584 121.192 111.734 120.992L111.434 120.768C112.655 119.135 114.099 117.679 115.718 116.446L115.945 116.744C116.144 116.593 116.346 116.445 116.55 116.3L116.333 115.994C117.983 114.827 119.801 113.884 121.743 113.209L121.866 113.563C122.102 113.481 122.34 113.403 122.579 113.33L122.469 112.971C124.374 112.384 126.39 112.053 128.478 112.017L128.484 112.392C128.609 112.39 128.735 112.388 128.861 112.388C128.986 112.388 129.112 112.39 129.237 112.392L129.244 112.017C131.331 112.053 133.347 112.384 135.252 112.971L135.142 113.33C135.382 113.403 135.619 113.481 135.855 113.563L135.978 113.209C137.92 113.884 139.738 114.827 141.388 115.994L141.171 116.3C141.375 116.445 141.577 116.593 141.776 116.744L142.003 116.446C143.623 117.679 145.066 119.135 146.288 120.768L145.987 120.992C146.137 121.192 146.283 121.395 146.426 121.601L146.734 121.386C147.886 123.043 148.816 124.868 149.481 126.816L149.126 126.937C149.207 127.174 149.284 127.412 149.356 127.652L149.715 127.543Z" stroke="#F85454" stroke-opacity="0.2" stroke-width="0.75" stroke-dasharray="0.75 6"/>
<path d="M146.968 127.111C147.738 129.107 148.181 131.268 148.229 133.527L147.854 133.535C147.857 133.669 147.858 133.804 147.858 133.939C147.858 134.074 147.857 134.208 147.854 134.343L148.229 134.351C148.181 136.609 147.738 138.77 146.968 140.766L146.619 140.631C146.522 140.882 146.42 141.13 146.312 141.376L146.656 141.526C145.771 143.553 144.541 145.394 143.041 146.974L142.769 146.716C142.585 146.911 142.396 147.101 142.203 147.288L142.463 147.557C140.893 149.074 139.062 150.318 137.044 151.215L136.892 150.873C136.647 150.981 136.4 151.085 136.149 151.183L136.286 151.532C134.293 152.315 132.134 152.765 129.876 152.814L129.868 152.439C129.734 152.442 129.599 152.443 129.464 152.443C129.329 152.443 129.195 152.442 129.06 152.439L129.052 152.814C126.795 152.765 124.636 152.315 122.642 151.532L122.779 151.183C122.529 151.085 122.281 150.981 122.037 150.873L121.884 151.215C119.866 150.318 118.035 149.074 116.465 147.557L116.726 147.288C116.533 147.101 116.344 146.911 116.159 146.716L115.887 146.974C114.388 145.394 113.158 143.553 112.272 141.526L112.616 141.376C112.509 141.13 112.407 140.882 112.31 140.631L111.96 140.766C111.19 138.77 110.748 136.609 110.7 134.351L111.075 134.343C111.072 134.208 111.07 134.074 111.07 133.939C111.07 133.804 111.072 133.669 111.075 133.535L110.7 133.527C110.748 131.268 111.19 129.107 111.96 127.111L112.31 127.246C112.407 126.995 112.509 126.747 112.616 126.502L112.272 126.352C113.158 124.324 114.388 122.483 115.887 120.903L116.159 121.161C116.344 120.967 116.533 120.776 116.726 120.59L116.465 120.32C118.035 118.803 119.866 117.559 121.884 116.662L122.037 117.005C122.281 116.896 122.529 116.792 122.779 116.694L122.642 116.345C124.636 115.562 126.795 115.112 129.052 115.064L129.06 115.438C129.195 115.436 129.329 115.434 129.464 115.434C129.599 115.434 129.734 115.436 129.868 115.438L129.876 115.064C132.134 115.112 134.293 115.562 136.286 116.345L136.149 116.694C136.4 116.792 136.647 116.896 136.892 117.005L137.044 116.662C139.062 117.559 140.893 118.803 142.463 120.32L142.203 120.59C142.396 120.776 142.585 120.967 142.769 121.161L143.041 120.903C144.541 122.483 145.771 124.324 146.656 126.352L146.312 126.502C146.42 126.747 146.522 126.995 146.619 127.246L146.968 127.111Z" stroke="#F85454" stroke-opacity="0.1" stroke-width="0.75" stroke-dasharray="0.75 6"/>
<path d="M123.093 133.169V134.496H113.039V130.292C113.039 127.704 114.526 126.143 117.178 126.143H123.093V127.459H117.223C115.325 127.459 114.582 128.072 114.382 129.656H123.093V130.983H114.348V133.169H123.093Z" fill="white"/>
<path d="M134.255 126.143V130.983H125.51V134.496H124.201V130.292C124.201 127.682 125.699 126.143 128.329 126.143H134.255ZM125.577 129.656H132.956V127.459H128.451C126.442 127.459 125.788 127.838 125.577 129.656Z" fill="white"/>
<path d="M136.717 126.143V134.496H135.408V126.143H136.717Z" fill="white"/>
<path d="M148.05 133.169V134.496H137.996V130.292C137.996 127.682 139.494 126.143 142.135 126.143H148.05V127.459H142.18C140.082 127.459 139.305 128.228 139.305 130.347V133.169H148.05Z" fill="white"/>
<g filter="url(#filter1_f_9692_52192)">
<path d="M27.3028 147.117C31.3824 27.4771 180.323 1.59359 216.65 106.04" stroke="#F85454" stroke-width="3"/>
</g>
</g>
<rect x="9.75195" y="13.1614" width="243.061" height="137.645" rx="14.8125" stroke="white" stroke-opacity="0.4" stroke-width="0.375"/>
</g>
<defs>
<filter id="filter0_bdddd_9692_52192" x="0.564453" y="0.973877" width="386.436" height="258.02" filterUnits="userSpaceOnUse" color-interpolation-filters="sRGB">
<feFlood flood-opacity="0" result="BackgroundImageFix"/>
<feGaussianBlur in="BackgroundImageFix" stdDeviation="3.75"/>
<feComposite in2="SourceAlpha" operator="in" result="effect1_backgroundBlur_9692_52192"/>
<feColorMatrix in="SourceAlpha" type="matrix" values="0 0 0 0 0 0 0 0 0 0 0 0 0 0 0 0 0 0 127 0" result="hardAlpha"/>
<feOffset dx="6" dy="4"/>
<feGaussianBlur stdDeviation="7.5"/>
<feColorMatrix type="matrix" values="0 0 0 0 0 0 0 0 0 0 0 0 0 0 0 0 0 0 0.1 0"/>
<feBlend mode="normal" in2="effect1_backgroundBlur_9692_52192" result="effect2_dropShadow_9692_52192"/>
<feColorMatrix in="SourceAlpha" type="matrix" values="0 0 0 0 0 0 0 0 0 0 0 0 0 0 0 0 0 0 127 0" result="hardAlpha"/>
<feOffset dx="23" dy="16"/>
<feGaussianBlur stdDeviation="14"/>
<feColorMatrix type="matrix" values="0 0 0 0 0 0 0 0 0 0 0 0 0 0 0 0 0 0 0.09 0"/>
<feBlend mode="normal" in2="effect2_dropShadow_9692_52192" result="effect3_dropShadow_9692_52192"/>
<feColorMatrix in="SourceAlpha" type="matrix" values="0 0 0 0 0 0 0 0 0 0 0 0 0 0 0 0 0 0 127 0" result="hardAlpha"/>
<feOffset dx="51" dy="36"/>
<feGaussianBlur stdDeviation="18.5"/>
<feColorMatrix type="matrix" values="0 0 0 0 0 0 0 0 0 0 0 0 0 0 0 0 0 0 0.05 0"/>
<feBlend mode="normal" in2="effect3_dropShadow_9692_52192" result="effect4_dropShadow_9692_52192"/>
<feColorMatrix in="SourceAlpha" type="matrix" values="0 0 0 0 0 0 0 0 0 0 0 0 0 0 0 0 0 0 127 0" result="hardAlpha"/>
<feOffset dx="90" dy="64"/>
<feGaussianBlur stdDeviation="22"/>
<feColorMatrix type="matrix" values="0 0 0 0 0 0 0 0 0 0 0 0 0 0 0 0 0 0 0.01 0"/>
<feBlend mode="normal" in2="effect4_dropShadow_9692_52192" result="effect5_dropShadow_9692_52192"/>
<feBlend mode="normal" in="SourceGraphic" in2="effect5_dropShadow_9692_52192" result="shape"/>
</filter>
<filter id="filter1_f_9692_52192" x="10.8047" y="24.186" width="222.262" height="137.983" filterUnits="userSpaceOnUse" color-interpolation-filters="sRGB">
<feFlood flood-opacity="0" result="BackgroundImageFix"/>
<feBlend mode="normal" in="SourceGraphic" in2="BackgroundImageFix" result="shape"/>
<feGaussianBlur stdDeviation="7.5" result="effect1_foregroundBlur_9692_52192"/>
</filter>
<radialGradient id="paint0_radial_9692_52192" cx="0" cy="0" r="1" gradientUnits="userSpaceOnUse" gradientTransform="translate(128.861 140.942) rotate(-90) scale(94.0932 83.6409)">
<stop offset="0.698873" stop-color="#08252C"/>
<stop offset="1" stop-color="#F85454" stop-opacity="0.8"/>
</radialGradient>
<radialGradient id="paint1_radial_9692_52192" cx="0" cy="0" r="1" gradientUnits="userSpaceOnUse" gradientTransform="translate(128.861 140.942) rotate(-90) scale(94.0932 83.6409)">
<stop offset="0.698873" stop-color="#08252C"/>
<stop offset="1" stop-color="#F85454" stop-opacity="0.8"/>
</radialGradient>
<radialGradient id="paint2_radial_9692_52192" cx="0" cy="0" r="1" gradientUnits="userSpaceOnUse" gradientTransform="translate(138.546 131.922) rotate(-73.6595) scale(93.6114 83.2904)">
<stop offset="0.442287" stop-color="#F85454"/>
<stop offset="0.778527" stop-color="white"/>
</radialGradient>
</defs>
</svg>
