<svg width="105" height="100" viewBox="0 0 105 100" fill="none" xmlns="http://www.w3.org/2000/svg">
<g clip-path="url(#clip0_1618_41573)">
<path d="M33.2239 29.1512C33.2239 22.862 36.292 17.2798 41.0056 13.819L39.7561 9.55176C33.2981 13.6825 29.0176 20.9144 29.0176 29.1512C29.0176 37.8717 33.8177 45.4634 40.9067 49.4328L42.3541 45.3889C36.8858 42.0644 33.2239 36.0234 33.2239 29.1512ZM64.5735 9.56416L63.324 13.8313C68.0376 17.2922 71.1058 22.8744 71.1058 29.1636C71.1058 36.0358 67.4438 42.0644 61.9755 45.4013L63.4231 49.4452C70.5119 45.4758 75.3122 37.8841 75.3122 29.1636C75.3122 20.9144 71.0192 13.6825 64.5735 9.56416Z" fill="#FF6900"/>
<path d="M47.9281 45.9346H45.0084L49.5117 33.3191L41.0371 4.40367L51.3303 0V30.6397L47.9281 45.9346Z" fill="white"/>
<path d="M54.5472 33.3191L59.0505 45.9346H56.1307L52.7285 30.6397V0L63.0217 4.40367L54.5472 33.3191Z" fill="white"/>
<path d="M42.707 52.3975L44.2535 48.0435H59.817L61.3635 52.3975H42.707Z" fill="white"/>
<path d="M52.0369 33.6294L54.771 45.9348H49.3027L52.0369 33.6294Z" fill="white"/>
<path d="M19.8826 84.1039H25.3138V81.474H19.8826V79.08H25.7839V76.4502H16.9629V89.2394H25.92V86.6096H19.8826V84.1039Z" fill="white"/>
<path fill-rule="evenodd" clip-rule="evenodd" d="M57.4429 89.5246C61.1915 89.5246 63.6164 86.9817 63.6164 82.8386C63.6164 78.6953 61.1915 76.1523 57.4429 76.1523C53.6943 76.1523 51.2695 78.6953 51.2695 82.8386C51.2695 86.9817 53.6943 89.5246 57.4429 89.5246ZM57.4429 78.7946C59.2616 78.7946 60.6966 80.1095 60.6966 82.851C60.6966 85.5923 59.2616 86.9073 57.4429 86.9073C55.6243 86.9073 54.1892 85.5923 54.1892 82.851C54.1768 80.1095 55.6243 78.7946 57.4429 78.7946Z" fill="white"/>
<path fill-rule="evenodd" clip-rule="evenodd" d="M65.3594 89.2396H68.2668V84.9227H70.3452C72.8567 84.9227 74.9227 83.459 74.9227 80.6804C74.9227 77.9017 72.869 76.438 70.3452 76.438H65.3594V89.2396ZM68.2544 79.0802H70.1844C71.4833 79.0802 71.9906 79.7499 71.9906 80.6927C71.9906 81.623 71.4833 82.3053 70.1844 82.3053H68.2544V79.0802Z" fill="white"/>
<path d="M38.3779 76.4502H35.4582V84.0542C35.4582 85.7661 34.5798 86.8329 32.9839 86.8329C31.3756 86.8329 30.5095 85.7785 30.5095 84.0542V76.4502H27.5898V84.2155C27.5898 87.7756 30.0518 89.4628 32.9839 89.4628C35.916 89.4628 38.3779 87.7632 38.3779 84.2155V76.4502Z" fill="white"/>
<path d="M33.2183 92.2539H31.5234V99.7339H36.7566V98.1957H33.2183V92.2539Z" fill="white"/>
<path d="M71.6205 96.7319V95.1938H68.4534V93.7921H71.9051V92.2539H66.7461V99.7339H71.9792V98.1957H68.441V96.7319H71.6205Z" fill="white"/>
<path d="M64.0867 96.6947C64.0867 97.6995 63.5794 98.3198 62.6392 98.3198C61.6989 98.3198 61.1916 97.6995 61.1916 96.6947V92.2539H59.4844V96.794C59.4844 98.8779 60.9195 99.8579 62.6392 99.8579C64.3588 99.8579 65.7939 98.8656 65.7939 96.794V92.2539H64.0867V96.6947Z" fill="white"/>
<path d="M57.1082 97.0544V97.5878C56.7371 98.0095 56.1432 98.3197 55.4009 98.3197C54.1142 98.3197 53.137 97.563 53.137 95.9876C53.137 94.4122 54.1885 93.6555 55.2029 93.6555C56.1308 93.6555 56.7247 94.1021 56.9721 94.9332L58.6052 94.4494C58.2216 93.0477 57.1329 92.1049 55.2277 92.1049C53.1864 92.1049 51.4297 93.581 51.4297 95.9752C51.4297 98.3693 53.1616 99.8454 55.2401 99.8454C56.8608 99.8454 57.8628 99.2003 58.6794 98.1956V95.6899H54.7947V97.0544H57.1082Z" fill="white"/>
<path fill-rule="evenodd" clip-rule="evenodd" d="M81.9264 76.4502H78.8335L73.6621 89.2394H76.9653L77.8932 86.808H82.8791L83.8069 89.2394H87.1101L81.9264 76.4502ZM78.883 84.1782L80.3799 80.2459L81.8769 84.1782H78.883Z" fill="white"/>
<path fill-rule="evenodd" clip-rule="evenodd" d="M46.6169 92.2538L43.5859 99.7338H45.5158L46.0602 98.3196H48.9799L49.5243 99.7338H51.4542L48.4356 92.2538H46.6169ZM46.6417 96.7691L47.5201 94.4742L48.3985 96.7691H46.6417Z" fill="white"/>
<path d="M39.2678 96.7319H42.4474V95.1938H39.2678V93.7921H42.7195V92.2539H37.5605V99.7339H42.8062V98.1957H39.2678V96.7319Z" fill="white"/>
<path fill-rule="evenodd" clip-rule="evenodd" d="M47.2478 89.2394H50.5263L47.6809 84.1039C48.9798 83.3719 49.8829 82.2183 49.8829 80.5436C49.8829 78.0379 47.8664 76.4502 45.2684 76.4502H40.2207V89.2394H43.1405V84.6372H44.7117L47.2478 89.2394ZM43.1405 79.08H45.3303C46.5303 79.08 46.988 79.7002 46.988 80.5436C46.988 81.3872 46.5303 82.0074 45.3303 82.0074H43.1405V79.08Z" fill="white"/>
<path d="M41.7313 68.6103C41.4467 68.846 41.1003 68.9576 40.8034 68.9204C40.4322 68.8832 40.1971 68.722 39.826 68.263L37.661 65.596L36.498 66.5512L38.8487 69.4538C39.3435 70.0741 39.925 70.3966 40.5931 70.4586C40.6672 70.4711 40.7539 70.4711 40.8281 70.4711C41.4838 70.4711 42.09 70.2477 42.6715 69.7764C43.3271 69.2429 43.686 68.6227 43.7725 67.8784C43.8468 67.2085 43.6488 66.5759 43.1417 65.9681L40.791 63.0654L39.6281 64.0206L41.7931 66.6876C42.1643 67.1466 42.2756 67.407 42.2384 67.7916C42.2014 68.0645 42.0158 68.3622 41.7313 68.6103Z" fill="white"/>
<path d="M52.0361 69.181C56.1188 69.181 59.892 71.079 62.1066 73.8452L62.886 72.89C60.4488 69.9625 56.4527 67.9901 52.0485 67.9901C47.6442 67.9901 43.6481 69.9625 41.2109 72.89L41.9903 73.8452C44.1801 71.079 47.9411 69.181 52.0361 69.181Z" fill="white"/>
<path d="M36.5589 64.4052C40.8023 60.7334 46.2953 58.7115 52.0358 58.7115C57.7762 58.7115 63.2692 60.7334 67.5127 64.4052C67.9581 64.7898 68.3787 65.1867 68.7746 65.5961L69.5788 64.6037C69.1828 64.2068 68.7746 63.8222 68.3415 63.45C63.8754 59.5798 58.0855 57.4586 52.0482 57.4586C46.0108 57.4586 40.2208 59.5922 35.7547 63.45C35.3218 63.8222 34.9134 64.2068 34.5176 64.6037L35.3217 65.5961C35.6928 65.1867 36.1258 64.7898 36.5589 64.4052Z" fill="white"/>
<path d="M65.6813 65.4846C65.7556 65.2738 65.8051 64.9513 65.4463 64.666L65.2112 64.4923C64.8525 64.2194 64.568 64.331 64.3576 64.4675L58.9883 67.9532L60.3863 68.7471L63.8132 66.5267L63.2194 68.5238L62.6997 68.1269L61.7966 68.7718L62.9101 69.603L62.6503 70.4961L63.8751 71.6249L65.6813 65.4846Z" fill="white"/>
<path d="M49.6977 60.2124L45.9243 60.9815C45.7511 61.0187 45.6151 61.1055 45.5284 61.2296C45.4418 61.3537 45.4171 61.5149 45.4542 61.6886L46.2089 65.41C46.3326 66.0178 46.6047 66.4519 47.013 66.7001C47.2852 66.8738 47.6069 66.9481 47.9904 66.9481C48.1759 66.9481 48.3863 66.9233 48.5966 66.8861L50.9596 66.4024L50.675 65.0007L48.3863 65.4719C47.9161 65.5713 47.7677 65.5216 47.6564 64.9883L47.5697 64.5913L50.2296 64.0455L49.9451 62.6561L47.2852 63.2019L47.0872 62.2095L49.9822 61.6141L49.6977 60.2124Z" fill="white"/>
<path d="M57.034 62.2468L59.298 62.8298L59.6568 61.4529L57.3309 60.8451C56.0566 60.5101 55.1783 60.9939 54.869 62.1971L53.9164 65.869C53.8669 66.0426 53.8916 66.2039 53.9658 66.3279C54.0401 66.4644 54.1762 66.5513 54.3494 66.6008L55.2153 66.8241L55.8215 64.4424L58.4444 65.1247L58.8031 63.7601L56.1803 63.0779L56.2794 62.6809C56.4155 62.16 56.5639 62.1228 57.034 62.2468Z" fill="white"/>
<path d="M74.3921 92.6134V94.4865H74.7755V92.6134H75.456V92.2661H73.6992V92.6134H74.3921Z" fill="white"/>
<path d="M77.5101 92.2539L76.8296 94.0401L76.1491 92.2539H75.7285V94.4867H76.1245V93.147L76.6316 94.4867H77.0152L77.5225 93.147V94.4867H77.9183V92.2539H77.5101Z" fill="white"/>
</g>
<defs>
<clipPath id="clip0_1618_41573">
<rect width="103.261" height="100" fill="white" transform="translate(0.869141)"/>
</clipPath>
</defs>
</svg>
