<svg width="864" height="1311" viewBox="0 0 864 1311" fill="none" xmlns="http://www.w3.org/2000/svg">
<g opacity="0.4">
<mask id="mask0_601_857" style="mask-type:alpha" maskUnits="userSpaceOnUse" x="-447" y="0" width="1311" height="1311">
<rect x="-447" width="1311" height="1311" fill="#0C353E"/>
</mask>
<g mask="url(#mask0_601_857)">
<rect x="-447" width="1311" height="1311" fill="url(#paint0_radial_601_857)"/>
</g>
<circle opacity="0.5" cx="208.499" cy="655.499" r="179.95" stroke="white" stroke-width="2"/>
<circle opacity="0.3" cx="208.499" cy="655.499" r="236.719" stroke="white" stroke-width="2"/>
<circle opacity="0.1" cx="208.499" cy="655.499" r="293.487" stroke="white" stroke-width="2"/>
<circle opacity="0.05" cx="208.499" cy="655.499" r="350.256" stroke="white" stroke-width="2"/>
<circle opacity="0.05" cx="208.499" cy="655.499" r="407.024" stroke="white" stroke-width="2"/>
<circle opacity="0.04" cx="208.499" cy="655.499" r="492.177" stroke="white" stroke-width="2"/>
<circle opacity="0.04" cx="208.499" cy="655.499" r="605.714" stroke="white" stroke-width="2"/>
<circle cx="149.138" cy="426.138" r="13.9468" transform="rotate(-178.844 149.138 426.138)" fill="url(#paint1_linear_601_857)"/>
<circle cx="140.063" cy="999.345" r="10.4601" transform="rotate(46.5253 140.063 999.345)" fill="url(#paint2_linear_601_857)" fill-opacity="0.8"/>
<circle cx="452.697" cy="404.111" r="19.1769" transform="rotate(-134.563 452.697 404.111)" fill="url(#paint3_linear_601_857)" fill-opacity="0.5"/>
</g>
<defs>
<radialGradient id="paint0_radial_601_857" cx="0" cy="0" r="1" gradientUnits="userSpaceOnUse" gradientTransform="translate(233.336 655.5) rotate(90) scale(623.568)">
<stop stop-color="#194A55"/>
<stop offset="1" stop-color="#0C353E" stop-opacity="0"/>
</radialGradient>
<linearGradient id="paint1_linear_601_857" x1="149.138" y1="412.192" x2="149.138" y2="440.085" gradientUnits="userSpaceOnUse">
<stop stop-color="#557278"/>
<stop offset="1" stop-color="#557278" stop-opacity="0.5"/>
</linearGradient>
<linearGradient id="paint2_linear_601_857" x1="140.063" y1="988.885" x2="140.063" y2="1009.8" gradientUnits="userSpaceOnUse">
<stop stop-color="#557278"/>
<stop offset="1" stop-color="#557278" stop-opacity="0.5"/>
</linearGradient>
<linearGradient id="paint3_linear_601_857" x1="452.697" y1="384.934" x2="452.697" y2="423.287" gradientUnits="userSpaceOnUse">
<stop stop-color="#557278"/>
<stop offset="1" stop-color="#557278" stop-opacity="0.5"/>
</linearGradient>
</defs>
</svg>
