<svg id="Layer_1" data-name="Layer 1" xmlns="http://www.w3.org/2000/svg" xmlns:xlink="http://www.w3.org/1999/xlink" viewBox="0 0 500 500"><defs><style>.cls-1{fill:none;}.cls-2{clip-path:url(#clip-path);}.cls-3{fill:#294f54;}.cls-4{fill:#1f3b40;}.cls-5{fill:#f75454;}</style><clipPath id="clip-path"><rect class="cls-1" x="-0.23" y="0.17" width="500.37" height="500.33"/></clipPath></defs><g class="cls-2"><rect class="cls-3" x="-0.23" y="0.16" width="500.37" height="500.37" rx="48.42"/></g><path class="cls-4" d="M347.43,74.81H172.58l-.27,1.43h-1.45l-.28,1.43h-1.45l-.27,1.43h-1.45l-.27,1.43h-1.45L165.41,82H164l-.28,1.43h-1.45L162,84.82h-1.45l-.27,1.43H158.8l-.28,1.43h-1.45l-.27,1.43h-1.45l-.27,1.43h-1.45L153.35,92h-1.44l-.28,1.43h-1.45l-.27,1.43h-1.45l-.28,1.43h-1.44l-.28,1.43H145l-.27,1.43h-1.45l-.27,1.43h-1.45l-.28,1.43h-1.45l-.27,1.43h-1.45l-.27,1.43H136.4l-.28,1.43h-1.44l-.28,1.43H133l-.27,1.43h-1.45l-.28,1.43h-1.44l-.28,1.43h-1.45l-.27,1.43h-1.45l-.27,1.43h-1.45l-.28,1.43h-1.45l-.27,1.43h-1.45l-.27,1.43h-1.45l-.28,1.43h-1.44l-.28,1.43h-1.45l-.27,1.43H114l-.28,1.43h-1.44l-.28,1.43h-1.45l-.27,1.43h-1.45l-.27,1.43h-1.45l-.28,1.43h-1.45l-.27,1.43h-1.45l-.27,1.43h-1.45l-.28,1.43h-1.44l-.28,1.43H98.49l-.27,1.44H96.77l-.28,1.42H95.05l-.28,1.43H93.32L93.05,142H91.6l-.27,1.42H89.88l-.28,1.43H88.15l-.27,1.44H86.43l-.27,1.43H84.71l-.28,1.43H83l-.28,1.43H81.26L81,152H79.54l-.27,1.43H77.82l-.28,1.43H76.09l-.27,1.43H74.37l-.27,1.43H72.65l-.27,1.43H70.92l-.27,1.43H69.2l-.27,1.43H67.48l-.27,1.43H65.76l-.28,1.43H64l-.27,1.43H62.31L62,167.77H60.59l-.27,1.43H58.86l-.27,1.43H57.14l-.27,1.43H55.42l-.27,1.43H53.69l-.27,1.43H52l-.27,1.43H50.25L50,177.78H48.53l-.28,1.43H46.8l-.27,1.43H45.08l-.27,1.43H43.36l-.27,1.43H41.63l-.27,1.43H39.91l-.27,1.43H38.19l-.27,1.43H36.47l-.28,1.43H34.74l-.27,1.43H33l-.27,1.43H31.3L31,193.51H29.57l-.27,1.43H27.85l-.27,1.43H26.13l-.27,1.43H24.4l-.27,1.43H22.68l-.27,1.43H21l-.27,1.43H19.24L19,203.52H17.51L17.24,205H15.79l-.27,1.43H14.07l-.28,1.43H12.34l-.27,1.44H10.62l-.27,1.42H8.9l-.27,1.43H7.18l-.28,1.44H5.45L5.18,215H3.73l-.27,1.43H2l-.28,1.44H1.18V449.69A48.42,48.42,0,0,0,49.6,498.11H187.25l.24-1.26h1.45l.28-1.43h1.44l.28-1.43h1.44l.28-1.43h1.45l.27-1.43h1.45l.28-1.43h1.44l.28-1.43h1.44l.28-1.43H201l.28-1.43h1.44L203,484h1.44l.28-1.43h1.45l.27-1.43h1.45l.28-1.43h1.44l.28-1.43h1.45l.27-1.43h1.45l.28-1.43h1.44l.28-1.44h1.44l.28-1.42h1.45l.27-1.43H220l.28-1.44h1.44l.28-1.42h1.45l.27-1.43h1.45l.28-1.44h1.44l.28-1.43h1.45l.27-1.43h1.45l.28-1.43H232l.28-1.43h1.44l.28-1.43h1.45l.27-1.43h1.45l.28-1.43h1.44l.28-1.43h1.45l.27-1.43h1.45l.28-1.43h1.44l.28-1.43h1.45l.27-1.43h1.45l.27-1.43h1.45l.28-1.43H251l.28-1.43h1.45l.27-1.43h1.45l.28-1.43h1.44l.28-1.43h1.45l.27-1.43h1.45l.27-1.43h1.45l.28-1.43H263l.28-1.43h1.45l.27-1.43h1.45l.28-1.43h1.44l.28-1.43h1.45l.27-1.43h1.45l.28-1.43h1.44l.28-1.43h1.44l.28-1.43h1.45l.27-1.43h1.45l.28-1.43h1.44Z"/><polygon class="cls-5" points="172.58 74.81 155.29 165.19 215.06 165.19 165.66 421.05 280.25 421.05 347.43 74.81 172.58 74.81"/></svg>