<svg width="12" height="12" viewBox="0 0 12 12" fill="none" xmlns="http://www.w3.org/2000/svg">
<g clip-path="url(#clip0_9692_52214)">
<mask id="mask0_9692_52214" style="mask-type:luminance" maskUnits="userSpaceOnUse" x="0" y="0" width="13" height="12">
<path d="M0.927734 0.126221H12.0094V11.296H0.927734V0.126221Z" fill="white"/>
</mask>
<g mask="url(#mask0_9692_52214)">
<path d="M6.46896 10.5971C9.70133 10.5971 11.3168 8.40922 11.3168 5.71031C11.3168 3.01211 9.70133 0.824219 6.46862 0.824219C3.23659 0.824219 1.62109 3.01211 1.62109 5.71066C1.62109 8.40922 3.23624 10.5971 6.46896 10.5971Z" fill="url(#paint0_radial_9692_52214)"/>
<path d="M6.46896 10.5971C9.70133 10.5971 11.3168 8.40922 11.3168 5.71031C11.3168 3.01211 9.70133 0.824219 6.46862 0.824219C3.23659 0.824219 1.62109 3.01211 1.62109 5.71066C1.62109 8.40922 3.23624 10.5971 6.46896 10.5971Z" fill="url(#paint1_radial_9692_52214)"/>
<path d="M6.46896 10.5971C9.70133 10.5971 11.3168 8.40922 11.3168 5.71031C11.3168 3.01211 9.70133 0.824219 6.46862 0.824219C3.23659 0.824219 1.62109 3.01211 1.62109 5.71066C1.62109 8.40922 3.23624 10.5971 6.46896 10.5971Z" fill="url(#paint2_radial_9692_52214)"/>
<path d="M6.46896 10.5971C9.70133 10.5971 11.3168 8.40922 11.3168 5.71031C11.3168 3.01211 9.70133 0.824219 6.46862 0.824219C3.23659 0.824219 1.62109 3.01211 1.62109 5.71066C1.62109 8.40922 3.23624 10.5971 6.46896 10.5971Z" fill="url(#paint3_radial_9692_52214)" fill-opacity="0.6"/>
<path d="M6.46896 10.5971C9.70133 10.5971 11.3168 8.40922 11.3168 5.71031C11.3168 3.01211 9.70133 0.824219 6.46862 0.824219C3.23659 0.824219 1.62109 3.01211 1.62109 5.71066C1.62109 8.40922 3.23624 10.5971 6.46896 10.5971Z" fill="url(#paint4_radial_9692_52214)"/>
<path d="M6.46896 10.5971C9.70133 10.5971 11.3168 8.40922 11.3168 5.71031C11.3168 3.01211 9.70133 0.824219 6.46862 0.824219C3.23659 0.824219 1.62109 3.01211 1.62109 5.71066C1.62109 8.40922 3.23624 10.5971 6.46896 10.5971Z" fill="url(#paint5_radial_9692_52214)"/>
<path d="M6.46896 10.5971C9.70133 10.5971 11.3168 8.40922 11.3168 5.71031C11.3168 3.01211 9.70133 0.824219 6.46862 0.824219C3.23659 0.824219 1.62109 3.01211 1.62109 5.71066C1.62109 8.40922 3.23624 10.5971 6.46896 10.5971Z" fill="url(#paint6_radial_9692_52214)"/>
<path d="M6.46896 10.5971C9.70133 10.5971 11.3168 8.40922 11.3168 5.71031C11.3168 3.01211 9.70133 0.824219 6.46862 0.824219C3.23659 0.824219 1.62109 3.01211 1.62109 5.71066C1.62109 8.40922 3.23624 10.5971 6.46896 10.5971Z" fill="url(#paint7_radial_9692_52214)"/>
<g filter="url(#filter0_f_9692_52214)">
<path d="M9.75877 6.40922L7.50781 4.48941L9.58562 3.96582L9.75877 6.40922Z" fill="url(#paint8_linear_9692_52214)"/>
</g>
<g filter="url(#filter1_f_9692_52214)">
<path d="M5.60447 5.18745L3.35352 5.01293L4.91187 3.6167L5.60447 5.18745Z" fill="url(#paint9_linear_9692_52214)"/>
</g>
<g filter="url(#filter2_f_9692_52214)">
<path d="M6.64258 2.22046H7.33518C7.88926 2.77895 7.7968 3.84951 7.68148 4.3148L6.64258 4.66386L7.16203 3.44216L6.64258 2.22046Z" fill="url(#paint10_radial_9692_52214)"/>
</g>
<g filter="url(#filter3_f_9692_52214)">
<path d="M1.9668 2.91846H2.6594C3.21348 3.47695 3.12102 4.5475 3.0057 5.0128L1.9668 5.71091L2.48625 4.14016L1.9668 2.91846Z" fill="url(#paint11_radial_9692_52214)"/>
</g>
<path d="M3.91501 4.61665L2.85879 5.44461C2.8508 5.45094 2.84115 5.45476 2.83102 5.45561C2.8209 5.45646 2.81075 5.4543 2.80183 5.4494C2.79291 5.4445 2.78561 5.43706 2.78084 5.42802C2.77607 5.41898 2.77403 5.40873 2.77499 5.39853L2.87888 4.25188C2.89254 4.10029 2.86221 3.94796 2.79157 3.81342C2.72093 3.67889 2.61302 3.56794 2.48098 3.49408L1.79426 3.10977C1.76558 3.09374 1.74201 3.06983 1.72629 3.04083C1.71056 3.01183 1.70333 2.97892 1.70544 2.94594C1.70754 2.91295 1.71889 2.88125 1.73817 2.85452C1.75745 2.82778 1.78387 2.80711 1.81435 2.79492L2.69014 2.44168C2.8104 2.39315 2.91676 2.31517 2.9996 2.21479C3.08243 2.11442 3.13914 1.9948 3.16457 1.86678L3.32803 1.04335C3.33417 1.01228 3.34912 0.983668 3.37105 0.96097C3.39298 0.938272 3.42096 0.922461 3.45162 0.915447C3.48227 0.908433 3.51428 0.910517 3.54379 0.921446C3.57329 0.932374 3.59903 0.951681 3.61788 0.977034L4.09024 1.61232C4.17002 1.71946 4.27567 1.80425 4.39714 1.85863C4.51861 1.913 4.65186 1.93515 4.78422 1.92298L5.99385 1.81198C6.00388 1.81107 6.01395 1.81311 6.02284 1.81786C6.03174 1.82262 6.03907 1.82987 6.04395 1.83875C6.04883 1.84762 6.05104 1.85773 6.05033 1.86785C6.04961 1.87797 6.04599 1.88766 6.03991 1.89575L5.42142 2.72651C5.34117 2.83434 5.28982 2.96118 5.27229 3.09482C5.25476 3.22846 5.27165 3.36439 5.32134 3.48954L5.81031 4.72101L4.54632 4.4662C4.43657 4.44405 4.32337 4.44599 4.21443 4.47189C4.10549 4.49779 4.00337 4.54739 3.91501 4.61665Z" fill="url(#paint12_linear_9692_52214)" stroke="url(#paint13_linear_9692_52214)" stroke-width="0.25"/>
<path d="M9.02412 4.61665L10.0803 5.44461C10.0883 5.45094 10.098 5.45476 10.1081 5.45561C10.1182 5.45646 10.1284 5.4543 10.1373 5.4494C10.1462 5.4445 10.1535 5.43706 10.1583 5.42802C10.1631 5.41898 10.1651 5.40873 10.1641 5.39853L10.0603 4.25188C10.0466 4.10029 10.0769 3.94796 10.1476 3.81342C10.2182 3.67889 10.3261 3.56794 10.4582 3.49408L11.1449 3.10977C11.1735 3.09374 11.1971 3.06983 11.2128 3.04083C11.2286 3.01183 11.2358 2.97892 11.2337 2.94594C11.2316 2.91295 11.2202 2.88125 11.201 2.85452C11.1817 2.82778 11.1553 2.80711 11.1248 2.79492L10.249 2.44168C10.1287 2.39315 10.0224 2.31517 9.93953 2.21479C9.8567 2.11442 9.79999 1.9948 9.77456 1.86678L9.6111 1.04335C9.60496 1.01228 9.59001 0.983668 9.56808 0.96097C9.54615 0.938272 9.51817 0.922461 9.48751 0.915447C9.45686 0.908433 9.42485 0.910517 9.39534 0.921446C9.36584 0.932374 9.3401 0.951681 9.32125 0.977034L8.84889 1.61232C8.76911 1.71946 8.66346 1.80425 8.54199 1.85863C8.42052 1.913 8.28727 1.93515 8.15491 1.92298L6.94528 1.81198C6.93525 1.81107 6.92518 1.81311 6.91629 1.81786C6.90739 1.82262 6.90006 1.82987 6.89518 1.83875C6.8903 1.84762 6.88809 1.85773 6.8888 1.86785C6.88952 1.87797 6.89314 1.88766 6.89922 1.89575L7.51771 2.72651C7.59796 2.83434 7.64932 2.96118 7.66684 3.09482C7.68437 3.22846 7.66748 3.36439 7.61779 3.48954L7.12882 4.72101L8.39281 4.4662C8.50256 4.44405 8.61576 4.44599 8.7247 4.47189C8.83364 4.49779 8.93576 4.54739 9.02412 4.61665Z" fill="url(#paint14_linear_9692_52214)" stroke="url(#paint15_linear_9692_52214)" stroke-width="0.25"/>
<path d="M6.47022 9.20157C3.35352 9.20157 3.35352 6.06006 3.35352 6.06006H9.58693C9.58693 6.06006 9.58693 9.20157 6.47022 9.20157Z" fill="url(#paint16_radial_9692_52214)"/>
<path d="M3.69922 6.23459V6.06006H9.24004V6.23459C9.24004 6.32716 9.20355 6.41595 9.13861 6.48141C9.07366 6.54687 8.98558 6.58364 8.89373 6.58364H4.04552C3.95368 6.58364 3.86559 6.54687 3.80065 6.48141C3.7357 6.41595 3.69922 6.32716 3.69922 6.23459Z" fill="url(#paint17_linear_9692_52214)"/>
</g>
</g>
<defs>
<filter id="filter0_f_9692_52214" x="7.00781" y="3.46582" width="3.25" height="3.44336" filterUnits="userSpaceOnUse" color-interpolation-filters="sRGB">
<feFlood flood-opacity="0" result="BackgroundImageFix"/>
<feBlend mode="normal" in="SourceGraphic" in2="BackgroundImageFix" result="shape"/>
<feGaussianBlur stdDeviation="0.25" result="effect1_foregroundBlur_9692_52214"/>
</filter>
<filter id="filter1_f_9692_52214" x="2.85352" y="3.1167" width="3.25" height="2.5708" filterUnits="userSpaceOnUse" color-interpolation-filters="sRGB">
<feFlood flood-opacity="0" result="BackgroundImageFix"/>
<feBlend mode="normal" in="SourceGraphic" in2="BackgroundImageFix" result="shape"/>
<feGaussianBlur stdDeviation="0.25" result="effect1_foregroundBlur_9692_52214"/>
</filter>
<filter id="filter2_f_9692_52214" x="6.14258" y="1.72046" width="2.12695" height="3.44336" filterUnits="userSpaceOnUse" color-interpolation-filters="sRGB">
<feFlood flood-opacity="0" result="BackgroundImageFix"/>
<feBlend mode="normal" in="SourceGraphic" in2="BackgroundImageFix" result="shape"/>
<feGaussianBlur stdDeviation="0.25" result="effect1_foregroundBlur_9692_52214"/>
</filter>
<filter id="filter3_f_9692_52214" x="1.4668" y="2.41846" width="2.12695" height="3.79248" filterUnits="userSpaceOnUse" color-interpolation-filters="sRGB">
<feFlood flood-opacity="0" result="BackgroundImageFix"/>
<feBlend mode="normal" in="SourceGraphic" in2="BackgroundImageFix" result="shape"/>
<feGaussianBlur stdDeviation="0.25" result="effect1_foregroundBlur_9692_52214"/>
</filter>
<radialGradient id="paint0_radial_9692_52214" cx="0" cy="0" r="1" gradientUnits="userSpaceOnUse" gradientTransform="translate(9.75923 3.26747) rotate(132.613) scale(13.0431 13.0349)">
<stop stop-color="#FFF478"/>
<stop offset="0.475" stop-color="#FFB02E"/>
<stop offset="1" stop-color="#F70A8D"/>
</radialGradient>
<radialGradient id="paint1_radial_9692_52214" cx="0" cy="0" r="1" gradientUnits="userSpaceOnUse" gradientTransform="translate(9.75876 3.26784) rotate(131.652) scale(13.5476 13.5355)">
<stop stop-color="#FFF478"/>
<stop offset="0.475" stop-color="#FFB02E"/>
<stop offset="1" stop-color="#F70A8D"/>
</radialGradient>
<radialGradient id="paint2_radial_9692_52214" cx="0" cy="0" r="1" gradientUnits="userSpaceOnUse" gradientTransform="translate(6.46907 4.48922) rotate(101.223) scale(6.22759 7.91818)">
<stop offset="0.788" stop-color="#F59639" stop-opacity="0"/>
<stop offset="0.973" stop-color="#FF7DCE"/>
</radialGradient>
<radialGradient id="paint3_radial_9692_52214" cx="0" cy="0" r="1" gradientUnits="userSpaceOnUse" gradientTransform="translate(7.16191 5.0129) rotate(134.773) scale(14.2592 14.2587)">
<stop offset="0.315" stop-opacity="0"/>
<stop offset="1"/>
</radialGradient>
<radialGradient id="paint4_radial_9692_52214" cx="0" cy="0" r="1" gradientUnits="userSpaceOnUse" gradientTransform="translate(6.46929 6.06033) rotate(77.7862) scale(9.82135 9.75078)">
<stop offset="0.508" stop-color="#7D6133" stop-opacity="0"/>
<stop offset="1" stop-color="#715B32"/>
</radialGradient>
<radialGradient id="paint5_radial_9692_52214" cx="0" cy="0" r="1" gradientUnits="userSpaceOnUse" gradientTransform="translate(6.64246 5.88554) rotate(55.9241) scale(4.63555 3.35029)">
<stop stop-color="#FFB849"/>
<stop offset="1" stop-color="#FFB847" stop-opacity="0"/>
</radialGradient>
<radialGradient id="paint6_radial_9692_52214" cx="0" cy="0" r="1" gradientUnits="userSpaceOnUse" gradientTransform="translate(8.02766 6.40912) rotate(9.94277) scale(4.04318 4.07344)">
<stop stop-color="#FFA64B"/>
<stop offset="0.9" stop-color="#FFAE46" stop-opacity="0"/>
</radialGradient>
<radialGradient id="paint7_radial_9692_52214" cx="0" cy="0" r="1" gradientUnits="userSpaceOnUse" gradientTransform="translate(6.98878 5.36205) rotate(44.1979) scale(20.5287 20.5339)">
<stop offset="0.185" stop-opacity="0"/>
<stop offset="1" stop-opacity="0.4"/>
</radialGradient>
<linearGradient id="paint8_linear_9692_52214" x1="9.06617" y1="4.14035" x2="8.47506" y2="5.24192" gradientUnits="userSpaceOnUse">
<stop offset="0.37" stop-color="#EC812A"/>
<stop offset="1" stop-color="#FBA84C" stop-opacity="0"/>
</linearGradient>
<linearGradient id="paint9_linear_9692_52214" x1="4.56557" y1="4.14028" x2="4.47762" y2="5.02152" gradientUnits="userSpaceOnUse">
<stop stop-color="#C85F27"/>
<stop offset="1" stop-color="#C85F27" stop-opacity="0"/>
</linearGradient>
<radialGradient id="paint10_radial_9692_52214" cx="0" cy="0" r="1" gradientUnits="userSpaceOnUse" gradientTransform="translate(7.85463 3.61669) rotate(146.1) scale(1.87751 1.88319)">
<stop offset="0.116" stop-color="#EC812A"/>
<stop offset="1" stop-color="#FBA84C" stop-opacity="0"/>
</radialGradient>
<radialGradient id="paint11_radial_9692_52214" cx="0" cy="0" r="1" gradientUnits="userSpaceOnUse" gradientTransform="translate(3.35184 4.66375) rotate(158.042) scale(1.86694 1.87766)">
<stop stop-color="#CC7521"/>
<stop offset="1" stop-color="#E6872B" stop-opacity="0"/>
</radialGradient>
<linearGradient id="paint12_linear_9692_52214" x1="3.52577" y1="0.47509" x2="4.40492" y2="5.35947" gradientUnits="userSpaceOnUse">
<stop stop-color="#7912B2"/>
<stop offset="1" stop-color="#CF1DA1"/>
</linearGradient>
<linearGradient id="paint13_linear_9692_52214" x1="6.12302" y1="2.22037" x2="3.8675" y2="3.08104" gradientUnits="userSpaceOnUse">
<stop stop-color="#A82D9C"/>
<stop offset="1" stop-color="#BF33B1" stop-opacity="0"/>
</linearGradient>
<linearGradient id="paint14_linear_9692_52214" x1="8.54761" y1="0.998675" x2="8.72352" y2="5.18724" gradientUnits="userSpaceOnUse">
<stop stop-color="#7912B2"/>
<stop offset="1" stop-color="#CF1DA1"/>
</linearGradient>
<linearGradient id="paint15_linear_9692_52214" x1="11.1449" y1="2.22037" x2="9.06684" y2="2.39218" gradientUnits="userSpaceOnUse">
<stop stop-color="#B51AA6"/>
<stop offset="1" stop-color="#BF33B1" stop-opacity="0"/>
</linearGradient>
<radialGradient id="paint16_radial_9692_52214" cx="0" cy="0" r="1" gradientUnits="userSpaceOnUse" gradientTransform="translate(6.47023 9.89968) rotate(-90) scale(3.83962 7.61862)">
<stop stop-color="#F70A8D"/>
<stop offset="1" stop-color="#89029C"/>
</radialGradient>
<linearGradient id="paint17_linear_9692_52214" x1="6.46963" y1="6.06006" x2="6.46963" y2="6.58364" gradientUnits="userSpaceOnUse">
<stop stop-color="#D5A8FE"/>
<stop offset="1" stop-color="white"/>
</linearGradient>
<clipPath id="clip0_9692_52214">
<rect width="11.0816" height="11.1698" fill="white" transform="translate(0.927734 0.126221)"/>
</clipPath>
</defs>
</svg>
