<svg width="12" height="12" viewBox="0 0 12 12" fill="none" xmlns="http://www.w3.org/2000/svg">
<g clip-path="url(#clip0_9692_52252)">
<path d="M5.27447 3.71126C5.80674 2.87457 6.12187 2.10176 6.28602 1.55514C6.34904 1.3457 6.615 1.26018 6.77292 1.41028C9.15304 3.67251 9.93118 5.4 10.086 7.3959C10.1996 9.32653 9.25832 11.0446 6.73136 11.0446C4.3592 11.0446 2.60795 9.37575 2.84586 6.73025C2.98854 5.14972 3.59837 3.94513 4.08562 3.22817C4.2373 3.00512 4.55347 3.00198 4.72835 3.20722L5.16435 3.71894C5.19448 3.75419 5.24954 3.75035 5.27447 3.71126Z" fill="url(#paint0_radial_9692_52252)"/>
<path d="M5.27447 3.71126C5.80674 2.87457 6.12187 2.10176 6.28602 1.55514C6.34904 1.3457 6.615 1.26018 6.77292 1.41028C9.15304 3.67251 9.93118 5.4 10.086 7.3959C10.1996 9.32653 9.25832 11.0446 6.73136 11.0446C4.3592 11.0446 2.60795 9.37575 2.84586 6.73025C2.98854 5.14972 3.59837 3.94513 4.08562 3.22817C4.2373 3.00512 4.55347 3.00198 4.72835 3.20722L5.16435 3.71894C5.19448 3.75419 5.24954 3.75035 5.27447 3.71126Z" fill="url(#paint1_radial_9692_52252)"/>
<path d="M5.27447 3.71126C5.80674 2.87457 6.12187 2.10176 6.28602 1.55514C6.34904 1.3457 6.615 1.26018 6.77292 1.41028C9.15304 3.67251 9.93118 5.4 10.086 7.3959C10.1996 9.32653 9.25832 11.0446 6.73136 11.0446C4.3592 11.0446 2.60795 9.37575 2.84586 6.73025C2.98854 5.14972 3.59837 3.94513 4.08562 3.22817C4.2373 3.00512 4.55347 3.00198 4.72835 3.20722L5.16435 3.71894C5.19448 3.75419 5.24954 3.75035 5.27447 3.71126Z" fill="url(#paint2_linear_9692_52252)"/>
<path d="M5.27447 3.71126C5.80674 2.87457 6.12187 2.10176 6.28602 1.55514C6.34904 1.3457 6.615 1.26018 6.77292 1.41028C9.15304 3.67251 9.93118 5.4 10.086 7.3959C10.1996 9.32653 9.25832 11.0446 6.73136 11.0446C4.3592 11.0446 2.60795 9.37575 2.84586 6.73025C2.98854 5.14972 3.59837 3.94513 4.08562 3.22817C4.2373 3.00512 4.55347 3.00198 4.72835 3.20722L5.16435 3.71894C5.19448 3.75419 5.24954 3.75035 5.27447 3.71126Z" fill="url(#paint3_radial_9692_52252)"/>
<path d="M5.27447 3.71126C5.80674 2.87457 6.12187 2.10176 6.28602 1.55514C6.34904 1.3457 6.615 1.26018 6.77292 1.41028C9.15304 3.67251 9.93118 5.4 10.086 7.3959C10.1996 9.32653 9.25832 11.0446 6.73136 11.0446C4.3592 11.0446 2.60795 9.37575 2.84586 6.73025C2.98854 5.14972 3.59837 3.94513 4.08562 3.22817C4.2373 3.00512 4.55347 3.00198 4.72835 3.20722L5.16435 3.71894C5.19448 3.75419 5.24954 3.75035 5.27447 3.71126Z" fill="url(#paint4_radial_9692_52252)"/>
<path d="M5.27447 3.71126C5.80674 2.87457 6.12187 2.10176 6.28602 1.55514C6.34904 1.3457 6.615 1.26018 6.77292 1.41028C9.15304 3.67251 9.93118 5.4 10.086 7.3959C10.1996 9.32653 9.25832 11.0446 6.73136 11.0446C4.3592 11.0446 2.60795 9.37575 2.84586 6.73025C2.98854 5.14972 3.59837 3.94513 4.08562 3.22817C4.2373 3.00512 4.55347 3.00198 4.72835 3.20722L5.16435 3.71894C5.19448 3.75419 5.24954 3.75035 5.27447 3.71126Z" fill="url(#paint5_radial_9692_52252)"/>
<path d="M5.27447 3.71126C5.80674 2.87457 6.12187 2.10176 6.28602 1.55514C6.34904 1.3457 6.615 1.26018 6.77292 1.41028C9.15304 3.67251 9.93118 5.4 10.086 7.3959C10.1996 9.32653 9.25832 11.0446 6.73136 11.0446C4.3592 11.0446 2.60795 9.37575 2.84586 6.73025C2.98854 5.14972 3.59837 3.94513 4.08562 3.22817C4.2373 3.00512 4.55347 3.00198 4.72835 3.20722L5.16435 3.71894C5.19448 3.75419 5.24954 3.75035 5.27447 3.71126Z" fill="url(#paint6_radial_9692_52252)"/>
<path d="M5.27447 3.71126C5.80674 2.87457 6.12187 2.10176 6.28602 1.55514C6.34904 1.3457 6.615 1.26018 6.77292 1.41028C9.15304 3.67251 9.93118 5.4 10.086 7.3959C10.1996 9.32653 9.25832 11.0446 6.73136 11.0446C4.3592 11.0446 2.60795 9.37575 2.84586 6.73025C2.98854 5.14972 3.59837 3.94513 4.08562 3.22817C4.2373 3.00512 4.55347 3.00198 4.72835 3.20722L5.16435 3.71894C5.19448 3.75419 5.24954 3.75035 5.27447 3.71126Z" fill="url(#paint7_radial_9692_52252)"/>
<g filter="url(#filter0_i_9692_52252)">
<path d="M4.4512 7.53085C4.90209 6.44877 5.82775 5.25186 6.45282 4.60226C6.53759 4.51485 6.65302 4.46449 6.77427 4.46201C6.89551 4.45953 7.01288 4.50513 7.1011 4.589C8.29965 5.70214 8.66049 6.70847 8.96662 7.8799C9.28522 9.09881 8.96662 11.0626 6.56987 11.0626C4.50592 11.0626 3.79046 9.11556 4.4512 7.53085Z" fill="url(#paint8_radial_9692_52252)"/>
<path d="M4.4512 7.53085C4.90209 6.44877 5.82775 5.25186 6.45282 4.60226C6.53759 4.51485 6.65302 4.46449 6.77427 4.46201C6.89551 4.45953 7.01288 4.50513 7.1011 4.589C8.29965 5.70214 8.66049 6.70847 8.96662 7.8799C9.28522 9.09881 8.96662 11.0626 6.56987 11.0626C4.50592 11.0626 3.79046 9.11556 4.4512 7.53085Z" fill="url(#paint9_radial_9692_52252)"/>
<path d="M4.4512 7.53085C4.90209 6.44877 5.82775 5.25186 6.45282 4.60226C6.53759 4.51485 6.65302 4.46449 6.77427 4.46201C6.89551 4.45953 7.01288 4.50513 7.1011 4.589C8.29965 5.70214 8.66049 6.70847 8.96662 7.8799C9.28522 9.09881 8.96662 11.0626 6.56987 11.0626C4.50592 11.0626 3.79046 9.11556 4.4512 7.53085Z" fill="url(#paint10_radial_9692_52252)"/>
</g>
<path d="M4.4512 7.53085C4.90209 6.44877 5.82775 5.25186 6.45282 4.60226C6.53759 4.51485 6.65302 4.46449 6.77427 4.46201C6.89551 4.45953 7.01288 4.50513 7.1011 4.589C8.29965 5.70214 8.66049 6.70847 8.96662 7.8799C9.28522 9.09881 8.96662 11.0626 6.56987 11.0626C4.50592 11.0626 3.79046 9.11556 4.4512 7.53085Z" fill="url(#paint11_linear_9692_52252)"/>
<path d="M4.4512 7.53085C4.90209 6.44877 5.82775 5.25186 6.45282 4.60226C6.53759 4.51485 6.65302 4.46449 6.77427 4.46201C6.89551 4.45953 7.01288 4.50513 7.1011 4.589C8.29965 5.70214 8.66049 6.70847 8.96662 7.8799C9.28522 9.09881 8.96662 11.0626 6.56987 11.0626C4.50592 11.0626 3.79046 9.11556 4.4512 7.53085Z" fill="url(#paint12_radial_9692_52252)"/>
<g filter="url(#filter1_f_9692_52252)">
<path d="M5.0182 4.6205C5.81989 3.4372 6.28913 2.15686 6.43215 1.84131C6.22333 3.45884 5.61488 4.64354 4.46931 6.16891C3.553 7.38921 3.38747 8.43359 3.39543 8.68805C3.10904 6.7466 4.01566 6.09945 5.0182 4.6205Z" fill="url(#paint13_linear_9692_52252)"/>
</g>
<g filter="url(#filter2_f_9692_52252)">
<path d="M4.32524 3.34106C3.87505 3.90444 2.97986 5.46682 3.00237 7.21001C3.44564 5.42214 4.48281 4.85876 4.32524 3.34106Z" fill="url(#paint14_linear_9692_52252)"/>
</g>
</g>
<defs>
<filter id="filter0_i_9692_52252" x="4.21289" y="4.46191" width="5.10742" height="6.60059" filterUnits="userSpaceOnUse" color-interpolation-filters="sRGB">
<feFlood flood-opacity="0" result="BackgroundImageFix"/>
<feBlend mode="normal" in="SourceGraphic" in2="BackgroundImageFix" result="shape"/>
<feColorMatrix in="SourceAlpha" type="matrix" values="0 0 0 0 0 0 0 0 0 0 0 0 0 0 0 0 0 0 127 0" result="hardAlpha"/>
<feOffset dx="0.25"/>
<feGaussianBlur stdDeviation="0.125"/>
<feComposite in2="hardAlpha" operator="arithmetic" k2="-1" k3="1"/>
<feColorMatrix type="matrix" values="0 0 0 0 0.952941 0 0 0 0 0.615686 0 0 0 0 0.364706 0 0 0 1 0"/>
<feBlend mode="normal" in2="shape" result="effect1_innerShadow_9692_52252"/>
</filter>
<filter id="filter1_f_9692_52252" x="2.7168" y="1.21631" width="4.33984" height="8.09668" filterUnits="userSpaceOnUse" color-interpolation-filters="sRGB">
<feFlood flood-opacity="0" result="BackgroundImageFix"/>
<feBlend mode="normal" in="SourceGraphic" in2="BackgroundImageFix" result="shape"/>
<feGaussianBlur stdDeviation="0.3125" result="effect1_foregroundBlur_9692_52252"/>
</filter>
<filter id="filter2_f_9692_52252" x="2.25195" y="2.59106" width="2.83984" height="5.3689" filterUnits="userSpaceOnUse" color-interpolation-filters="sRGB">
<feFlood flood-opacity="0" result="BackgroundImageFix"/>
<feBlend mode="normal" in="SourceGraphic" in2="BackgroundImageFix" result="shape"/>
<feGaussianBlur stdDeviation="0.375" result="effect1_foregroundBlur_9692_52252"/>
</filter>
<radialGradient id="paint0_radial_9692_52252" cx="0" cy="0" r="1" gradientUnits="userSpaceOnUse" gradientTransform="translate(9.2384 7.4759) rotate(-179.47) scale(5.92134 9.0008)">
<stop stop-color="#FF953D"/>
<stop offset="1" stop-color="#FF5141"/>
</radialGradient>
<radialGradient id="paint1_radial_9692_52252" cx="0" cy="0" r="1" gradientUnits="userSpaceOnUse" gradientTransform="translate(4.51857 6.0566) rotate(-157.778) scale(3.58621 6.22348)">
<stop stop-color="#CE5327"/>
<stop offset="1" stop-color="#CE5327" stop-opacity="0"/>
</radialGradient>
<linearGradient id="paint2_linear_9692_52252" x1="7.27644" y1="11.0446" x2="7.27644" y2="9.2651" gradientUnits="userSpaceOnUse">
<stop stop-color="#FF7583"/>
<stop offset="1" stop-color="#FF7583" stop-opacity="0"/>
</linearGradient>
<radialGradient id="paint3_radial_9692_52252" cx="0" cy="0" r="1" gradientUnits="userSpaceOnUse" gradientTransform="translate(2.64346 5.61592) rotate(24.1843) scale(1.07657 8.95859)">
<stop stop-color="#FFAA7B"/>
<stop offset="1" stop-color="#FFAA7B" stop-opacity="0"/>
</radialGradient>
<radialGradient id="paint4_radial_9692_52252" cx="0" cy="0" r="1" gradientUnits="userSpaceOnUse" gradientTransform="translate(4.15072 2.77404) rotate(77.4166) scale(1.33999 1.66006)">
<stop stop-color="#FF5E47"/>
<stop offset="1" stop-color="#FF5E47" stop-opacity="0"/>
</radialGradient>
<radialGradient id="paint5_radial_9692_52252" cx="0" cy="0" r="1" gradientUnits="userSpaceOnUse" gradientTransform="translate(6.61604 1.06925) rotate(87.8986) scale(3.53849 3.24945)">
<stop stop-color="#FF2F3C"/>
<stop offset="1" stop-color="#FF2F3C" stop-opacity="0"/>
</radialGradient>
<radialGradient id="paint6_radial_9692_52252" cx="0" cy="0" r="1" gradientUnits="userSpaceOnUse" gradientTransform="translate(5.74025 2.26791) rotate(25.5044) scale(0.79729 1.60803)">
<stop stop-color="#FF846C"/>
<stop offset="1" stop-color="#FF846C" stop-opacity="0"/>
</radialGradient>
<radialGradient id="paint7_radial_9692_52252" cx="0" cy="0" r="1" gradientUnits="userSpaceOnUse" gradientTransform="translate(5.24088 3.45819) rotate(113.06) scale(0.794306 0.181027)">
<stop stop-color="#FFA682"/>
<stop offset="1" stop-color="#FFA682" stop-opacity="0"/>
</radialGradient>
<radialGradient id="paint8_radial_9692_52252" cx="0" cy="0" r="1" gradientUnits="userSpaceOnUse" gradientTransform="translate(8.26948 9.10135) rotate(-168.469) scale(3.47418 4.35803)">
<stop stop-color="#FFDA2F"/>
<stop offset="1" stop-color="#FF8E41"/>
</radialGradient>
<radialGradient id="paint9_radial_9692_52252" cx="0" cy="0" r="1" gradientUnits="userSpaceOnUse" gradientTransform="translate(5.22068 3.59174) rotate(69.1952) scale(4.93157 4.2596)">
<stop stop-color="#FD5639"/>
<stop offset="1" stop-color="#FE5533" stop-opacity="0"/>
</radialGradient>
<radialGradient id="paint10_radial_9692_52252" cx="0" cy="0" r="1" gradientUnits="userSpaceOnUse" gradientTransform="translate(7.58904 7.79334) rotate(174.193) scale(3.39356 8.37369)">
<stop offset="0.628" stop-color="#D7812D" stop-opacity="0"/>
<stop offset="1" stop-color="#D7812D"/>
</radialGradient>
<linearGradient id="paint11_linear_9692_52252" x1="6.64156" y1="4.29684" x2="6.64156" y2="5.56985" gradientUnits="userSpaceOnUse">
<stop stop-color="#F95131"/>
<stop offset="1" stop-color="#F95131" stop-opacity="0"/>
</linearGradient>
<radialGradient id="paint12_radial_9692_52252" cx="0" cy="0" r="1" gradientUnits="userSpaceOnUse" gradientTransform="translate(8.8866 7.15598) rotate(142.845) scale(5.57574 4.04348)">
<stop offset="0.772" stop-color="#F18A52" stop-opacity="0"/>
<stop offset="1" stop-color="#F18A52"/>
</radialGradient>
<linearGradient id="paint13_linear_9692_52252" x1="6.12013" y1="2.07797" x2="3.54293" y2="8.51347" gradientUnits="userSpaceOnUse">
<stop stop-color="#FF7558"/>
<stop offset="1" stop-color="#F38758"/>
</linearGradient>
<linearGradient id="paint14_linear_9692_52252" x1="4.2307" y1="3.43531" x2="2.8402" y2="7.38501" gradientUnits="userSpaceOnUse">
<stop stop-color="#FF815B"/>
<stop offset="1" stop-color="#FF9C6D"/>
</linearGradient>
<clipPath id="clip0_9692_52252">
<rect width="11.0816" height="11.1698" fill="white" transform="translate(0.927734 0.591797)"/>
</clipPath>
</defs>
</svg>
