<svg width="24" height="24" viewBox="0 0 24 24" fill="none" xmlns="http://www.w3.org/2000/svg">
<path d="M22.1848 2.20896L22.0785 2.0126L21.8822 1.90633C19.5399 0.63869 16.6297 0.288533 13.6875 0.920362C10.6947 1.56316 7.88503 3.13056 5.56246 5.45317C3.2399 7.77578 1.67245 10.5854 1.02965 13.5783C0.397965 16.5203 0.748074 19.4305 2.01567 21.7729L2.12193 21.9693L2.31829 22.0755C3.89901 22.931 5.73787 23.3686 7.67114 23.3686C8.62654 23.3667 9.57906 23.2637 10.5128 23.0614C13.5057 22.4187 16.3153 20.8512 18.6378 18.5286C20.9604 16.206 22.5282 13.3963 23.1707 10.4035C23.8026 7.46139 23.4524 4.55102 22.1848 2.20896ZM20.9698 3.12133C21.8969 4.9428 22.181 7.04978 21.8791 9.19281L14.8983 2.21196C17.0414 1.91008 19.1485 2.19414 20.9698 3.12133ZM3.23076 20.8604C2.28379 19 2.0077 16.8419 2.34159 14.6516L9.43945 21.7495C7.24922 22.0834 5.09104 21.8073 3.23076 20.8604ZM17.5773 17.4678C15.6819 19.3632 13.447 20.683 11.1713 21.3601L2.73103 12.9198C3.40818 10.6441 4.7279 8.40916 6.62325 6.51381C8.55243 4.58463 10.8335 3.25211 13.1512 2.5863L21.5048 10.9401C20.839 13.2577 19.5065 15.5385 17.5773 17.4678Z" fill="white"/>
</svg>
