<svg width="24" height="24" viewBox="0 0 24 24" fill="none" xmlns="http://www.w3.org/2000/svg">
<g clip-path="url(#clip0_2601_33455)">
<path d="M1.04998 15.1118C0.262478 19.4993 1.19998 21.3743 1.91248 22.0868C2.62498 22.7993 4.53748 23.7368 8.88748 22.9493C7.27498 22.0868 5.77498 20.9618 4.38748 19.6118C3.03748 18.2618 1.91248 16.7243 1.04998 15.1118ZM22.9125 8.92428C23.7 4.57428 23.025 2.39928 22.3125 1.68678C21.6 0.974278 19.425 0.336778 15.075 1.08678C16.6875 1.94928 18.1875 3.07428 19.575 4.42428C20.925 5.81178 22.05 7.31178 22.9125 8.92428ZM11.55 2.02428C9.44998 2.77428 7.34998 3.93678 5.58748 5.66178C3.86248 7.42428 2.69998 9.52428 1.94998 11.6243C2.66248 13.9118 4.04998 16.1243 5.96248 18.0368C7.87498 19.9493 10.0875 21.3368 12.375 22.0493C14.475 21.2993 16.575 20.1368 18.3375 18.4118C20.1 16.6493 21.225 14.5868 21.975 12.4493C21.2625 10.1618 19.875 7.94928 17.9625 6.03678C16.0875 4.08678 13.8375 2.73678 11.55 2.02428Z" fill="#89664C"/>
<path d="M1.94995 11.6254C1.53745 12.7879 1.23745 13.9879 1.01245 15.1504C1.87495 16.7629 2.99995 18.2629 4.34995 19.6504C5.69995 21.0004 7.23745 22.1254 8.84995 22.9879C9.97495 22.8004 11.175 22.5004 12.375 22.0504C10.0875 21.3379 7.83745 19.9504 5.96245 18.0379C4.04995 16.1254 2.66245 13.9129 1.94995 11.6254ZM19.575 4.42539C18.225 3.07539 16.6875 1.95039 15.075 1.08789C13.95 1.27539 12.75 1.57539 11.55 2.02539C13.8375 2.73789 16.0875 4.08789 18 6.00039C19.9125 7.91289 21.3 10.1254 22.0125 12.4129C22.425 11.2504 22.725 10.0504 22.95 8.88789C22.05 7.31289 20.925 5.81289 19.575 4.42539ZM14.175 7.42539L16.5375 9.78789C16.9125 10.1629 17.5125 9.56289 17.1375 9.18789L14.775 6.82539C14.4 6.45039 13.8 7.05039 14.175 7.42539ZM12.4125 9.22539L14.775 11.5879C15.15 11.9629 15.75 11.3629 15.375 10.9879L13.0125 8.62539C12.6 8.25039 12.0375 8.85039 12.4125 9.22539ZM10.6125 10.9879L12.975 13.3504C13.35 13.7254 13.95 13.1254 13.575 12.7504L11.2125 10.3879C10.8375 10.0129 10.2375 10.6129 10.6125 10.9879ZM8.84995 12.7879L11.2125 15.1504C11.5875 15.5254 12.1875 14.9254 11.8125 14.5504L9.44995 12.1879C9.03745 11.8129 8.43745 12.4129 8.84995 12.7879ZM7.04995 14.5504L9.41245 16.9129C9.78745 17.2879 10.3875 16.6879 10.0125 16.3129L7.64995 13.9504C7.27495 13.5754 6.67495 14.1754 7.04995 14.5504Z" fill="white"/>
<path d="M8.02496 16.5758L16.8 7.80076C17.175 7.42576 16.575 6.82576 16.2 7.20076L7.42496 15.9758C7.04996 16.3883 7.61246 16.9883 8.02496 16.5758Z" fill="white"/>
</g>
<defs>
<clipPath id="clip0_2601_33455">
<rect width="24" height="24" fill="white"/>
</clipPath>
</defs>
</svg>
