<svg width="40" height="40" viewBox="0 0 40 40" fill="none" xmlns="http://www.w3.org/2000/svg">
<path d="M29.1667 24.5833C34.5654 23.1019 40 16.2963 40 5.92593C40 5.4321 39.5092 4.93827 39.0184 4.93827H33.3742V2.71605C33.1288 1.23457 31.9018 0 30.4294 0H9.32515C7.85276 0 6.62577 1.23457 6.62577 2.71605V4.93827H0.981595C0.490798 4.93827 0 5.4321 0 5.92593C0 16.2963 5.43456 23.1019 10.8333 24.5833C12.5511 26.3117 14.9489 27.6543 16.6667 28.642V32.8395H15.7055C13.2515 32.8395 11.2883 34.8148 11.2883 37.284V39.0123C11.2883 39.5062 11.7791 40 12.2699 40H26.9939C27.4847 40 27.9755 39.5062 27.9755 39.0123V37.284C27.9755 34.8148 26.0123 32.8395 23.5583 32.8395H23.3129V28.642C25.0307 27.9012 27.2035 26.3117 29.1667 24.5833ZM18.4049 32.8395V29.6296C18.8957 29.8765 19.3865 30 19.3865 30H20H20.4167C20.4167 30 21.2014 29.8765 21.6922 29.6296V32.8395H18.4049ZM8.33333 15.0617V6.41975C8.33333 6.41975 8.33333 6.17284 8.33333 5.92593V5.67901V2.71605C8.33333 2.08333 8.75 1.66667 9.07975 1.66667H30.4294C31.25 1.66667 31.6667 2.08333 31.7536 2.71605V15.0617C31.7536 23.2099 22.2086 27.5926 20 28.3333C18.2822 27.5926 8.57873 23.2099 8.33333 15.0617ZM8.33333 21.6667C5 19.1667 1.91207 12.5926 1.66667 6.66667H6.62577V15.0617C6.62577 17.037 7.59714 20.1852 8.33333 21.6667ZM33.1288 15.0617V6.66667H38.3333C38.0879 12.8395 34.5936 20.5093 30.8333 21.6667C31.8149 19.9383 33.1288 17.2839 33.1288 15.0617ZM26.6667 38.6111H12.6636V38.1173C12.5 35.8333 14.1667 34.1667 15.7055 34.2284H17.4233H22.3313H24.0491C25.8333 34.1667 26.6667 36.25 26.6667 38.1173V38.6111Z" fill="white"/>
</svg>
