<svg width="200" height="58" viewBox="0 0 200 58" fill="none" xmlns="http://www.w3.org/2000/svg">
<path d="M192.106 57.4507H8.22254C4.17893 57.4507 0.867188 54.2173 0.867188 50.2693V7.18135C0.867188 3.23341 4.17893 1.28456e-05 8.22254 1.28456e-05H192.106C196.15 1.28456e-05 199.462 3.23341 199.462 7.18135V50.2693C199.462 54.2173 196.15 57.4507 192.106 57.4507Z" fill="white" fill-opacity="0.1"/>
<path d="M192.106 1.15082C195.512 1.15082 198.283 3.85639 198.283 7.18135V50.2693C198.283 53.5943 195.512 56.2999 192.106 56.2999H8.22254C4.81701 56.2999 2.04588 53.5943 2.04588 50.2693V7.18135C2.04588 3.85639 4.81701 1.15082 8.22254 1.15082H192.106ZM192.106 1.28456e-05H8.22254C4.17893 1.28456e-05 0.867188 3.23341 0.867188 7.18135V50.2693C0.867188 54.2173 4.17893 57.4507 8.22254 57.4507H192.106C196.15 57.4507 199.462 54.2173 199.462 50.2693V7.18135C199.462 3.23341 196.15 1.28456e-05 192.106 1.28456e-05Z" fill="white"/>
<path d="M70.6213 14.7129C70.6213 15.9122 70.2535 16.8727 69.529 17.589C68.696 18.4382 67.6111 18.8655 66.2816 18.8655C65.011 18.8655 63.926 18.431 63.036 17.5747C62.1442 16.7057 61.6992 15.6393 61.6992 14.3628C61.6992 13.0863 62.1442 12.0199 63.036 11.1581C63.926 10.2946 65.011 9.86011 66.2816 9.86011C66.9142 9.86011 67.5173 9.98758 68.0929 10.2246C68.6666 10.4633 69.1336 10.7865 69.472 11.1851L68.7033 11.9427C68.1131 11.2623 67.3095 10.9265 66.2816 10.9265C65.3548 10.9265 64.5513 11.2425 63.869 11.8799C63.1942 12.519 62.8558 13.3466 62.8558 14.3628C62.8558 15.379 63.1942 16.2138 63.869 16.8529C64.5513 17.4831 65.3548 17.8063 66.2816 17.8063C67.2654 17.8063 68.0929 17.4831 68.7456 16.8458C69.1759 16.4238 69.4205 15.8422 69.4849 15.0989H66.2816V14.0612H70.5551C70.6065 14.2856 70.6213 14.5028 70.6213 14.7129Z" fill="white" stroke="white" stroke-width="0.16" stroke-miterlimit="10"/>
<path d="M77.4006 11.1148H73.3864V13.8437H77.0052V14.8814H73.3864V17.6103H77.4006V18.6678H72.25V10.0574H77.4006V11.1148Z" fill="white" stroke="white" stroke-width="0.16" stroke-miterlimit="10"/>
<path d="M82.1865 18.6678H81.0501V11.1148H78.5879V10.0574H84.6505V11.1148H82.1865V18.6678Z" fill="white" stroke="white" stroke-width="0.16" stroke-miterlimit="10"/>
<path d="M89.0371 18.6678V10.0574H90.1717V18.6678H89.0371Z" fill="white" stroke="white" stroke-width="0.16" stroke-miterlimit="10"/>
<path d="M95.2021 18.6678H94.0749V11.1148H91.6035V10.0574H97.6735V11.1148H95.2021V18.6678Z" fill="white" stroke="white" stroke-width="0.16" stroke-miterlimit="10"/>
<path d="M109.152 17.5603C108.282 18.431 107.204 18.8655 105.919 18.8655C104.626 18.8655 103.549 18.431 102.679 17.5603C101.811 16.6914 101.379 15.6249 101.379 14.3628C101.379 13.1007 101.811 12.0343 102.679 11.1653C103.549 10.2946 104.626 9.86011 105.919 9.86011C107.197 9.86011 108.275 10.2946 109.144 11.1725C110.02 12.0486 110.452 13.1079 110.452 14.3628C110.452 15.6249 110.02 16.6914 109.152 17.5603ZM103.519 16.8386C104.174 17.4831 104.97 17.8063 105.919 17.8063C106.86 17.8063 107.664 17.4831 108.311 16.8386C108.964 16.194 109.295 15.3664 109.295 14.3628C109.295 13.3592 108.964 12.5316 108.311 11.887C107.664 11.2425 106.86 10.9194 105.919 10.9194C104.97 10.9194 104.174 11.2425 103.519 11.887C102.867 12.5316 102.536 13.3592 102.536 14.3628C102.536 15.3664 102.867 16.194 103.519 16.8386Z" fill="white" stroke="white" stroke-width="0.16" stroke-miterlimit="10"/>
<path d="M112.045 18.6678V10.0574H113.424L117.712 16.754H117.762L117.712 15.0987V10.0574H118.847V18.6678H117.663L113.172 11.6409H113.122L113.172 13.3033V18.6678H112.045Z" fill="white" stroke="white" stroke-width="0.16" stroke-miterlimit="10"/>
<path d="M101.099 31.2424C97.6437 31.2424 94.8211 33.8097 94.8211 37.3519C94.8211 40.8653 97.6437 43.4596 101.099 43.4596C104.561 43.4596 107.384 40.8653 107.384 37.3519C107.384 33.8097 104.561 31.2424 101.099 31.2424ZM101.099 41.0538C99.203 41.0538 97.572 39.526 97.572 37.3519C97.572 35.149 99.203 33.6481 101.099 33.6481C102.995 33.6481 104.633 35.149 104.633 37.3519C104.633 39.526 102.995 41.0538 101.099 41.0538ZM87.4014 31.2424C83.9388 31.2424 81.1236 33.8097 81.1236 37.3519C81.1236 40.8653 83.9388 43.4596 87.4014 43.4596C90.862 43.4596 93.6792 40.8653 93.6792 37.3519C93.6792 33.8097 90.862 31.2424 87.4014 31.2424ZM87.4014 41.0538C85.5037 41.0538 83.8671 39.526 83.8671 37.3519C83.8671 35.149 85.5037 33.6481 87.4014 33.6481C89.2972 33.6481 90.9283 35.149 90.9283 37.3519C90.9283 39.526 89.2972 41.0538 87.4014 41.0538ZM71.1019 33.1149V35.7109H77.4514C77.2657 37.1616 76.7692 38.228 76.0079 38.9713C75.0812 39.8689 73.6377 40.8653 71.1019 40.8653C67.1944 40.8653 64.1346 37.7863 64.1346 33.9713C64.1346 30.1562 67.1944 27.0772 71.1019 27.0772C73.2147 27.0772 74.752 27.8833 75.8866 28.9282L77.7603 27.0987C76.1734 25.6194 74.0624 24.4829 71.1019 24.4829C65.7435 24.4829 61.2402 28.7397 61.2402 33.9713C61.2402 39.2029 65.7435 43.4596 71.1019 43.4596C73.9981 43.4596 76.1734 42.5332 77.8835 40.7953C79.636 39.0844 80.1821 36.6786 80.1821 34.7361C80.1821 34.1328 80.1306 33.5781 80.0387 33.1149H71.1019ZM137.752 35.1275C137.236 33.7612 135.641 31.2424 132.394 31.2424C129.176 31.2424 126.497 33.7181 126.497 37.3519C126.497 40.7738 129.148 43.4596 132.703 43.4596C135.577 43.4596 137.236 41.7486 137.918 40.7522L135.785 39.3644C135.073 40.3806 134.104 41.0538 132.703 41.0538C131.311 41.0538 130.312 40.4309 129.673 39.2029L138.041 35.8222L137.752 35.1275ZM129.22 37.1616C129.148 34.8061 131.094 33.5996 132.488 33.5996C133.58 33.5996 134.507 34.1328 134.816 34.8959L129.22 37.1616ZM122.418 43.088H125.169V25.1346H122.418V43.088ZM117.913 32.6032H117.821C117.203 31.8887 116.025 31.2424 114.532 31.2424C111.398 31.2424 108.533 33.9282 108.533 37.3716C108.533 40.7953 111.398 43.4596 114.532 43.4596C116.025 43.4596 117.203 42.8079 117.821 42.0718H117.913V42.9479C117.913 45.2837 116.635 46.5386 114.574 46.5386C112.893 46.5386 111.851 45.3537 111.42 44.3573L109.028 45.3321C109.717 46.9515 111.543 48.9443 114.574 48.9443C117.799 48.9443 120.521 47.0916 120.521 42.5835V31.614H117.913V32.6032ZM114.767 41.0538C112.871 41.0538 111.284 39.5045 111.284 37.3716C111.284 35.219 112.871 33.6481 114.767 33.6481C116.635 33.6481 118.108 35.219 118.108 37.3716C118.108 39.5045 116.635 41.0538 114.767 41.0538ZM150.632 25.1346H144.052V43.088H146.796V36.2854H150.632C153.679 36.2854 156.667 34.1328 156.667 30.7091C156.667 27.2872 153.671 25.1346 150.632 25.1346ZM150.703 33.7881H146.796V27.6319H150.703C152.752 27.6319 153.921 29.2926 153.921 30.7091C153.921 32.0987 152.752 33.7881 150.703 33.7881ZM167.663 31.2082C165.681 31.2082 163.619 32.0628 162.772 33.9569L165.206 34.9533C165.73 33.9569 166.694 33.6337 167.713 33.6337C169.136 33.6337 170.579 34.4686 170.601 35.9425V36.131C170.105 35.851 169.042 35.4363 167.735 35.4363C165.112 35.4363 162.441 36.8456 162.441 39.4758C162.441 41.8815 164.588 43.4309 167.003 43.4309C168.849 43.4309 169.868 42.6176 170.508 41.6714H170.601V43.0592H173.251V36.1723C173.251 32.9892 170.817 31.2082 167.663 31.2082ZM167.332 41.0467C166.435 41.0467 165.184 40.6122 165.184 39.526C165.184 38.1364 166.743 37.6032 168.093 37.6032C169.301 37.6032 169.868 37.8635 170.601 38.2064C170.386 39.8689 168.921 41.0467 167.332 41.0467ZM182.905 31.6014L179.751 39.3842H179.658L176.397 31.6014H173.439L178.337 42.4775L175.542 48.5296H178.409L185.957 31.6014H182.905ZM158.175 43.088H160.925V25.1346H158.175V43.088Z" fill="white"/>
<path d="M16.2174 10.8275C15.7852 11.2692 15.5352 11.9568 15.5352 12.8473V44.6104C15.5352 45.5008 15.7852 46.1884 16.2174 46.6301L16.324 46.7271L34.5542 28.9353V28.5152L16.324 10.7234L16.2174 10.8275Z" fill="url(#paint0_linear_9692_52365)"/>
<path d="M40.6247 34.8689L34.5547 28.9353V28.5152L40.632 22.5816L40.7681 22.6588L47.9653 26.657C50.0193 27.7917 50.0193 29.6588 47.9653 30.8007L40.7681 34.7917L40.6247 34.8689Z" fill="url(#paint1_linear_9692_52365)"/>
<path d="M40.7671 34.7918L34.5537 28.7254L16.2168 46.6302C16.899 47.3304 18.0115 47.4148 19.2766 46.7146L40.7671 34.7918Z" fill="url(#paint2_linear_9692_52365)"/>
<path d="M40.7671 22.6589L19.2766 10.7361C18.0115 10.0431 16.899 10.1275 16.2168 10.8277L34.5537 28.7253L40.7671 22.6589Z" fill="url(#paint3_linear_9692_52365)"/>
<defs>
<linearGradient id="paint0_linear_9692_52365" x1="32.9356" y1="44.9411" x2="8.83852" y2="20.2601" gradientUnits="userSpaceOnUse">
<stop stop-color="#00A0FF"/>
<stop offset="0.0066" stop-color="#00A1FF"/>
<stop offset="0.2601" stop-color="#00BEFF"/>
<stop offset="0.5122" stop-color="#00D2FF"/>
<stop offset="0.7604" stop-color="#00DFFF"/>
<stop offset="1" stop-color="#00E3FF"/>
</linearGradient>
<linearGradient id="paint1_linear_9692_52365" x1="50.64" y1="28.7233" x2="15.0446" y2="28.7233" gradientUnits="userSpaceOnUse">
<stop stop-color="#FFE000"/>
<stop offset="0.4087" stop-color="#FFBD00"/>
<stop offset="0.7754" stop-color="#FFA500"/>
<stop offset="1" stop-color="#FF9C00"/>
</linearGradient>
<linearGradient id="paint2_linear_9692_52365" x1="37.3884" y1="25.4276" x2="4.7108" y2="-8.04189" gradientUnits="userSpaceOnUse">
<stop stop-color="#FF3A44"/>
<stop offset="1" stop-color="#C31162"/>
</linearGradient>
<linearGradient id="paint3_linear_9692_52365" x1="11.601" y1="57.1976" x2="26.1931" y2="42.2521" gradientUnits="userSpaceOnUse">
<stop stop-color="#32A071"/>
<stop offset="0.0685" stop-color="#2DA771"/>
<stop offset="0.4762" stop-color="#15CF74"/>
<stop offset="0.8009" stop-color="#06E775"/>
<stop offset="1" stop-color="#00F076"/>
</linearGradient>
</defs>
</svg>
