<svg width="200" height="59" viewBox="0 0 200 59" fill="none" xmlns="http://www.w3.org/2000/svg">
<path d="M192.107 58.0342H8.22315C4.17954 58.0342 0.867798 54.8008 0.867798 50.8528V7.76484C0.867798 3.8169 4.17954 0.583509 8.22315 0.583509H192.107C196.15 0.583509 199.462 3.8169 199.462 7.76484V50.8528C199.462 54.8008 196.15 58.0342 192.107 58.0342Z" fill="white" fill-opacity="0.1"/>
<path d="M192.107 1.73432C195.512 1.73432 198.284 4.43988 198.284 7.76484V50.8528C198.284 54.1778 195.512 56.8834 192.107 56.8834H8.22315C4.81762 56.8834 2.04649 54.1778 2.04649 50.8528V7.76484C2.04649 4.43988 4.81762 1.73432 8.22315 1.73432H192.107ZM192.107 0.583509H8.22315C4.17954 0.583509 0.867798 3.8169 0.867798 7.76484V50.8528C0.867798 54.8008 4.17954 58.0342 8.22315 58.0342H192.107C196.15 58.0342 199.462 54.8008 199.462 50.8528V7.76484C199.462 3.8169 196.15 0.583509 192.107 0.583509Z" fill="white"/>
<path d="M70.6222 15.2964C70.6222 16.4957 70.2545 17.4562 69.53 18.1725C68.697 19.0217 67.6121 19.449 66.2826 19.449C65.0119 19.449 63.927 19.0145 63.037 18.1582C62.1452 17.2892 61.7002 16.2228 61.7002 14.9463C61.7002 13.6698 62.1452 12.6034 63.037 11.7416C63.927 10.8781 65.0119 10.4436 66.2826 10.4436C66.9151 10.4436 67.5183 10.5711 68.0938 10.8081C68.6675 11.0468 69.1346 11.37 69.473 11.7686L68.7043 12.5262C68.1141 11.8458 67.3105 11.51 66.2826 11.51C65.3558 11.51 64.5522 11.826 63.87 12.4634C63.1952 13.1025 62.8568 13.9301 62.8568 14.9463C62.8568 15.9625 63.1952 16.7973 63.87 17.4364C64.5522 18.0666 65.3558 18.3897 66.2826 18.3897C67.2664 18.3897 68.0938 18.0666 68.7466 17.4292C69.1769 17.0073 69.4215 16.4257 69.4858 15.6824H66.2826V14.6447H70.556C70.6075 14.8691 70.6222 15.0863 70.6222 15.2964Z" fill="white" stroke="white" stroke-width="0.16" stroke-miterlimit="10"/>
<path d="M77.4021 11.6983H73.3879V14.4272H77.0067V15.4649H73.3879V18.1938H77.4021V19.2513H72.2515V10.6409H77.4021V11.6983Z" fill="white" stroke="white" stroke-width="0.16" stroke-miterlimit="10"/>
<path d="M82.1866 19.2513H81.0502V11.6983H78.588V10.6409H84.6507V11.6983H82.1866V19.2513Z" fill="white" stroke="white" stroke-width="0.16" stroke-miterlimit="10"/>
<path d="M89.0378 19.2513V10.6409H90.1724V19.2513H89.0378Z" fill="white" stroke="white" stroke-width="0.16" stroke-miterlimit="10"/>
<path d="M95.202 19.2513H94.0748V11.6983H91.6035V10.6409H97.6734V11.6983H95.202V19.2513Z" fill="white" stroke="white" stroke-width="0.16" stroke-miterlimit="10"/>
<path d="M109.151 18.1438C108.282 19.0145 107.204 19.449 105.919 19.449C104.626 19.449 103.548 19.0145 102.679 18.1438C101.811 17.2748 101.379 16.2084 101.379 14.9463C101.379 13.6842 101.811 12.6178 102.679 11.7488C103.548 10.8781 104.626 10.4436 105.919 10.4436C107.197 10.4436 108.274 10.8781 109.144 11.756C110.019 12.6321 110.451 13.6914 110.451 14.9463C110.451 16.2084 110.019 17.2748 109.151 18.1438ZM103.519 17.4221C104.174 18.0666 104.97 18.3897 105.919 18.3897C106.86 18.3897 107.664 18.0666 108.311 17.4221C108.964 16.7775 109.295 15.9499 109.295 14.9463C109.295 13.9427 108.964 13.1151 108.311 12.4705C107.664 11.826 106.86 11.5029 105.919 11.5029C104.97 11.5029 104.174 11.826 103.519 12.4705C102.866 13.1151 102.535 13.9427 102.535 14.9463C102.535 15.9499 102.866 16.7775 103.519 17.4221Z" fill="white" stroke="white" stroke-width="0.16" stroke-miterlimit="10"/>
<path d="M112.046 19.2513V10.6409H113.425L117.713 17.3375H117.763L117.713 15.6822V10.6409H118.848V19.2513H117.663L113.173 12.2244H113.123L113.173 13.8868V19.2513H112.046Z" fill="white" stroke="white" stroke-width="0.16" stroke-miterlimit="10"/>
<path d="M101.099 31.8258C97.644 31.8258 94.8214 34.3932 94.8214 37.9354C94.8214 41.4488 97.644 44.0431 101.099 44.0431C104.562 44.0431 107.384 41.4488 107.384 37.9354C107.384 34.3932 104.562 31.8258 101.099 31.8258ZM101.099 41.6373C99.2034 41.6373 97.5723 40.1095 97.5723 37.9354C97.5723 35.7325 99.2034 34.2316 101.099 34.2316C102.995 34.2316 104.633 35.7325 104.633 37.9354C104.633 40.1095 102.995 41.6373 101.099 41.6373ZM87.4017 31.8258C83.9392 31.8258 81.1239 34.3932 81.1239 37.9354C81.1239 41.4488 83.9392 44.0431 87.4017 44.0431C90.8624 44.0431 93.6795 41.4488 93.6795 37.9354C93.6795 34.3932 90.8624 31.8258 87.4017 31.8258ZM87.4017 41.6373C85.504 41.6373 83.8675 40.1095 83.8675 37.9354C83.8675 35.7325 85.504 34.2316 87.4017 34.2316C89.2976 34.2316 90.9286 35.7325 90.9286 37.9354C90.9286 40.1095 89.2976 41.6373 87.4017 41.6373ZM71.1023 33.6984V36.2944H77.4518C77.2661 37.7451 76.7696 38.8115 76.0083 39.5548C75.0815 40.4524 73.638 41.4488 71.1023 41.4488C67.1948 41.4488 64.1349 38.3698 64.1349 34.5548C64.1349 30.7397 67.1948 27.6607 71.1023 27.6607C73.2151 27.6607 74.7524 28.4668 75.8869 29.5117L77.7607 27.6822C76.1738 26.2029 74.0628 25.0664 71.1023 25.0664C65.7439 25.0664 61.2406 29.3232 61.2406 34.5548C61.2406 39.7864 65.7439 44.0431 71.1023 44.0431C73.9984 44.0431 76.1738 43.1167 77.8839 41.3788C79.6363 39.6679 80.1825 37.2621 80.1825 35.3196C80.1825 34.7163 80.131 34.1616 80.039 33.6984H71.1023ZM137.753 35.7109C137.236 34.3447 135.642 31.8258 132.394 31.8258C129.176 31.8258 126.497 34.3016 126.497 37.9354C126.497 41.3573 129.149 44.0431 132.703 44.0431C135.577 44.0431 137.236 42.3321 137.918 41.3357L135.785 39.9479C135.074 40.9641 134.105 41.6373 132.703 41.6373C131.311 41.6373 130.313 41.0144 129.673 39.7864L138.041 36.4057L137.753 35.7109ZM129.221 37.7451C129.149 35.3896 131.094 34.1831 132.488 34.1831C133.58 34.1831 134.507 34.7163 134.816 35.4793L129.221 37.7451ZM122.419 43.6715H125.17V25.7181H122.419V43.6715ZM117.914 33.1867H117.822C117.204 32.4722 116.025 31.8258 114.532 31.8258C111.399 31.8258 108.534 34.5117 108.534 37.9551C108.534 41.3788 111.399 44.0431 114.532 44.0431C116.025 44.0431 117.204 43.3914 117.822 42.6553H117.914V43.5314C117.914 45.8671 116.636 47.1221 114.574 47.1221C112.894 47.1221 111.851 45.9372 111.421 44.9408L109.028 45.9156C109.718 47.535 111.544 49.5278 114.574 49.5278C117.8 49.5278 120.521 47.675 120.521 43.167V32.1975H117.914V33.1867ZM114.767 41.6373C112.871 41.6373 111.285 40.088 111.285 37.9551C111.285 35.8025 112.871 34.2316 114.767 34.2316C116.636 34.2316 118.108 35.8025 118.108 37.9551C118.108 40.088 116.636 41.6373 114.767 41.6373ZM150.632 25.7181H144.053V43.6715H146.796V36.8689H150.632C153.679 36.8689 156.667 34.7163 156.667 31.2926C156.667 27.8707 153.672 25.7181 150.632 25.7181ZM150.704 34.3716H146.796V28.2154H150.704C152.752 28.2154 153.922 29.8761 153.922 31.2926C153.922 32.6822 152.752 34.3716 150.704 34.3716ZM167.663 31.7917C165.681 31.7917 163.62 32.6463 162.772 34.5404L165.207 35.5368C165.731 34.5404 166.694 34.2172 167.713 34.2172C169.136 34.2172 170.58 35.0521 170.602 36.526V36.7145C170.105 36.4345 169.042 36.0197 167.735 36.0197C165.113 36.0197 162.441 37.4291 162.441 40.0592C162.441 42.465 164.589 44.0144 167.003 44.0144C168.849 44.0144 169.868 43.2011 170.508 42.2549H170.602V43.6427H173.251V36.7558C173.251 33.5727 170.817 31.7917 167.663 31.7917ZM167.332 41.6302C166.435 41.6302 165.185 41.1957 165.185 40.1095C165.185 38.7199 166.744 38.1867 168.094 38.1867C169.302 38.1867 169.868 38.447 170.602 38.7899C170.387 40.4524 168.921 41.6302 167.332 41.6302ZM182.905 32.1849L179.752 39.9677H179.658L176.398 32.1849H173.439L178.338 43.061L175.543 49.1131H178.409L185.958 32.1849H182.905ZM158.175 43.6715H160.926V25.7181H158.175V43.6715Z" fill="white"/>
<path d="M16.2185 11.411C15.7863 11.8527 15.5363 12.5403 15.5363 13.4308V45.1938C15.5363 46.0843 15.7863 46.7719 16.2185 47.2136L16.3251 47.3105L34.5553 29.5188V29.0987L16.3251 11.3069L16.2185 11.411Z" fill="url(#paint0_linear_19_1611)"/>
<path d="M40.6252 35.4524L34.5552 29.5188V29.0987L40.6325 23.1651L40.7686 23.2423L47.9658 27.2405C50.0198 28.3752 50.0198 30.2423 47.9658 31.3842L40.7686 35.3752L40.6252 35.4524Z" fill="url(#paint1_linear_19_1611)"/>
<path d="M40.7685 35.3753L34.5551 29.3089L16.2182 47.2137C16.9004 47.9139 18.0129 47.9983 19.278 47.2981L40.7685 35.3753Z" fill="url(#paint2_linear_19_1611)"/>
<path d="M40.7685 23.2424L19.278 11.3196C18.0129 10.6266 16.9004 10.711 16.2182 11.4112L34.5551 29.3088L40.7685 23.2424Z" fill="url(#paint3_linear_19_1611)"/>
<defs>
<linearGradient id="paint0_linear_19_1611" x1="32.9367" y1="45.5246" x2="8.83961" y2="20.8436" gradientUnits="userSpaceOnUse">
<stop stop-color="#00A0FF"/>
<stop offset="0.0066" stop-color="#00A1FF"/>
<stop offset="0.2601" stop-color="#00BEFF"/>
<stop offset="0.5122" stop-color="#00D2FF"/>
<stop offset="0.7604" stop-color="#00DFFF"/>
<stop offset="1" stop-color="#00E3FF"/>
</linearGradient>
<linearGradient id="paint1_linear_19_1611" x1="50.6404" y1="29.3067" x2="15.0451" y2="29.3067" gradientUnits="userSpaceOnUse">
<stop stop-color="#FFE000"/>
<stop offset="0.4087" stop-color="#FFBD00"/>
<stop offset="0.7754" stop-color="#FFA500"/>
<stop offset="1" stop-color="#FF9C00"/>
</linearGradient>
<linearGradient id="paint2_linear_19_1611" x1="37.3898" y1="26.0111" x2="4.7122" y2="-7.4584" gradientUnits="userSpaceOnUse">
<stop stop-color="#FF3A44"/>
<stop offset="1" stop-color="#C31162"/>
</linearGradient>
<linearGradient id="paint3_linear_19_1611" x1="11.6024" y1="57.7811" x2="26.1945" y2="42.8356" gradientUnits="userSpaceOnUse">
<stop stop-color="#32A071"/>
<stop offset="0.0685" stop-color="#2DA771"/>
<stop offset="0.4762" stop-color="#15CF74"/>
<stop offset="0.8009" stop-color="#06E775"/>
<stop offset="1" stop-color="#00F076"/>
</linearGradient>
</defs>
</svg>
