<svg width="256" height="74" viewBox="0 0 256 74" fill="none" xmlns="http://www.w3.org/2000/svg">
<path d="M246.481 74H9.62795C4.41954 74 0.153809 69.8352 0.153809 64.75V9.25002C0.153809 4.16483 4.41954 2.28075e-05 9.62795 2.28075e-05H246.481C251.69 2.28075e-05 255.956 4.16483 255.956 9.25002V64.75C255.956 69.8352 251.69 74 246.481 74Z" fill="#0C353E"/>
<path d="M246.481 1.48233C250.868 1.48233 254.437 4.96727 254.437 9.25002V64.75C254.437 69.0328 250.868 72.5177 246.481 72.5177H9.62795C5.24142 72.5177 1.67204 69.0328 1.67204 64.75V9.25002C1.67204 4.96727 5.24142 1.48233 9.62795 1.48233H246.481ZM246.481 2.28075e-05H9.62795C4.41954 2.28075e-05 0.153809 4.16483 0.153809 9.25002V64.75C0.153809 69.8352 4.41954 74 9.62795 74H246.481C251.69 74 255.956 69.8352 255.956 64.75V9.25002C255.956 4.16483 251.69 2.28075e-05 246.481 2.28075e-05Z" fill="#2A4E55"/>
<path d="M90.0018 18.9509C90.0018 20.4956 89.5281 21.7328 88.5949 22.6555C87.5219 23.7493 86.1245 24.2997 84.412 24.2997C82.7754 24.2997 81.3779 23.7401 80.2316 22.637C79.0828 21.5178 78.5096 20.1441 78.5096 18.4999C78.5096 16.8558 79.0828 15.4821 80.2316 14.3721C81.3779 13.2598 82.7754 12.7002 84.412 12.7002C85.2268 12.7002 86.0037 12.8644 86.745 13.1696C87.484 13.4772 88.0856 13.8934 88.5214 14.4068L87.5314 15.3827C86.7711 14.5063 85.736 14.0738 84.412 14.0738C83.2183 14.0738 82.1832 14.4808 81.3045 15.3018C80.4353 16.125 79.9994 17.1911 79.9994 18.4999C79.9994 19.8088 80.4353 20.8841 81.3045 21.7074C82.1832 22.5191 83.2183 22.9353 84.412 22.9353C85.6792 22.9353 86.745 22.5191 87.5859 21.6981C88.1401 21.1547 88.4551 20.4054 88.538 19.4481H84.412V18.1114H89.9165C89.9828 18.4005 90.0018 18.6803 90.0018 18.9509Z" fill="white" stroke="white" stroke-width="0.16" stroke-miterlimit="10"/>
<path d="M98.7347 14.3167H93.5642V17.8317H98.2255V19.1683H93.5642V22.6833H98.7347V24.0453H92.1005V12.9546H98.7347V14.3167Z" fill="white" stroke="white" stroke-width="0.16" stroke-miterlimit="10"/>
<path d="M104.897 24.0453H103.434V14.3167H100.262V12.9546H108.071V14.3167H104.897V24.0453Z" fill="white" stroke="white" stroke-width="0.16" stroke-miterlimit="10"/>
<path d="M113.722 24.0453V12.9546H115.184V24.0453H113.722Z" fill="white" stroke="white" stroke-width="0.16" stroke-miterlimit="10"/>
<path d="M121.662 24.0453H120.21V14.3167H117.027V12.9546H124.845V14.3167H121.662V24.0453Z" fill="white" stroke="white" stroke-width="0.16" stroke-miterlimit="10"/>
<path d="M139.63 22.6185C138.509 23.7401 137.121 24.2997 135.466 24.2997C133.801 24.2997 132.413 23.7401 131.292 22.6185C130.174 21.4993 129.618 20.1256 129.618 18.4999C129.618 16.8743 130.174 15.5006 131.292 14.3814C132.413 13.2598 133.801 12.7002 135.466 12.7002C137.112 12.7002 138.5 13.2598 139.62 14.3906C140.748 15.5191 141.304 16.8835 141.304 18.4999C141.304 20.1256 140.748 21.4993 139.63 22.6185ZM132.375 21.6889C133.218 22.5191 134.244 22.9353 135.466 22.9353C136.678 22.9353 137.713 22.5191 138.547 21.6889C139.388 20.8587 139.814 19.7926 139.814 18.4999C139.814 17.2073 139.388 16.1412 138.547 15.311C137.713 14.4808 136.678 14.0646 135.466 14.0646C134.244 14.0646 133.218 14.4808 132.375 15.311C131.534 16.1412 131.108 17.2073 131.108 18.4999C131.108 19.7926 131.534 20.8587 132.375 21.6889Z" fill="white" stroke="white" stroke-width="0.16" stroke-miterlimit="10"/>
<path d="M143.358 24.0453V12.9546H145.134L150.657 21.5802H150.721L150.657 19.4481V12.9546H152.119V24.0453H150.594L144.81 14.9942H144.746L144.81 17.1356V24.0453H143.358Z" fill="white" stroke="white" stroke-width="0.16" stroke-miterlimit="10"/>
<path d="M129.258 40.2422C124.808 40.2422 121.172 43.5491 121.172 48.1117C121.172 52.6372 124.808 55.9788 129.258 55.9788C133.718 55.9788 137.354 52.6372 137.354 48.1117C137.354 43.5491 133.718 40.2422 129.258 40.2422ZM129.258 52.88C126.816 52.88 124.715 50.9121 124.715 48.1117C124.715 45.2742 126.816 43.341 129.258 43.341C131.7 43.341 133.811 45.2742 133.811 48.1117C133.811 50.9121 131.7 52.88 129.258 52.88ZM111.615 40.2422C107.155 40.2422 103.529 43.5491 103.529 48.1117C103.529 52.6372 107.155 55.9788 111.615 55.9788C116.073 55.9788 119.701 52.6372 119.701 48.1117C119.701 43.5491 116.073 40.2422 111.615 40.2422ZM111.615 52.88C109.171 52.88 107.063 50.9121 107.063 48.1117C107.063 45.2742 109.171 43.341 111.615 43.341C114.057 43.341 116.158 45.2742 116.158 48.1117C116.158 50.9121 114.057 52.88 111.615 52.88ZM90.6203 42.6542V45.998H98.7988C98.5596 47.8665 97.9201 49.2402 96.9395 50.1975C95.7458 51.3538 93.8865 52.6372 90.6203 52.6372C85.5872 52.6372 81.6459 48.6713 81.6459 43.7572C81.6459 38.8432 85.5872 34.8772 90.6203 34.8772C93.3417 34.8772 95.3218 35.9155 96.7832 37.2614L99.1968 34.905C97.1527 32.9995 94.4336 31.5357 90.6203 31.5357C83.7184 31.5357 77.9178 37.0186 77.9178 43.7572C77.9178 50.4958 83.7184 55.9788 90.6203 55.9788C94.3507 55.9788 97.1527 54.7855 99.3554 52.547C101.613 50.3432 102.316 47.2445 102.316 44.7423C102.316 43.9653 102.25 43.2508 102.131 42.6542H90.6203ZM176.47 45.2465C175.805 43.4867 173.751 40.2422 169.568 40.2422C165.423 40.2422 161.972 43.4312 161.972 48.1117C161.972 52.5193 165.388 55.9788 169.966 55.9788C173.668 55.9788 175.805 53.775 176.683 52.4915L173.936 50.704C173.019 52.0128 171.771 52.88 169.966 52.88C168.173 52.88 166.887 52.0776 166.063 50.4958L176.842 46.1414L176.47 45.2465ZM165.48 47.8665C165.388 44.8325 167.894 43.2785 169.689 43.2785C171.096 43.2785 172.29 43.9653 172.688 44.9482L165.48 47.8665ZM156.719 55.5001H160.262V32.3751H156.719V55.5001ZM150.916 41.9951H150.798C150.002 41.0747 148.484 40.2422 146.56 40.2422C142.524 40.2422 138.834 43.7017 138.834 48.1371C138.834 52.547 142.524 55.9788 146.56 55.9788C148.484 55.9788 150.002 55.1393 150.798 54.1912H150.916V55.3197C150.916 58.3283 149.27 59.9447 146.615 59.9447C144.45 59.9447 143.107 58.4185 142.553 57.135L139.471 58.3907C140.36 60.4766 142.711 63.0435 146.615 63.0435C150.769 63.0435 154.275 60.657 154.275 54.8503V40.7209H150.916V41.9951ZM146.864 52.88C144.422 52.88 142.377 50.8843 142.377 48.1371C142.377 45.3644 144.422 43.341 146.864 43.341C149.27 43.341 151.167 45.3644 151.167 48.1371C151.167 50.8843 149.27 52.88 146.864 52.88ZM193.059 32.3751H184.585V55.5001H188.119V46.738H193.059C196.984 46.738 200.833 43.9653 200.833 39.5554C200.833 35.1478 196.975 32.3751 193.059 32.3751ZM193.152 43.5213H188.119V35.5918H193.152C195.79 35.5918 197.297 37.7308 197.297 39.5554C197.297 41.3453 195.79 43.5213 193.152 43.5213ZM214.997 40.1983C212.443 40.1983 209.788 41.299 208.696 43.7387L211.832 45.0222C212.507 43.7387 213.749 43.3225 215.061 43.3225C216.894 43.3225 218.753 44.3978 218.782 46.2963V46.5392C218.142 46.1784 216.773 45.6442 215.089 45.6442C211.712 45.6442 208.27 47.4595 208.27 50.8473C208.27 53.9461 211.037 55.9418 214.146 55.9418C216.524 55.9418 217.837 54.8942 218.661 53.6755H218.782V55.4631H222.195V46.5923C222.195 42.4923 219.059 40.1983 214.997 40.1983ZM214.57 52.8708C213.415 52.8708 211.804 52.3112 211.804 50.9121C211.804 49.1222 213.812 48.4354 215.551 48.4354C217.107 48.4354 217.837 48.7707 218.782 49.2124C218.505 51.3538 216.617 52.8708 214.57 52.8708ZM234.63 40.7047L230.567 50.7294H230.447L226.247 40.7047H222.436L228.746 54.7138L225.146 62.5093H228.838L238.561 40.7047H234.63ZM202.775 55.5001H206.318V32.3751H202.775V55.5001Z" fill="white"/>
<path d="M19.9263 13.9465C19.3697 14.5154 19.0476 15.4011 19.0476 16.5481V57.4608C19.0476 58.6078 19.3697 59.4935 19.9263 60.0624L20.0637 60.1873L43.5453 37.2704V36.7293L20.0637 13.8124L19.9263 13.9465Z" fill="url(#paint0_linear_5633_10355)"/>
<path d="M51.3639 44.9133L43.5454 37.2705V36.7294L51.3734 29.0866L51.5487 29.186L60.8191 34.336C63.4648 35.7975 63.4648 38.2025 60.8191 39.6732L51.5487 44.8139L51.3639 44.9133Z" fill="url(#paint1_linear_5633_10355)"/>
<path d="M51.5485 44.8138L43.5452 36.9999L19.9261 60.0625C20.8049 60.9643 22.2378 61.073 23.8674 60.1711L51.5485 44.8138Z" fill="url(#paint2_linear_5633_10355)"/>
<path d="M51.5485 29.1861L23.8674 13.8288C22.2378 12.9361 20.8049 13.0448 19.9261 13.9467L43.5452 37L51.5485 29.1861Z" fill="url(#paint3_linear_5633_10355)"/>
<defs>
<linearGradient id="paint0_linear_5633_10355" x1="41.4605" y1="57.8869" x2="10.4219" y2="26.0962" gradientUnits="userSpaceOnUse">
<stop stop-color="#00A0FF"/>
<stop offset="0.0066" stop-color="#00A1FF"/>
<stop offset="0.2601" stop-color="#00BEFF"/>
<stop offset="0.5122" stop-color="#00D2FF"/>
<stop offset="0.7604" stop-color="#00DFFF"/>
<stop offset="1" stop-color="#00E3FF"/>
</linearGradient>
<linearGradient id="paint1_linear_5633_10355" x1="64.2642" y1="36.9974" x2="18.4153" y2="36.9974" gradientUnits="userSpaceOnUse">
<stop stop-color="#FFE000"/>
<stop offset="0.4087" stop-color="#FFBD00"/>
<stop offset="0.7754" stop-color="#FFA500"/>
<stop offset="1" stop-color="#FF9C00"/>
</linearGradient>
<linearGradient id="paint2_linear_5633_10355" x1="47.1965" y1="32.7521" x2="5.10572" y2="-10.3586" gradientUnits="userSpaceOnUse">
<stop stop-color="#FF3A44"/>
<stop offset="1" stop-color="#C31162"/>
</linearGradient>
<linearGradient id="paint3_linear_5633_10355" x1="13.9807" y1="73.674" x2="32.7762" y2="54.4234" gradientUnits="userSpaceOnUse">
<stop stop-color="#32A071"/>
<stop offset="0.0685" stop-color="#2DA771"/>
<stop offset="0.4762" stop-color="#15CF74"/>
<stop offset="0.8009" stop-color="#06E775"/>
<stop offset="1" stop-color="#00F076"/>
</linearGradient>
</defs>
</svg>
