<svg width="46" height="46" viewBox="0 0 46 46" fill="none" xmlns="http://www.w3.org/2000/svg">
<path d="M35.703 15.9951C33.5114 16.0047 31.3971 16.8059 29.7496 18.2512C28.1021 19.6966 27.0323 21.6886 26.7375 23.8603C24.2634 22.9581 21.5503 22.9581 19.0761 23.8603C18.8323 22.0711 18.0605 20.3953 16.8594 19.0469C15.6583 17.6986 14.0824 16.7391 12.3331 16.2909C10.5839 15.8428 8.7408 15.9264 7.03933 16.5311C5.33786 17.1357 3.85535 18.234 2.78123 19.6855C1.70711 21.137 1.09018 22.8758 1.0093 24.6798C0.92842 26.4837 1.38726 28.2707 2.32717 29.8125C3.26709 31.3543 4.64539 32.5809 6.28592 33.3354C7.92646 34.0899 9.7547 34.3381 11.537 34.0483C11.4598 35.589 11.6966 37.1294 12.2331 38.5758C12.7695 40.0222 13.5943 41.3445 14.6575 42.4623C15.7207 43.5801 17.0001 44.4701 18.4178 45.0782C19.8355 45.6864 21.3621 46 22.9048 46C24.4475 46 25.9741 45.6864 27.3918 45.0782C28.8096 44.4701 30.0889 43.5801 31.1521 42.4623C32.2153 41.3445 33.0401 40.0222 33.5766 38.5758C34.113 37.1294 34.3498 35.589 34.2726 34.0483C35.5092 34.2462 36.7733 34.1861 37.9856 33.8719C39.1979 33.5577 40.332 32.9961 41.3168 32.2224C42.3015 31.4487 43.1156 30.4797 43.7077 29.3762C44.2999 28.2728 44.6574 27.0587 44.7578 25.8104C44.8582 24.5621 44.6992 23.3066 44.2909 22.1227C43.8826 20.9388 43.2339 19.8521 42.3854 18.9311C41.5369 18.01 40.507 17.2744 39.3605 16.7706C38.214 16.2667 36.9757 16.0055 35.7234 16.0033L35.703 15.9951ZM2.6938 25.0788C2.7191 23.1857 3.47258 21.375 4.79777 20.0228C6.12295 18.6707 7.91803 17.8808 9.81024 17.8174C11.7025 17.7539 13.5464 18.4217 14.9592 19.6821C16.372 20.9424 17.2451 22.6985 17.3972 24.5857C16.3922 25.1418 15.476 25.8451 14.679 26.6722C14.1377 26.0983 13.4936 25.631 12.7799 25.2947C13.3615 24.7466 13.765 24.0365 13.9382 23.2564C14.1114 22.4763 14.0464 21.6621 13.7515 20.9194C13.4567 20.1767 12.9456 19.5396 12.2844 19.0907C11.6233 18.6419 10.8426 18.4019 10.0435 18.4019C9.24434 18.4019 8.46363 18.6419 7.80249 19.0907C7.14134 19.5396 6.63021 20.1767 6.33535 20.9194C6.04048 21.6621 5.97547 22.4763 6.1487 23.2564C6.32193 24.0365 6.72543 24.7466 7.30694 25.2947C6.50545 25.6757 5.7926 26.2203 5.21427 26.8933C4.63593 27.5664 4.20492 28.3532 3.94897 29.2029C3.13642 27.9822 2.71039 26.5451 2.72641 25.0788H2.6938ZM12.3194 22.4013C12.3194 22.8495 12.1866 23.2875 11.9376 23.6602C11.6886 24.0328 11.3348 24.3232 10.9207 24.4947C10.5067 24.6662 10.0511 24.711 9.61161 24.6236C9.17208 24.5362 8.76833 24.3204 8.45145 24.0035C8.13457 23.6866 7.91879 23.2829 7.83136 22.8434C7.74394 22.4039 7.78879 21.9483 7.96028 21.5343C8.13178 21.1202 8.42221 20.7664 8.79482 20.5174C9.16744 20.2684 9.60549 20.1355 10.0536 20.1355C10.3521 20.1345 10.6478 20.1922 10.9238 20.3056C11.1999 20.4189 11.4509 20.5856 11.6625 20.796C11.8741 21.0065 12.0421 21.2566 12.1569 21.5321C12.2718 21.8075 12.3311 22.1029 12.3317 22.4013H12.3194ZM5.39159 30.7678C5.46822 29.5814 5.99364 28.4687 6.86109 27.6557C7.72854 26.8428 8.87294 26.3906 10.0618 26.391C10.7302 26.3857 11.3918 26.5267 12 26.8041C12.6082 27.0814 13.1484 27.4885 13.5828 27.9966C12.6786 29.2651 12.046 30.7065 11.7245 32.2307C10.6293 32.4879 9.48962 32.4897 8.39362 32.236C7.29762 31.9823 6.27465 31.48 5.40383 30.7678H5.39159ZM29.093 41.9746C27.3539 43.4453 25.1499 44.2523 22.8722 44.2523C20.5945 44.2523 18.3905 43.4453 16.6514 41.9746C16.7225 40.3714 17.4093 38.8574 18.569 37.748C19.7286 36.6387 21.2715 36.0195 22.8763 36.0195C24.4811 36.0195 26.024 36.6387 27.1836 37.748C28.3432 38.8574 29.0301 40.3714 29.1011 41.9746H29.093ZM19.72 31.1508C19.72 30.5284 19.9046 29.92 20.2505 29.4025C20.5964 28.8851 21.088 28.4818 21.6631 28.2438C22.2382 28.0058 22.871 27.9438 23.4813 28.0655C24.0917 28.1872 24.6523 28.4873 25.0921 28.9277C25.5319 29.3681 25.8313 29.929 25.9522 30.5395C26.0731 31.1501 26.0102 31.7828 25.7715 32.3576C25.5328 32.9324 25.1289 33.4234 24.611 33.7686C24.0931 34.1138 23.4844 34.2977 22.862 34.2969C22.0322 34.2894 21.2389 33.9547 20.6544 33.3657C20.0699 32.7766 19.7414 31.9807 19.7404 31.1508H19.72ZM30.5804 40.3852C30.294 39.1731 29.726 38.0455 28.9224 37.0939C28.1187 36.1423 27.1022 35.3935 25.9551 34.9082C26.7383 34.2707 27.3049 33.4064 27.5772 32.434C27.8495 31.4616 27.8141 30.4287 27.4758 29.4773C27.1376 28.5258 26.5131 27.7023 25.688 27.12C24.863 26.5377 23.8779 26.2251 22.8681 26.2251C21.8583 26.2251 20.8733 26.5377 20.0482 27.12C19.2232 27.7023 18.5987 28.5258 18.2604 29.4773C17.9221 30.4287 17.8867 31.4616 18.159 32.434C18.4313 33.4064 18.9979 34.2707 19.7811 34.9082C18.6348 35.3942 17.6187 36.1427 16.8146 37.0933C16.0105 38.044 15.4409 39.1701 15.1517 40.3812C14.066 38.9455 13.4023 37.2354 13.2353 35.4433C13.0683 33.6511 13.4046 31.8478 14.2063 30.2363C15.0081 28.6247 16.2435 27.2688 17.7737 26.321C19.3039 25.3732 21.0682 24.871 22.8681 24.871C24.6681 24.871 26.4324 25.3732 27.9626 26.321C29.4927 27.2688 30.7282 28.6247 31.5299 30.2363C32.3317 31.8478 32.6679 33.6511 32.5009 35.4433C32.3339 37.2354 31.6702 38.9455 30.5845 40.3812L30.5804 40.3852ZM40.3609 30.7718C39.0481 31.85 37.4018 32.4391 35.703 32.4386C35.1425 32.4289 34.5843 32.3647 34.0362 32.247C33.7179 30.7225 33.0865 29.2807 32.182 28.0129C32.616 27.5043 33.1561 27.097 33.7645 26.8196C34.3728 26.5422 35.0344 26.4015 35.703 26.4073C36.8894 26.4078 38.0312 26.8595 38.8969 27.6707C39.7626 28.482 40.2874 29.592 40.365 30.7759L40.3609 30.7718ZM33.4331 22.4013C33.4331 21.9532 33.566 21.5151 33.815 21.1425C34.0639 20.7699 34.4178 20.4795 34.8318 20.308C35.2458 20.1365 35.7014 20.0916 36.1409 20.1791C36.5805 20.2665 36.9842 20.4823 37.3011 20.7992C37.618 21.116 37.8338 21.5198 37.9212 21.9593C38.0086 22.3988 37.9637 22.8544 37.7922 23.2684C37.6208 23.6825 37.3303 24.0363 36.9577 24.2853C36.5851 24.5343 36.147 24.6672 35.6989 24.6672C35.099 24.665 34.5244 24.4255 34.1006 24.0009C33.6768 23.5763 33.4382 23.0012 33.4372 22.4013H33.4331ZM41.8077 29.2029C41.5504 28.3547 41.1184 27.5698 40.5393 26.8988C39.9602 26.2278 39.247 25.6855 38.4456 25.307C39.0271 24.7589 39.4306 24.0487 39.6039 23.2686C39.7771 22.4885 39.7121 21.6743 39.4172 20.9316C39.1223 20.1889 38.6112 19.5518 37.9501 19.103C37.2889 18.6541 36.5082 18.4141 35.7091 18.4141C34.91 18.4141 34.1293 18.6541 33.4681 19.103C32.807 19.5518 32.2959 20.1889 32.001 20.9316C31.7062 21.6743 31.6411 22.4885 31.8143 23.2686C31.9876 24.0487 32.3911 24.7589 32.9726 25.307C32.259 25.6432 31.6148 26.1105 31.0736 26.6844C30.2779 25.8586 29.3631 25.1567 28.3595 24.602C28.4865 22.6967 29.349 20.9154 30.7649 19.6342C32.1808 18.353 34.0392 17.6723 35.9476 17.7358C37.8561 17.7992 39.6651 18.602 40.9928 19.9744C42.3204 21.3468 43.0627 23.1815 43.0628 25.091C43.0667 26.5565 42.6294 27.9893 41.8077 29.2029Z" fill="#F85454"/>
<path d="M30.5804 40.3852C30.294 39.1731 29.726 38.0455 28.9224 37.0939C28.1187 36.1423 27.1022 35.3935 25.9551 34.9082C26.7383 34.2707 27.3049 33.4064 27.5772 32.434C27.8495 31.4616 27.8141 30.4287 27.4758 29.4773C27.1376 28.5258 26.5131 27.7023 25.688 27.12C24.863 26.5377 23.8779 26.2251 22.8681 26.2251C21.8583 26.2251 20.8733 26.5377 20.0482 27.12C19.2232 27.7023 18.5987 28.5258 18.2604 29.4773C17.9221 30.4287 17.8867 31.4616 18.159 32.434C18.4313 33.4064 18.9979 34.2707 19.7811 34.9082C18.6348 35.3942 17.6187 36.1427 16.8146 37.0933C16.0105 38.044 15.4409 39.1701 15.1517 40.3812C14.066 38.9455 13.4023 37.2354 13.2353 35.4433C13.0683 33.6511 13.4046 31.8478 14.2063 30.2363C15.0081 28.6247 16.2435 27.2688 17.7737 26.321C19.3039 25.3732 21.0682 24.871 22.8681 24.871C24.6681 24.871 26.4324 25.3732 27.9626 26.321C29.4927 27.2688 30.7282 28.6247 31.5299 30.2363C32.3317 31.8478 32.6679 33.6511 32.5009 35.4433C32.3339 37.2354 31.6702 38.9455 30.5845 40.3812L30.5804 40.3852Z" fill="#F85454"/>
<path d="M19.72 31.1508C19.72 30.5284 19.9046 29.92 20.2505 29.4025C20.5964 28.8851 21.088 28.4818 21.6631 28.2438C22.2382 28.0058 22.871 27.9438 23.4813 28.0655C24.0917 28.1872 24.6523 28.4873 25.0921 28.9277C25.5319 29.3681 25.8313 29.929 25.9522 30.5395C26.0731 31.1501 26.0102 31.7828 25.7715 32.3576C25.5328 32.9324 25.1289 33.4234 24.611 33.7686C24.0931 34.1138 23.4844 34.2977 22.862 34.2969C22.0322 34.2894 21.2389 33.9547 20.6544 33.3657C20.0699 32.7766 19.7414 31.9807 19.7404 31.1508H19.72Z" fill="white"/>
<path d="M29.093 41.9746C27.3539 43.4453 25.1499 44.2523 22.8722 44.2523C20.5945 44.2523 18.3905 43.4453 16.6514 41.9746C16.7225 40.3714 17.4093 38.8574 18.569 37.748C19.7286 36.6387 21.2715 36.0195 22.8763 36.0195C24.4811 36.0195 26.024 36.6387 27.1836 37.748C28.3432 38.8574 29.0301 40.3714 29.1011 41.9746H29.093Z" fill="white"/>
<path d="M2.6938 25.0788C2.7191 23.1857 3.47258 21.375 4.79777 20.0228C6.12295 18.6707 7.91803 17.8808 9.81024 17.8174C11.7025 17.7539 13.5464 18.4217 14.9592 19.6821C16.372 20.9424 17.2451 22.6985 17.3972 24.5857C16.3922 25.1418 15.476 25.8451 14.679 26.6722C14.1377 26.0983 13.4936 25.631 12.7799 25.2947C13.3615 24.7466 13.765 24.0365 13.9382 23.2564C14.1114 22.4763 14.0464 21.6621 13.7515 20.9194C13.4567 20.1767 12.9456 19.5396 12.2844 19.0907C11.6233 18.6419 10.8426 18.4019 10.0435 18.4019C9.24434 18.4019 8.46363 18.6419 7.80249 19.0907C7.14134 19.5396 6.63021 20.1767 6.33535 20.9194C6.04048 21.6621 5.97547 22.4763 6.1487 23.2564C6.32193 24.0365 6.72543 24.7466 7.30694 25.2947C6.50545 25.6757 5.7926 26.2203 5.21427 26.8933C4.63593 27.5664 4.20492 28.3532 3.94897 29.2029C3.13642 27.9822 2.71039 26.5451 2.72641 25.0788H2.6938Z" fill="#F85454"/>
<path d="M12.3194 22.4013C12.3194 22.8495 12.1866 23.2875 11.9376 23.6602C11.6886 24.0328 11.3348 24.3232 10.9207 24.4947C10.5067 24.6662 10.0511 24.711 9.61161 24.6236C9.17208 24.5362 8.76833 24.3204 8.45145 24.0035C8.13457 23.6866 7.91879 23.2829 7.83136 22.8434C7.74394 22.4039 7.78879 21.9483 7.96028 21.5343C8.13178 21.1202 8.42221 20.7664 8.79482 20.5174C9.16744 20.2684 9.60549 20.1355 10.0536 20.1355C10.3521 20.1345 10.6478 20.1922 10.9238 20.3056C11.1999 20.4189 11.4509 20.5856 11.6625 20.796C11.8741 21.0065 12.0421 21.2566 12.1569 21.5321C12.2718 21.8075 12.3311 22.1029 12.3317 22.4013H12.3194Z" fill="white"/>
<path d="M5.39159 30.7678C5.46822 29.5814 5.99364 28.4687 6.86109 27.6557C7.72854 26.8428 8.87294 26.3906 10.0618 26.391C10.7302 26.3857 11.3918 26.5267 12 26.8041C12.6082 27.0814 13.1484 27.4885 13.5828 27.9966C12.6786 29.2651 12.046 30.7065 11.7245 32.2307C10.6293 32.4879 9.48962 32.4897 8.39362 32.236C7.29762 31.9823 6.27465 31.48 5.40383 30.7678H5.39159Z" fill="white"/>
<path d="M41.8077 29.2029C41.5504 28.3547 41.1184 27.5698 40.5393 26.8988C39.9602 26.2278 39.247 25.6855 38.4456 25.307C39.0271 24.7589 39.4306 24.0487 39.6039 23.2686C39.7771 22.4885 39.7121 21.6743 39.4172 20.9316C39.1223 20.1889 38.6112 19.5518 37.9501 19.103C37.2889 18.6541 36.5082 18.4141 35.7091 18.4141C34.91 18.4141 34.1293 18.6541 33.4681 19.103C32.807 19.5518 32.2959 20.1889 32.001 20.9316C31.7062 21.6743 31.6411 22.4885 31.8143 23.2686C31.9876 24.0487 32.3911 24.7589 32.9726 25.307C32.259 25.6432 31.6148 26.1105 31.0736 26.6844C30.2779 25.8586 29.3631 25.1567 28.3595 24.602C28.4865 22.6967 29.349 20.9154 30.7649 19.6342C32.1808 18.353 34.0392 17.6723 35.9476 17.7358C37.8561 17.7992 39.6651 18.602 40.9928 19.9744C42.3204 21.3468 43.0627 23.1815 43.0628 25.091C43.0667 26.5565 42.6294 27.9893 41.8077 29.2029Z" fill="#F85454"/>
<path d="M33.4331 22.4013C33.4331 21.9532 33.566 21.5151 33.815 21.1425C34.0639 20.7699 34.4178 20.4795 34.8318 20.308C35.2458 20.1365 35.7014 20.0916 36.1409 20.1791C36.5805 20.2665 36.9842 20.4823 37.3011 20.7992C37.618 21.116 37.8338 21.5198 37.9212 21.9593C38.0086 22.3988 37.9637 22.8544 37.7922 23.2684C37.6208 23.6825 37.3303 24.0363 36.9577 24.2853C36.5851 24.5343 36.147 24.6672 35.6989 24.6672C35.099 24.665 34.5244 24.4255 34.1006 24.0009C33.6768 23.5763 33.4382 23.0012 33.4372 22.4013H33.4331Z" fill="white"/>
<path d="M40.3609 30.7718C39.0481 31.85 37.4018 32.4391 35.703 32.4386C35.1425 32.4289 34.5843 32.3647 34.0362 32.247C33.7179 30.7225 33.0865 29.2807 32.182 28.0129C32.616 27.5043 33.1561 27.097 33.7645 26.8196C34.3728 26.5422 35.0344 26.4015 35.703 26.4073C36.8894 26.4078 38.0312 26.8595 38.8969 27.6707C39.7626 28.482 40.2874 29.592 40.365 30.7759L40.3609 30.7718Z" fill="white"/>
<path d="M9.65412 14.0554H19.2309L22.1487 18.6522C22.2269 18.7742 22.3345 18.8746 22.4616 18.9441C22.5887 19.0136 22.7312 19.0501 22.8761 19.0501C23.021 19.0501 23.1636 19.0136 23.2907 18.9441C23.4178 18.8746 23.5254 18.7742 23.6035 18.6522L26.5214 14.0554H36.0981C36.2116 14.0554 36.3239 14.033 36.4288 13.9896C36.5336 13.9462 36.6288 13.8826 36.709 13.8024C36.7893 13.7221 36.8529 13.6269 36.8963 13.5221C36.9397 13.4173 36.9621 13.3049 36.9621 13.1915V0.859885C36.9621 0.746622 36.9397 0.634472 36.8962 0.529881C36.8528 0.425291 36.7891 0.330319 36.7088 0.25042C36.6285 0.17052 36.5333 0.107266 36.4285 0.0642942C36.3237 0.0213221 36.2114 -0.000527137 36.0981 9.65596e-06H9.65412C9.54086 -0.000527137 9.4286 0.0213221 9.3238 0.0642942C9.21901 0.107266 9.12374 0.17052 9.04346 0.25042C8.96318 0.330319 8.89948 0.425291 8.85602 0.529881C8.81255 0.634472 8.79018 0.746622 8.79018 0.859885V13.1915C8.79018 13.3049 8.81252 13.4173 8.85594 13.5221C8.89936 13.6269 8.96299 13.7221 9.04321 13.8024C9.12343 13.8826 9.21869 13.9462 9.32351 13.9896C9.42832 14.033 9.54066 14.0554 9.65412 14.0554ZM10.514 1.72383H35.2464V12.3194H26.0568C25.9112 12.32 25.7682 12.3577 25.6413 12.429C25.5143 12.5003 25.4077 12.6029 25.3314 12.7269L22.8863 16.578L20.4412 12.7269C20.3649 12.6029 20.2583 12.5003 20.1314 12.429C20.0044 12.3577 19.8614 12.32 19.7158 12.3194H10.5221L10.514 1.72383Z" fill="#F85454"/>
<path d="M10.514 1.72383H35.2464V12.3194H26.0568C25.9112 12.32 25.7682 12.3577 25.6413 12.429C25.5143 12.5003 25.4077 12.6029 25.3314 12.7269L22.8863 16.578L20.4412 12.7269C20.3649 12.6029 20.2583 12.5003 20.1314 12.429C20.0044 12.3577 19.8614 12.32 19.7158 12.3194H10.5221L10.514 1.72383Z" fill="#F85454"/>
<path d="M33.0663 5.04127C33.0663 4.92782 33.044 4.81548 33.0006 4.71066C32.9571 4.60584 32.8935 4.5106 32.8133 4.43038C32.733 4.35015 32.6378 4.28651 32.533 4.2431C32.4282 4.19968 32.3158 4.17733 32.2024 4.17733H13.5664C13.4483 4.1692 13.3297 4.18545 13.2181 4.22509C13.1064 4.26472 13.0042 4.32689 12.9176 4.40772C12.831 4.48855 12.762 4.58633 12.7148 4.69496C12.6676 4.8036 12.6432 4.92078 12.6432 5.03923C12.6432 5.15768 12.6676 5.27487 12.7148 5.38351C12.762 5.49215 12.831 5.58993 12.9176 5.67076C13.0042 5.75159 13.1064 5.81376 13.2181 5.85339C13.3297 5.89303 13.4483 5.90928 13.5664 5.90115H32.2024C32.3156 5.90168 32.4279 5.87984 32.5327 5.83686C32.6375 5.79389 32.7328 5.73064 32.813 5.65074C32.8933 5.57084 32.957 5.47587 33.0005 5.37128C33.0439 5.26669 33.0663 5.15454 33.0663 5.04127Z" fill="white"/>
<path d="M28.7302 9.19761C28.7302 9.08434 28.7078 8.97219 28.6644 8.8676C28.6209 8.76301 28.5572 8.66804 28.4769 8.58814C28.3966 8.50824 28.3014 8.44499 28.1966 8.40201C28.0918 8.35904 27.9795 8.33719 27.8663 8.33773H17.9024C17.7842 8.3296 17.6656 8.34587 17.554 8.3855C17.4424 8.42513 17.3401 8.48729 17.2535 8.56812C17.1669 8.64895 17.0979 8.74672 17.0507 8.85536C17.0035 8.964 16.9791 9.08119 16.9791 9.19965C16.9791 9.3181 17.0035 9.43527 17.0507 9.54391C17.0979 9.65255 17.1669 9.75033 17.2535 9.83116C17.3401 9.91199 17.4424 9.97416 17.554 10.0138C17.6656 10.0534 17.7842 10.0697 17.9024 10.0615H27.8663C28.0954 10.0615 28.3152 9.97052 28.4772 9.8085C28.6392 9.64648 28.7302 9.42674 28.7302 9.19761Z" fill="white"/>
</svg>
