<svg width="90" height="90" viewBox="0 0 90 90" fill="none" xmlns="http://www.w3.org/2000/svg">
<rect width="90" height="90" rx="5" fill="white"/>
<path d="M51.4206 54.1325H55.9555V35.8677H51.4206V54.1325ZM43.4582 48.925C43.4582 49.5663 42.9045 50.105 42.2454 50.105H39.6089C38.9497 50.105 38.396 49.5663 38.396 48.925V41.5626H33.8612V49.2841C33.8612 52.4395 35.9441 54.1069 39.0025 54.1069H43.4319C46.253 54.1069 47.9667 52.1316 47.9667 49.2841V41.5626H43.4319C43.4582 41.5626 43.4582 48.6941 43.4582 48.925ZM68.9536 41.5626V48.925C68.9536 49.5663 68.4 50.105 67.7408 50.105H65.1043C64.4451 50.105 63.8915 49.5663 63.8915 48.925V41.5626H59.3566V49.2841C59.3566 52.4395 61.4395 54.1069 64.4979 54.1069H68.9273C71.7484 54.1069 73.4621 52.1316 73.4621 49.2841V41.5626H68.9536ZM25.5033 41.5626H22.6031C21.5749 41.5626 21.0739 41.8191 21.0739 41.8191V35.8677H16.5391V54.1069H21.0476V46.7702C21.0476 46.1288 21.6012 45.5901 22.2604 45.5901H24.8969C25.5561 45.5901 26.1097 46.1288 26.1097 46.7702V54.1325H30.6446V46.1801C30.6446 42.8453 28.3508 41.5626 25.5033 41.5626Z" fill="#1CE783"/>
</svg>
