<svg width="24" height="24" viewBox="0 0 24 24" fill="none" xmlns="http://www.w3.org/2000/svg">
<path d="M12.3337 15.1133C12.3337 15.1133 11.1544 16.6845 10.8919 17.0033C10.6294 17.322 9.95625 18.0514 9.65625 18.2389C9.35625 18.4264 9.24375 18.762 6.0075 18.762C3.46312 18.762 2.5275 18.4808 1.38562 18.4808C0.496875 18.4808 0.7125 20.0333 0.825 20.3895C0.9375 20.7458 1.60875 21.9327 2.9025 22.167C4.09312 22.3845 5.39625 22.242 7.245 21.942C8.77875 21.6927 10.0856 21.3608 10.6856 20.967C11.2594 20.5902 11.9062 19.4333 12.2419 18.9102C12.5775 18.387 13.9444 16.2533 13.9444 16.2533L13.9256 15.822L12.3337 15.1133Z" fill="#FFA828"/>
<path d="M12.8869 15.1562C12.855 15.2331 10.5882 18.145 10.3913 18.3756C10.1944 18.6062 9.86629 18.9119 9.92067 19.3619C9.97504 19.81 10.3894 19.93 10.6838 19.825C11.2088 19.6394 11.355 19.2081 11.64 18.835C11.835 18.58 13.9182 15.5837 13.9182 15.5837L12.8869 15.1562Z" fill="#F08A34"/>
<path d="M12.2738 15.1885L14.2013 12.4941L15.7051 13.5629L13.8619 16.381L12.2738 15.1885Z" fill="#5D6365"/>
<path d="M13.5187 13.4453L15.0375 14.5853L14.3869 15.5997L12.8081 14.4334L13.5187 13.4453Z" fill="#DFE0E0"/>
<path d="M14.0551 12.6905L15.5438 13.8174L21.6188 4.6843L20.3157 3.81055L14.0551 12.6905Z" fill="#FC2929"/>
<path d="M21.5231 1.4378C21.1762 1.46405 20.7206 2.35093 20.7037 2.44843C20.67 2.63593 21.0244 2.79718 21.0244 2.79718L20.1469 4.0553L21.4406 4.9403L22.3087 3.69155C22.3087 3.69155 22.5712 3.87718 22.7062 3.7853C22.8469 3.68968 23.4244 2.87405 23.3906 2.6453C23.3625 2.4578 21.81 1.41718 21.5231 1.4378Z" fill="#5E6367"/>
<path d="M17.6382 19.4336L15.1988 19.8555C15.1988 19.8555 15.1257 20.2042 15.1444 20.9373C15.1632 21.6705 15.2719 21.9273 15.2719 21.9273C15.2719 21.9273 15.7951 23.0673 18.3413 23.1048C21.1069 23.1461 21.6938 21.9461 21.6938 21.9461C21.6938 21.9461 21.8063 21.3442 21.8063 20.8867C21.8063 20.5923 21.7951 19.9117 21.7313 19.8255C21.5494 19.5873 17.6382 19.4336 17.6382 19.4336Z" fill="#9A9A9A"/>
<path d="M18.3769 18.3441C16.1231 18.3216 15.18 19.2966 15.1988 19.8554C15.2119 20.2923 16.0688 21.4285 18.5175 21.4679C21.1763 21.511 21.7369 20.041 21.7444 19.8273C21.75 19.5779 21.1219 18.3704 18.3769 18.3441Z" fill="#5E6367"/>
</svg>
