<svg width="24" height="21" viewBox="0 0 24 21" fill="none" xmlns="http://www.w3.org/2000/svg">
<path d="M4.51474 20.6077H11.0172C12.2472 20.6073 13.4508 20.2517 14.4835 19.5837C15.5162 18.9156 16.3341 17.9636 16.8387 16.842L23.0165 3.09224C23.1368 2.85029 23.207 2.58658 23.2231 2.31687C23.2391 2.04715 23.2006 1.77697 23.1099 1.52247C23.0191 1.26797 22.878 1.03438 22.695 0.835658C22.5119 0.636934 22.2906 0.477159 22.0444 0.365881C21.7982 0.254604 21.5321 0.194109 21.262 0.188012C20.9918 0.181915 20.7233 0.230341 20.4723 0.330396C20.2213 0.430452 19.9931 0.580082 19.8012 0.770343C19.6094 0.960604 19.4579 1.18759 19.3557 1.43774L15.47 10.0845C15.0842 10.9431 14.4589 11.6722 13.6691 12.1844C12.8793 12.6965 11.9585 12.97 11.0172 12.972H4.51474C3.51144 12.986 2.554 13.3945 1.84949 14.1089C1.14497 14.8234 0.75 15.7865 0.75 16.7899C0.75 17.7933 1.14497 18.7563 1.84949 19.4708C2.554 20.1852 3.51144 20.5937 4.51474 20.6077ZM2.90224 15.1657C3.32802 14.7321 3.90708 14.4829 4.51474 14.472H5.17474L4.52299 19.1077H4.51474C4.06167 19.0996 3.62093 18.9588 3.247 18.7029C2.87308 18.4469 2.58236 18.087 2.4108 17.6676C2.23924 17.2482 2.19435 16.7877 2.2817 16.343C2.36904 15.8984 2.58478 15.4891 2.90224 15.1657ZM9.71974 14.472L9.06799 19.1077H7.55299L8.20549 14.472H9.71974ZM11.342 19.0965C11.234 19.104 11.1252 19.1077 11.0172 19.1077H9.82474L10.4765 14.472H11.0195C11.3495 14.472 11.678 14.445 12.002 14.394L11.342 19.0965ZM12.1145 18.9825L12.7842 14.22C14.2313 13.8017 15.4844 12.8862 16.3227 11.6347L17.2977 12.1597L15.47 16.2277C15.161 16.9145 14.6974 17.5204 14.1155 17.9983C13.5335 18.4762 12.8482 18.813 12.1145 18.9825ZM5.28199 19.1077L5.93299 14.472H7.44799L6.79549 19.1077H5.28199ZM17.7297 17.157H21.8322C22.1997 17.157 22.4922 17.4495 22.4922 17.817V19.197C22.4922 19.557 22.1997 19.857 21.8322 19.857H17.7297C17.3697 19.857 17.0697 19.5645 17.0697 19.197V17.817C17.0697 17.457 17.3622 17.157 17.7297 17.157Z" fill="white"/>
</svg>
