<svg width="28" height="28" viewBox="0 0 28 28" fill="none" xmlns="http://www.w3.org/2000/svg">
<path d="M14.0002 19.8335C14.3307 19.8335 14.608 19.7215 14.832 19.4975C15.056 19.2735 15.1676 18.9966 15.1668 18.6668C15.1668 18.3363 15.0548 18.059 14.8308 17.835C14.6068 17.611 14.3299 17.4994 14.0002 17.5002C13.6696 17.5002 13.3923 17.6122 13.1683 17.8362C12.9443 18.0602 12.8327 18.3371 12.8335 18.6668C12.8335 18.9974 12.9455 19.2747 13.1695 19.4987C13.3935 19.7227 13.6704 19.8343 14.0002 19.8335ZM12.8335 15.1668H15.1668V8.16683H12.8335V15.1668ZM14.0002 25.6668C12.3863 25.6668 10.8696 25.3604 9.45016 24.7475C8.03072 24.1346 6.796 23.3036 5.746 22.2543C4.696 21.2043 3.86494 19.9696 3.25283 18.5502C2.64072 17.1307 2.33427 15.6141 2.3335 14.0002C2.3335 12.3863 2.63994 10.8696 3.25283 9.45016C3.86572 8.03072 4.69677 6.796 5.746 5.746C6.796 4.696 8.03072 3.86494 9.45016 3.25283C10.8696 2.64072 12.3863 2.33427 14.0002 2.3335C15.6141 2.3335 17.1307 2.63994 18.5502 3.25283C19.9696 3.86572 21.2043 4.69677 22.2543 5.746C23.3043 6.796 24.1358 8.03072 24.7487 9.45016C25.3615 10.8696 25.6676 12.3863 25.6668 14.0002C25.6668 15.6141 25.3604 17.1307 24.7475 18.5502C24.1346 19.9696 23.3036 21.2043 22.2543 22.2543C21.2043 23.3043 19.9696 24.1358 18.5502 24.7487C17.1307 25.3615 15.6141 25.6676 14.0002 25.6668ZM14.0002 23.3335C16.6057 23.3335 18.8127 22.4293 20.621 20.621C22.4293 18.8127 23.3335 16.6057 23.3335 14.0002C23.3335 11.3946 22.4293 9.18766 20.621 7.37933C18.8127 5.571 16.6057 4.66683 14.0002 4.66683C11.3946 4.66683 9.18766 5.571 7.37933 7.37933C5.571 9.18766 4.66683 11.3946 4.66683 14.0002C4.66683 16.6057 5.571 18.8127 7.37933 20.621C9.18766 22.4293 11.3946 23.3335 14.0002 23.3335Z" fill="#F85454"/>
</svg>
