<svg width="16" height="16" viewBox="0 0 16 16" fill="none" xmlns="http://www.w3.org/2000/svg">
<path d="M11.2555 8.00274C11.2555 9.79922 9.79922 11.2555 8.00274 11.2555C6.20627 11.2555 4.75 9.79922 4.75 8.00274C4.75 6.20627 6.20627 4.75 8.00274 4.75C9.79922 4.75 11.2555 6.20627 11.2555 8.00274Z" fill="white"/>
<path d="M15.6072 2.24509C15.4508 1.82133 15.2013 1.43777 14.8772 1.12293C14.5624 0.798762 14.1791 0.549279 13.7552 0.392898C13.4113 0.259338 12.8948 0.100364 11.9434 0.0570544C10.9142 0.0101142 10.6056 0 8.00013 0C5.39436 0 5.08578 0.00985487 4.05685 0.0567951C3.10546 0.100364 2.58866 0.259338 2.24508 0.392898C1.82111 0.549279 1.4376 0.798762 1.12306 1.12293C0.798924 1.43777 0.549471 1.82107 0.39285 2.24509C0.259307 2.58897 0.100352 3.10584 0.0570475 4.05735C0.010113 5.0864 0 5.39502 0 8.00111C0 10.6069 0.010113 10.9156 0.0570475 11.9449C0.100352 12.8964 0.259307 13.413 0.39285 13.7569C0.549471 14.1809 0.798665 14.5642 1.1228 14.879C1.4376 15.2032 1.82085 15.4527 2.24482 15.6091C2.58866 15.7429 3.10546 15.9018 4.05685 15.9452C5.08578 15.9921 5.3941 16.002 7.99987 16.002C10.6059 16.002 10.9145 15.9921 11.9431 15.9452C12.8945 15.9018 13.4113 15.7429 13.7552 15.6091C14.6062 15.2807 15.2789 14.608 15.6072 13.7569C15.7407 13.413 15.8996 12.8964 15.9432 11.9449C15.9901 10.9156 16 10.6069 16 8.00111C16 5.39502 15.9901 5.0864 15.9432 4.05735C15.8999 3.10584 15.741 2.58897 15.6072 2.24509ZM8.00013 13.0123C5.23255 13.0123 2.98903 10.7688 2.98903 8.00085C2.98903 5.23293 5.23255 2.98939 8.00013 2.98939C10.7675 2.98939 13.011 5.23293 13.011 8.00085C13.011 10.7688 10.7675 13.0123 8.00013 13.0123ZM13.2091 3.96243C12.5624 3.96243 12.0381 3.43805 12.0381 2.79126C12.0381 2.14447 12.5624 1.62009 13.2091 1.62009C13.8558 1.62009 14.3801 2.14447 14.3801 2.79126C14.3799 3.43805 13.8558 3.96243 13.2091 3.96243Z" fill="white"/>
</svg>
