<svg width="133" height="250" viewBox="0 0 133 250" fill="none" xmlns="http://www.w3.org/2000/svg">
<g clip-path="url(#clip0_1618_41568)">
<path d="M101.197 153.336C101.197 198.645 82.1407 210.081 43.5243 229.334C48.4862 232.663 55.1739 236.644 66.536 242.072C96.3073 227.886 125.072 209.285 125.072 159.706V55.1185H101.197V153.336ZM78.5452 55.1185H8V75.8911H54.7425V142.407C54.7425 172.806 52.9447 175.629 13.681 193.434C16.4136 200.382 20.3688 207.186 25.5464 213.338C69.9158 193.434 78.5452 183.156 78.5452 148.704V55.1185ZM17.2766 8.07238V26.5289C17.2766 31.2335 14.5439 34.4182 8.79103 34.4182H8V30.5097H8.71911C11.3798 30.5097 12.89 29.1345 12.89 26.3842V11.9084H8.86294V8.07238H17.2766ZM25.1868 30.6545H29.2139V8.07238H33.5286V30.2926C33.5286 33.043 32.0903 34.4906 29.2139 34.4906H25.1868C22.3104 34.4906 20.8722 33.043 20.8722 30.2926V8.07238H25.1868V30.6545ZM45.5378 24.1404V8.07238H49.8525V24.2852C49.8525 31.5954 46.0412 34.3458 39.2096 34.3458H37.0522V8.07238H41.3669V30.0755H41.5827C44.4591 30.0755 45.5378 27.3975 45.5378 24.1404ZM57.7627 12.0532V19.0739H62.7966L62.0774 22.8376H57.8347V30.365H64.091L63.3718 34.3458H53.3761V8.07238H63.0123L63.7314 12.0532H57.7627ZM75.2372 8.07238H79.4081V34.3458H75.2372V25.3709L71.1383 16.2512H70.9226V34.3458H66.7517V8.07238H70.8506L74.9496 17.9882H75.2372V8.07238ZM94.4376 12.0532H90.2667V34.3458H85.9521V12.0532H81.7812L82.5003 8.07238H93.7185L94.4376 12.0532ZM101.053 30.6545H105.081V8.07238H109.395V30.2202C109.395 32.9706 107.957 34.4182 105.081 34.4182H101.053C98.177 34.4182 96.7388 32.9706 96.7388 30.2202V8.07238H101.053V30.6545ZM112.631 25.6604H116.874V30.8716H120.829V27.1803C120.829 25.3709 120.398 24.5747 119.031 23.7785L114.932 21.1729C113.422 20.1596 112.703 18.4225 112.703 17.0473V12.198C112.703 9.44757 114.501 8 116.73 8H120.757C123.634 8 124.784 9.44757 124.784 12.198V15.455L120.613 16.6131V11.4018H116.874V15.3826C116.874 16.6854 117.305 17.554 118.528 18.3501L122.483 20.811C124.137 21.8243 125 23.4166 125 25.5156V30.5821C125 33.4049 123.202 34.4906 120.901 34.4906H116.946C114.069 34.4906 112.631 33.3325 112.631 30.5821V25.6604Z" fill="white"/>
</g>
<defs>
<clipPath id="clip0_1618_41568">
<rect width="117" height="234" fill="white" transform="translate(8 8)"/>
</clipPath>
</defs>
</svg>
