<svg width="90" height="90" viewBox="0 0 90 90" fill="none" xmlns="http://www.w3.org/2000/svg">
<rect width="90" height="90" rx="5" fill="white"/>
<path d="M47.5515 59.4066H17.4668L18.293 52.7065H48.3768L47.5515 59.4066Z" fill="#010202"/>
<path d="M21.9449 55.0107C21.7014 54.7356 21.3568 54.5696 20.9886 54.5504C20.6827 54.5504 20.3768 54.6814 20.3768 55.0107C20.3768 55.6187 22.1497 55.4729 22.1497 56.7002C22.1497 57.9266 21.029 58.3765 20.23 58.3765C19.6508 58.3765 19.1014 58.1197 18.7305 57.6777L19.3545 56.8985C19.6077 57.2357 19.9953 57.447 20.4163 57.4794C20.8013 57.4794 21.0791 57.2811 21.0791 56.9518C21.0791 56.3184 19.3132 56.5036 19.3132 55.3025C19.3132 54.2193 20.1228 53.6786 21.145 53.6786C21.6575 53.6638 22.1497 53.8734 22.4925 54.2516L21.9449 55.0107ZM25.3008 56.6146H24.762L24.4965 58.2979H23.4541L24.1863 53.7476H25.7667C26.5155 53.7476 27.173 54.0446 27.173 54.8885C27.1739 56.0284 26.3951 56.6216 25.3008 56.6146ZM25.4836 54.5757H25.0811L24.8982 55.7821H25.2955C25.7605 55.7821 26.1068 55.5523 26.1068 55.0544C26.098 54.6744 25.8045 54.5757 25.4801 54.5757H25.4836ZM30.2468 58.3756C29.0857 58.3756 28.2489 57.6698 28.2489 56.4827C28.2489 54.8919 29.3845 53.6707 30.9957 53.6707C32.1638 53.6707 32.9936 54.3766 32.9936 55.5707C32.9962 57.1544 31.8606 58.3756 30.2468 58.3756ZM30.8515 54.5888C29.9356 54.5888 29.3239 55.4283 29.3239 56.2922C29.3239 56.9509 29.7308 57.413 30.4006 57.413C31.3288 57.413 31.9335 56.5735 31.9335 55.7113C31.9353 55.0509 31.5292 54.5888 30.8515 54.5888ZM36.869 56.4154L37.6917 58.297H36.4778L35.8274 56.5604H35.5083L35.2315 58.297H34.1934L34.9256 53.7467H36.506C37.2566 53.7467 37.9712 54.0175 37.9712 54.8754C37.9791 55.5724 37.5335 56.1944 36.869 56.4154ZM36.2247 54.5757H35.8204L35.6375 55.7297H36.0419C36.4945 55.7297 36.8866 55.548 36.8866 55.0378C36.8892 54.6482 36.5429 54.5757 36.2247 54.5757ZM42.6878 53.7441L42.5542 54.6028H41.4186L40.8288 58.2979H39.7863L40.3761 54.6028H39.2352L39.3741 53.7441H42.6878ZM46.4331 55.0107C46.1896 54.7356 45.8451 54.5696 45.4768 54.5504C45.1727 54.5504 44.8668 54.6814 44.8668 55.0107C44.8668 55.6187 46.6397 55.4729 46.6397 56.7002C46.6397 57.9266 45.5172 58.3765 44.72 58.3765C44.1407 58.3765 43.5905 58.1205 43.2205 57.6777L43.8393 56.8985C44.0924 57.2357 44.4809 57.4479 44.9037 57.4794C45.2887 57.4794 45.5664 57.2811 45.5664 56.9518C45.5664 56.3184 43.8006 56.5036 43.8006 55.3025C43.8006 54.2193 44.6101 53.6786 45.6324 53.6786C46.1448 53.6638 46.637 53.8734 46.9798 54.2516L46.4331 55.0107Z" fill="white"/>
<path d="M26.0195 42.1743L29.9933 50.6739H32.2277L27.4294 40.4272L26.0195 42.1743ZM27.192 50.6739H29.4633L25.6723 42.5927L24.207 44.3765L27.192 50.6739Z" fill="#5BB56C"/>
<path d="M20.8369 50.6738H22.87L23.7674 44.2306L34.9752 30.5073H32.5211L21.8627 43.4846L20.8369 50.6738ZM31.8803 30.5073H29.646L24.8661 36.3862L25.6906 30.5073H23.6945L21.991 42.5927L31.8803 30.5073ZM21.221 30.5073L18.4004 50.6738H20.415L23.2532 30.5073H21.221ZM51.6037 46.6879C50.4496 46.6879 50.2122 45.6868 50.3037 45.2133L51.8234 34.8934H49.7903L48.3444 45.3225C48.1431 47.689 49.7912 49.1085 52.5195 48.5075L52.8676 46.1594C52.8676 46.1603 52.1899 46.6879 51.6037 46.6879Z" fill="#5BB56C"/>
<path d="M50.4687 49.0358C50.0477 48.9633 47.648 48.3806 47.8863 45.2682L49.3146 34.894H47.3553L45.8532 45.0498C45.3038 49.1083 48.142 51.3838 52.1897 50.8737L52.4464 48.9991C51.8056 49.1083 51.1279 49.1083 50.4687 49.0358Z" fill="#5BB56C"/>
<path d="M54.4063 52.6207L56.9888 34.8748H54.8827L52.2458 53.3117C52.099 54.2761 51.0188 55.1496 50.0114 54.8954L49.7363 56.8976C52.978 57.1894 54.0952 54.6596 54.4063 52.6207Z" fill="#5BB56C"/>
<path d="M59.3513 34.8757H57.4651L54.9011 52.4207C54.6084 54.5862 53.6011 57.7353 49.6817 57.3527L49.4251 59.1906C55.047 59.3907 56.4762 55.4597 56.7144 53.4759L59.3513 34.8757ZM36.4409 45.3774L37.1001 40.5904C37.5027 38.8066 39.3889 38.5699 39.9752 39.3526L40.2679 37.2412C39.8284 37.0953 39.352 37.0412 38.8941 37.0412C37.3743 37.0412 35.5056 38.2973 35.2683 40.0628L34.5177 45.5049C34.3709 46.9244 35.2499 48.3622 37.2645 48.5081C37.7769 48.5448 38.2718 48.4531 38.7482 48.2714L39.0233 46.2692C37.2829 47.5612 36.3125 46.0692 36.4409 45.3774Z" fill="#5BB56C"/>
<path d="M34.0777 45.5224L34.8284 40.0986C35.2863 37.3138 38.2168 36.1127 40.3404 36.8045L40.5971 34.9666C35.3048 34.2389 33.1618 38.2607 32.9236 40.0811L32.173 45.4324C31.9532 47.0887 32.6494 51.3839 38.3996 50.7287L38.6748 48.7632C36.4765 49.4909 33.7666 48.1623 34.0777 45.5224ZM43.1611 34.8941H41.1464L38.9675 50.6737H40.9267L43.1611 34.8941ZM45.5053 34.8941H43.619L41.3846 50.6737H43.3263L45.5053 34.8941ZM67.0788 34.439C62.2621 34.439 60.541 38.279 60.3028 40.1903L59.5522 45.7233C59.314 47.4346 60.12 51.2196 64.8814 51.2196C68.4527 51.2196 71.145 48.9083 71.6205 45.4499L72.3527 40.2262C72.6647 38.0973 71.7857 34.439 67.0788 34.439ZM69.5698 45.8325C69.5145 46.1601 68.8552 49.4359 65.0282 49.4359C61.9878 49.4359 61.384 46.7786 61.5123 45.5958C61.5677 45.1407 62.2814 39.9353 62.3728 39.4985C62.5011 38.88 63.5814 36.2585 66.6218 36.2585C70.5956 36.2585 70.4312 39.7527 70.3574 40.317C70.3205 40.6813 69.6252 45.5408 69.5698 45.8325Z" fill="#5BB56C"/>
<path d="M66.6218 36.6597C63.8196 36.6597 62.8861 39.1169 62.7578 39.5904C62.6479 40.0088 61.9333 45.2693 61.8973 45.7418C61.8243 46.7246 62.3183 49.036 65.0836 49.036C67.8119 49.036 69.0029 46.9797 69.1673 45.7777C69.2042 45.4868 69.9179 40.6631 69.9548 40.2814C69.9909 39.8987 70.2291 36.6597 66.6218 36.6597ZM65.3024 47.0696C64.2582 47.0696 63.8372 46.1594 63.9286 45.4317L64.6432 40.3172C64.79 39.3886 65.7234 38.5518 66.6209 38.5518C67.3715 38.5334 68.0123 39.1344 68.0123 39.8987C68.0123 39.9896 68.0123 40.0804 67.9938 40.1722L67.2792 45.3225C67.1527 46.2328 66.2183 47.0696 65.3024 47.0696Z" fill="#5BB56C"/>
</svg>
