<svg width="40" height="40" viewBox="0 0 40 40" fill="none" xmlns="http://www.w3.org/2000/svg">
<g opacity="0.4">
<path d="M8.66492 14.2222H18.6657C19.3109 14.2222 19.8325 14.0049 19.8325 13.3611C19.8325 12.7173 19.3109 12.5 18.6657 12.5H8.66492C8.01973 12.5 7.49816 12.7173 7.49816 13.3611C7.49816 14.0049 8.01973 14.2222 8.66492 14.2222Z" fill="white"/>
<path d="M31.3334 17.8333H8.66492C8.01973 17.8333 7.49816 18.0506 7.49816 18.6944C7.49816 19.3382 8.01973 19.5556 8.66492 19.5556H31.3334C31.9786 19.5556 32.5002 19.3382 32.5002 18.6944C32.5002 18.0506 31.9786 17.8333 31.3334 17.8333Z" fill="white"/>
<path d="M31.3334 23.1665H8.66492C8.01973 23.1665 7.49816 23.3839 7.49816 24.0277C7.49816 24.6715 8.01973 24.8889 8.66492 24.8889H31.3334C31.9786 24.8889 32.5002 24.6715 32.5002 24.0277C32.5002 23.3839 31.9786 23.1665 31.3334 23.1665Z" fill="white"/>
<path fill-rule="evenodd" clip-rule="evenodd" d="M19.9899 0C25.335 0 30.3502 2.08034 34.1306 5.86047C37.911 9.64059 40 14.6554 40 20C40 25.3446 37.9195 30.3594 34.1391 34.1395C30.2825 37.9958 25.1574 40 19.9815 40C16.7592 40 13.5116 39.222 10.5431 37.6237C9.09925 38.6641 7.67278 39.2623 6.38757 39.5921C5.30144 39.8708 4.3162 39.9577 3.5066 39.9577C2.84693 39.9577 2.30566 39.8985 1.92508 39.8393C1.11318 39.7125 0.360473 39.1111 0.360473 38.2664C0.444444 37.7778 0.444444 37.3333 1.77778 36.4444C3.30856 35.6918 3.94638 34.0465 4.58914 32.7526C1.28013 28.7693 -0.228988 23.8161 0.0280414 18.9474C0.280133 14.1722 2.23116 9.4783 5.84928 5.86047C9.62971 2.08034 14.6449 0 19.9899 0ZM11.0167 35.5556C13.809 37.1962 16.9056 38.2235 19.9815 38.2222C24.5635 38.2203 29.4732 36.3044 32.8889 32.8889C36.3437 29.4343 38.2233 24.5349 38.2222 20C38.2212 15.4651 36.3479 10.5657 32.8889 7.11111C29.4396 3.65791 24.5245 1.77912 19.9899 1.77778C15.4519 1.77644 10.5673 3.65522 7.11111 7.11111C3.93485 10.2871 2.05374 14.7601 1.80444 18.9474C1.53466 23.4789 3.16999 28.103 6.38757 31.7378C6.54826 31.9239 6.64129 32.1522 6.66667 32.3806C6.72587 32.6173 6.70895 32.871 6.60747 33.1163C5.97317 34.5624 3.93906 36.9706 2.22222 38.2222H2.23068C3.1209 38.2222 4.73976 38.3433 6.38757 37.7778C7.49499 37.3977 8.61548 36.5146 9.53668 35.8008C9.56205 35.7754 9.59588 35.7501 9.62971 35.7331C9.99338 35.3695 10.56 35.2849 11.0167 35.5556Z" fill="white"/>
</g>
</svg>
