<svg width="48" height="48" viewBox="0 0 48 48" fill="none" xmlns="http://www.w3.org/2000/svg">
<path fill-rule="evenodd" clip-rule="evenodd" d="M24 13.8103L22.4868 18.4673C22.025 19.8888 20.7003 20.8512 19.2057 20.8512H14.309L18.2705 23.7294C19.4797 24.6079 19.9857 26.1651 19.5238 27.5866L18.0107 32.2436L21.9721 29.3654C23.1813 28.4869 24.8187 28.4869 26.0278 29.3654L29.9893 32.2436L28.4762 27.5866C28.0143 26.1651 28.5203 24.6079 29.7295 23.7294L33.6909 20.8512H28.7943C27.2997 20.8512 25.975 19.8888 25.5131 18.4673L24 13.8103ZM25.4266 11.8906C24.9775 10.5086 23.0224 10.5086 22.5734 11.8906L20.6323 17.8647C20.4315 18.4828 19.8555 18.9012 19.2057 18.9012H12.9241C11.471 18.9012 10.8668 20.7606 12.0424 21.6147L17.1243 25.307C17.6501 25.6889 17.8701 26.366 17.6692 26.984L15.7281 32.9582C15.2791 34.3401 16.8608 35.4893 18.0364 34.6352L23.1183 30.943C23.644 30.561 24.3559 30.561 24.8817 30.943L29.9636 34.6352C31.1392 35.4893 32.7209 34.3402 32.2719 32.9582L30.3307 26.984C30.1299 26.366 30.3499 25.6889 30.8756 25.307L35.9576 21.6147C37.1331 20.7606 36.529 18.9012 35.0759 18.9012H28.7943C28.1444 18.9012 27.5685 18.4828 27.3677 17.8647L25.4266 11.8906Z" fill="#F85454"/>
<path fill-rule="evenodd" clip-rule="evenodd" d="M24 45.9C36.095 45.9 45.9 36.095 45.9 24C45.9 11.905 36.095 2.1 24 2.1C11.905 2.1 2.1 11.905 2.1 24C2.1 36.095 11.905 45.9 24 45.9ZM24 48C37.2548 48 48 37.2548 48 24C48 10.7452 37.2548 0 24 0C10.7452 0 0 10.7452 0 24C0 37.2548 10.7452 48 24 48Z" fill="#F85454"/>
</svg>
