<svg width="117" height="43" viewBox="0 0 117 43" fill="none" xmlns="http://www.w3.org/2000/svg">
<rect y="0.5" width="117" height="42" rx="8" fill="#F85454"/>
<path d="M44.5349 17.9645C46.4875 19.9171 46.4875 23.0829 44.5349 25.0355M37.4638 25.0355C35.5112 23.0829 35.5112 19.9171 37.4638 17.9644M35.1068 27.3926C31.8524 24.1382 31.8524 18.8618 35.1068 15.6075M46.8919 15.6075C50.1463 18.8619 50.1463 24.1382 46.8919 27.3926M42.666 21.5C42.666 22.4205 41.9198 23.1667 40.9993 23.1667C40.0789 23.1667 39.3327 22.4205 39.3327 21.5C39.3327 20.5795 40.0789 19.8333 40.9993 19.8333C41.9198 19.8333 42.666 20.5795 42.666 21.5Z" stroke="white" stroke-linecap="round" stroke-linejoin="round"/>
<path d="M60.358 25H66.098V23.74H61.744V15.116H60.358V25ZM68.2445 16.67C68.7065 16.67 69.0985 16.292 69.0985 15.802C69.0985 15.312 68.7065 14.948 68.2445 14.948C67.7825 14.948 67.3905 15.312 67.3905 15.802C67.3905 16.292 67.7825 16.67 68.2445 16.67ZM67.5585 25H68.9165V17.916H67.5585V25ZM70.2142 17.916L73.1122 25H74.3442L77.2422 17.916H75.7862L73.7282 23.18L71.6702 17.916H70.2142ZM84.6853 21.808C84.7273 21.556 84.7553 21.304 84.7553 21.038C84.7553 19.218 83.5093 17.748 81.4793 17.748C79.3513 17.748 77.8953 19.386 77.8953 21.472C77.8953 23.544 79.4073 25.168 81.6893 25.168C82.8093 25.168 83.7613 24.776 84.5453 23.978L83.7193 23.026C83.2293 23.572 82.5573 23.922 81.7173 23.922C80.4993 23.922 79.4353 23.152 79.3233 21.808H84.6853ZM81.4933 18.966C82.5433 18.966 83.3273 19.624 83.4253 20.688V20.702H79.3653C79.5753 19.624 80.3873 18.966 81.4933 18.966Z" fill="white"/>
</svg>
