<svg width="87" height="28" viewBox="0 0 87 28" fill="none" xmlns="http://www.w3.org/2000/svg">
  <path d="M28.2426 9.75714C30.5858 12.1003 30.5858 15.8993 28.2426 18.2424M19.7574 18.2424C17.4142 15.8992 17.4142 12.1002 19.7574 9.7571M16.9289 21.0708C13.0237 17.1656 13.0237 10.834 16.9289 6.92871M31.0711 6.92876C34.9763 10.834 34.9763 17.1656 31.0711 21.0709M26 13.9998C26 15.1043 25.1046 15.9998 24 15.9998C22.8954 15.9998 22 15.1043 22 13.9998C22 12.8952 22.8954 11.9998 24 11.9998C25.1046 11.9998 26 12.8952 26 13.9998Z" stroke="#FFAF23" stroke-width="2" stroke-linecap="round" stroke-linejoin="round"/>
  <path d="M45.328 18H52.4V15.84H47.792V6.592H45.328V18ZM53.6196 9.792V18H56.0516V9.792H53.6196ZM53.4596 7.456C53.4596 8.208 54.0516 8.768 54.8036 8.768C55.5556 8.768 56.1636 8.208 56.1636 7.456C56.1636 6.704 55.5556 6.16 54.8036 6.16C54.0516 6.16 53.4596 6.704 53.4596 7.456ZM57.0922 9.792L60.4043 18H62.5643L65.8763 9.792H63.4123L61.4923 15.152L59.5563 9.792H57.0922ZM66.1675 13.904C66.1675 16.32 67.9595 18.192 70.7115 18.192C72.0555 18.192 73.1435 17.808 74.1835 16.848L72.9035 15.28C72.4715 15.728 71.7675 16.128 70.8555 16.128C69.7835 16.128 68.8075 15.584 68.6795 14.48H74.1515C74.2155 14.208 74.2955 13.776 74.2955 13.392C74.2955 11.184 72.7275 9.6 70.3915 9.6C67.9595 9.6 66.1675 11.488 66.1675 13.904ZM70.3595 11.584C71.2075 11.584 71.8795 12.112 71.9275 12.96V12.976H68.6475C68.7595 12.096 69.4795 11.584 70.3595 11.584Z" fill="#FFAF23"/>
</svg>
