<svg width="32" height="32" viewBox="0 0 32 32" fill="none" xmlns="http://www.w3.org/2000/svg">
<path fill-rule="evenodd" clip-rule="evenodd" d="M15.4935 1.92655C12.7175 1.92655 10.4422 4.20184 10.4422 6.97786V15.9997C10.4422 18.7758 12.7175 21.0511 15.4935 21.0511C18.2695 21.0511 20.5448 18.7758 20.5448 15.9997V6.97786C20.5448 4.20184 18.2695 1.92655 15.4935 1.92655ZM8.51562 6.97786C8.51562 3.13784 11.6535 0 15.4935 0C19.3335 0 22.4713 3.13784 22.4713 6.97786V15.9997C22.4713 19.8398 19.3335 22.9776 15.4935 22.9776C11.6535 22.9776 8.51562 19.8398 8.51562 15.9997V6.97786Z" fill="#08252C"/>
<path fill-rule="evenodd" clip-rule="evenodd" d="M4.96327 13.5312C5.49528 13.5312 5.92655 13.9625 5.92655 14.4945V15.8478C5.92655 21.1979 10.1743 25.5604 15.4888 25.5604C20.8033 25.5604 25.0511 21.1979 25.0511 15.8478V14.4945C25.0511 13.9625 25.4823 13.5312 26.0143 13.5312C26.5463 13.5312 26.9776 13.9625 26.9776 14.4945V15.8478C26.9776 22.2261 21.9028 27.487 15.4888 27.487C9.07486 27.487 4 22.2261 4 15.8478V14.4945C4 13.9625 4.43127 13.5312 4.96327 13.5312Z" fill="#08252C"/>
<path fill-rule="evenodd" clip-rule="evenodd" d="M15.4867 25.5625C16.0187 25.5625 16.45 25.9938 16.45 26.5258V31.0367C16.45 31.5687 16.0187 32 15.4867 32C14.9547 32 14.5234 31.5687 14.5234 31.0367V26.5258C14.5234 25.9938 14.9547 25.5625 15.4867 25.5625Z" fill="#08252C"/>
<path fill-rule="evenodd" clip-rule="evenodd" d="M10.0156 31.0336C10.0156 30.5016 10.4469 30.0703 10.9789 30.0703H20.0008C20.5328 30.0703 20.9641 30.5016 20.9641 31.0336C20.9641 31.5656 20.5328 31.9969 20.0008 31.9969H10.9789C10.4469 31.9969 10.0156 31.5656 10.0156 31.0336Z" fill="#08252C"/>
</svg>
