<svg width="16" height="22" viewBox="0 0 16 22" fill="none" xmlns="http://www.w3.org/2000/svg">
<path d="M12.935 14.6155L11.465 15.6655H6.63501L10.7675 11.923C10.415 11.4805 10.1975 10.9255 10.1975 10.3105V7.29547C10.1975 5.87797 11.345 4.73047 12.7625 4.73047C14.18 4.73047 15.3275 5.87797 15.3275 7.29547L15.29 10.108C15.2829 10.8328 15.1325 11.549 14.8475 12.2155C14.448 13.1792 13.7852 14.0109 12.935 14.6155Z" fill="#CA0B4A"/>
<path d="M5.75 0.5C4.35761 0.5 3.02226 1.05312 2.03769 2.03769C1.05312 3.02226 0.500001 4.35761 0.500001 5.75V11C0.499442 11.8465 0.7038 12.6805 1.09562 13.4308C1.48743 14.1811 2.05506 14.8255 2.75 15.3088V17H12.5V14.75C12.971 14.1237 13.25 13.3445 13.25 12.5V5.75C13.25 4.35761 12.6969 3.02226 11.7123 2.03769C10.7277 1.05312 9.39239 0.5 8 0.5H5.75Z" fill="#F8312F"/>
<path d="M12.5 16.25H2.75V20.7867C2.75 21.1842 3.0425 21.5 3.39575 21.5H11.855C12.215 21.5 12.5007 21.1767 12.5007 20.7867V16.25H12.5Z" fill="#9B9B9B"/>
<path d="M9.266 17.75H5.984C5.855 17.75 5.75 17.867 5.75 18.0125V19.7375C5.75 19.883 5.855 20 5.984 20H9.266C9.395 20 9.5 19.883 9.5 19.7375V18.0125C9.5 17.867 9.395 17.75 9.266 17.75Z" fill="#D3D3D3"/>
</svg>
