<svg width="48" height="48" viewBox="0 0 48 48" fill="none" xmlns="http://www.w3.org/2000/svg">
<path d="M24 0C10.8 0 0 10.8 0 24C0 37.2 10.8 48 24 48C37.2 48 48 37.2 48 24C48.15 10.8 37.35 0 24 0ZM41.25 24C41.25 24.6 41.7 25.05 42.3 25.05H46.05C45.75 30.45 43.5 35.7 39.6 39.6C35.7 43.5 30.6 45.75 25.05 46.05V42.3C25.05 41.7 24.6 41.25 24 41.25C23.4 41.25 22.95 41.7 22.95 42.3V46.05C17.55 45.75 12.3 43.5 8.4 39.6C4.5 35.7 2.25 30.6 1.95 25.05H5.7C6.3 25.05 6.75 24.6 6.75 24C6.75 23.4 6.3 22.95 5.7 22.95H2.1C2.4 17.55 4.65 12.3 8.55 8.4C12.45 4.5 17.55 2.25 23.1 1.95V5.7C23.1 6.3 23.55 6.75 24.15 6.75C24.75 6.75 25.2 6.3 25.2 5.7V2.1C30.6 2.4 35.85 4.65 39.75 8.55C43.65 12.45 45.9 17.55 46.2 23.1H42.45C41.7 23.1 41.25 23.55 41.25 24Z" fill="white"/>
<path d="M35.85 10.65L20.1 16.65C18.75 17.1 17.25 18.75 16.65 20.1L10.65 35.85C10.5 36.45 10.35 36.9 10.65 37.2C10.95 37.5 11.25 37.5 11.55 37.5C11.85 37.5 12 37.5 12.3 37.35L28.05 31.35C29.4 30.9 30.9 29.25 31.5 27.9L37.5 12.15C37.8 11.55 37.8 11.1 37.5 10.8C37.2 10.5 36.6 10.35 35.85 10.65ZM22.2 24.15C22.2 23.1 23.1 22.35 24 22.35C25.05 22.35 25.8 23.25 25.8 24.15C25.8 25.05 24.9 25.95 24 25.95C23.1 25.95 22.2 25.05 22.2 24.15ZM20.1 24.15C20.1 26.4 21.9 28.05 24 28.05C24.75 28.05 25.35 27.9 26.1 27.45L27.9 29.25C27.75 29.4 27.6 29.4 27.45 29.55L13.35 34.8L18.6 20.7C18.6 20.55 18.75 20.4 18.9 20.25L20.7 22.05C20.25 22.65 20.1 23.4 20.1 24.15ZM28.05 24.15C28.05 21.9 26.25 20.25 24.15 20.25C23.55 20.25 22.8 20.4 22.2 20.7L20.4 18.9C20.55 18.75 20.7 18.75 20.85 18.6L34.95 13.35L29.7 27.45C29.7 27.6 29.55 27.75 29.4 27.9L27.6 26.1C27.9 25.35 28.05 24.75 28.05 24.15Z" fill="white"/>
</svg>
