<svg width="203" height="256" viewBox="0 0 203 256" fill="none" xmlns="http://www.w3.org/2000/svg">
<g clip-path="url(#clip0_1618_41620)">
<path d="M16.5244 15.9484V21.2976H24.3342V25.9635H16.5244V35.9448H10.9297V11.2826H25.89V15.9484H16.5244Z" fill="#FCD405"/>
<mask id="mask0_1618_41620" style="mask-type:luminance" maskUnits="userSpaceOnUse" x="-473" y="-519" width="1664" height="2153">
<path d="M-472.68 1633.76H1190.04V-518.754H-472.68V1633.76Z" fill="white"/>
</mask>
<g mask="url(#mask0_1618_41620)">
<path d="M27.5781 23.5135C27.5781 15.9481 32.4103 10.9504 39.6252 10.9504C43.234 10.9504 46.3121 12.1822 48.5941 14.8822L45.0858 18.5158C44.0272 16.7806 42.0413 15.6162 39.6587 15.6162C35.8851 15.6162 33.3377 18.8139 33.3377 23.581C33.3377 28.4128 35.9521 31.6105 39.8235 31.6105C42.572 31.6105 44.2926 30.2128 45.583 27.8447L49.3566 31.2449C47.0718 34.5777 43.8289 36.2764 39.6922 36.2764C32.4439 36.2764 27.5781 31.1437 27.5781 23.5135Z" fill="#FCD405"/>
</g>
<path d="M59.2852 11.2834H62.7264L75.603 25.6465L75.4689 11.2834H81.0301V35.9429H77.6197L64.7458 21.5798L64.8799 35.9429H59.2852V11.2834Z" fill="#FCD405"/>
<path d="M99.5965 31.7121H90.6918L89.3036 35.9448H83.3457L92.58 11.2826H97.7418L106.945 35.9448H100.987L99.5965 31.7121ZM98.0407 27.0463L95.1609 18.2827L92.2504 27.0463H98.0407Z" fill="#FCD405"/>
<path d="M109.295 11.2833H112.736L125.613 25.6464L125.479 11.2833H131.04V35.9427H127.632L114.756 21.5796L114.89 35.9427H109.295V11.2833Z" fill="#FCD405"/>
<path d="M152.52 15.9484H146.065V35.9448H140.473V15.9484H134.018V11.2826H152.52V15.9484Z" fill="#FCD405"/>
<path d="M171.436 31.279V35.9448H155.498V11.2826H171.453V15.9484H161.093V21.2976H170.361V25.9635H161.093V31.279H171.436Z" fill="#FCD405"/>
<mask id="mask1_1618_41620" style="mask-type:luminance" maskUnits="userSpaceOnUse" x="-473" y="-519" width="1664" height="2153">
<path d="M-472.68 1633.76H1190.04V-518.754H-472.68V1633.76Z" fill="white"/>
</mask>
<g mask="url(#mask1_1618_41620)">
<path d="M174.894 33.1115L176.947 29.3119C178.933 31.0106 180.95 31.6125 182.771 31.6125C184.989 31.6125 186.279 30.8109 186.279 29.2782C186.279 27.7116 184.757 26.9129 182.441 26.1451L181.349 25.7795C177.411 24.5139 174.564 22.7814 174.564 18.7484C174.564 14.0826 178.006 10.9495 183.201 10.9495C185.882 10.9495 188.628 11.8495 191.014 13.7816L188.597 17.7162C186.941 16.2819 185.288 15.6153 183.399 15.6153C181.514 15.6153 180.321 16.4816 180.321 17.8147C180.321 19.3137 181.846 20.014 183.863 20.6805L184.955 21.0462C188.463 22.2133 192.072 24.2805 192.072 28.7129C192.072 33.2774 188.497 36.2783 183.201 36.2783C180.025 36.2783 177.078 35.1449 174.894 33.1115Z" fill="#FCD405"/>
<path d="M129.049 216.7C129.049 213.679 130.602 210.875 133.158 209.289C139.191 205.54 145.643 201.462 149.903 198.543C158.986 192.316 164.55 187.74 164.55 172.756V53.272H178.335V172.756C178.335 194.077 168.559 202.548 157.659 210.015C149.112 215.873 131.398 226.65 129.049 228.079V216.7Z" fill="#FCD405"/>
<path d="M138.418 180.014L61.2506 90.6406C60.868 90.199 60.1445 90.4718 60.1445 91.0568V171.881C60.1445 175.205 61.8288 178.301 64.6136 180.09L73.9289 186.075V128.516C73.9289 127.813 74.792 127.489 75.2501 128.018L124.226 184.728C125.67 186.401 128.12 186.744 129.966 185.538L138.418 180.014Z" fill="#FCD405"/>
<path d="M142.832 53.276H133.279C130.947 53.276 129.056 55.1801 129.056 57.5285L129.047 112.633C129.047 113.333 128.184 113.659 127.726 113.13L79.0771 56.7916C77.1442 54.5585 74.3454 53.276 71.4042 53.276H57.7734L141.726 150.496C142.108 150.938 142.832 150.665 142.832 150.08V53.276Z" fill="#FCD405"/>
<path d="M102.608 212.564C102.412 211.977 102.052 211.76 101.753 211.684C101.647 211.659 101.552 211.647 101.468 211.647C101.384 211.647 101.289 211.659 101.183 211.684C100.884 211.76 100.524 211.977 100.328 212.564L91.4629 238.734L101.468 245.051L111.473 238.734L102.608 212.564Z" fill="#FCD405"/>
<path d="M112.964 212.106C116.646 211.161 120.528 208.854 120.727 208.731C120.841 208.666 120.911 208.534 120.911 208.39C120.911 208.25 120.841 208.117 120.727 208.05C120.556 207.946 117.766 206.289 114.685 205.204C113.177 204.675 111.596 204.279 110.219 204.279C105.94 204.279 103.78 208.025 103.691 208.185C103.621 208.312 103.621 208.472 103.691 208.598C103.744 208.694 104.579 210.142 106.208 211.248C106.697 211.582 107.258 211.881 107.895 212.106C108.585 212.347 109.356 212.505 110.216 212.505C111.076 212.505 112.009 212.347 112.964 212.106Z" fill="#FCD405"/>
<path d="M88.5827 205.088C85.3761 206.165 82.3874 207.943 82.2058 208.049C82.0941 208.117 82.0215 208.249 82.0215 208.39C82.0215 208.533 82.0941 208.665 82.2058 208.73C82.4097 208.854 86.2867 211.163 89.9737 212.105C90.9234 212.347 91.8591 212.504 92.7138 212.504C93.5797 212.504 94.3506 212.347 95.0405 212.105C95.8143 211.829 96.4818 211.444 97.0405 211.025C98.4594 209.956 99.1912 208.688 99.2443 208.598C99.3141 208.471 99.3141 208.311 99.2443 208.184C99.1549 208.024 96.9986 204.278 92.7138 204.278C91.4429 204.278 89.9905 204.618 88.5827 205.088Z" fill="#FCD405"/>
<path d="M101.263 205.548C101.325 205.588 101.395 205.607 101.467 205.607C101.534 205.607 101.607 205.588 101.668 205.548C101.83 205.447 105.548 203.034 105.548 198.225C105.548 193.531 101.959 186.725 101.802 186.438C101.668 186.188 101.263 186.188 101.132 186.438C100.976 186.725 97.3809 193.536 97.3809 198.222C97.3809 203.034 101.101 205.447 101.263 205.548Z" fill="#FCD405"/>
<path d="M73.9273 216.733C73.9273 213.713 72.3715 210.909 69.8185 209.323C63.7852 205.574 57.3302 201.462 53.0706 198.543C43.9871 192.316 38.4231 187.74 38.4231 172.755V53.2718H24.6387V172.755C24.6387 194.076 34.4148 202.548 45.3139 210.015C53.861 215.873 71.5782 226.684 73.9273 228.113V216.733Z" fill="#FCD405"/>
</g>
</g>
<defs>
<clipPath id="clip0_1618_41620">
<rect width="187" height="240" fill="white" transform="translate(8 8)"/>
</clipPath>
</defs>
</svg>
