<svg width="48" height="48" viewBox="0 0 48 48" fill="none" xmlns="http://www.w3.org/2000/svg">
<path d="M42.8707 2.78261C40.9971 2.78261 39.2719 3.8029 38.3722 5.45391L37.5559 6.95652H17.6417C17.113 6.95652 16.6957 7.38319 16.6957 7.90261C16.6957 8.42203 17.1223 8.8487 17.6417 8.8487H36.5078L26.5554 27.1119C26.3977 27.4087 26.3977 27.7612 26.5739 28.0487C26.7409 28.3362 27.0562 28.5125 27.3901 28.5125C32.2319 28.5125 36.1832 32.4545 36.1832 37.3055C36.1832 42.1565 32.2319 46.0986 27.3809 46.0986H13.0412C14.7757 44.6052 15.8145 42.3699 15.8145 40.0881V7.90261C15.8145 3.54319 12.2713 0 7.91188 0C3.55246 0 0 3.54319 0 7.90261V40.0881C0 44.4475 3.54319 47.9907 7.90261 47.9907H27.3809C32.0093 47.9907 36.0904 45.0319 37.5467 40.6168V40.589C37.6023 40.4499 37.7043 40.1345 37.9826 39.2904L47.7496 9.4887C47.9165 8.97855 48 8.44058 48 7.89333C48 5.0829 45.6997 2.78261 42.8707 2.78261ZM42.8707 4.68406C44.6516 4.68406 46.0985 6.13102 46.0985 7.91188C46.0985 8.25507 46.0429 8.59826 45.9409 8.91362L37.6394 34.2632C37.0922 32.4081 36.0348 30.7293 34.5878 29.4122C33.0017 27.9652 31.0446 27.0377 28.9299 26.7316L40.0417 6.3629C40.6075 5.32406 41.6928 4.68406 42.8707 4.68406ZM7.90261 1.90145C11.2139 1.90145 13.913 4.5913 13.913 7.91188V34.9588C12.4197 33.2244 10.1843 32.1855 7.90261 32.1855C5.62087 32.1855 3.38551 33.2151 1.89217 34.9588V7.90261C1.90145 4.5913 4.5913 1.90145 7.90261 1.90145ZM7.90261 34.087C11.2139 34.087 13.913 36.7768 13.913 40.0974C13.913 43.418 11.2232 46.0986 7.90261 46.0986C4.58203 46.0986 1.89217 43.4087 1.89217 40.0881C1.89217 36.7675 4.5913 34.087 7.90261 34.087Z" fill="#F85454"/>
</svg>
