<svg width="133" height="40" viewBox="0 0 133 40" fill="none" xmlns="http://www.w3.org/2000/svg">
<rect width="133" height="40" rx="12" fill="#886BF2"/>
<path d="M29.25 17.75C30.3628 17.75 31.3262 17.3435 32.1136 16.5415C32.9008 15.7396 33.3 14.7584 33.3 13.6249C33.3 12.4917 32.9009 11.5104 32.1135 10.7083C31.3261 9.9065 30.3626 9.5 29.25 9.5C28.1371 9.5 27.1738 9.9065 26.3865 10.7084C25.5992 11.5103 25.2 12.4916 25.2 13.6249C25.2 14.7584 25.5992 15.7397 26.3865 16.5416C27.1741 17.3434 28.1375 17.75 29.25 17.75ZM27.0834 11.418C27.6875 10.8027 28.3961 10.5036 29.25 10.5036C30.1037 10.5036 30.8125 10.8027 31.4168 11.418C32.0209 12.0335 32.3146 12.7554 32.3146 13.6249C32.3146 14.4946 32.0209 15.2164 31.4168 15.8318C30.8125 16.4473 30.1037 16.7464 29.25 16.7464C28.3964 16.7464 27.6877 16.4471 27.0834 15.8318C26.4791 15.2165 26.1854 14.4946 26.1854 13.6249C26.1854 12.7554 26.4791 12.0335 27.0834 11.418Z" fill="white"/>
<path d="M35.9673 22.3128C35.9454 22.0018 35.9012 21.6626 35.8362 21.3044C35.7705 20.9435 35.6859 20.6024 35.5847 20.2905C35.48 19.9683 35.3379 19.65 35.162 19.345C34.9797 19.0284 34.7654 18.7528 34.5249 18.5259C34.2734 18.2886 33.9655 18.0979 33.6095 17.9587C33.2547 17.8203 32.8615 17.7501 32.4409 17.7501C32.2757 17.7501 32.1159 17.817 31.8074 18.0151C31.6176 18.1372 31.3955 18.2784 31.1476 18.4346C30.9356 18.5678 30.6485 18.6926 30.2938 18.8056C29.9478 18.916 29.5964 18.9721 29.2495 18.9721C28.9029 18.9721 28.5515 18.916 28.2052 18.8056C27.8509 18.6927 27.5636 18.568 27.352 18.4347C27.1065 18.28 26.8843 18.1388 26.6916 18.0149C26.3833 17.8168 26.2236 17.75 26.0584 17.75C25.6377 17.75 25.2446 17.8203 24.8899 17.9588C24.5341 18.0977 24.2261 18.2885 23.9744 18.5261C23.7339 18.753 23.5196 19.0286 23.3374 19.345C23.1617 19.65 23.0195 19.9681 22.9148 20.2907C22.9996 20.0295 23.7674 20.5398 23.9109 20.2907C24.0478 20.0532 24.4562 19.3658 24.63 19.2017C24.7926 19.0482 24.9976 18.9225 25.239 18.8283C25.4624 18.7411 25.7133 18.6934 25.9858 18.6862C26.019 18.7036 26.0781 18.7368 26.1739 18.7984C26.3689 18.9237 26.5936 19.0667 26.8419 19.2231C27.1219 19.3992 27.4827 19.5582 27.9136 19.6954C28.3542 19.8359 28.8036 19.9073 29.2496 19.9073C29.6957 19.9073 30.1452 19.8359 30.5855 19.6955C31.0168 19.5581 31.3775 19.3992 31.6578 19.2229C31.912 19.0626 32.1304 18.9238 32.3253 18.7984C32.4211 18.7369 32.4803 18.7036 32.5135 18.6862C32.786 18.6934 33.037 18.7411 33.2605 18.8283C33.5018 18.9225 33.7067 19.0483 33.8693 19.2017C34.0432 19.3657 34.2007 19.5694 34.3376 19.8071C34.4812 20.056 34.597 20.3148 34.6817 20.5757C34.7702 20.8484 34.8446 21.1492 34.9029 21.4695C34.9619 21.7947 35.0019 22.1003 35.0214 22.3779C35.0415 22.6603 35.0516 22.9556 35.0518 23.2555C35.0516 23.8306 34.887 24.2647 34.5481 24.5828C34.2025 24.9071 33.7438 25.0648 33.1455 25.0648H26.2026C25.7472 25.0648 26.109 25.7944 26.1556 26H33.1457C33.987 26 34.6788 25.7511 35.2019 25.2603C35.7315 24.7633 36 24.0887 36 23.2554C35.9999 22.9338 35.9889 22.6167 35.9673 22.3128Z" fill="white"/>
<path d="M19.5 20C20.7364 20 21.8069 19.5565 22.6818 18.6816C23.5564 17.8068 24 16.7364 24 15.4999C24 14.2637 23.5566 13.1932 22.6816 12.3181C21.8067 11.4435 20.7363 11 19.5 11C18.2635 11 17.1931 11.4435 16.3184 12.3183C15.4436 13.1931 15 14.2636 15 15.4999C15 16.7364 15.4436 17.8069 16.3184 18.6817C17.1934 19.5564 18.2639 20 19.5 20ZM17.0926 13.0924C17.7639 12.4212 18.5513 12.0949 19.5 12.0949C20.4486 12.0949 21.2361 12.4212 21.9075 13.0924C22.5787 13.7638 22.9051 14.5514 22.9051 15.4999C22.9051 16.4486 22.5787 17.2361 21.9075 17.9074C21.2361 18.5788 20.4486 18.9051 19.5 18.9051C18.5515 18.9051 17.7641 18.5787 17.0926 17.9074C16.4213 17.2362 16.0949 16.4486 16.0949 15.4999C16.0949 14.5514 16.4213 13.7638 17.0926 13.0924Z" fill="white"/>
<path d="M26.9636 24.9776C26.9394 24.6383 26.8903 24.2683 26.818 23.8775C26.745 23.4838 26.651 23.1117 26.5386 22.7715C26.4222 22.4199 26.2644 22.0727 26.0689 21.74C25.8663 21.3946 25.6282 21.0939 25.361 20.8465C25.0816 20.5876 24.7395 20.3795 24.3439 20.2277C23.9496 20.0766 23.5127 20.0001 23.0454 20.0001C22.8619 20.0001 22.6844 20.0731 22.3416 20.2892C22.1306 20.4224 21.8839 20.5765 21.6084 20.7469C21.3729 20.8922 21.0539 21.0283 20.6598 21.1516C20.2753 21.2721 19.8849 21.3332 19.4995 21.3332C19.1143 21.3332 18.7239 21.2721 18.3391 21.1516C17.9455 21.0285 17.6263 20.8923 17.3912 20.747C17.1183 20.5782 16.8714 20.4241 16.6573 20.289C16.3148 20.0729 16.1373 20 15.9538 20C15.4863 20 15.0495 20.0766 14.6555 20.2278C14.2601 20.3793 13.9179 20.5875 13.6382 20.8466C13.371 21.0942 13.1329 21.3948 12.9304 21.74C12.7352 22.0727 12.5772 22.4198 12.4609 22.7716C12.3485 23.1118 12.2546 23.4838 12.1816 23.8775C12.1092 24.2678 12.0602 24.6379 12.0359 24.978C12.0121 25.3104 12 25.6564 12 26.006C12 26.9148 12.2983 27.6505 12.8867 28.1931C13.4677 28.7285 14.2364 29 15.1715 29H23.8285C24.7633 29 25.532 28.7285 26.1132 28.1931C26.7017 27.6509 27 26.9149 27 26.0059C26.9999 25.6551 26.9877 25.3091 26.9636 24.9776ZM25.3868 27.4539C25.0028 27.8078 24.4931 27.9798 23.8284 27.9798H15.1715C14.5066 27.9798 13.9969 27.8078 13.6131 27.4541C13.2366 27.107 13.0536 26.6332 13.0536 26.006C13.0536 25.6798 13.0647 25.3577 13.0869 25.0485C13.1086 24.7451 13.1529 24.4119 13.2186 24.0578C13.2835 23.708 13.3661 23.3798 13.4643 23.0827C13.5585 22.7978 13.687 22.5157 13.8464 22.2439C13.9986 21.9849 14.1736 21.7627 14.3667 21.5837C14.5474 21.4162 14.7751 21.2791 15.0434 21.1763C15.2915 21.0812 15.5704 21.0291 15.8731 21.0213C15.91 21.0403 15.9757 21.0765 16.0822 21.1437C16.2987 21.2804 16.5484 21.4364 16.8244 21.607C17.1355 21.7991 17.5363 21.9726 18.0151 22.1223C18.5047 22.2755 19.004 22.3534 19.4996 22.3534C19.9952 22.3534 20.4946 22.2755 20.9839 22.1224C21.4632 21.9724 21.8638 21.7991 22.1753 21.6068C22.4578 21.432 22.7004 21.2806 22.917 21.1437C23.0235 21.0767 23.0892 21.0403 23.1261 21.0213C23.4289 21.0291 23.7078 21.0812 23.9561 21.1763C24.2242 21.2791 24.4519 21.4163 24.6326 21.5837C24.8257 21.7626 25.0008 21.9848 25.1529 22.2441C25.3124 22.5157 25.4411 22.7979 25.5352 23.0826C25.6335 23.3801 25.7162 23.7082 25.781 24.0576C25.8465 24.4124 25.891 24.7458 25.9127 25.0486C25.935 25.3566 25.9463 25.6789 25.9464 26.006C25.9463 26.6333 25.7633 27.107 25.3868 27.4539Z" fill="white"/>
<path d="M47.435 14.995V22.21H44.93V23.5H51.335V22.21H48.92V12.91H47.6C47 14.11 45.98 14.53 44.735 14.59V15.895C45.935 15.895 46.76 15.61 47.435 14.995ZM52.3679 22.75C52.3679 23.26 52.7879 23.68 53.2829 23.68C53.7779 23.68 54.1979 23.26 54.1979 22.75C54.1979 22.24 53.7779 21.835 53.2829 21.835C52.7879 21.835 52.3679 22.24 52.3679 22.75ZM55.3167 20.86H60.3267V23.5H61.8117V20.86H63.2517V19.57H61.8117V12.91H60.0117L55.3167 19.93V20.86ZM57.1467 19.57L60.3267 14.8V19.57H57.1467ZM66.5926 23.5V21.475L67.8526 20.005L70.1026 23.5H71.7826L68.8276 19.09L71.5126 15.91H69.7726L66.5926 19.555V12.91H65.1376V23.5H66.5926ZM80.1574 23.68C82.4074 23.68 84.0874 21.94 84.0874 19.705C84.0874 17.47 82.4074 15.73 80.1574 15.73C77.9074 15.73 76.2274 17.47 76.2274 19.705C76.2274 21.94 77.9074 23.68 80.1574 23.68ZM77.7124 19.705C77.7124 18.295 78.7174 17.11 80.1574 17.11C81.5974 17.11 82.6024 18.295 82.6024 19.705C82.6024 21.115 81.5974 22.3 80.1574 22.3C78.7174 22.3 77.7124 21.115 77.7124 19.705ZM85.997 23.5H87.452V19.645C87.452 18.52 88.007 17.065 89.582 17.065C90.557 17.065 91.367 17.71 91.367 18.97V23.5H92.822V18.91C92.822 16.9 91.607 15.73 89.882 15.73C88.622 15.73 87.857 16.255 87.422 17.05V15.91H85.997V23.5ZM95.1062 12.91V21.61C95.1062 23.215 96.0812 23.68 97.0862 23.68C97.3112 23.68 97.5362 23.65 97.7612 23.56V22.255C97.5662 22.33 97.4012 22.345 97.2662 22.345C96.6962 22.345 96.5612 21.925 96.5612 21.355V12.91H95.1062ZM99.4589 15.91V23.5H100.914V15.91H99.4589ZM99.2789 13.645C99.2789 14.155 99.6989 14.575 100.194 14.575C100.689 14.575 101.109 14.155 101.109 13.645C101.109 13.135 100.689 12.73 100.194 12.73C99.6989 12.73 99.2789 13.135 99.2789 13.645ZM103.399 23.5H104.854V19.645C104.854 18.52 105.409 17.065 106.984 17.065C107.959 17.065 108.769 17.71 108.769 18.97V23.5H110.224V18.91C110.224 16.9 109.009 15.73 107.284 15.73C106.024 15.73 105.259 16.255 104.824 17.05V15.91H103.399V23.5ZM112.014 19.72C112.014 21.955 113.649 23.68 116.079 23.68C117.294 23.68 118.284 23.275 119.139 22.405L118.254 21.385C117.729 21.955 116.994 22.345 116.109 22.345C114.789 22.345 113.679 21.52 113.544 20.08H119.289C119.334 19.84 119.364 19.54 119.364 19.255C119.364 17.305 118.029 15.73 115.854 15.73C113.574 15.73 112.014 17.485 112.014 19.72ZM115.869 17.035C116.979 17.035 117.834 17.755 117.939 18.88V18.895H113.589C113.814 17.74 114.699 17.035 115.869 17.035Z" fill="white"/>
</svg>
