<svg width="24" height="20" viewBox="0 0 24 20" fill="none" xmlns="http://www.w3.org/2000/svg">
<path d="M17.25 8.75C18.3628 8.75 19.3262 8.3435 20.1136 7.54147C20.9008 6.73957 21.3 5.7584 21.3 4.62487C21.3 3.49173 20.9009 2.51043 20.1135 1.70827C19.3261 0.906502 18.3626 0.5 17.25 0.5C16.1371 0.5 15.1738 0.906502 14.3865 1.7084C13.5992 2.5103 13.2 3.4916 13.2 4.62487C13.2 5.7584 13.5992 6.7397 14.3865 7.5416C15.1741 8.34337 16.1375 8.75 17.25 8.75ZM15.0834 2.41805C15.6875 1.80274 16.3961 1.50365 17.25 1.50365C18.1037 1.50365 18.8125 1.80274 19.4168 2.41805C20.0209 3.03349 20.3146 3.75542 20.3146 4.62487C20.3146 5.49458 20.0209 6.21638 19.4168 6.83182C18.8125 7.44726 18.1037 7.74635 17.25 7.74635C16.3964 7.74635 15.6877 7.44713 15.0834 6.83182C14.4791 6.21651 14.1854 5.49458 14.1854 4.62487C14.1854 3.75542 14.4791 3.03349 15.0834 2.41805Z" fill="white"/>
<path d="M23.9673 13.3128C23.9454 13.0018 23.9012 12.6626 23.8362 12.3044C23.7705 11.9435 23.6859 11.6024 23.5847 11.2905C23.48 10.9683 23.3379 10.65 23.162 10.345C22.9797 10.0284 22.7654 9.75277 22.5249 9.52595C22.2734 9.28864 21.9655 9.09785 21.6095 8.95869C21.2547 8.82025 20.8615 8.75012 20.4409 8.75012C20.2757 8.75012 20.1159 8.81697 19.8074 9.01506C19.6176 9.13718 19.3955 9.27842 19.1476 9.43463C18.9356 9.56783 18.6485 9.69263 18.2938 9.80562C17.9478 9.91605 17.5964 9.97206 17.2495 9.97206C16.9029 9.97206 16.5515 9.91605 16.2052 9.80562C15.8509 9.69275 15.5636 9.56795 15.352 9.43475C15.1065 9.28 14.8843 9.13876 14.6916 9.01494C14.3833 8.81684 14.2236 8.75 14.0584 8.75C13.6377 8.75 13.2446 8.82025 12.8899 8.95881C12.5341 9.09773 12.2261 9.28852 11.9744 9.52607C11.7339 9.75302 11.5196 10.0286 11.3374 10.345C11.1617 10.65 11.0195 10.9681 10.9148 11.2907C10.9996 11.0295 11.7674 11.5398 11.9109 11.2907C12.0478 11.0532 12.4562 10.3658 12.63 10.2017C12.7926 10.0482 12.9976 9.9225 13.239 9.82826C13.4624 9.74109 13.7133 9.69336 13.9858 9.68617C14.019 9.70359 14.0781 9.73682 14.1739 9.79843C14.3689 9.92372 14.5936 10.0667 14.8419 10.2231C15.1219 10.3992 15.4827 10.5582 15.9136 10.6954C16.3542 10.8359 16.8036 10.9073 17.2496 10.9073C17.6957 10.9073 18.1452 10.8359 18.5855 10.6955C19.0168 10.5581 19.3775 10.3992 19.6578 10.2229C19.912 10.0626 20.1304 9.92384 20.3253 9.79843C20.4211 9.73695 20.4803 9.70359 20.5135 9.68617C20.786 9.69336 21.037 9.74109 21.2605 9.82826C21.5018 9.9225 21.7067 10.0483 21.8693 10.2017C22.0432 10.3657 22.2007 10.5694 22.3376 10.8071C22.4812 11.056 22.597 11.3148 22.6817 11.5757C22.7702 11.8484 22.8446 12.1492 22.9029 12.4695C22.9619 12.7947 23.0019 13.1003 23.0214 13.3779C23.0415 13.6603 23.0516 13.9556 23.0518 14.2555C23.0516 14.8306 22.887 15.2647 22.5481 15.5828C22.2025 15.9071 21.7438 16.0648 21.1455 16.0648H14.2026C13.7472 16.0648 14.109 16.7944 14.1556 17H21.1457C21.987 17 22.6788 16.7511 23.2019 16.2603C23.7315 15.7633 24 15.0887 24 14.2554C23.9999 13.9338 23.9889 13.6167 23.9673 13.3128Z" fill="white"/>
<path d="M7.5 11C8.7364 11 9.80687 10.5565 10.6818 9.6816C11.5564 8.8068 12 7.73643 12 6.49986C12 5.26371 11.5566 4.1932 10.6816 3.31811C9.80673 2.44346 8.73625 2 7.5 2C6.26346 2 5.19313 2.44346 4.31836 3.31826C3.44359 4.19305 3 5.26357 3 6.49986C3 7.73643 3.44359 8.80695 4.31836 9.68175C5.19341 10.5564 6.26389 11 7.5 11ZM5.09264 4.09242C5.76386 3.42117 6.55125 3.09489 7.5 3.09489C8.44861 3.09489 9.23614 3.42117 9.90751 4.09242C10.5787 4.7638 10.9051 5.55136 10.9051 6.49986C10.9051 7.44864 10.5787 8.23605 9.90751 8.90744C9.23614 9.57883 8.44861 9.90511 7.5 9.90511C6.55154 9.90511 5.76414 9.57868 5.09264 8.90744C4.42127 8.2362 4.09485 7.44864 4.09485 6.49986C4.09485 5.55136 4.42127 4.7638 5.09264 4.09242Z" fill="white"/>
<path d="M14.9636 15.9776C14.9394 15.6383 14.8903 15.2683 14.818 14.8775C14.745 14.4838 14.651 14.1117 14.5386 13.7715C14.4222 13.4199 14.2644 13.0727 14.0689 12.74C13.8663 12.3946 13.6282 12.0939 13.361 11.8465C13.0816 11.5876 12.7395 11.3795 12.3439 11.2277C11.9496 11.0766 11.5127 11.0001 11.0454 11.0001C10.8619 11.0001 10.6844 11.0731 10.3416 11.2892C10.1306 11.4224 9.88386 11.5765 9.60843 11.7469C9.37291 11.8922 9.05385 12.0283 8.65977 12.1516C8.27528 12.2721 7.8849 12.3332 7.49945 12.3332C7.11428 12.3332 6.7239 12.2721 6.33914 12.1516C5.94546 12.0285 5.62627 11.8923 5.39116 11.747C5.11833 11.5782 4.87143 11.4241 4.65731 11.289C4.31479 11.0729 4.1373 11 3.95376 11C3.48629 11 3.04955 11.0766 2.65546 11.2278C2.26014 11.3793 1.9179 11.5875 1.63821 11.8466C1.37101 12.0942 1.13288 12.3948 0.930419 12.74C0.735227 13.0727 0.577208 13.4198 0.460888 13.7716C0.348547 14.1118 0.254586 14.4838 0.181612 14.8775C0.109187 15.2678 0.0602173 15.6379 0.0359383 15.978C0.0120709 16.3104 0 16.6564 0 17.006C0 17.9148 0.298343 18.6505 0.886662 19.1931C1.46771 19.7285 2.23641 20 3.17149 20H11.8285C12.7633 20 13.532 19.7285 14.1132 19.1931C14.7017 18.6509 15 17.9149 15 17.0059C14.9999 16.6551 14.9877 16.3091 14.9636 15.9776ZM13.3868 18.4539C13.0028 18.8078 12.4931 18.9798 11.8284 18.9798H3.17149C2.50663 18.9798 1.99691 18.8078 1.61311 18.4541C1.23658 18.107 1.0536 17.6332 1.0536 17.006C1.0536 16.6798 1.06471 16.3577 1.08693 16.0485C1.1086 15.7451 1.15291 15.4119 1.21861 15.0578C1.28349 14.708 1.36607 14.3798 1.46428 14.0827C1.55852 13.7978 1.68704 13.5157 1.84643 13.2439C1.99856 12.9849 2.17358 12.7627 2.36672 12.5837C2.54737 12.4162 2.77507 12.2791 3.04337 12.1763C3.29151 12.0812 3.57038 12.0291 3.87311 12.0213C3.91001 12.0403 3.97571 12.0765 4.08216 12.1437C4.29875 12.2804 4.54839 12.4364 4.82438 12.607C5.13548 12.7991 5.53629 12.9726 6.01514 13.1223C6.5047 13.2755 7.004 13.3534 7.49959 13.3534C7.99518 13.3534 8.49461 13.2755 8.9839 13.1224C9.46317 12.9724 9.86384 12.7991 10.1753 12.6068C10.4578 12.432 10.7004 12.2806 10.917 12.1437C11.0235 12.0767 11.0892 12.0403 11.1261 12.0213C11.4289 12.0291 11.7078 12.0812 11.9561 12.1763C12.2242 12.2791 12.4519 12.4163 12.6326 12.5837C12.8257 12.7626 13.0008 12.9848 13.1529 13.2441C13.3124 13.5157 13.4411 13.7979 13.5352 14.0826C13.6335 14.3801 13.7162 14.7082 13.781 15.0576C13.8465 15.4124 13.891 15.7458 13.9127 16.0486C13.935 16.3566 13.9463 16.6789 13.9464 17.006C13.9463 17.6333 13.7633 18.107 13.3868 18.4539Z" fill="white"/>
</svg>
