<svg width="32" height="26" viewBox="0 0 32 26" fill="none" xmlns="http://www.w3.org/2000/svg">
<path d="M23 11C24.4837 11 25.7682 10.458 26.8181 9.38863C27.8677 8.31943 28.4 7.0112 28.4 5.49983C28.4 3.98898 27.8679 2.68057 26.818 1.61103C25.7681 0.542003 24.4835 0 23 0C21.5162 0 20.2318 0.542003 19.182 1.6112C18.1323 2.6804 17.6 3.9888 17.6 5.49983C17.6 7.0112 18.1323 8.3196 19.182 9.3888C20.2321 10.4578 21.5167 11 23 11ZM20.1112 2.5574C20.9166 1.73699 21.8615 1.3382 23 1.3382C24.1383 1.3382 25.0834 1.73699 25.889 2.5574C26.6945 3.37798 27.0862 4.34056 27.0862 5.49983C27.0862 6.65944 26.6945 7.62184 25.889 8.44243C25.0834 9.26301 24.1383 9.66181 23 9.66181C21.8618 9.66181 20.917 9.26284 20.1112 8.44243C19.3055 7.62202 18.9138 6.65944 18.9138 5.49983C18.9138 4.34056 19.3055 3.37798 20.1112 2.5574Z" fill="#F85454"/>
<path d="M31.9564 17.0837C31.9272 16.6691 31.8683 16.2168 31.7816 15.7392C31.694 15.258 31.5813 14.8031 31.4463 14.3874C31.3067 13.9577 31.1172 13.5333 30.8827 13.1267C30.6396 12.7046 30.3538 12.337 30.0332 12.0346C29.6979 11.7182 29.2873 11.4638 28.8126 11.2783C28.3396 11.0937 27.8153 11.0002 27.2545 11.0002C27.0343 11.0002 26.8213 11.0893 26.4099 11.3534C26.1568 11.5162 25.8606 11.7046 25.5301 11.9128C25.2475 12.0904 24.8646 12.2568 24.3917 12.4075C23.9303 12.5547 23.4619 12.6294 22.9993 12.6294C22.5371 12.6294 22.0687 12.5547 21.607 12.4075C21.1346 12.257 20.7515 12.0906 20.4694 11.913C20.142 11.7067 19.8457 11.5184 19.5888 11.3533C19.1778 11.0891 18.9648 11 18.7445 11C18.1835 11 17.6595 11.0937 17.1866 11.2784C16.7122 11.4636 16.3015 11.718 15.9659 12.0348C15.6452 12.3374 15.3595 12.7047 15.1165 13.1267C14.8823 13.5333 14.6926 13.9575 14.5531 14.3876C14.6661 14.0393 15.6899 14.7197 15.8812 14.3876C16.0637 14.071 16.6083 13.1544 16.8401 12.9356C17.0568 12.7309 17.3301 12.5633 17.652 12.4377C17.9498 12.3214 18.2845 12.2578 18.6477 12.2482C18.692 12.2714 18.7709 12.3158 18.8986 12.3979C19.1585 12.565 19.4581 12.7555 19.7893 12.9642C20.1626 13.1989 20.6435 13.4109 21.2182 13.5939C21.8056 13.7812 22.4048 13.8763 22.9995 13.8763C23.5942 13.8763 24.1935 13.7812 24.7807 13.594C25.3558 13.4108 25.8366 13.1989 26.2104 12.9638C26.5493 12.7502 26.8405 12.5651 27.1004 12.3979C27.2282 12.3159 27.307 12.2714 27.3513 12.2482C27.7147 12.2578 28.0494 12.3214 28.3473 12.4377C28.6691 12.5633 28.9423 12.731 29.1591 12.9356C29.3909 13.1543 29.6009 13.4258 29.7835 13.7427C29.9749 14.0747 30.1293 14.4197 30.2422 14.7676C30.3602 15.1312 30.4595 15.5322 30.5372 15.9593C30.6159 16.3929 30.6692 16.8004 30.6952 17.1705C30.722 17.547 30.7355 17.9409 30.7357 18.3407C30.7355 19.1074 30.5159 19.6863 30.0641 20.1104C29.6034 20.5428 28.9917 20.7531 28.194 20.7531H18.9368C18.3296 20.7531 18.8121 21.7258 18.8741 22H28.1942C29.316 22 30.2384 21.6682 30.9358 21.0138C31.642 20.3511 32 19.4516 32 18.3405C31.9998 17.9118 31.9852 17.4889 31.9564 17.0837Z" fill="#F85454"/>
<path d="M10 14C11.6485 14 13.0758 13.4087 14.2424 12.2421C15.4086 11.0757 16 9.64858 16 7.99981C16 6.35161 15.4087 4.92426 14.2422 3.75748C13.0756 2.59128 11.6483 2 10 2C8.35128 2 6.92417 2.59128 5.75781 3.75767C4.59145 4.92407 4 6.35142 4 7.99981C4 9.64858 4.59145 11.0759 5.75781 12.2423C6.92455 13.4085 8.35185 14 10 14ZM6.79018 4.78989C7.68514 3.8949 8.735 3.45985 10 3.45985C11.2648 3.45985 12.3149 3.8949 13.21 4.78989C14.105 5.68507 14.5402 6.73515 14.5402 7.99981C14.5402 9.26485 14.105 10.3147 13.21 11.2099C12.3149 12.1051 11.2648 12.5402 10 12.5402C8.73538 12.5402 7.68552 12.1049 6.79018 11.2099C5.89503 10.3149 5.4598 9.26485 5.4598 7.99981C5.4598 6.73515 5.89503 5.68507 6.79018 4.78989Z" fill="#F85454"/>
<path d="M19.9515 20.6368C19.9192 20.1844 19.8537 19.6911 19.7573 19.17C19.66 18.6451 19.5347 18.1489 19.3848 17.6953C19.2297 17.2266 19.0191 16.7636 18.7585 16.32C18.4884 15.8595 18.1709 15.4586 17.8146 15.1286C17.4421 14.7835 16.9859 14.506 16.4585 14.3035C15.9328 14.1022 15.3503 14.0002 14.7272 14.0002C14.4825 14.0002 14.2458 14.0974 13.7888 14.3855C13.5075 14.5632 13.1785 14.7686 12.8112 14.9958C12.4972 15.1896 12.0718 15.3711 11.5464 15.5354C11.0337 15.6961 10.5132 15.7775 9.99927 15.7775C9.48571 15.7775 8.9652 15.6961 8.45218 15.5354C7.92728 15.3713 7.50169 15.1897 7.18821 14.996C6.82444 14.7709 6.49524 14.5655 6.20974 14.3854C5.75306 14.0972 5.5164 14 5.27169 14C4.64839 14 4.06606 14.1022 3.54061 14.3037C3.01352 14.5058 2.5572 14.7833 2.18428 15.1288C1.82801 15.4589 1.51051 15.8597 1.24056 16.32C0.980302 16.7636 0.769611 17.2264 0.614518 17.6955C0.464729 18.1491 0.339448 18.6451 0.242149 19.17C0.145582 19.6903 0.0802897 20.1839 0.0479178 20.6373C0.0160945 21.0806 0 21.5419 0 22.008C0 23.2197 0.397791 24.2007 1.18222 24.9241C1.95695 25.638 2.98188 26 4.22865 26H15.7713C17.0178 26 18.0427 25.638 18.8176 24.9241C19.6022 24.2012 20 23.2199 20 22.0079C19.9998 21.5401 19.9835 21.0788 19.9515 20.6368ZM17.849 23.9386C17.3371 24.4104 16.6575 24.6397 15.7712 24.6397H4.22865C3.34217 24.6397 2.66255 24.4104 2.15081 23.9388C1.64877 23.476 1.4048 22.8443 1.4048 22.008C1.4048 21.5731 1.41961 21.1436 1.44924 20.7313C1.47814 20.3268 1.53721 19.8825 1.62481 19.4104C1.71132 18.9441 1.82142 18.5064 1.95237 18.1103C2.07802 17.7304 2.24939 17.3542 2.46191 16.9919C2.66474 16.6466 2.89811 16.3503 3.15562 16.1115C3.39649 15.8882 3.70009 15.7055 4.05783 15.5684C4.38868 15.4416 4.7605 15.3722 5.16415 15.3617C5.21334 15.387 5.30095 15.4354 5.44287 15.525C5.73166 15.7072 6.06452 15.9151 6.4325 16.1427C6.8473 16.3988 7.38171 16.6301 8.02019 16.8297C8.67293 17.034 9.33866 17.1378 9.99945 17.1378C10.6602 17.1378 11.3262 17.034 11.9785 16.8299C12.6176 16.6299 13.1518 16.3988 13.5671 16.1424C13.9437 15.9093 14.2672 15.7074 14.556 15.525C14.698 15.4356 14.7856 15.387 14.8348 15.3617C15.2386 15.3722 15.6104 15.4416 15.9414 15.5684C16.299 15.7055 16.6026 15.8884 16.8435 16.1115C17.101 16.3501 17.3343 16.6464 17.5372 16.9921C17.7499 17.3542 17.9214 17.7306 18.0469 18.1101C18.178 18.5068 18.2883 18.9442 18.3746 19.4102C18.4621 19.8832 18.5213 20.3277 18.5502 20.7315C18.58 21.1422 18.595 21.5718 18.5952 22.008C18.595 22.8445 18.351 23.476 17.849 23.9386Z" fill="#F85454"/>
</svg>
