<svg width="24" height="24" viewBox="0 0 24 24" fill="none" xmlns="http://www.w3.org/2000/svg">
<path d="M18.9321 3.16592C19.0517 2.73537 18.9799 2.28089 18.7646 1.9221C18.5494 1.51546 18.1667 1.25234 17.7361 1.13275C16.8271 0.917468 15.9421 1.41978 15.679 2.28089L13.8372 8.81098L12.4738 1.51546C12.3781 1.01315 12.115 0.606512 11.7083 0.343395C11.3256 0.0563581 10.8472 -0.0632405 10.3688 0.0324384C9.86651 0.128117 9.45987 0.391234 9.19676 0.79787C8.90972 1.2045 8.81404 1.6829 8.8858 2.16129L9.93827 8.06947H9.77083C8.95756 8.06947 8.21605 8.61962 8.02469 9.40897C7.73765 9.24153 7.40278 9.12193 7.04398 9.12193C6.03935 9.12193 5.25 9.9352 5.25 10.9159V15.4846C5.25 19.0725 5.84799 20.6273 6.30247 21.7515L6.32639 21.8233C6.56558 22.4213 6.73302 22.8758 6.73302 23.5216C6.73302 23.7608 6.9483 23.9761 7.1875 23.9761C7.42669 23.9761 7.64197 23.7608 7.64197 23.5216C7.64197 22.7083 7.4267 22.1103 7.13966 21.4406L7.11574 21.3688C6.75694 20.4599 6.30247 19.2161 6.18287 16.7523C6.44599 16.8958 6.73302 16.9676 7.04398 16.9676C7.85725 16.9676 8.59876 16.4174 8.79012 15.6281C9.07715 15.7955 9.41203 15.9151 9.77083 15.9151C10.7755 15.9151 11.5648 15.1019 11.5648 14.1212V11.8727C12.091 12.5664 12.9761 12.9491 13.6219 13.2361L14.2199 15.0779C13.3827 15.2693 12.5934 15.8673 11.9954 16.8241C11.493 17.6134 11.2778 18.331 11.2778 18.331C11.206 18.5702 11.3495 18.8094 11.5887 18.9051C11.8279 18.9529 12.0671 18.8333 12.1628 18.5941C12.1628 18.5702 12.9761 15.9151 14.8418 15.9151C14.9853 15.9151 15.1049 15.8434 15.2006 15.7238C15.2963 15.6042 15.3202 15.4367 15.2724 15.3411L14.4352 12.7817C14.4113 12.6621 14.3156 12.5425 14.196 12.5185C12.4498 11.7531 11.7562 11.179 12.1628 9.79169L14.77 10.8202C15.2006 11.0116 15.4637 11.2269 15.679 11.5857L16.8989 14.2408C17.0424 14.6952 17.0424 14.8866 17.0424 15.4367V15.4846C16.9707 18.4267 16.277 19.9576 15.7268 21.2014C15.392 21.9668 15.0571 22.6844 15.0571 23.5455C15.0571 23.7847 15.2724 24 15.5116 24C15.7508 24 15.966 23.7847 15.966 23.5455C15.966 22.9236 16.1813 22.3974 16.5162 21.6559L16.564 21.5602C17.1142 20.3164 17.8557 18.642 17.9753 15.5085V15.4367C17.9753 14.8387 17.9753 14.5517 17.7839 13.9298C17.7839 13.9059 17.7839 13.882 17.76 13.858L17.0663 12.3511V12.3272L17.2338 10.8681L18.9321 3.16592ZM18.0471 2.97456L16.277 10.7246V10.7724L16.2531 10.892C15.9421 10.4854 15.5594 10.1983 15.0571 9.95912L14.5069 9.74385L16.5401 2.54401C16.588 2.35265 16.7315 2.18521 16.9228 2.06561C17.1142 1.96994 17.3055 1.94602 17.4969 2.01778C17.7122 2.06561 17.8557 2.18521 17.9753 2.37657C18.071 2.59185 18.0949 2.75929 18.0471 2.97456ZM10.6798 14.1212C10.6798 14.6235 10.2731 15.0301 9.77083 15.0301C9.26851 15.0301 8.86188 14.6235 8.86188 14.1212V9.86344C8.86188 9.36113 9.26851 8.9545 9.77083 8.9545C10.2731 8.9545 10.6798 9.36113 10.6798 9.86344V14.1212ZM12.9522 9.14585L12.0193 8.78706C11.9714 8.76314 11.8997 8.76314 11.8518 8.76314C11.7801 8.76314 11.7322 8.76314 11.6605 8.78706C11.5409 8.8349 11.4452 8.93058 11.4213 9.02625C11.4213 9.05017 11.3974 9.07409 11.3974 9.09801C11.3017 8.88274 11.1343 8.69138 10.8951 8.4761L9.77083 2.01778C9.72299 1.77858 9.77083 1.53938 9.93827 1.3241C10.0579 1.10883 10.2731 0.989227 10.5123 0.965308C10.7515 0.917468 10.9907 0.965308 11.206 1.13275C11.4213 1.25234 11.5409 1.46762 11.5648 1.70682L12.9522 9.14585ZM7.95293 10.9159V15.1736C7.95293 15.6759 7.54629 16.0826 7.04398 16.0826C6.56558 16.0826 6.15895 15.7238 6.13503 15.2693V10.9159C6.13503 10.4136 6.54167 10.007 7.04398 10.007C7.54629 10.007 7.95293 10.4136 7.95293 10.9159Z" fill="#F85454"/>
</svg>
