<svg width="46" height="46" viewBox="0 0 46 46" fill="none" xmlns="http://www.w3.org/2000/svg">
<g clip-path="url(#clip0_6620_94)">
<path d="M40.7935 6.08617C39.7341 5.44937 38.2634 4.88914 36.4223 4.42109C32.8177 3.50469 28.0509 3 23 3C17.9491 3 13.1823 3.50469 9.57773 4.42109C7.73656 4.88922 6.26586 5.44945 5.20648 6.08617C3.38281 7.18242 3 8.41172 3 9.25V36.75C3 38.0474 3.83992 39.168 5.49641 40.0805C6.70797 40.748 8.38164 41.3238 10.4708 41.7921L12.375 42.2189H18.3125V41H12.375V11.5145L11.1542 11.2409C7.51984 10.4263 6.45477 9.545 6.18727 9.24984C6.45203 8.95719 7.49883 8.0893 11.0513 7.28047C14.3241 6.53531 18.5675 6.125 23 6.125C27.4325 6.125 31.6759 6.53531 34.9487 7.28047C38.521 8.09383 39.5596 8.96687 39.817 9.25461C39.4902 9.62641 38.1809 10.4944 34.8534 11.2411L33.6333 11.5148L33.6244 41H27.6875V42.2178H33.6244L35.5295 41.7903C37.617 41.3219 39.2898 40.7464 40.5012 40.0797C42.1593 39.1672 43 38.047 43 36.75V9.25C43 8.41172 42.6172 7.18242 40.7935 6.08617ZM9.25 13.992V38.2427C7.10391 37.5809 6.28133 36.9292 6.125 36.6783V12.8978C6.98781 13.3016 8.03297 13.6677 9.25 13.992ZM36.7505 38.2433L36.7576 13.9917C37.9712 13.6679 39.0137 13.3022 39.8749 12.8989V36.6727C39.774 36.814 39.1769 37.5013 36.7505 38.2433ZM27.6875 16.2812C27.6875 13.6966 25.5847 11.5938 23 11.5938C20.4153 11.5938 18.3125 13.6966 18.3125 16.2812C18.3125 18.8659 20.4153 20.9688 23 20.9688C25.5847 20.9688 27.6875 18.8659 27.6875 16.2812ZM21.4375 16.2812C21.4375 15.4197 22.1384 14.7188 23 14.7188C23.8616 14.7188 24.5625 15.4197 24.5625 16.2812C24.5625 17.1428 23.8616 17.8438 23 17.8438C22.1384 17.8438 21.4375 17.1428 21.4375 16.2812ZM30.8125 27.1406V37.0625H27.6875V43H23V41H24.5L24.5625 33.9375H27.6875V27.1406C27.6875 26.2791 26.9866 25.5781 26.125 25.5781H19.875C19.0134 25.5781 18.3125 26.2791 18.3125 27.1406V33.9375H21.4375L21.5 41H23V43H18.3125V37.0625H15.1875V27.1406C15.1875 24.5559 17.2903 22.4531 19.875 22.4531H26.125C28.7097 22.4531 30.8125 24.5559 30.8125 27.1406Z" fill="#F85454"/>
<path d="M24.5 41L24.5625 33.9375H27.6875V27.1406C27.6875 26.2791 26.9866 25.5781 26.125 25.5781H19.875C19.0134 25.5781 18.3125 26.2791 18.3125 27.1406V33.9375H21.4375L21.5 41H23H24.5Z" fill="#F85454"/>
<path d="M21.4375 16.2812C21.4375 15.4197 22.1384 14.7188 23 14.7188C23.8616 14.7188 24.5625 15.4197 24.5625 16.2812C24.5625 17.1428 23.8616 17.8438 23 17.8438C22.1384 17.8438 21.4375 17.1428 21.4375 16.2812Z" fill="#F85454"/>
<path d="M36.7505 38.2433L36.7576 13.9917C37.9712 13.6679 39.0137 13.3022 39.8749 12.8989V36.6727C39.774 36.814 39.1769 37.5013 36.7505 38.2433Z" fill="#F85454"/>
<path d="M9.25 13.992V38.2427C7.10391 37.5809 6.28133 36.9292 6.125 36.6783V12.8978C6.98781 13.3016 8.03297 13.6677 9.25 13.992Z" fill="#F85454"/>
<path fill-rule="evenodd" clip-rule="evenodd" d="M11.1542 11.2409L12.375 11.5145V41H18.3125V37.0625H15.1875V27.1406C15.1875 24.5559 17.2903 22.4531 19.875 22.4531H26.125C28.7097 22.4531 30.8125 24.5559 30.8125 27.1406V37.0625H27.6875V41H33.6244L33.6333 11.5148L34.8534 11.2411C38.1809 10.4944 39.4902 9.62641 39.817 9.25461C39.5596 8.96687 38.521 8.09383 34.9487 7.28047C31.6759 6.53531 27.4325 6.125 23 6.125C18.5675 6.125 14.3241 6.53531 11.0513 7.28047C7.49883 8.0893 6.45203 8.95719 6.18727 9.24984C6.45477 9.545 7.51984 10.4263 11.1542 11.2409ZM23 11.5938C25.5847 11.5938 27.6875 13.6966 27.6875 16.2812C27.6875 18.8659 25.5847 20.9688 23 20.9688C20.4153 20.9688 18.3125 18.8659 18.3125 16.2812C18.3125 13.6966 20.4153 11.5938 23 11.5938Z" fill="white"/>
</g>
<defs>
<clipPath id="clip0_6620_94">
<rect width="40" height="40" fill="white" transform="translate(3 3)"/>
</clipPath>
</defs>
</svg>
