<svg width="12" height="12" viewBox="0 0 12 12" fill="none" xmlns="http://www.w3.org/2000/svg">
<g clip-path="url(#clip0_2931_168221)">
<path d="M8.41373 7.555C8.23924 7.555 8.08274 7.4325 8.04674 7.255C8.00524 7.052 8.13624 6.854 8.33924 6.8125C9.70473 6.5345 11.1522 4.8535 11.2802 2.25H9.62423C9.41723 2.25 9.24923 2.082 9.24923 1.875C9.24923 1.668 9.41723 1.5 9.62423 1.5H11.6642C11.8712 1.5 12.0392 1.668 12.0392 1.875C12.0392 5.1245 10.2532 7.188 8.48923 7.5475C8.46373 7.5525 8.43873 7.555 8.41373 7.555V7.555Z" fill="#65676B"/>
<path d="M3.5805 7.545C3.5535 7.545 3.526 7.542 3.498 7.536C1.76 7.146 0 5.0765 0 1.875C0 1.668 0.168 1.5 0.375 1.5H2.375C2.582 1.5 2.75 1.668 2.75 1.875C2.75 2.082 2.582 2.25 2.375 2.25H0.7595C0.887 4.817 2.315 6.502 3.6625 6.804C3.8645 6.8495 3.9915 7.05 3.9465 7.252C3.907 7.4265 3.752 7.545 3.5805 7.545V7.545Z" fill="#65676B"/>
<path d="M6.625 8.05493C6.418 8.05493 6.25 8.22293 6.25 8.42993H5.75C5.75 8.22293 5.582 8.05493 5.375 8.05493C5.168 8.05493 5 8.22293 5 8.42993V10.2499C5 10.4569 5.168 10.6249 5.375 10.6249H6.625C6.83199 10.6249 6.99999 10.4569 6.99999 10.2499V8.42993C6.99999 8.22293 6.83199 8.05493 6.625 8.05493Z" fill="#65676B"/>
<path d="M7.125 10.0001H4.875C4.1165 10.0001 3.5 10.6166 3.5 11.3751V11.6251C3.5 11.8321 3.668 12.0001 3.875 12.0001H8.125C8.332 12.0001 8.5 11.8321 8.5 11.6251V11.3751C8.5 10.6166 7.8835 10.0001 7.125 10.0001Z" fill="#65676B"/>
<path d="M9.125 0H2.875C2.3925 0 2 0.3925 2 0.875V4.5025C2.0215 7.7305 5.7195 9.05 5.877 9.1045C5.917 9.1185 5.9585 9.1255 6 9.1255C6.0415 9.1255 6.083 9.1185 6.1225 9.105C6.2805 9.05 10 7.73 10 4.5V0.875C10 0.3925 9.6075 0 9.125 0Z" fill="#65676B"/>
</g>
<defs>
<clipPath id="clip0_2931_168221">
<rect width="12" height="12" fill="white"/>
</clipPath>
</defs>
</svg>
