<svg width="392" height="53" viewBox="0 0 392 53" fill="none" xmlns="http://www.w3.org/2000/svg">
<g clip-path="url(#clip0_113_130)">
<path d="M17.5248 53H40.7072L20.7034 19.8187H38.8724V4.49978e-07H18.7458C15.4247 -0.000726508 12.1631 0.879382 9.29456 2.55028C6.42603 4.22118 4.05361 6.62288 2.42002 9.50966C0.786435 12.3964 -0.049677 15.6647 -0.00276811 18.98C0.0441407 22.2953 0.972387 25.5386 2.687 28.3782L17.5314 53H17.5248Z" fill="white"/>
<path d="M61.6405 0H38.4614L58.4653 33.1813H40.2962V53H60.4195C63.7406 53.0007 67.0022 52.1206 69.8708 50.4497C72.7393 48.7788 75.1117 46.3771 76.7453 43.4903C78.3789 40.6036 79.215 37.3353 79.1681 34.02C79.1212 30.7047 78.1929 27.4614 76.4783 24.6218L61.6405 0ZM134.426 6.59188C138.437 6.59188 141.314 7.49619 143.059 9.30812C144.801 11.1167 145.674 13.7966 145.674 17.3476V21.2132C145.674 24.7642 144.801 27.4441 143.059 29.256C141.314 31.0679 138.437 31.9723 134.426 31.9723H112.77V41.9992C112.77 42.7644 112.385 43.1486 111.619 43.1486H105.968C105.168 43.1486 104.767 42.7644 104.767 41.9992V8.15537C104.767 7.11194 105.288 6.58856 106.336 6.58856H134.426V6.59188ZM112.77 25.0756H132.804C134.582 25.0756 135.839 24.6947 136.569 23.9295C137.303 23.1643 137.671 21.995 137.671 20.4282V18.444C137.671 16.8772 137.306 15.7112 136.569 14.946C135.839 14.1808 134.582 13.7966 132.804 13.7966H113.45C112.995 13.7966 112.77 14.0052 112.77 14.4259V25.0756ZM193.067 6.59188C197.075 6.59188 199.952 7.49619 201.697 9.30812C203.442 11.1167 204.312 13.7966 204.312 17.3476V20.3255C204.312 23.32 203.701 25.6884 202.48 27.4275C201.262 29.1699 199.272 30.2829 196.518 30.7731L205.463 41.8435C205.639 42.0158 205.692 42.2741 205.619 42.6253C205.553 42.9731 205.271 43.1486 204.783 43.1486H198.034C197.583 43.1486 197.271 43.0956 197.095 42.9896C196.887 42.8532 196.709 42.6763 196.571 42.4696L188.306 31.6046H171.404V41.9992C171.404 42.7644 171.023 43.1486 170.256 43.1486H164.606C163.803 43.1486 163.402 42.7644 163.402 41.9992V8.15537C163.402 7.11194 163.926 6.58856 164.971 6.58856H193.064L193.067 6.59188ZM171.404 25.2313H191.445C193.223 25.2313 194.477 24.8471 195.211 24.0819C195.941 23.3167 196.309 22.1507 196.309 20.5839V18.391C196.309 16.8242 195.944 15.6582 195.211 14.8897C194.481 14.1278 193.22 13.7402 191.445 13.7402H172.088C171.637 13.7402 171.408 13.9522 171.408 14.3696L171.404 25.2313ZM252.753 6.59188C255.408 6.59188 257.664 6.84362 259.529 7.34712C261.393 7.85394 262.913 8.65225 264.081 9.74869C265.249 10.8451 266.095 12.2662 266.616 14.0053C267.14 15.7476 267.402 17.8709 267.402 20.3785V29.3587C267.402 31.8662 267.14 33.9995 266.616 35.7584C266.095 37.5141 265.249 38.9451 264.081 40.0415C262.913 41.1346 261.393 41.9296 259.529 42.4166C257.664 42.9035 255.405 43.1453 252.753 43.1453H236.592C233.938 43.1453 231.691 42.9035 229.843 42.4166C227.995 41.9296 226.485 41.1379 225.317 40.0415C224.15 38.9451 223.294 37.5174 222.756 35.7584C222.215 33.9995 221.943 31.8662 221.943 29.3587V20.3785C221.943 17.8709 222.215 15.7476 222.756 14.0053C223.294 12.2662 224.15 10.8451 225.317 9.74869C226.485 8.65556 227.995 7.85394 229.843 7.34712C231.691 6.84362 233.941 6.59188 236.592 6.59188H252.753ZM229.946 28.7856C229.946 30.1437 230.062 31.2832 230.288 32.2074C230.513 33.1283 230.888 33.8604 231.413 34.4003C231.933 34.9403 232.64 35.3212 233.529 35.5498C234.636 35.7981 235.769 35.9116 236.904 35.8876H252.442C253.802 35.8876 254.927 35.775 255.816 35.5498C256.705 35.3212 257.409 34.9403 257.933 34.4003C258.457 33.8604 258.829 33.1283 259.061 32.2074C259.287 31.2832 259.399 30.1437 259.399 28.7856V20.9516C259.399 19.5934 259.287 18.4539 259.058 17.5297C258.886 16.7115 258.497 15.9543 257.933 15.3369C257.349 14.7634 256.615 14.3651 255.816 14.1874C254.709 13.9384 253.576 13.825 252.442 13.8496H236.9C235.54 13.8496 234.415 13.9622 233.526 14.1874C232.637 14.416 231.933 14.7969 231.409 15.3369C230.885 15.8768 230.513 16.6089 230.281 17.5297C230.034 18.6531 229.92 19.8016 229.943 20.9516L229.946 28.7856ZM316.836 6.59188C319.484 6.59188 321.743 6.84362 323.608 7.34712C325.476 7.85394 326.992 8.65225 328.16 9.74869C329.328 10.8451 330.174 12.2662 330.698 14.0053C331.219 15.7476 331.481 17.8709 331.481 20.3785V29.3587C331.481 31.8662 331.219 33.9995 330.698 35.7584C330.174 37.5141 329.328 38.9451 328.16 40.0415C326.992 41.1346 325.473 41.9296 323.608 42.4166C321.743 42.9035 319.484 43.1453 316.836 43.1453H300.671C298.02 43.1453 295.771 42.9035 293.922 42.4166C292.074 41.9296 290.568 41.1379 289.397 40.0415C288.229 38.9451 287.373 37.5174 286.835 35.7584C286.294 33.9995 286.022 31.8662 286.022 29.3587V20.3785C286.022 17.8709 286.294 15.7476 286.835 14.0053C287.376 12.2662 288.229 10.8451 289.397 9.74869C290.568 8.65556 292.074 7.85394 293.922 7.34712C295.771 6.84362 298.02 6.59188 300.671 6.59188H316.836ZM294.029 28.7856C294.029 30.1437 294.141 31.2832 294.367 32.2074C294.593 33.1283 294.968 33.8604 295.495 34.4003C296.016 34.9403 296.723 35.3212 297.612 35.5498C298.719 35.7981 299.852 35.9116 300.986 35.8876H316.521C317.881 35.8876 319.006 35.775 319.895 35.5498C320.784 35.3212 321.488 34.9403 322.012 34.4003C322.536 33.8604 322.911 33.1283 323.14 32.2074C323.387 31.0841 323.501 29.9356 323.479 28.7856V20.9516C323.479 19.5934 323.366 18.4539 323.137 17.5297C322.964 16.7117 322.576 15.9546 322.012 15.3369C321.428 14.7634 320.695 14.3651 319.895 14.1874C318.788 13.9384 317.655 13.825 316.521 13.8496H300.983C299.623 13.8496 298.501 13.9622 297.612 14.1874C296.812 14.3659 296.077 14.764 295.492 15.3369C294.968 15.8768 294.596 16.6089 294.367 17.5297C294.12 18.6531 294.006 19.8016 294.029 20.9516V28.7856ZM387.764 6.59188C388.566 6.59188 388.968 6.97281 388.968 7.738V12.7001C388.968 13.4653 388.566 13.8496 387.764 13.8496H365.062C363.702 13.8496 362.577 13.9622 361.688 14.1874C360.888 14.3643 360.154 14.7626 359.571 15.3369C359.006 15.9543 358.618 16.7115 358.446 17.5297C358.197 18.6528 358.082 19.8015 358.105 20.9516V21.995H387.505C388.271 21.995 388.653 22.3792 388.653 23.1444V27.2718C388.653 28.037 388.271 28.4212 387.505 28.4212H358.105V41.9992C358.105 42.7644 357.723 43.1486 356.953 43.1486H351.306C350.503 43.1486 350.102 42.7644 350.102 41.9992V20.3785C350.102 17.8709 350.37 15.7476 350.911 14.0053C351.452 12.2662 352.308 10.8451 353.476 9.74869C354.644 8.65556 356.154 7.85394 358.002 7.34712C359.85 6.84362 362.099 6.59188 364.747 6.59188H387.764Z" fill="white"/>
</g>
<defs>
<clipPath id="clip0_113_130">
<rect width="391.516" height="53" fill="white"/>
</clipPath>
</defs>
</svg>
