<svg width="1399" height="1717" viewBox="0 0 1399 1717" fill="none" xmlns="http://www.w3.org/2000/svg">
<g opacity="0.7">
<mask id="mask0_0_1" style="mask-type:alpha" maskUnits="userSpaceOnUse" x="0" y="0" width="815" height="815">
<rect x="0.56958" width="814.13" height="814.13" fill="#0C353E"/>
</mask>
<g mask="url(#mask0_0_1)">
<rect x="0.56958" width="814.13" height="814.13" fill="url(#paint0_radial_0_1)"/>
</g>
<circle opacity="0.5" cx="407.634" cy="407.064" r="111.37" stroke="white" stroke-width="2"/>
<circle opacity="0.3" cx="407.634" cy="407.064" r="146.623" stroke="white" stroke-width="2"/>
<circle opacity="0.1" cx="407.634" cy="407.064" r="181.876" stroke="white" stroke-width="2"/>
<circle opacity="0.05" cx="407.634" cy="407.064" r="217.13" stroke="white" stroke-width="2"/>
<circle opacity="0.05" cx="407.634" cy="407.064" r="252.383" stroke="white" stroke-width="2"/>
<circle opacity="0.04" cx="407.634" cy="407.064" r="305.263" stroke="white" stroke-width="2"/>
<circle opacity="0.04" cx="407.634" cy="407.064" r="375.769" stroke="white" stroke-width="2"/>
<circle cx="536.466" cy="337.777" r="10.8262" transform="rotate(66.545 536.466 337.777)" fill="url(#paint1_linear_0_1)" fill-opacity="0.5"/>
<circle cx="294.085" cy="591.942" r="10.8262" transform="rotate(-150.582 294.085 591.942)" fill="url(#paint2_linear_0_1)" fill-opacity="0.5"/>
<circle cx="654.472" cy="461.196" r="6.49572" transform="rotate(106.431 654.472 461.196)" fill="url(#paint3_linear_0_1)" fill-opacity="0.5"/>
</g>
<path d="M377.025 394.686H378.267V389.736H381.399C383.487 389.736 385.251 388.062 385.251 385.884C385.251 383.706 383.487 382.032 381.381 382.032H377.025V394.686ZM378.267 388.62V383.184H381.237C382.695 383.184 383.973 384.372 383.973 385.866C383.973 387.45 382.695 388.62 381.237 388.62H378.267ZM388.987 394.686V389.862C388.987 388.134 390.067 386.55 391.921 386.55C393.343 386.55 394.387 387.54 394.387 389.16V394.686H395.593V389.106C395.593 386.874 394.117 385.416 392.155 385.416C390.661 385.416 389.581 386.136 388.987 387.252V382.032H387.781V394.686H388.987ZM398.174 392.382C398.174 393.858 399.416 394.902 401.054 394.902C402.494 394.902 403.646 394.2 404.294 393.066V394.686H405.446V388.8C405.446 386.694 404.06 385.416 401.9 385.416C400.262 385.416 399.146 386.172 398.426 387L399.11 387.81C399.668 387.144 400.622 386.532 401.81 386.532C403.358 386.532 404.24 387.36 404.24 388.764V389.088L401.018 389.736C399.2 390.096 398.174 391.014 398.174 392.382ZM399.38 392.328C399.38 391.464 399.974 390.96 401.234 390.708L404.276 390.114V390.87C404.276 392.382 402.962 393.822 401.216 393.822C400.172 393.822 399.38 393.21 399.38 392.328ZM407.879 393.084C408.167 393.66 409.337 394.902 411.317 394.902C413.171 394.902 414.503 393.822 414.503 392.364C414.503 390.78 413.207 390.186 411.515 389.61C410.183 389.178 409.373 388.782 409.373 387.936C409.373 387.018 410.237 386.514 411.299 386.514C412.541 386.514 413.243 387.468 413.441 387.792L414.341 387.09C414.053 386.586 413.081 385.416 411.317 385.416C409.535 385.416 408.149 386.478 408.149 387.972C408.149 389.502 409.409 390.15 411.029 390.672C412.469 391.14 413.297 391.5 413.297 392.382C413.297 393.246 412.433 393.786 411.317 393.786C409.859 393.786 409.013 392.778 408.761 392.382L407.879 393.084ZM416.552 390.168C416.552 392.832 418.568 394.902 421.286 394.902C422.744 394.902 423.968 394.38 424.922 393.282L424.184 392.454C423.482 393.264 422.474 393.768 421.322 393.768C419.468 393.768 417.956 392.436 417.83 390.384H425.156C425.21 390.078 425.228 389.79 425.228 389.502C425.228 387.216 423.572 385.416 421.124 385.416C418.478 385.416 416.552 387.504 416.552 390.168ZM421.106 386.532C422.672 386.532 423.968 387.594 424.022 389.304V389.376H417.866C418.1 387.702 419.432 386.532 421.106 386.532ZM435.464 383.886V393.588H432.44V394.686H439.64V393.588H436.688V382.032H435.59C434.924 383.328 433.61 383.814 432.242 383.886V385.02C433.484 385.002 434.636 384.588 435.464 383.886Z" fill="#C3CDCF"/>
<path d="M332.287 441.686H351.735V435.746H339.063V410.314H332.287V441.686ZM354.164 435.482C354.164 439.398 357.288 442.214 361.644 442.214C364.636 442.214 366.836 440.894 367.892 438.914V441.686H374.096V427.474C374.096 421.974 370.312 418.586 364.064 418.586C359.84 418.586 356.408 420.346 354.384 422.854L357.86 427.078C359.18 425.582 361.16 424.35 363.668 424.35C365.956 424.35 367.672 425.274 367.672 427.474V427.65L361.512 428.838C356.76 429.806 354.164 432.138 354.164 435.482ZM360.544 435.086C360.544 433.81 361.512 433.062 363.228 432.754L367.716 431.874V432.534C367.716 435.218 365.868 437.242 363.14 437.242C361.556 437.242 360.544 436.362 360.544 435.086ZM389.014 442.214C392.006 442.214 394.25 441.114 395.702 438.782V441.686H402.126V419.114H395.438V430.862C395.438 433.81 393.898 436.318 390.994 436.318C388.53 436.318 386.946 434.734 386.946 431.83V419.114H380.258V432.842C380.258 438.694 383.646 442.214 389.014 442.214ZM409.076 441.686H415.764V429.938C415.764 426.99 417.304 424.482 420.208 424.482C422.672 424.482 424.256 426.066 424.256 428.97V441.686H430.944V427.958C430.944 422.106 427.556 418.586 422.188 418.586C419.196 418.586 416.952 419.686 415.5 422.018V419.114H409.076V441.686ZM435.782 430.378C435.782 437.022 440.842 442.214 447.838 442.214C451.886 442.214 455.274 440.322 457.342 437.374L453.074 433.502C451.754 435.174 450.17 436.274 448.014 436.274C444.802 436.274 442.558 433.81 442.558 430.378C442.558 427.034 444.802 424.526 447.926 424.526C450.082 424.526 451.71 425.626 452.854 427.606L457.298 423.69C455.098 420.346 451.93 418.586 447.794 418.586C440.842 418.586 435.782 423.734 435.782 430.378ZM468.528 441.686V429.806C468.528 426.858 470.068 424.482 472.972 424.482C475.436 424.482 477.02 426.066 477.02 428.97V441.686H483.708V427.958C483.708 422.106 480.276 418.586 474.952 418.586C472.136 418.586 469.98 419.642 468.528 421.578V410.314H461.84V441.686H468.528Z" fill="#F85454"/>
<g opacity="0.7">
<mask id="mask1_0_1" style="mask-type:alpha" maskUnits="userSpaceOnUse" x="584" y="451" width="815" height="815">
<rect x="584.301" y="451.028" width="814.13" height="814.13" fill="#0C353E"/>
</mask>
<g mask="url(#mask1_0_1)">
<rect x="584.301" y="451.028" width="814.13" height="814.13" fill="url(#paint4_radial_0_1)"/>
</g>
<circle opacity="0.5" cx="991.365" cy="858.092" r="111.37" stroke="white" stroke-width="2"/>
<circle opacity="0.3" cx="991.365" cy="858.093" r="146.623" stroke="white" stroke-width="2"/>
<circle opacity="0.1" cx="991.365" cy="858.092" r="181.876" stroke="white" stroke-width="2"/>
<circle opacity="0.05" cx="991.365" cy="858.092" r="217.13" stroke="white" stroke-width="2"/>
<circle opacity="0.05" cx="991.365" cy="858.092" r="252.383" stroke="white" stroke-width="2"/>
<circle opacity="0.04" cx="991.365" cy="858.092" r="305.263" stroke="white" stroke-width="2"/>
<circle opacity="0.04" cx="991.365" cy="858.092" r="375.769" stroke="white" stroke-width="2"/>
<circle cx="1120.2" cy="788.805" r="10.8262" transform="rotate(55.7346 1120.2 788.805)" fill="url(#paint5_linear_0_1)" fill-opacity="0.5"/>
<circle cx="1034.13" cy="1035.64" r="10.8262" transform="rotate(146.005 1034.13 1035.64)" fill="url(#paint6_linear_0_1)" fill-opacity="0.5"/>
<circle cx="1238.2" cy="912.224" r="6.49572" transform="rotate(108.967 1238.2 912.224)" fill="url(#paint7_linear_0_1)" fill-opacity="0.5"/>
</g>
<path d="M959.755 845.713H960.997V840.763H964.129C966.217 840.763 967.981 839.089 967.981 836.911C967.981 834.733 966.217 833.059 964.111 833.059H959.755V845.713ZM960.997 839.647V834.211H963.967C965.425 834.211 966.703 835.399 966.703 836.893C966.703 838.477 965.425 839.647 963.967 839.647H960.997ZM971.718 845.713V840.889C971.718 839.161 972.798 837.577 974.652 837.577C976.074 837.577 977.118 838.567 977.118 840.187V845.713H978.324V840.133C978.324 837.901 976.848 836.443 974.886 836.443C973.392 836.443 972.312 837.163 971.718 838.279V833.059H970.512V845.713H971.718ZM980.905 843.409C980.905 844.885 982.147 845.929 983.785 845.929C985.225 845.929 986.377 845.227 987.025 844.093V845.713H988.177V839.827C988.177 837.721 986.791 836.443 984.631 836.443C982.993 836.443 981.877 837.199 981.157 838.027L981.841 838.837C982.399 838.171 983.353 837.559 984.541 837.559C986.089 837.559 986.971 838.387 986.971 839.791V840.115L983.749 840.763C981.931 841.123 980.905 842.041 980.905 843.409ZM982.111 843.355C982.111 842.491 982.705 841.987 983.965 841.735L987.007 841.141V841.897C987.007 843.409 985.693 844.849 983.947 844.849C982.903 844.849 982.111 844.237 982.111 843.355ZM990.61 844.111C990.898 844.687 992.068 845.929 994.048 845.929C995.902 845.929 997.234 844.849 997.234 843.391C997.234 841.807 995.938 841.213 994.246 840.637C992.914 840.205 992.104 839.809 992.104 838.963C992.104 838.045 992.968 837.541 994.03 837.541C995.272 837.541 995.974 838.495 996.172 838.819L997.072 838.117C996.784 837.613 995.812 836.443 994.048 836.443C992.266 836.443 990.88 837.505 990.88 838.999C990.88 840.529 992.14 841.177 993.76 841.699C995.2 842.167 996.028 842.527 996.028 843.409C996.028 844.273 995.164 844.813 994.048 844.813C992.59 844.813 991.744 843.805 991.492 843.409L990.61 844.111ZM999.283 841.195C999.283 843.859 1001.3 845.929 1004.02 845.929C1005.48 845.929 1006.7 845.407 1007.65 844.309L1006.92 843.481C1006.21 844.291 1005.21 844.795 1004.05 844.795C1002.2 844.795 1000.69 843.463 1000.56 841.411H1007.89C1007.94 841.105 1007.96 840.817 1007.96 840.529C1007.96 838.243 1006.3 836.443 1003.86 836.443C1001.21 836.443 999.283 838.531 999.283 841.195ZM1003.84 837.559C1005.4 837.559 1006.7 838.621 1006.75 840.331V840.403H1000.6C1000.83 838.729 1002.16 837.559 1003.84 837.559ZM1014.94 844.903C1014.94 845.173 1014.97 845.443 1015.01 845.713H1022.95V844.615H1016.25C1016.27 841.231 1022.84 840.637 1022.84 836.389C1022.84 834.409 1021.36 832.843 1018.95 832.843C1017.26 832.843 1015.78 833.689 1015.01 835.237L1016.04 835.867C1016.61 834.661 1017.64 834.031 1018.92 834.031C1020.5 834.031 1021.54 835.057 1021.54 836.443C1021.54 839.881 1014.94 840.457 1014.94 844.903Z" fill="#C3CDCF"/>
<path d="M934.861 877.005C934.861 886.069 941.681 893.241 951.185 893.241C957.697 893.241 962.361 889.897 965.045 885.761V875.333H952.021V880.877H958.709V883.209C956.949 885.497 954.661 886.773 951.097 886.773C945.685 886.773 941.857 882.505 941.857 877.005C941.857 871.505 945.729 867.281 951.317 867.281C955.101 867.281 957.917 869.393 959.589 871.769L964.561 867.589C961.965 863.761 957.653 860.813 951.405 860.813C941.725 860.813 934.861 867.941 934.861 877.005ZM970.711 870.141V892.713H977.443V883.605C977.443 878.941 979.775 875.949 983.647 875.949C984.263 875.949 984.835 876.037 985.143 876.169V869.789C984.791 869.701 984.263 869.613 983.735 869.613C980.787 869.613 978.499 871.329 977.355 874.057V870.141H970.711ZM999.12 893.241C1006.16 893.241 1011.22 888.049 1011.22 881.405C1011.22 874.761 1006.16 869.613 999.12 869.613C992.08 869.613 987.02 874.761 987.02 881.405C987.02 888.049 992.08 893.241 999.12 893.241ZM993.796 881.405C993.796 877.885 996.084 875.553 999.12 875.553C1002.16 875.553 1004.44 877.885 1004.44 881.405C1004.44 884.925 1002.16 887.301 999.12 887.301C996.084 887.301 993.796 884.925 993.796 881.405ZM1020.87 892.713H1026.94L1031.26 879.381L1035.57 892.713H1041.64L1049.12 870.141H1042.61L1038.43 884.837L1033.76 870.141H1028.75L1024.08 884.837L1019.9 870.141H1013.39L1020.87 892.713Z" fill="#F85454"/>
<g opacity="0.7">
<mask id="mask2_0_1" style="mask-type:alpha" maskUnits="userSpaceOnUse" x="2" y="902" width="815" height="815">
<rect x="2.19775" y="902.87" width="814.13" height="814.13" fill="#0C353E"/>
</mask>
<g mask="url(#mask2_0_1)">
<rect x="2.19775" y="902.87" width="814.13" height="814.13" fill="url(#paint8_radial_0_1)"/>
</g>
<circle opacity="0.5" cx="407.634" cy="1309.12" r="111.37" stroke="white" stroke-width="2"/>
<circle opacity="0.3" cx="407.634" cy="1309.12" r="146.623" stroke="white" stroke-width="2"/>
<circle opacity="0.1" cx="407.634" cy="1309.12" r="181.876" stroke="white" stroke-width="2"/>
<circle opacity="0.05" cx="407.634" cy="1309.12" r="217.13" stroke="white" stroke-width="2"/>
<circle opacity="0.05" cx="407.634" cy="1309.12" r="252.383" stroke="white" stroke-width="2"/>
<circle opacity="0.04" cx="407.634" cy="1309.12" r="305.263" stroke="white" stroke-width="2"/>
<circle opacity="0.04" cx="407.634" cy="1309.12" r="375.769" stroke="white" stroke-width="2"/>
<circle cx="536.466" cy="1239.83" r="10.8262" transform="rotate(38.9566 536.466 1239.83)" fill="url(#paint9_linear_0_1)" fill-opacity="0.5"/>
<circle cx="450.398" cy="1486.67" r="10.8262" transform="rotate(162.142 450.398 1486.67)" fill="url(#paint10_linear_0_1)" fill-opacity="0.5"/>
<circle cx="309.281" cy="1362.44" r="6.49572" transform="rotate(-122.204 309.281 1362.44)" fill="url(#paint11_linear_0_1)"/>
</g>
<path d="M377.246 1297.56H378.488V1292.61H381.62C383.708 1292.61 385.472 1290.93 385.472 1288.75C385.472 1286.58 383.708 1284.9 381.602 1284.9H377.246V1297.56ZM378.488 1291.49V1286.05H381.458C382.916 1286.05 384.194 1287.24 384.194 1288.74C384.194 1290.32 382.916 1291.49 381.458 1291.49H378.488ZM389.208 1297.56V1292.73C389.208 1291 390.288 1289.42 392.142 1289.42C393.564 1289.42 394.608 1290.41 394.608 1292.03V1297.56H395.814V1291.98C395.814 1289.74 394.338 1288.29 392.376 1288.29C390.882 1288.29 389.802 1289.01 389.208 1290.12V1284.9H388.002V1297.56H389.208ZM398.395 1295.25C398.395 1296.73 399.637 1297.77 401.275 1297.77C402.715 1297.77 403.867 1297.07 404.515 1295.94V1297.56H405.667V1291.67C405.667 1289.56 404.281 1288.29 402.121 1288.29C400.483 1288.29 399.367 1289.04 398.647 1289.87L399.331 1290.68C399.889 1290.01 400.843 1289.4 402.031 1289.4C403.579 1289.4 404.461 1290.23 404.461 1291.63V1291.96L401.239 1292.61C399.421 1292.97 398.395 1293.88 398.395 1295.25ZM399.601 1295.2C399.601 1294.33 400.195 1293.83 401.455 1293.58L404.497 1292.98V1293.74C404.497 1295.25 403.183 1296.69 401.437 1296.69C400.393 1296.69 399.601 1296.08 399.601 1295.2ZM408.1 1295.95C408.388 1296.53 409.558 1297.77 411.538 1297.77C413.392 1297.77 414.724 1296.69 414.724 1295.23C414.724 1293.65 413.428 1293.06 411.736 1292.48C410.404 1292.05 409.594 1291.65 409.594 1290.81C409.594 1289.89 410.458 1289.38 411.52 1289.38C412.762 1289.38 413.464 1290.34 413.662 1290.66L414.562 1289.96C414.274 1289.46 413.302 1288.29 411.538 1288.29C409.756 1288.29 408.37 1289.35 408.37 1290.84C408.37 1292.37 409.63 1293.02 411.25 1293.54C412.69 1294.01 413.518 1294.37 413.518 1295.25C413.518 1296.12 412.654 1296.66 411.538 1296.66C410.08 1296.66 409.234 1295.65 408.982 1295.25L408.1 1295.95ZM416.773 1293.04C416.773 1295.7 418.789 1297.77 421.507 1297.77C422.965 1297.77 424.189 1297.25 425.143 1296.15L424.405 1295.32C423.703 1296.13 422.695 1296.64 421.543 1296.64C419.689 1296.64 418.177 1295.31 418.051 1293.25H425.377C425.431 1292.95 425.449 1292.66 425.449 1292.37C425.449 1290.09 423.793 1288.29 421.345 1288.29C418.699 1288.29 416.773 1290.37 416.773 1293.04ZM421.327 1289.4C422.893 1289.4 424.189 1290.46 424.243 1292.17V1292.25H418.087C418.321 1290.57 419.653 1289.4 421.327 1289.4ZM432.158 1295.38C432.914 1296.91 434.336 1297.77 436.082 1297.77C438.548 1297.77 440.33 1296.1 440.33 1293.87C440.33 1291.78 438.8 1290.12 436.46 1290.05L440.042 1285.75V1284.9H432.716V1286H438.422L434.768 1290.37V1291.15C435.056 1291.09 435.434 1291.08 435.776 1291.08C437.846 1291.08 439.052 1292.21 439.052 1293.9C439.052 1295.56 437.666 1296.58 436.118 1296.58C434.912 1296.58 433.76 1295.95 433.202 1294.71L432.158 1295.38Z" fill="#C3CDCF"/>
<path d="M352.412 1338.79C354.7 1342.88 359.232 1345.13 363.896 1345.13C370.98 1345.13 375.16 1340.77 375.16 1335.84C375.16 1330.3 371.2 1328.36 366.096 1326.16C362.796 1324.71 360.068 1323.92 360.068 1321.81C360.068 1319.87 361.916 1318.77 364.116 1318.77C366.316 1318.77 368.208 1319.92 369.572 1322.12L374.544 1318.38C372.432 1314.68 368.604 1312.66 364.204 1312.66C358 1312.66 353.336 1316.57 353.336 1321.98C353.336 1327.31 357.208 1329.29 361.564 1331.22C365.92 1333.16 368.384 1333.64 368.384 1336.06C368.384 1337.74 366.58 1338.97 363.94 1338.97C361.036 1338.97 358.66 1337.21 357.296 1334.88L352.412 1338.79ZM378.691 1333.25C378.691 1339.89 383.751 1345.08 390.747 1345.08C394.795 1345.08 398.183 1343.19 400.251 1340.24L395.983 1336.37C394.663 1338.04 393.079 1339.14 390.923 1339.14C387.711 1339.14 385.467 1336.68 385.467 1333.25C385.467 1329.9 387.711 1327.4 390.835 1327.4C392.991 1327.4 394.619 1328.5 395.763 1330.48L400.207 1326.56C398.007 1323.22 394.839 1321.46 390.703 1321.46C383.751 1321.46 378.691 1326.6 378.691 1333.25ZM402.945 1338.35C402.945 1342.27 406.069 1345.08 410.425 1345.08C413.417 1345.08 415.617 1343.76 416.673 1341.78V1344.56H422.877V1330.34C422.877 1324.84 419.093 1321.46 412.845 1321.46C408.621 1321.46 405.189 1323.22 403.165 1325.72L406.641 1329.95C407.961 1328.45 409.941 1327.22 412.449 1327.22C414.737 1327.22 416.453 1328.14 416.453 1330.34V1330.52L410.293 1331.71C405.541 1332.68 402.945 1335.01 402.945 1338.35ZM409.325 1337.96C409.325 1336.68 410.293 1335.93 412.009 1335.62L416.497 1334.74V1335.4C416.497 1338.09 414.649 1340.11 411.921 1340.11C410.337 1340.11 409.325 1339.23 409.325 1337.96ZM429.127 1313.18V1338.13C429.127 1342.84 431.943 1345.08 436.123 1345.08C437.443 1345.08 438.455 1344.86 439.247 1344.51V1339.01C438.675 1339.23 438.147 1339.28 437.751 1339.28C436.035 1339.28 435.815 1338.13 435.815 1336.9V1313.18H429.127ZM441.746 1333.29C441.746 1339.94 446.674 1345.08 454.242 1345.08C457.938 1345.08 460.93 1344.03 463.79 1341.39L460.27 1337.08C459.082 1338.31 457.146 1339.41 454.638 1339.41C451.69 1339.41 449.006 1337.91 448.654 1334.88H463.702C463.878 1334.13 464.098 1332.94 464.098 1331.88C464.098 1325.81 459.786 1321.46 453.362 1321.46C446.674 1321.46 441.746 1326.65 441.746 1333.29ZM453.274 1326.91C455.606 1326.91 457.454 1328.36 457.586 1330.7V1330.74H448.566C448.874 1328.32 450.854 1326.91 453.274 1326.91Z" fill="#F85454"/>
<path d="M407.618 519.008L407.618 601.995C407.618 613.041 416.572 621.995 427.618 621.995L971.189 621.995C982.234 621.995 991.189 630.95 991.189 641.995L991.189 745.743" stroke="#61797E" stroke-width="2"/>
<path d="M407.863 1196.82L407.863 1113.83C407.863 1102.79 416.817 1093.83 427.863 1093.83L971.434 1093.83C982.479 1093.83 991.434 1084.88 991.434 1073.83L991.434 970.085" stroke="#61797E" stroke-width="2"/>
<defs>
<radialGradient id="paint0_radial_0_1" cx="0" cy="0" r="1" gradientUnits="userSpaceOnUse" gradientTransform="translate(423.058 407.065) rotate(90) scale(387.235)">
<stop stop-color="#194A55"/>
<stop offset="1" stop-color="#0C353E" stop-opacity="0"/>
</radialGradient>
<linearGradient id="paint1_linear_0_1" x1="536.466" y1="326.951" x2="536.466" y2="348.603" gradientUnits="userSpaceOnUse">
<stop stop-color="#557278"/>
<stop offset="1" stop-color="#557278" stop-opacity="0.5"/>
</linearGradient>
<linearGradient id="paint2_linear_0_1" x1="294.085" y1="581.115" x2="294.085" y2="602.768" gradientUnits="userSpaceOnUse">
<stop stop-color="#557278"/>
<stop offset="1" stop-color="#557278" stop-opacity="0.5"/>
</linearGradient>
<linearGradient id="paint3_linear_0_1" x1="654.472" y1="454.701" x2="654.472" y2="467.692" gradientUnits="userSpaceOnUse">
<stop stop-color="#557278"/>
<stop offset="1" stop-color="#557278" stop-opacity="0.5"/>
</linearGradient>
<radialGradient id="paint4_radial_0_1" cx="0" cy="0" r="1" gradientUnits="userSpaceOnUse" gradientTransform="translate(1006.79 858.093) rotate(90) scale(387.235)">
<stop stop-color="#194A55"/>
<stop offset="1" stop-color="#0C353E" stop-opacity="0"/>
</radialGradient>
<linearGradient id="paint5_linear_0_1" x1="1120.2" y1="777.979" x2="1120.2" y2="799.632" gradientUnits="userSpaceOnUse">
<stop stop-color="#557278"/>
<stop offset="1" stop-color="#557278" stop-opacity="0.5"/>
</linearGradient>
<linearGradient id="paint6_linear_0_1" x1="1034.13" y1="1024.82" x2="1034.13" y2="1046.47" gradientUnits="userSpaceOnUse">
<stop stop-color="#557278"/>
<stop offset="1" stop-color="#557278" stop-opacity="0.5"/>
</linearGradient>
<linearGradient id="paint7_linear_0_1" x1="1238.2" y1="905.728" x2="1238.2" y2="918.72" gradientUnits="userSpaceOnUse">
<stop stop-color="#557278"/>
<stop offset="1" stop-color="#557278" stop-opacity="0.5"/>
</linearGradient>
<radialGradient id="paint8_radial_0_1" cx="0" cy="0" r="1" gradientUnits="userSpaceOnUse" gradientTransform="translate(424.686 1309.94) rotate(90) scale(387.235)">
<stop stop-color="#194A55"/>
<stop offset="1" stop-color="#0C353E" stop-opacity="0"/>
</radialGradient>
<linearGradient id="paint9_linear_0_1" x1="536.466" y1="1229.01" x2="536.466" y2="1250.66" gradientUnits="userSpaceOnUse">
<stop stop-color="#557278"/>
<stop offset="1" stop-color="#557278" stop-opacity="0.5"/>
</linearGradient>
<linearGradient id="paint10_linear_0_1" x1="450.398" y1="1475.84" x2="450.398" y2="1497.5" gradientUnits="userSpaceOnUse">
<stop stop-color="#557278"/>
<stop offset="1" stop-color="#557278" stop-opacity="0.5"/>
</linearGradient>
<linearGradient id="paint11_linear_0_1" x1="309.281" y1="1355.94" x2="309.281" y2="1368.93" gradientUnits="userSpaceOnUse">
<stop stop-color="#557278"/>
<stop offset="0.65625" stop-color="#557278" stop-opacity="0.846354"/>
<stop offset="1" stop-color="#557278" stop-opacity="0.5"/>
</linearGradient>
</defs>
</svg>
