<svg width="375" height="375" viewBox="0 0 375 375" fill="none" xmlns="http://www.w3.org/2000/svg">
<g opacity="0.7">
<mask id="mask0_173_442" style="mask-type:alpha" maskUnits="userSpaceOnUse" x="0" y="0" width="376" height="375">
<rect x="0.25" width="375" height="375" fill="#0C353E"/>
</mask>
<g mask="url(#mask0_173_442)">
<rect x="0.25" width="375" height="375" fill="url(#paint0_radial_173_442)"/>
</g>
<circle opacity="0.5" cx="187.749" cy="187.499" r="51.2304" stroke="white" stroke-width="1.05758"/>
<circle opacity="0.3" cx="187.75" cy="187.5" r="67.4685" stroke="white" stroke-width="1.05758"/>
<circle opacity="0.1" cx="187.75" cy="187.5" r="83.7067" stroke="white" stroke-width="1.05758"/>
<circle opacity="0.05" cx="187.75" cy="187.5" r="99.9448" stroke="white" stroke-width="1.05758"/>
<circle opacity="0.05" cx="187.749" cy="187.499" r="116.183" stroke="white" stroke-width="1.05758"/>
<circle opacity="0.04" cx="187.75" cy="187.5" r="140.54" stroke="white" stroke-width="1.05758"/>
<circle opacity="0.04" cx="187.749" cy="187.5" r="173.017" stroke="white" stroke-width="1.05758"/>
<circle cx="247.092" cy="155.585" r="4.9867" transform="rotate(55.7346 247.092 155.585)" fill="url(#paint1_linear_173_442)" fill-opacity="0.5"/>
<circle cx="207.448" cy="269.282" r="4.9867" transform="rotate(146.005 207.448 269.282)" fill="url(#paint2_linear_173_442)" fill-opacity="0.5"/>
<circle cx="301.446" cy="212.434" r="2.99202" transform="rotate(108.967 301.446 212.434)" fill="url(#paint3_linear_173_442)" fill-opacity="0.5"/>
</g>
<path d="M171.249 181.023H171.906V178.405H173.562C174.666 178.405 175.599 177.52 175.599 176.369C175.599 175.217 174.666 174.332 173.553 174.332H171.249V181.023ZM171.906 177.815V174.941H173.477C174.238 174.941 174.923 175.569 174.923 176.359C174.923 177.197 174.238 177.815 173.477 177.815H171.906ZM176.937 181.023H177.575V178.472C177.575 177.549 178.146 176.721 179.126 176.721C179.888 176.721 180.43 177.235 180.43 178.101V181.023H181.068V178.072C181.068 176.892 180.288 176.121 179.25 176.121C178.451 176.121 177.889 176.492 177.575 177.092V174.332H176.937V181.023ZM185.641 178.063L183.937 178.405C182.975 178.596 182.433 179.081 182.433 179.805C182.433 180.585 183.08 181.137 183.956 181.137C184.717 181.137 185.326 180.775 185.669 180.166V181.023H186.278V177.911C186.278 176.797 185.555 176.121 184.403 176.121C183.527 176.121 182.947 176.511 182.566 176.959L182.928 177.387C183.223 177.035 183.718 176.711 184.356 176.711C185.184 176.711 185.641 177.14 185.641 177.891V178.063ZM184.041 180.566C183.48 180.566 183.071 180.242 183.071 179.776C183.071 179.338 183.394 179.053 184.051 178.919L185.66 178.605V179.005C185.66 179.805 184.965 180.566 184.041 180.566ZM189.383 181.137C190.373 181.137 191.067 180.566 191.067 179.795C191.067 178.958 190.382 178.643 189.487 178.339C188.773 178.11 188.355 177.901 188.355 177.454C188.355 176.968 188.802 176.702 189.373 176.702C190.02 176.702 190.401 177.197 190.506 177.377L190.982 177.006C190.839 176.74 190.315 176.121 189.383 176.121C188.44 176.121 187.707 176.683 187.707 177.473C187.707 178.282 188.374 178.624 189.23 178.9C189.992 179.157 190.43 179.338 190.43 179.805C190.43 180.261 189.982 180.547 189.383 180.547C188.621 180.547 188.164 180.014 188.031 179.805L187.565 180.176C187.717 180.48 188.336 181.137 189.383 181.137ZM194.569 176.121C193.17 176.121 192.151 177.225 192.151 178.634C192.151 180.043 193.217 181.137 194.654 181.137C195.444 181.137 196.082 180.852 196.577 180.281L196.187 179.843C195.816 180.271 195.283 180.538 194.674 180.538C193.684 180.538 192.903 179.833 192.827 178.748H196.701C196.729 178.586 196.739 178.434 196.739 178.282C196.739 177.073 195.863 176.121 194.569 176.121ZM194.559 176.711C195.387 176.711 196.073 177.263 196.101 178.177V178.215H192.846C192.97 177.33 193.674 176.711 194.559 176.711ZM202.532 174.846C203.37 174.846 203.922 175.388 203.922 176.121C203.922 177.939 200.429 178.244 200.429 180.595C200.429 180.737 200.438 180.88 200.467 181.023H204.665V180.442H201.124C201.124 178.662 204.607 178.329 204.607 176.093C204.607 175.055 203.817 174.217 202.552 174.217C201.647 174.217 200.876 174.655 200.467 175.483L201.01 175.817C201.314 175.169 201.847 174.846 202.532 174.846Z" fill="#C3CDCF"/>
<path d="M168.753 192.737C168.753 195.787 171.048 198.201 174.246 198.201C176.453 198.201 178.007 197.061 178.91 195.684V192.175H174.528V194.04H176.778V194.825C176.186 195.595 175.416 196.024 174.217 196.024C172.396 196.024 171.108 194.588 171.108 192.737C171.108 190.886 172.396 189.465 174.291 189.465C175.579 189.465 176.497 190.161 177.074 190.975L178.747 189.569C177.889 188.281 176.408 187.289 174.32 187.289C171.063 187.289 168.753 189.687 168.753 192.737ZM183.053 190.427H180.817V198.023H183.082V194.958C183.082 193.374 183.867 192.382 185.17 192.382C185.392 192.382 185.555 192.411 185.673 192.456V190.309C185.555 190.265 185.377 190.25 185.199 190.25C184.193 190.25 183.452 190.812 183.053 191.745V190.427ZM190.376 190.25C188.007 190.25 186.305 191.967 186.305 194.218C186.305 196.454 188.007 198.201 190.376 198.201C192.745 198.201 194.448 196.454 194.448 194.218C194.448 191.967 192.745 190.25 190.376 190.25ZM190.376 192.249C191.398 192.249 192.168 193.033 192.168 194.218C192.168 195.402 191.398 196.202 190.376 196.202C189.355 196.202 188.585 195.402 188.585 194.218C188.585 193.033 189.355 192.249 190.376 192.249ZM195.179 190.427L197.696 198.023H199.739L201.19 193.537L202.641 198.023H204.684L207.201 190.427H205.01L203.603 195.373L202.034 190.427H200.346L198.777 195.373L197.37 190.427H195.179Z" fill="#F85454"/>
<defs>
<radialGradient id="paint0_radial_173_442" cx="0" cy="0" r="1" gradientUnits="userSpaceOnUse" gradientTransform="translate(194.854 187.5) rotate(90) scale(178.366)">
<stop stop-color="#194A55"/>
<stop offset="1" stop-color="#0C353E" stop-opacity="0"/>
</radialGradient>
<linearGradient id="paint1_linear_173_442" x1="247.092" y1="150.598" x2="247.092" y2="160.572" gradientUnits="userSpaceOnUse">
<stop stop-color="#557278"/>
<stop offset="1" stop-color="#557278" stop-opacity="0.5"/>
</linearGradient>
<linearGradient id="paint2_linear_173_442" x1="207.448" y1="264.295" x2="207.448" y2="274.268" gradientUnits="userSpaceOnUse">
<stop stop-color="#557278"/>
<stop offset="1" stop-color="#557278" stop-opacity="0.5"/>
</linearGradient>
<linearGradient id="paint3_linear_173_442" x1="301.446" y1="209.442" x2="301.446" y2="215.426" gradientUnits="userSpaceOnUse">
<stop stop-color="#557278"/>
<stop offset="1" stop-color="#557278" stop-opacity="0.5"/>
</linearGradient>
</defs>
</svg>
