<svg width="375" height="375" viewBox="0 0 375 375" fill="none" xmlns="http://www.w3.org/2000/svg">
<g opacity="0.7">
<mask id="mask0_173_461" style="mask-type:alpha" maskUnits="userSpaceOnUse" x="0" y="0" width="375" height="375">
<rect x="0.25" y="0.5" width="374" height="374" fill="#0C353E"/>
</mask>
<g mask="url(#mask0_173_461)">
<rect x="0.25" y="0.5" width="374" height="374" fill="url(#paint0_radial_173_461)"/>
</g>
<circle opacity="0.5" cx="186.502" cy="187.126" r="51.0923" stroke="white" stroke-width="1.05758"/>
<circle opacity="0.3" cx="186.502" cy="187.126" r="67.2872" stroke="white" stroke-width="1.05758"/>
<circle opacity="0.1" cx="186.502" cy="187.126" r="83.482" stroke="white" stroke-width="1.05758"/>
<circle opacity="0.05" cx="186.502" cy="187.126" r="99.6769" stroke="white" stroke-width="1.05758"/>
<circle opacity="0.05" cx="186.502" cy="187.126" r="115.872" stroke="white" stroke-width="1.05758"/>
<circle opacity="0.04" cx="186.501" cy="187.126" r="140.164" stroke="white" stroke-width="1.05758"/>
<circle opacity="0.04" cx="186.501" cy="187.126" r="172.554" stroke="white" stroke-width="1.05758"/>
<circle cx="245.686" cy="155.296" r="4.9734" transform="rotate(38.9566 245.686 155.296)" fill="url(#paint1_linear_173_461)" fill-opacity="0.5"/>
<circle cx="206.147" cy="268.69" r="4.9734" transform="rotate(162.142 206.147 268.69)" fill="url(#paint2_linear_173_461)" fill-opacity="0.5"/>
<circle cx="141.319" cy="211.62" r="2.98404" transform="rotate(-122.204 141.319 211.62)" fill="url(#paint3_linear_173_461)"/>
</g>
<path d="M171.033 181.067H171.689V178.449H173.346C174.45 178.449 175.382 177.564 175.382 176.413C175.382 175.261 174.45 174.376 173.336 174.376H171.033V181.067ZM171.689 177.859V174.985H173.26C174.021 174.985 174.707 175.613 174.707 176.403C174.707 177.241 174.021 177.859 173.26 177.859H171.689ZM176.72 181.067H177.358V178.516C177.358 177.593 177.929 176.765 178.91 176.765C179.671 176.765 180.213 177.279 180.213 178.145V181.067H180.851V178.116C180.851 176.936 180.071 176.165 179.033 176.165C178.234 176.165 177.672 176.536 177.358 177.136V174.376H176.72V181.067ZM185.424 178.107L183.72 178.449C182.759 178.64 182.216 179.125 182.216 179.849C182.216 180.629 182.863 181.181 183.739 181.181C184.5 181.181 185.11 180.819 185.452 180.21V181.067H186.061V177.954C186.061 176.841 185.338 176.165 184.186 176.165C183.311 176.165 182.73 176.555 182.349 177.003L182.711 177.431C183.006 177.079 183.501 176.755 184.139 176.755C184.967 176.755 185.424 177.183 185.424 177.935V178.107ZM183.825 180.61C183.263 180.61 182.854 180.286 182.854 179.82C182.854 179.382 183.177 179.097 183.834 178.963L185.443 178.649V179.049C185.443 179.849 184.748 180.61 183.825 180.61ZM189.166 181.181C190.156 181.181 190.851 180.61 190.851 179.839C190.851 179.001 190.165 178.687 189.271 178.383C188.557 178.154 188.138 177.945 188.138 177.498C188.138 177.012 188.585 176.746 189.156 176.746C189.804 176.746 190.184 177.241 190.289 177.421L190.765 177.05C190.622 176.784 190.099 176.165 189.166 176.165C188.224 176.165 187.491 176.727 187.491 177.517C187.491 178.326 188.157 178.668 189.014 178.944C189.775 179.201 190.213 179.382 190.213 179.849C190.213 180.305 189.766 180.591 189.166 180.591C188.404 180.591 187.948 180.058 187.814 179.849L187.348 180.22C187.5 180.524 188.119 181.181 189.166 181.181ZM194.352 176.165C192.953 176.165 191.934 177.269 191.934 178.678C191.934 180.087 193 181.181 194.438 181.181C195.228 181.181 195.865 180.896 196.36 180.324L195.97 179.887C195.599 180.315 195.066 180.581 194.457 180.581C193.467 180.581 192.686 179.877 192.61 178.792H196.484C196.513 178.63 196.522 178.478 196.522 178.326C196.522 177.117 195.646 176.165 194.352 176.165ZM194.342 176.755C195.171 176.755 195.856 177.307 195.884 178.221V178.259H192.629C192.753 177.374 193.457 176.755 194.342 176.755ZM200.069 179.915C200.479 180.724 201.221 181.181 202.144 181.181C203.448 181.181 204.391 180.296 204.391 179.116C204.391 178.012 203.582 177.126 202.344 177.098L204.238 174.823V174.376H200.364V174.956H203.382L201.45 177.269V177.678C201.602 177.65 201.802 177.64 201.983 177.64C203.087 177.64 203.715 178.23 203.715 179.135C203.715 180.01 202.972 180.553 202.163 180.553C201.516 180.553 200.917 180.22 200.621 179.563L200.069 179.915Z" fill="#C3CDCF"/>
<path d="M175.836 189.257C175.125 188.014 173.837 187.332 172.357 187.332C170.284 187.332 168.699 188.65 168.699 190.471C168.699 192.278 170.002 192.914 171.468 193.581C172.934 194.217 173.763 194.41 173.763 195.209C173.763 195.787 173.156 196.187 172.268 196.187C171.276 196.187 170.491 195.594 170.032 194.81L168.389 196.127C169.173 197.504 170.654 198.259 172.253 198.259C174.622 198.259 176.043 196.794 176.043 195.135C176.043 193.27 174.711 192.618 172.993 191.878C171.883 191.404 170.965 191.108 170.965 190.412C170.965 189.761 171.572 189.391 172.327 189.391C173.082 189.391 173.704 189.761 174.163 190.516L175.836 189.257ZM183.05 195.313C182.591 195.89 182.073 196.246 181.348 196.246C180.267 196.246 179.512 195.431 179.512 194.262C179.512 193.136 180.267 192.293 181.318 192.293C182.044 192.293 182.577 192.663 182.976 193.329L184.472 192.011C183.717 190.871 182.651 190.294 181.274 190.294C178.949 190.294 177.232 192.011 177.232 194.262C177.232 196.497 178.934 198.245 181.289 198.245C182.651 198.245 183.791 197.623 184.487 196.616L183.05 195.313ZM189.939 193.344L187.866 193.744C186.267 194.084 185.393 194.854 185.393 195.979C185.393 197.297 186.43 198.245 187.91 198.245C188.917 198.245 189.657 197.8 190.013 197.134V198.067H192.1V193.285C192.1 191.434 190.842 190.294 188.725 190.294C187.303 190.294 186.163 190.886 185.467 191.73L186.637 193.151C187.096 192.633 187.747 192.233 188.591 192.233C189.361 192.233 189.939 192.529 189.939 193.285V193.344ZM188.414 196.571C187.881 196.571 187.54 196.275 187.54 195.846C187.54 195.431 187.836 195.165 188.443 195.061L189.953 194.765V194.987C189.953 195.89 189.346 196.571 188.414 196.571ZM194.203 195.905C194.203 197.504 195.136 198.245 196.558 198.245C197.017 198.245 197.327 198.171 197.609 198.052V196.201C197.416 196.275 197.239 196.29 197.105 196.29C196.528 196.29 196.454 195.905 196.454 195.491V187.51H194.203V195.905ZM202.359 190.294C200.108 190.294 198.45 192.041 198.45 194.277C198.45 196.527 200.108 198.245 202.655 198.245C203.898 198.245 204.905 197.889 205.868 197.001L204.683 195.55C204.283 195.964 203.632 196.335 202.788 196.335C201.781 196.335 200.893 195.831 200.774 194.81H205.838C205.897 194.558 205.971 194.158 205.971 193.803C205.971 191.745 204.535 190.294 202.359 190.294ZM202.329 192.13C203.114 192.13 203.736 192.618 203.78 193.403V193.418H200.745C200.848 192.589 201.5 192.13 202.329 192.13Z" fill="#F85454"/>
<defs>
<radialGradient id="paint0_radial_173_461" cx="0" cy="0" r="1" gradientUnits="userSpaceOnUse" gradientTransform="translate(194.335 187.5) rotate(90) scale(177.89)">
<stop stop-color="#194A55"/>
<stop offset="1" stop-color="#0C353E" stop-opacity="0"/>
</radialGradient>
<linearGradient id="paint1_linear_173_461" x1="245.686" y1="150.323" x2="245.686" y2="160.27" gradientUnits="userSpaceOnUse">
<stop stop-color="#557278"/>
<stop offset="1" stop-color="#557278" stop-opacity="0.5"/>
</linearGradient>
<linearGradient id="paint2_linear_173_461" x1="206.147" y1="263.716" x2="206.147" y2="273.663" gradientUnits="userSpaceOnUse">
<stop stop-color="#557278"/>
<stop offset="1" stop-color="#557278" stop-opacity="0.5"/>
</linearGradient>
<linearGradient id="paint3_linear_173_461" x1="141.319" y1="208.636" x2="141.319" y2="214.604" gradientUnits="userSpaceOnUse">
<stop stop-color="#557278"/>
<stop offset="0.65625" stop-color="#557278" stop-opacity="0.846354"/>
<stop offset="1" stop-color="#557278" stop-opacity="0.5"/>
</linearGradient>
</defs>
</svg>
