<svg width="660" height="1692" viewBox="0 0 660 1692" fill="none" xmlns="http://www.w3.org/2000/svg">
<g opacity="0.7">
<mask id="mask0_0_1" style="mask-type:alpha" maskUnits="userSpaceOnUse" x="0" y="0" width="660" height="660">
<rect width="660" height="660" fill="#0C353E"/>
</mask>
<g mask="url(#mask0_0_1)">
<rect width="660" height="660" fill="url(#paint0_radial_0_1)"/>
</g>
<circle opacity="0.5" cx="329.999" cy="329.999" r="90.0961" stroke="white" stroke-width="2"/>
<circle opacity="0.3" cx="330" cy="329.999" r="118.675" stroke="white" stroke-width="2"/>
<circle opacity="0.1" cx="330" cy="329.999" r="147.254" stroke="white" stroke-width="2"/>
<circle opacity="0.05" cx="330" cy="329.999" r="175.834" stroke="white" stroke-width="2"/>
<circle opacity="0.05" cx="330" cy="329.999" r="204.413" stroke="white" stroke-width="2"/>
<circle opacity="0.04" cx="330" cy="329.999" r="247.281" stroke="white" stroke-width="2"/>
<circle opacity="0.04" cx="330" cy="329.999" r="304.44" stroke="white" stroke-width="2"/>
<circle cx="434.441" cy="273.83" r="8.7766" transform="rotate(66.545 434.441 273.83)" fill="url(#paint1_linear_0_1)" fill-opacity="0.5"/>
<circle cx="237.947" cy="479.876" r="8.7766" transform="rotate(-150.582 237.947 479.876)" fill="url(#paint2_linear_0_1)" fill-opacity="0.5"/>
<circle cx="530.107" cy="373.883" r="5.26596" transform="rotate(106.431 530.107 373.883)" fill="url(#paint3_linear_0_1)" fill-opacity="0.5"/>
</g>
<path d="M299.89 320H301.132V315.05H304.264C306.352 315.05 308.116 313.376 308.116 311.198C308.116 309.02 306.352 307.346 304.246 307.346H299.89V320ZM301.132 313.934V308.498H304.102C305.56 308.498 306.838 309.686 306.838 311.18C306.838 312.764 305.56 313.934 304.102 313.934H301.132ZM311.852 320V315.176C311.852 313.448 312.932 311.864 314.786 311.864C316.208 311.864 317.252 312.854 317.252 314.474V320H318.458V314.42C318.458 312.188 316.982 310.73 315.02 310.73C313.526 310.73 312.446 311.45 311.852 312.566V307.346H310.646V320H311.852ZM321.039 317.696C321.039 319.172 322.281 320.216 323.919 320.216C325.359 320.216 326.511 319.514 327.159 318.38V320H328.311V314.114C328.311 312.008 326.925 310.73 324.765 310.73C323.127 310.73 322.011 311.486 321.291 312.314L321.975 313.124C322.533 312.458 323.487 311.846 324.675 311.846C326.223 311.846 327.105 312.674 327.105 314.078V314.402L323.883 315.05C322.065 315.41 321.039 316.328 321.039 317.696ZM322.245 317.642C322.245 316.778 322.839 316.274 324.099 316.022L327.141 315.428V316.184C327.141 317.696 325.827 319.136 324.081 319.136C323.037 319.136 322.245 318.524 322.245 317.642ZM330.744 318.398C331.032 318.974 332.202 320.216 334.182 320.216C336.036 320.216 337.368 319.136 337.368 317.678C337.368 316.094 336.072 315.5 334.38 314.924C333.048 314.492 332.238 314.096 332.238 313.25C332.238 312.332 333.102 311.828 334.164 311.828C335.406 311.828 336.108 312.782 336.306 313.106L337.206 312.404C336.918 311.9 335.946 310.73 334.182 310.73C332.4 310.73 331.014 311.792 331.014 313.286C331.014 314.816 332.274 315.464 333.894 315.986C335.334 316.454 336.162 316.814 336.162 317.696C336.162 318.56 335.298 319.1 334.182 319.1C332.724 319.1 331.878 318.092 331.626 317.696L330.744 318.398ZM339.418 315.482C339.418 318.146 341.434 320.216 344.152 320.216C345.61 320.216 346.834 319.694 347.788 318.596L347.05 317.768C346.348 318.578 345.34 319.082 344.188 319.082C342.334 319.082 340.822 317.75 340.696 315.698H348.022C348.076 315.392 348.094 315.104 348.094 314.816C348.094 312.53 346.438 310.73 343.99 310.73C341.344 310.73 339.418 312.818 339.418 315.482ZM343.972 311.846C345.538 311.846 346.834 312.908 346.888 314.618V314.69H340.732C340.966 313.016 342.298 311.846 343.972 311.846ZM358.33 309.2V318.902H355.306V320H362.506V318.902H359.554V307.346H358.456C357.79 308.642 356.476 309.128 355.108 309.2V310.334C356.35 310.316 357.502 309.902 358.33 309.2Z" fill="#C3CDCF"/>
<path d="M282.324 352H294.7V348.22H286.636V332.036H282.324V352ZM296.246 348.052C296.246 350.544 298.234 352.336 301.006 352.336C302.91 352.336 304.31 351.496 304.982 350.236V352H308.93V342.956C308.93 339.456 306.522 337.3 302.546 337.3C299.858 337.3 297.674 338.42 296.386 340.016L298.598 342.704C299.438 341.752 300.698 340.968 302.294 340.968C303.75 340.968 304.842 341.556 304.842 342.956V343.068L300.922 343.824C297.898 344.44 296.246 345.924 296.246 348.052ZM300.306 347.8C300.306 346.988 300.922 346.512 302.014 346.316L304.87 345.756V346.176C304.87 347.884 303.694 349.172 301.958 349.172C300.95 349.172 300.306 348.612 300.306 347.8ZM318.423 352.336C320.327 352.336 321.755 351.636 322.679 350.152V352H326.767V337.636H322.511V345.112C322.511 346.988 321.531 348.584 319.683 348.584C318.115 348.584 317.107 347.576 317.107 345.728V337.636H312.851V346.372C312.851 350.096 315.007 352.336 318.423 352.336ZM331.19 352H335.446V344.524C335.446 342.648 336.426 341.052 338.274 341.052C339.842 341.052 340.85 342.06 340.85 343.908V352H345.106V343.264C345.106 339.54 342.95 337.3 339.534 337.3C337.63 337.3 336.202 338 335.278 339.484V337.636H331.19V352ZM348.185 344.804C348.185 349.032 351.405 352.336 355.857 352.336C358.433 352.336 360.589 351.132 361.905 349.256L359.189 346.792C358.349 347.856 357.341 348.556 355.969 348.556C353.925 348.556 352.497 346.988 352.497 344.804C352.497 342.676 353.925 341.08 355.913 341.08C357.285 341.08 358.321 341.78 359.049 343.04L361.877 340.548C360.477 338.42 358.461 337.3 355.829 337.3C351.405 337.3 348.185 340.576 348.185 344.804ZM369.023 352V344.44C369.023 342.564 370.003 341.052 371.851 341.052C373.419 341.052 374.427 342.06 374.427 343.908V352H378.683V343.264C378.683 339.54 376.499 337.3 373.111 337.3C371.319 337.3 369.947 337.972 369.023 339.204V332.036H364.767V352H369.023Z" fill="#F85454"/>
<g opacity="0.7">
<mask id="mask1_0_1" style="mask-type:alpha" maskUnits="userSpaceOnUse" x="0" y="516" width="660" height="660">
<rect y="516" width="660" height="660" fill="#0C353E"/>
</mask>
<g mask="url(#mask1_0_1)">
<rect y="516" width="660" height="660" fill="url(#paint4_radial_0_1)"/>
</g>
<circle opacity="0.5" cx="329.999" cy="845.999" r="90.0961" stroke="white" stroke-width="2"/>
<circle opacity="0.3" cx="329.999" cy="845.999" r="118.675" stroke="white" stroke-width="2"/>
<circle opacity="0.1" cx="329.999" cy="845.999" r="147.254" stroke="white" stroke-width="2"/>
<circle opacity="0.05" cx="329.999" cy="845.999" r="175.834" stroke="white" stroke-width="2"/>
<circle opacity="0.05" cx="329.999" cy="846" r="204.413" stroke="white" stroke-width="2"/>
<circle opacity="0.04" cx="329.999" cy="846" r="247.281" stroke="white" stroke-width="2"/>
<circle opacity="0.04" cx="329.999" cy="845.999" r="304.44" stroke="white" stroke-width="2"/>
<circle cx="434.442" cy="789.83" r="8.7766" transform="rotate(55.7346 434.442 789.83)" fill="url(#paint5_linear_0_1)" fill-opacity="0.5"/>
<circle cx="364.667" cy="989.936" r="8.7766" transform="rotate(146.005 364.667 989.936)" fill="url(#paint6_linear_0_1)" fill-opacity="0.5"/>
<circle cx="530.106" cy="889.883" r="5.26596" transform="rotate(108.967 530.106 889.883)" fill="url(#paint7_linear_0_1)" fill-opacity="0.5"/>
</g>
<path d="M298.39 836H299.632V831.05H302.764C304.852 831.05 306.616 829.376 306.616 827.198C306.616 825.02 304.852 823.346 302.746 823.346H298.39V836ZM299.632 829.934V824.498H302.602C304.06 824.498 305.338 825.686 305.338 827.18C305.338 828.764 304.06 829.934 302.602 829.934H299.632ZM310.352 836V831.176C310.352 829.448 311.432 827.864 313.286 827.864C314.708 827.864 315.752 828.854 315.752 830.474V836H316.958V830.42C316.958 828.188 315.482 826.73 313.52 826.73C312.026 826.73 310.946 827.45 310.352 828.566V823.346H309.146V836H310.352ZM319.539 833.696C319.539 835.172 320.781 836.216 322.419 836.216C323.859 836.216 325.011 835.514 325.659 834.38V836H326.811V830.114C326.811 828.008 325.425 826.73 323.265 826.73C321.627 826.73 320.511 827.486 319.791 828.314L320.475 829.124C321.033 828.458 321.987 827.846 323.175 827.846C324.723 827.846 325.605 828.674 325.605 830.078V830.402L322.383 831.05C320.565 831.41 319.539 832.328 319.539 833.696ZM320.745 833.642C320.745 832.778 321.339 832.274 322.599 832.022L325.641 831.428V832.184C325.641 833.696 324.327 835.136 322.581 835.136C321.537 835.136 320.745 834.524 320.745 833.642ZM329.244 834.398C329.532 834.974 330.702 836.216 332.682 836.216C334.536 836.216 335.868 835.136 335.868 833.678C335.868 832.094 334.572 831.5 332.88 830.924C331.548 830.492 330.738 830.096 330.738 829.25C330.738 828.332 331.602 827.828 332.664 827.828C333.906 827.828 334.608 828.782 334.806 829.106L335.706 828.404C335.418 827.9 334.446 826.73 332.682 826.73C330.9 826.73 329.514 827.792 329.514 829.286C329.514 830.816 330.774 831.464 332.394 831.986C333.834 832.454 334.662 832.814 334.662 833.696C334.662 834.56 333.798 835.1 332.682 835.1C331.224 835.1 330.378 834.092 330.126 833.696L329.244 834.398ZM337.918 831.482C337.918 834.146 339.934 836.216 342.652 836.216C344.11 836.216 345.334 835.694 346.288 834.596L345.55 833.768C344.848 834.578 343.84 835.082 342.688 835.082C340.834 835.082 339.322 833.75 339.196 831.698H346.522C346.576 831.392 346.594 831.104 346.594 830.816C346.594 828.53 344.938 826.73 342.49 826.73C339.844 826.73 337.918 828.818 337.918 831.482ZM342.472 827.846C344.038 827.846 345.334 828.908 345.388 830.618V830.69H339.232C339.466 829.016 340.798 827.846 342.472 827.846ZM353.572 835.19C353.572 835.46 353.608 835.73 353.644 836H361.582V834.902H354.886C354.904 831.518 361.474 830.924 361.474 826.676C361.474 824.696 359.998 823.13 357.586 823.13C355.894 823.13 354.418 823.976 353.644 825.524L354.67 826.154C355.246 824.948 356.272 824.318 357.55 824.318C359.134 824.318 360.178 825.344 360.178 826.73C360.178 830.168 353.572 830.744 353.572 835.19Z" fill="#C3CDCF"/>
<path d="M293.952 858.004C293.952 863.772 298.292 868.336 304.34 868.336C308.484 868.336 311.452 866.208 313.16 863.576V856.94H304.872V860.468H309.128V861.952C308.008 863.408 306.552 864.22 304.284 864.22C300.84 864.22 298.404 861.504 298.404 858.004C298.404 854.504 300.868 851.816 304.424 851.816C306.832 851.816 308.624 853.16 309.688 854.672L312.852 852.012C311.2 849.576 308.456 847.7 304.48 847.7C298.32 847.7 293.952 852.236 293.952 858.004ZM316.765 853.636V868H321.049V862.204C321.049 859.236 322.533 857.332 324.997 857.332C325.389 857.332 325.753 857.388 325.949 857.472V853.412C325.725 853.356 325.389 853.3 325.053 853.3C323.177 853.3 321.721 854.392 320.993 856.128V853.636H316.765ZM334.844 868.336C339.324 868.336 342.544 865.032 342.544 860.804C342.544 856.576 339.324 853.3 334.844 853.3C330.364 853.3 327.144 856.576 327.144 860.804C327.144 865.032 330.364 868.336 334.844 868.336ZM331.456 860.804C331.456 858.564 332.912 857.08 334.844 857.08C336.776 857.08 338.232 858.564 338.232 860.804C338.232 863.044 336.776 864.556 334.844 864.556C332.912 864.556 331.456 863.044 331.456 860.804ZM348.685 868H352.549L355.293 859.516L358.037 868H361.901L366.661 853.636H362.517L359.857 862.988L356.889 853.636H353.697L350.729 862.988L348.069 853.636H343.925L348.685 868Z" fill="#F85454"/>
<g opacity="0.7">
<mask id="mask2_0_1" style="mask-type:alpha" maskUnits="userSpaceOnUse" x="0" y="1032" width="660" height="660">
<rect y="1032" width="660" height="660" fill="#0C353E"/>
</mask>
<g mask="url(#mask2_0_1)">
<rect y="1032" width="660" height="660" fill="url(#paint8_radial_0_1)"/>
</g>
<circle opacity="0.5" cx="328.68" cy="1361.34" r="90.0961" stroke="white" stroke-width="2"/>
<circle opacity="0.3" cx="328.68" cy="1361.34" r="118.675" stroke="white" stroke-width="2"/>
<circle opacity="0.1" cx="328.68" cy="1361.34" r="147.254" stroke="white" stroke-width="2"/>
<circle opacity="0.05" cx="328.679" cy="1361.34" r="175.834" stroke="white" stroke-width="2"/>
<circle opacity="0.05" cx="328.679" cy="1361.34" r="204.413" stroke="white" stroke-width="2"/>
<circle opacity="0.04" cx="328.68" cy="1361.34" r="247.281" stroke="white" stroke-width="2"/>
<circle opacity="0.04" cx="328.68" cy="1361.34" r="304.44" stroke="white" stroke-width="2"/>
<circle cx="433.121" cy="1305.17" r="8.7766" transform="rotate(38.9566 433.121 1305.17)" fill="url(#paint9_linear_0_1)" fill-opacity="0.5"/>
<circle cx="363.347" cy="1505.28" r="8.7766" transform="rotate(162.142 363.347 1505.28)" fill="url(#paint10_linear_0_1)" fill-opacity="0.5"/>
<circle cx="248.946" cy="1404.56" r="5.26596" transform="rotate(-122.204 248.946 1404.56)" fill="url(#paint11_linear_0_1)"/>
</g>
<path d="M298.89 1352H300.132V1347.05H303.264C305.352 1347.05 307.116 1345.38 307.116 1343.2C307.116 1341.02 305.352 1339.35 303.246 1339.35H298.89V1352ZM300.132 1345.93V1340.5H303.102C304.56 1340.5 305.838 1341.69 305.838 1343.18C305.838 1344.76 304.56 1345.93 303.102 1345.93H300.132ZM310.852 1352V1347.18C310.852 1345.45 311.932 1343.86 313.786 1343.86C315.208 1343.86 316.252 1344.85 316.252 1346.47V1352H317.458V1346.42C317.458 1344.19 315.982 1342.73 314.02 1342.73C312.526 1342.73 311.446 1343.45 310.852 1344.57V1339.35H309.646V1352H310.852ZM320.039 1349.7C320.039 1351.17 321.281 1352.22 322.919 1352.22C324.359 1352.22 325.511 1351.51 326.159 1350.38V1352H327.311V1346.11C327.311 1344.01 325.925 1342.73 323.765 1342.73C322.127 1342.73 321.011 1343.49 320.291 1344.31L320.975 1345.12C321.533 1344.46 322.487 1343.85 323.675 1343.85C325.223 1343.85 326.105 1344.67 326.105 1346.08V1346.4L322.883 1347.05C321.065 1347.41 320.039 1348.33 320.039 1349.7ZM321.245 1349.64C321.245 1348.78 321.839 1348.27 323.099 1348.02L326.141 1347.43V1348.18C326.141 1349.7 324.827 1351.14 323.081 1351.14C322.037 1351.14 321.245 1350.52 321.245 1349.64ZM329.744 1350.4C330.032 1350.97 331.202 1352.22 333.182 1352.22C335.036 1352.22 336.368 1351.14 336.368 1349.68C336.368 1348.09 335.072 1347.5 333.38 1346.92C332.048 1346.49 331.238 1346.1 331.238 1345.25C331.238 1344.33 332.102 1343.83 333.164 1343.83C334.406 1343.83 335.108 1344.78 335.306 1345.11L336.206 1344.4C335.918 1343.9 334.946 1342.73 333.182 1342.73C331.4 1342.73 330.014 1343.79 330.014 1345.29C330.014 1346.82 331.274 1347.46 332.894 1347.99C334.334 1348.45 335.162 1348.81 335.162 1349.7C335.162 1350.56 334.298 1351.1 333.182 1351.1C331.724 1351.1 330.878 1350.09 330.626 1349.7L329.744 1350.4ZM338.418 1347.48C338.418 1350.15 340.434 1352.22 343.152 1352.22C344.61 1352.22 345.834 1351.69 346.788 1350.6L346.05 1349.77C345.348 1350.58 344.34 1351.08 343.188 1351.08C341.334 1351.08 339.822 1349.75 339.696 1347.7H347.022C347.076 1347.39 347.094 1347.1 347.094 1346.82C347.094 1344.53 345.438 1342.73 342.99 1342.73C340.344 1342.73 338.418 1344.82 338.418 1347.48ZM342.972 1343.85C344.538 1343.85 345.834 1344.91 345.888 1346.62V1346.69H339.732C339.966 1345.02 341.298 1343.85 342.972 1343.85ZM353.802 1349.82C354.558 1351.35 355.98 1352.22 357.726 1352.22C360.192 1352.22 361.974 1350.54 361.974 1348.31C361.974 1346.22 360.444 1344.57 358.104 1344.49L361.686 1340.19V1339.35H354.36V1340.44H360.066L356.412 1344.82V1345.59C356.7 1345.54 357.078 1345.52 357.42 1345.52C359.49 1345.52 360.696 1346.65 360.696 1348.35C360.696 1350 359.31 1351.03 357.762 1351.03C356.556 1351.03 355.404 1350.4 354.846 1349.16L353.802 1349.82Z" fill="#C3CDCF"/>
<path d="M294.672 1380.33C296.128 1382.94 299.012 1384.36 301.98 1384.36C306.488 1384.36 309.148 1381.59 309.148 1378.46C309.148 1374.93 306.628 1373.7 303.38 1372.3C301.28 1371.37 299.544 1370.87 299.544 1369.52C299.544 1368.29 300.72 1367.59 302.12 1367.59C303.52 1367.59 304.724 1368.32 305.592 1369.72L308.756 1367.34C307.412 1364.99 304.976 1363.7 302.176 1363.7C298.228 1363.7 295.26 1366.19 295.26 1369.64C295.26 1373.02 297.724 1374.28 300.496 1375.52C303.268 1376.75 304.836 1377.06 304.836 1378.6C304.836 1379.66 303.688 1380.44 302.008 1380.44C300.16 1380.44 298.648 1379.32 297.78 1377.84L294.672 1380.33ZM311.395 1376.8C311.395 1381.03 314.615 1384.34 319.067 1384.34C321.643 1384.34 323.799 1383.13 325.115 1381.26L322.399 1378.79C321.559 1379.86 320.551 1380.56 319.179 1380.56C317.135 1380.56 315.707 1378.99 315.707 1376.8C315.707 1374.68 317.135 1373.08 319.123 1373.08C320.495 1373.08 321.531 1373.78 322.259 1375.04L325.087 1372.55C323.687 1370.42 321.671 1369.3 319.039 1369.3C314.615 1369.3 311.395 1372.58 311.395 1376.8ZM326.83 1380.05C326.83 1382.54 328.818 1384.34 331.59 1384.34C333.494 1384.34 334.894 1383.5 335.566 1382.24V1384H339.514V1374.96C339.514 1371.46 337.106 1369.3 333.13 1369.3C330.442 1369.3 328.258 1370.42 326.97 1372.02L329.182 1374.7C330.022 1373.75 331.282 1372.97 332.878 1372.97C334.334 1372.97 335.426 1373.56 335.426 1374.96V1375.07L331.506 1375.82C328.482 1376.44 326.83 1377.92 326.83 1380.05ZM330.89 1379.8C330.89 1378.99 331.506 1378.51 332.598 1378.32L335.454 1377.76V1378.18C335.454 1379.88 334.278 1381.17 332.542 1381.17C331.534 1381.17 330.89 1380.61 330.89 1379.8ZM343.491 1364.04V1379.91C343.491 1382.91 345.283 1384.34 347.943 1384.34C348.783 1384.34 349.427 1384.2 349.931 1383.97V1380.47C349.567 1380.61 349.231 1380.64 348.979 1380.64C347.887 1380.64 347.747 1379.91 347.747 1379.13V1364.04H343.491ZM351.521 1376.83C351.521 1381.06 354.657 1384.34 359.473 1384.34C361.825 1384.34 363.729 1383.66 365.549 1381.98L363.309 1379.24C362.553 1380.02 361.321 1380.72 359.725 1380.72C357.849 1380.72 356.141 1379.77 355.917 1377.84H365.493C365.605 1377.36 365.745 1376.61 365.745 1375.94C365.745 1372.07 363.001 1369.3 358.913 1369.3C354.657 1369.3 351.521 1372.6 351.521 1376.83ZM358.857 1372.77C360.341 1372.77 361.517 1373.7 361.601 1375.18V1375.21H355.861C356.057 1373.67 357.317 1372.77 358.857 1372.77Z" fill="#F85454"/>
<line x1="331" y1="420" x2="331" y2="756" stroke="#61797E" stroke-width="2"/>
<line x1="331" y1="936" x2="331" y2="1272" stroke="#61797E" stroke-width="2"/>
<defs>
<radialGradient id="paint0_radial_0_1" cx="0" cy="0" r="1" gradientUnits="userSpaceOnUse" gradientTransform="translate(342.503 330) rotate(90) scale(313.924)">
<stop stop-color="#194A55"/>
<stop offset="1" stop-color="#0C353E" stop-opacity="0"/>
</radialGradient>
<linearGradient id="paint1_linear_0_1" x1="434.441" y1="265.053" x2="434.441" y2="282.606" gradientUnits="userSpaceOnUse">
<stop stop-color="#557278"/>
<stop offset="1" stop-color="#557278" stop-opacity="0.5"/>
</linearGradient>
<linearGradient id="paint2_linear_0_1" x1="237.947" y1="471.099" x2="237.947" y2="488.652" gradientUnits="userSpaceOnUse">
<stop stop-color="#557278"/>
<stop offset="1" stop-color="#557278" stop-opacity="0.5"/>
</linearGradient>
<linearGradient id="paint3_linear_0_1" x1="530.107" y1="368.617" x2="530.107" y2="379.149" gradientUnits="userSpaceOnUse">
<stop stop-color="#557278"/>
<stop offset="1" stop-color="#557278" stop-opacity="0.5"/>
</linearGradient>
<radialGradient id="paint4_radial_0_1" cx="0" cy="0" r="1" gradientUnits="userSpaceOnUse" gradientTransform="translate(342.503 846) rotate(90) scale(313.924)">
<stop stop-color="#194A55"/>
<stop offset="1" stop-color="#0C353E" stop-opacity="0"/>
</radialGradient>
<linearGradient id="paint5_linear_0_1" x1="434.442" y1="781.053" x2="434.442" y2="798.606" gradientUnits="userSpaceOnUse">
<stop stop-color="#557278"/>
<stop offset="1" stop-color="#557278" stop-opacity="0.5"/>
</linearGradient>
<linearGradient id="paint6_linear_0_1" x1="364.667" y1="981.159" x2="364.667" y2="998.712" gradientUnits="userSpaceOnUse">
<stop stop-color="#557278"/>
<stop offset="1" stop-color="#557278" stop-opacity="0.5"/>
</linearGradient>
<linearGradient id="paint7_linear_0_1" x1="530.106" y1="884.617" x2="530.106" y2="895.149" gradientUnits="userSpaceOnUse">
<stop stop-color="#557278"/>
<stop offset="1" stop-color="#557278" stop-opacity="0.5"/>
</linearGradient>
<radialGradient id="paint8_radial_0_1" cx="0" cy="0" r="1" gradientUnits="userSpaceOnUse" gradientTransform="translate(342.503 1362) rotate(90) scale(313.924)">
<stop stop-color="#194A55"/>
<stop offset="1" stop-color="#0C353E" stop-opacity="0"/>
</radialGradient>
<linearGradient id="paint9_linear_0_1" x1="433.121" y1="1296.39" x2="433.121" y2="1313.95" gradientUnits="userSpaceOnUse">
<stop stop-color="#557278"/>
<stop offset="1" stop-color="#557278" stop-opacity="0.5"/>
</linearGradient>
<linearGradient id="paint10_linear_0_1" x1="363.347" y1="1496.5" x2="363.347" y2="1514.05" gradientUnits="userSpaceOnUse">
<stop stop-color="#557278"/>
<stop offset="1" stop-color="#557278" stop-opacity="0.5"/>
</linearGradient>
<linearGradient id="paint11_linear_0_1" x1="248.946" y1="1399.3" x2="248.946" y2="1409.83" gradientUnits="userSpaceOnUse">
<stop stop-color="#557278"/>
<stop offset="0.65625" stop-color="#557278" stop-opacity="0.846354"/>
<stop offset="1" stop-color="#557278" stop-opacity="0.5"/>
</linearGradient>
</defs>
</svg>
