<svg width="374" height="374" viewBox="0 0 374 374" fill="none" xmlns="http://www.w3.org/2000/svg">
<g opacity="0.7">
<mask id="mask0_173_423" style="mask-type:alpha" maskUnits="userSpaceOnUse" x="0" y="0" width="375" height="374">
<rect x="0.25" width="374" height="374" fill="#0C353E"/>
</mask>
<g mask="url(#mask0_173_423)">
<rect x="0.25" width="374" height="374" fill="url(#paint0_radial_173_423)"/>
</g>
<circle opacity="0.5" cx="187.25" cy="187" r="51.0923" stroke="white" stroke-width="1.05758"/>
<circle opacity="0.3" cx="187.25" cy="187" r="67.2872" stroke="white" stroke-width="1.05758"/>
<circle opacity="0.1" cx="187.25" cy="187" r="83.482" stroke="white" stroke-width="1.05758"/>
<circle opacity="0.05" cx="187.25" cy="186.999" r="99.6769" stroke="white" stroke-width="1.05758"/>
<circle opacity="0.05" cx="187.25" cy="186.999" r="115.872" stroke="white" stroke-width="1.05758"/>
<circle opacity="0.04" cx="187.25" cy="186.999" r="140.164" stroke="white" stroke-width="1.05758"/>
<circle opacity="0.04" cx="187.25" cy="187" r="172.554" stroke="white" stroke-width="1.05758"/>
<circle cx="246.433" cy="155.17" r="4.9734" transform="rotate(66.545 246.433 155.17)" fill="url(#paint1_linear_173_423)" fill-opacity="0.5"/>
<circle cx="135.087" cy="271.93" r="4.9734" transform="rotate(-150.582 135.087 271.93)" fill="url(#paint2_linear_173_423)" fill-opacity="0.5"/>
<circle cx="300.643" cy="211.867" r="2.98404" transform="rotate(106.431 300.643 211.867)" fill="url(#paint3_linear_173_423)" fill-opacity="0.5"/>
</g>
<path d="M171.033 180.566H171.69V177.949H173.346C174.45 177.949 175.383 177.064 175.383 175.912C175.383 174.76 174.45 173.875 173.337 173.875H171.033V180.566ZM171.69 177.359V174.484H173.26C174.022 174.484 174.707 175.112 174.707 175.902C174.707 176.74 174.022 177.359 173.26 177.359H171.69ZM176.721 180.566H177.359V178.016C177.359 177.092 177.93 176.264 178.91 176.264C179.671 176.264 180.214 176.778 180.214 177.644V180.566H180.852V177.616C180.852 176.436 180.071 175.665 179.034 175.665C178.234 175.665 177.673 176.036 177.359 176.635V173.875H176.721V180.566ZM185.424 177.606L183.72 177.949C182.759 178.139 182.217 178.625 182.217 179.348C182.217 180.129 182.864 180.681 183.74 180.681C184.501 180.681 185.11 180.319 185.453 179.71V180.566H186.062V177.454C186.062 176.34 185.339 175.665 184.187 175.665C183.311 175.665 182.731 176.055 182.35 176.502L182.712 176.93C183.007 176.578 183.502 176.255 184.139 176.255C184.967 176.255 185.424 176.683 185.424 177.435V177.606ZM183.825 180.11C183.264 180.11 182.854 179.786 182.854 179.32C182.854 178.882 183.178 178.596 183.835 178.463L185.443 178.149V178.549C185.443 179.348 184.748 180.11 183.825 180.11ZM189.166 180.681C190.156 180.681 190.851 180.11 190.851 179.339C190.851 178.501 190.166 178.187 189.271 177.882C188.557 177.654 188.138 177.444 188.138 176.997C188.138 176.512 188.586 176.245 189.157 176.245C189.804 176.245 190.185 176.74 190.289 176.921L190.765 176.55C190.623 176.283 190.099 175.665 189.166 175.665C188.224 175.665 187.491 176.226 187.491 177.016C187.491 177.825 188.157 178.168 189.014 178.444C189.776 178.701 190.213 178.882 190.213 179.348C190.213 179.805 189.766 180.09 189.166 180.09C188.405 180.09 187.948 179.557 187.815 179.348L187.348 179.719C187.501 180.024 188.119 180.681 189.166 180.681ZM194.352 175.665C192.953 175.665 191.935 176.769 191.935 178.177C191.935 179.586 193.001 180.681 194.438 180.681C195.228 180.681 195.866 180.395 196.361 179.824L195.971 179.386C195.599 179.814 195.066 180.081 194.457 180.081C193.467 180.081 192.687 179.377 192.611 178.292H196.485C196.513 178.13 196.523 177.977 196.523 177.825C196.523 176.616 195.647 175.665 194.352 175.665ZM194.343 176.255C195.171 176.255 195.856 176.807 195.885 177.72V177.759H192.63C192.753 176.873 193.458 176.255 194.343 176.255ZM201.935 179.986H200.336V180.566H204.144V179.986H202.583V173.875H202.002C201.65 174.56 200.955 174.817 200.232 174.855V175.455C200.888 175.446 201.488 175.227 201.935 174.855V179.986Z" fill="#C3CDCF"/>
<path d="M161.763 197.566H168.307V195.568H164.043V187.01H161.763V197.566ZM173.67 192.843L171.597 193.243C169.998 193.584 169.125 194.353 169.125 195.479C169.125 196.796 170.161 197.744 171.642 197.744C172.648 197.744 173.389 197.3 173.744 196.634V197.566H175.832V192.784C175.832 190.933 174.573 189.793 172.456 189.793C171.035 189.793 169.894 190.385 169.199 191.229L170.368 192.651C170.827 192.133 171.479 191.733 172.323 191.733C173.093 191.733 173.67 192.029 173.67 192.784V192.843ZM172.145 196.071C171.612 196.071 171.271 195.775 171.271 195.345C171.271 194.931 171.568 194.664 172.175 194.561L173.685 194.265V194.487C173.685 195.39 173.078 196.071 172.145 196.071ZM177.905 189.971V194.59C177.905 196.56 179.03 197.744 180.852 197.744C181.873 197.744 182.613 197.359 183.102 196.589V197.566H185.264V189.971H183.013V193.924C183.013 194.916 182.51 195.76 181.518 195.76C180.689 195.76 180.156 195.242 180.156 194.25V189.971H177.905ZM187.602 189.971V197.566H189.853V193.613C189.853 192.621 190.371 191.777 191.348 191.777C192.177 191.777 192.711 192.295 192.711 193.287V197.566H194.961V192.947C194.961 190.978 193.836 189.793 192.015 189.793C190.993 189.793 190.253 190.178 189.764 190.948V189.971H187.602ZM202.408 194.812C201.949 195.39 201.431 195.745 200.705 195.745C199.624 195.745 198.869 194.931 198.869 193.761C198.869 192.636 199.624 191.792 200.675 191.792C201.401 191.792 201.934 192.162 202.334 192.828L203.829 191.511C203.074 190.371 202.008 189.793 200.631 189.793C198.306 189.793 196.589 191.511 196.589 193.761C196.589 195.997 198.292 197.744 200.646 197.744C202.008 197.744 203.148 197.122 203.844 196.115L202.408 194.812ZM205.358 197.566H207.608V193.569C207.608 192.562 208.111 191.777 209.103 191.777C209.933 191.777 210.466 192.295 210.466 193.287V197.566H212.716V192.947C212.716 190.978 211.561 189.793 209.77 189.793C208.837 189.793 208.111 190.134 207.608 190.8V187.01H205.358V197.566Z" fill="#F85454"/>
<defs>
<radialGradient id="paint0_radial_173_423" cx="0" cy="0" r="1" gradientUnits="userSpaceOnUse" gradientTransform="translate(194.335 187) rotate(90) scale(177.89)">
<stop stop-color="#194A55"/>
<stop offset="1" stop-color="#0C353E" stop-opacity="0"/>
</radialGradient>
<linearGradient id="paint1_linear_173_423" x1="246.433" y1="150.197" x2="246.433" y2="160.143" gradientUnits="userSpaceOnUse">
<stop stop-color="#557278"/>
<stop offset="1" stop-color="#557278" stop-opacity="0.5"/>
</linearGradient>
<linearGradient id="paint2_linear_173_423" x1="135.087" y1="266.957" x2="135.087" y2="276.904" gradientUnits="userSpaceOnUse">
<stop stop-color="#557278"/>
<stop offset="1" stop-color="#557278" stop-opacity="0.5"/>
</linearGradient>
<linearGradient id="paint3_linear_173_423" x1="300.643" y1="208.883" x2="300.643" y2="214.851" gradientUnits="userSpaceOnUse">
<stop stop-color="#557278"/>
<stop offset="1" stop-color="#557278" stop-opacity="0.5"/>
</linearGradient>
</defs>
</svg>
