<svg width="16" height="16" viewBox="0 0 16 16" fill="none" xmlns="http://www.w3.org/2000/svg">
<path fill-rule="evenodd" clip-rule="evenodd" d="M11.2037 7.38275V9.75394L14.9366 6.02097L11.1618 2.24613V4.61731H8.27225C4.15418 4.61731 2.06883 5.79568 1.31756 7.65303C1.05667 8.31551 0.9 9.20105 0.9 10.2932C0.9 10.6817 0.975565 11.1687 1.14018 11.7611C1.1561 11.668 1.17394 11.5758 1.19384 11.4842C1.31443 10.9295 1.48761 10.4533 1.71768 10.0187C1.95536 9.56977 2.25479 9.18564 2.63942 8.85597C2.98676 8.55825 3.36215 8.30749 3.76505 8.10604C4.19266 7.89224 4.6756 7.74397 5.20025 7.64858C5.687 7.56008 6.17426 7.49362 6.66197 7.44928C7.15581 7.40439 7.70735 7.38275 8.31413 7.38275H11.2037ZM1.9454 13.9308C1.94573 13.9378 1.94607 13.9447 1.94641 13.9517C1.95077 14.0408 1.95557 14.1319 1.96054 14.2252C1.96111 14.236 1.96168 14.2468 1.96225 14.2576C1.96275 14.2669 1.96325 14.2762 1.96374 14.2855C1.96425 14.2951 1.96476 14.3046 1.96526 14.3142C1.96637 14.335 1.96748 14.3559 1.96859 14.377C1.96859 14.4021 1.96859 14.4348 1.9731 14.4794C1.97612 14.5093 1.98114 14.5445 1.98953 14.5864C1.99253 14.6014 1.9951 14.616 1.99731 14.6301C1.99906 14.6413 2.00058 14.6522 2.0019 14.6628C2.01047 14.7315 2.01047 14.7856 2.01047 14.8168C2.01047 14.9005 1.98953 14.9843 1.9267 15.0472C1.88481 15.11 1.80104 15.1309 1.71727 15.1309C1.61256 15.1309 1.5288 15.089 1.46597 14.9843L1.34031 14.7958C1.32834 14.7719 1.31634 14.7479 1.30436 14.7235C1.28388 14.6817 1.2634 14.6384 1.24292 14.5913C1.2335 14.5696 1.22408 14.5471 1.21466 14.5236C1.21278 14.5189 1.2109 14.5143 1.20903 14.5098L1.20761 14.5064L1.20682 14.5045C1.19349 14.4727 1.18043 14.445 1.169 14.4208L1.16822 14.4191C1.16095 14.4037 1.15437 14.3897 1.14882 14.377C1.1378 14.3517 1.13089 14.3312 1.13089 14.3142C1.1051 14.2561 1.07975 14.1985 1.05484 14.1413C0.351612 12.5265 0 11.2438 0 10.2932C0 9.12045 0.167537 8.11521 0.481673 7.3194C1.44502 4.93197 4.04188 3.71731 8.27225 3.71731H10.2618V1.43459C10.2618 1.28799 10.3246 1.14139 10.4293 1.03668C10.534 0.931968 10.6806 0.869141 10.8272 0.869141C10.9738 0.869141 11.1204 0.931968 11.2251 1.03668L15.7906 5.60213C15.9581 5.70684 16 5.83249 16 6.00003C16 6.14663 15.9372 6.29322 15.8325 6.39794L11.267 10.9634C11.1623 11.0681 11.0157 11.1309 10.8691 11.1309C10.7225 11.1309 10.5759 11.0681 10.4712 10.9634C10.3665 10.8587 10.3037 10.7121 10.3037 10.5655V8.28275H8.31413C7.72775 8.28275 7.20419 8.3037 6.74345 8.34558C6.28272 8.38747 5.82198 8.45029 5.36125 8.53406C4.90052 8.61783 4.50262 8.74349 4.16754 8.91103C3.83246 9.07856 3.51832 9.28799 3.22513 9.5393C2.93194 9.79061 2.70157 10.0838 2.51309 10.4398C2.32461 10.7958 2.17801 11.1938 2.0733 11.6754C1.96859 12.1571 1.9267 12.6807 1.9267 13.288C1.9267 13.4928 1.93453 13.7055 1.9454 13.9308ZM10.5887 1.67308V1.67308Z" fill="white"/>
</svg>
