<svg width="25" height="24" viewBox="0 0 25 24" fill="none" xmlns="http://www.w3.org/2000/svg">
<g clip-path="url(#clip0_5010_5457)">
<path d="M9.61904 0.35007L9.88754 1.44057C8.82559 1.70287 7.8092 2.12359 6.87254 2.68857L6.29804 1.72407C7.32828 1.10003 8.44914 0.636702 9.61904 0.35007ZM15.379 0.35007L15.112 1.43907C16.174 1.70139 17.1904 2.12211 18.127 2.68707L18.709 1.72257C17.6749 1.09926 16.5521 0.636491 15.379 0.35007ZM2.22404 5.79507C1.60063 6.8267 1.13736 7.94695 0.850041 9.11757L1.94054 9.38757C2.20284 8.32562 2.62356 7.30923 3.18854 6.37257L2.22404 5.79357V5.79507ZM1.62404 11.9991C1.62393 11.4538 1.66454 10.9093 1.74554 10.3701L0.635541 10.1991C0.45482 11.3913 0.45482 12.6039 0.635541 13.7961L1.74554 13.6281C1.66433 13.0889 1.62371 12.5443 1.62404 11.9991ZM18.7 22.2711L18.124 21.3111C17.189 21.8758 16.1741 22.2961 15.1135 22.5576L15.3835 23.6496C16.5522 23.3598 17.6703 22.8951 18.7 22.2711ZM23.3755 11.9991C23.3755 12.5451 23.3335 13.0896 23.2525 13.6281L24.3625 13.7961C24.544 12.6039 24.544 11.3912 24.3625 10.1991L23.2525 10.3701C23.3335 10.9101 23.3755 11.4531 23.3755 11.9991ZM24.1495 14.8761L23.0575 14.6061C22.7958 15.6691 22.375 16.6866 21.8095 17.6241L22.774 18.2046C23.3988 17.1713 23.8626 16.0489 24.1495 14.8761ZM14.1295 22.7511C13.0495 22.9161 11.95 22.9161 10.87 22.7511L10.702 23.8641C11.8932 24.0447 13.1048 24.0447 14.296 23.8641L14.128 22.7526L14.1295 22.7511ZM21.2545 18.4491C20.6063 19.3278 19.829 20.1035 18.949 20.7501L19.618 21.6576C20.5867 20.9441 21.4436 20.0902 22.1605 19.1241L21.2545 18.4491ZM18.949 3.24357C19.8295 3.89157 20.6065 4.66857 21.2545 5.54907L22.1605 4.87407C21.4463 3.90725 20.5919 3.05235 19.6255 2.33757L18.949 3.24357ZM3.74354 5.54907C4.39168 4.66896 5.16893 3.89171 6.04904 3.24357L5.37404 2.33757C4.40722 3.05178 3.55232 3.90618 2.83754 4.87257L3.74354 5.54757V5.54907ZM22.7755 5.79357L21.8095 6.37407C22.375 7.30857 22.7965 8.32407 23.0575 9.38457L24.1495 9.11457C23.8624 7.94438 23.3991 6.8246 22.7755 5.79357ZM10.8685 1.24557C11.9484 1.08206 13.0467 1.08206 14.1265 1.24557L14.2945 0.13557C13.1034 -0.0451901 11.8917 -0.0451901 10.7005 0.13557L10.8685 1.24557ZM4.31954 21.9591L1.99904 22.4991L2.53904 20.1756L1.44554 19.9206L0.904041 22.2426C0.860291 22.4288 0.864771 22.6232 0.917059 22.8072C0.969347 22.9913 1.06771 23.159 1.20286 23.2944C1.338 23.4299 1.50546 23.5286 1.6894 23.5813C1.87334 23.634 2.06768 23.6389 2.25404 23.5956L4.57604 23.0601L4.32104 21.9591H4.31954ZM1.67804 18.9171L2.77604 19.1691L3.15104 17.5596C2.60297 16.6416 2.1945 15.6472 1.93904 14.6091L0.848541 14.8791C1.09332 15.8733 1.46433 16.8321 1.95254 17.7321L1.67804 18.9171ZM6.92804 21.3516L5.31854 21.7266L5.57354 22.8231L6.75854 22.5471C7.65854 23.0376 8.61704 23.4081 9.61154 23.6526L9.88154 22.5606C8.8458 22.3028 7.85401 21.8928 6.93854 21.3441L6.92804 21.3516ZM12.499 2.24907C9.91342 2.25066 7.43425 3.27891 5.60651 5.10778C3.77876 6.93665 2.75204 9.41645 2.75204 12.0021C2.75501 13.8358 3.27377 15.6317 4.24904 17.1846L3.31154 21.1866L7.30904 20.2491C9.49557 21.5614 12.1091 21.9651 14.5897 21.3738C17.0703 20.7824 19.2207 19.243 20.58 17.0853C21.9393 14.9277 22.3995 12.3235 21.8619 9.83067C21.3243 7.33785 19.8318 5.15473 17.704 3.74907C16.145 2.76868 14.3407 2.24871 12.499 2.24907Z" fill="white"/>
</g>
<defs>
<clipPath id="clip0_5010_5457">
<rect width="24" height="24" fill="white" transform="translate(0.5)"/>
</clipPath>
</defs>
</svg>
