<svg width="24" height="24" viewBox="0 0 24 24" fill="none" xmlns="http://www.w3.org/2000/svg">
<g clip-path="url(#clip0_2601_33462)">
<circle cx="12" cy="12" r="11" fill="white"/>
<path d="M23.2253 11.997C23.2332 11.7296 23.3037 7.908 21.042 5.42025C20.9415 5.19787 20.4649 4.30162 18.9267 3.20625C18.2447 2.67728 17.5204 2.20531 16.761 1.79512L16.758 1.79362C16.662 1.74225 14.7863 0.75 12.5097 0.75C12.3368 0.75 12.1658 0.760125 11.9967 0.77175V0.76875C10.2608 0.730875 8.53653 1.1775 7.4974 1.64662C6.57565 2.06287 5.55228 2.76075 5.4784 2.81475C4.2019 3.52875 1.78128 6.39412 1.58965 7.9125C0.81603 8.90137 0.16953 13.3432 1.59115 16.0489C2.5879 19.809 6.34015 21.6907 6.63865 21.8351C6.82015 21.951 8.86503 23.2151 11.3772 23.2151C11.4825 23.2151 12.1197 23.2504 12.3469 23.2504C15.0623 23.2504 19.086 21.3364 19.9283 19.8371C22.2424 18.1444 23.442 13.782 23.2253 11.997ZM6.65928 17.6456C5.5834 15.9052 4.97028 13.6312 4.83903 13.1089C5.17953 12.5985 6.85915 10.122 7.81615 9.37687C8.35803 9.47662 10.6208 9.89212 12.7549 10.2784C13.023 10.9732 14.1994 14.0392 14.5362 15.2227C14.1649 15.663 12.7065 17.361 11.2707 18.6907C9.74628 18.6979 7.15353 17.8185 6.65928 17.6456ZM20.184 5.4675C20.1795 5.63625 20.1394 6.23625 19.8522 6.92512C19.2818 6.63375 17.8482 6.00975 15.8832 5.90437C15.5858 5.46525 14.4668 3.93412 12.6994 2.87212C12.9413 2.39887 13.278 1.82175 13.4749 1.64587C13.5387 1.62787 13.6377 1.61137 13.7884 1.61137C14.736 1.61137 16.3733 2.232 16.5158 2.28712C16.6669 2.367 19.6099 3.95175 20.184 5.4675ZM4.4149 12.7545C3.13128 12.5355 2.36815 12.1365 2.14015 12.0015C1.66278 10.2701 2.04715 8.39887 2.1064 8.13075C2.5774 7.2885 3.9184 5.14162 4.80303 4.734C5.7199 4.54687 6.86328 4.77937 7.32903 4.893C7.28516 5.49862 7.20078 7.19062 7.45128 8.96625C6.43653 9.783 4.8304 12.1339 4.4149 12.7545M11.8819 1.32375C12.1699 1.34512 12.5925 1.40812 12.882 1.494C12.5933 1.878 12.2974 2.44725 12.1575 2.7285C11.5688 2.82487 9.33265 3.25237 7.5784 4.38975C7.22478 4.296 6.15678 4.04587 5.1454 4.13212C5.3959 3.64725 5.77015 3.28875 5.81028 3.252C5.9494 3.15225 8.62765 1.27837 11.8819 1.31887V1.32375M19.0429 15.6086C18.6042 15.5906 16.9137 15.4942 15.06 15.0589C14.7049 13.8206 13.5323 10.7674 13.2642 10.0729C14.1172 8.85691 14.9833 7.6501 15.8622 6.45262C17.9952 6.56962 19.4929 7.34775 19.7828 7.51012C21.0184 9.49725 21.2895 11.5267 21.3267 11.8657C20.6704 13.908 19.3725 15.2831 19.0429 15.6086M1.37065 10.6946C1.40215 11.1694 1.47828 11.6692 1.6159 12.1635C1.49218 12.4838 1.40634 12.8174 1.36015 13.1576C1.28184 12.3383 1.28535 11.5132 1.37065 10.6946M4.98715 19.4542C5.55265 18.9094 6.24978 18.3791 6.52015 18.1789C7.1314 18.3941 9.64165 19.2427 11.2418 19.2427C11.5144 19.6084 12.4058 20.7532 13.4985 21.6285C12.8183 22.2941 11.8358 22.6084 11.6622 22.6605C8.61453 22.7422 5.6464 21.0292 4.98715 19.4542M13.0358 22.656C13.3815 22.4546 13.7419 22.1895 14.04 21.8539C14.5264 21.7867 16.6137 21.4275 18.4999 20.0419C18.6244 20.0554 18.8295 20.0719 19.0587 20.0655C17.9269 21.1744 15.1654 22.413 13.0358 22.656ZM18.8198 19.515C19.4974 17.7495 19.4685 16.4182 19.4352 15.993C19.8072 15.6285 21.0837 14.2684 21.792 12.2006C22.1738 12.2644 22.422 12.3615 22.5398 12.4159C22.5807 12.5659 22.6489 12.9124 22.6103 13.4377C22.3215 15.3289 21.3248 18.1627 19.5788 19.4156C19.4033 19.5052 19.0943 19.5247 18.8198 19.515" fill="black"/>
</g>
<defs>
<clipPath id="clip0_2601_33462">
<rect width="24" height="24" fill="white"/>
</clipPath>
</defs>
</svg>
