<svg width="48" height="48" viewBox="0 0 48 48" fill="none" xmlns="http://www.w3.org/2000/svg">
<path fill-rule="evenodd" clip-rule="evenodd" d="M42.9163 29.0837C42.9163 25.9111 42.1089 22.7711 40.583 20.0023C40.3829 19.6399 39.9775 19.4392 39.5686 19.4988C39.1585 19.5591 38.8286 19.8679 38.7412 20.2733C38.5515 21.1554 38.2224 21.9928 37.7678 22.7609C37.1711 19.4916 35.4579 17.4229 33.8116 15.4349L33.8064 15.4286C31.8807 13.1035 30.0914 10.9393 30.0914 6.849C30.0914 4.99636 30.2922 3.09502 30.69 1.19771C30.7596 0.865002 30.6539 0.520345 30.4117 0.282774C30.1692 0.0462678 29.8215 -0.0510213 29.4909 0.0258196C20.5471 2.11501 13.9687 11.3727 13.3689 22.3373C13.1561 21.4588 13.0473 20.5506 13.0473 19.6257C13.0473 18.1675 13.3261 16.7321 13.8757 15.3611C14.0433 14.9438 13.9095 14.4654 13.5497 14.1957C13.1902 13.9263 12.694 13.9307 12.34 14.2096C7.73026 17.8274 5.08594 23.2489 5.08594 29.0837C5.08594 39.514 13.5714 48 24.0011 48C34.4308 48 42.9163 39.514 42.9163 29.0837ZM33.6962 15.5199C35.3712 17.5426 37.0924 19.6213 37.655 22.946C37.6669 23.0161 37.6782 23.0867 37.6891 23.1579C37.1651 19.7089 35.4065 17.5853 33.6962 15.5199ZM13.4763 23.2384C13.4303 23.098 13.3871 22.9566 13.3466 22.8145C13.0542 21.7884 12.9042 20.7184 12.9042 19.6257C12.9042 20.8699 13.0986 22.0843 13.4763 23.2384ZM15.324 26.918C15.2202 25.9335 15.1686 24.9433 15.1686 23.9759C15.1686 13.7511 20.6838 4.88208 28.477 2.23357C28.528 2.21625 28.579 2.19919 28.6302 2.18241C20.7561 4.7661 15.1686 13.6842 15.1686 23.9759C15.1686 24.9433 15.2202 25.9335 15.324 26.918ZM11.3536 17.6347C11.2957 17.6984 11.2382 17.7624 11.1813 17.8268C8.4513 20.9172 6.93037 24.8824 6.93037 29.0843C6.93037 24.7948 8.51528 20.7521 11.3536 17.6347ZM28.6631 32.1681C29.2383 33.561 29.9657 34.6723 30.6202 35.6723C31.5443 37.0842 32.3231 38.2741 32.3231 39.7212C32.3231 41.6284 31.726 43.3739 30.7449 44.7638C30.7967 44.6904 30.8477 44.6159 30.8974 44.5405C31.7875 43.1889 32.3231 41.5275 32.3231 39.7212C32.3231 38.2741 31.5443 37.0842 30.6202 35.6723C29.9657 34.6723 29.2383 33.561 28.6631 32.1681ZM39.7657 22.9334C39.7941 22.8744 39.8219 22.8151 39.8491 22.7556C39.3087 23.9368 38.5425 25.0113 37.5801 25.9272C38.4939 25.0575 39.2309 24.0447 39.7657 22.9334ZM14.8376 27.9332C15.2553 27.771 15.5139 27.3492 15.4663 26.903C15.3631 25.9235 15.3117 24.9383 15.3117 23.9759C15.3117 13.8264 20.7689 5.04719 28.4518 2.39353C28.2196 3.89049 28.1027 5.38351 28.1027 6.85014C28.1027 11.6602 30.2352 14.2348 32.2723 16.6941L32.2748 16.6972C34.2055 19.0284 36 21.1989 36 25.3114C36 25.7087 36.2368 26.0687 36.6027 26.2252C36.9671 26.3799 37.3905 26.3061 37.679 26.0308C38.5722 25.1808 39.2988 24.1956 39.8358 23.1157C40.554 25.0147 40.9275 27.0422 40.9275 29.0843C40.9286 35.8688 36.915 41.7326 31.1377 44.4306C31.9704 43.0915 32.4664 41.473 32.4664 39.7213C32.4664 38.4401 31.8762 37.3607 31.1341 36.2005C31.0062 36.0006 30.8737 35.7982 30.7385 35.5915L30.7382 35.591C30.084 34.5914 29.3651 33.4928 28.7955 32.1135C28.2928 30.8963 27.7555 29.3987 27.3434 28.2039C27.1374 27.6068 26.9629 27.086 26.8399 26.7144C26.7785 26.5287 26.7299 26.3802 26.6966 26.2783C26.6885 26.2532 26.6812 26.231 26.675 26.2116C26.6685 26.1917 26.663 26.1749 26.6587 26.1614L26.6474 26.1265L26.6454 26.1183C26.6432 26.1092 26.64 26.0961 26.6357 26.0796C26.6271 26.0467 26.6143 26.0001 26.5972 25.9443C26.5632 25.8332 26.5116 25.6836 26.4414 25.5327C26.3718 25.3832 26.2805 25.2248 26.1645 25.1018C26.0484 24.9786 25.8948 24.878 25.7042 24.8779C25.5323 24.8777 25.3976 24.9346 25.2935 25.0339C25.1948 25.1282 25.1319 25.2529 25.0831 25.3739C25.056 25.4413 25.0283 25.5215 25.0016 25.5991C24.9831 25.6525 24.9651 25.7047 24.948 25.7507C24.9018 25.8748 24.8509 25.9879 24.7821 26.0835C24.1171 27.0066 23.4822 27.6859 22.8627 28.3487C22.7605 28.458 22.6587 28.5669 22.5572 28.6764C21.841 29.4494 21.147 30.2465 20.469 31.4164C18.7627 34.3608 17.6505 37.0501 17.6505 39.7219C17.6505 41.9455 18.4376 43.9666 19.7164 45.4579C12.4513 43.5549 7.07351 36.9374 7.07351 29.0843C7.07351 24.9895 8.52986 21.122 11.1492 18.0814C11.0896 18.5928 11.0597 19.1085 11.0597 19.6268C11.0597 22.5183 11.9655 25.2747 13.6787 27.5967C13.9442 27.9575 14.4202 28.094 14.8376 27.9332ZM29.2906 43.9538C28.5546 44.9219 27.5213 45.5137 26.3248 45.8484C25.7342 45.9298 25.1346 45.9793 24.5269 45.9986C21.8032 45.6893 19.6387 43.009 19.6387 39.7219C19.6387 37.5288 20.6227 34.9485 22.2369 32.3236C23.2508 30.6748 24.0457 29.8318 25.3704 28.5044C26.123 30.2728 26.4631 31.248 27.0606 32.9618L27.1472 33.21C28.0812 35.28 28.5612 35.76 29.2244 37.0343L29.2271 37.0378C29.8423 37.8522 30.3113 38.4761 30.4788 39.7313C30.4773 41.624 30.0273 42.9848 29.2906 43.9538ZM25.4188 28.2533C24.001 29.6711 23.1754 30.524 22.1148 32.2486C23.1479 30.5686 23.9582 29.7159 25.3099 28.3625L25.4188 28.2533Z" fill="#F85454"/>
</svg>
