<svg width="40" height="40" viewBox="0 0 40 40" fill="none" xmlns="http://www.w3.org/2000/svg">
<path fill-rule="evenodd" clip-rule="evenodd" d="M20 11.5086L18.739 15.3894C18.3541 16.574 17.2503 17.376 16.0047 17.376H11.9242L15.2254 19.7745C16.2331 20.5066 16.6547 21.8043 16.2698 22.9888L15.0089 26.8697L18.3101 24.4712C19.3178 23.7391 20.6822 23.7391 21.6899 24.4712L24.9911 26.8697L23.7301 22.9888C23.3453 21.8043 23.7669 20.5066 24.7746 19.7745L28.0758 17.376H23.9952C22.7497 17.376 21.6458 16.574 21.2609 15.3894L20 11.5086ZM21.1888 9.9088C20.8146 8.75716 19.1854 8.75716 18.8112 9.90879L17.1936 14.8873C17.0262 15.4023 16.5463 15.751 16.0047 15.751H10.7701C9.55916 15.751 9.05569 17.3005 10.0353 18.0123L14.2703 21.0891C14.7084 21.4074 14.8917 21.9716 14.7244 22.4867L13.1068 27.4652C12.7326 28.6168 14.0507 29.5744 15.0303 28.8627L19.2653 25.7858C19.7034 25.4675 20.2966 25.4675 20.7347 25.7858L24.9697 28.8627C25.9493 29.5744 27.2674 28.6168 26.8932 27.4652L25.2756 22.4867C25.1083 21.9717 25.2916 21.4074 25.7297 21.0891L29.9646 18.0123C30.9443 17.3005 30.4408 15.751 29.2299 15.751H23.9952C23.4537 15.751 22.9738 15.4023 22.8064 14.8873L21.1888 9.9088Z" fill="white"/>
<path fill-rule="evenodd" clip-rule="evenodd" d="M20 38.25C30.0792 38.25 38.25 30.0792 38.25 20C38.25 9.9208 30.0792 1.75 20 1.75C9.9208 1.75 1.75 9.9208 1.75 20C1.75 30.0792 9.9208 38.25 20 38.25ZM20 40C31.0457 40 40 31.0457 40 20C40 8.95431 31.0457 0 20 0C8.95431 0 0 8.95431 0 20C0 31.0457 8.95431 40 20 40Z" fill="white"/>
</svg>
