<svg width="46" height="46" viewBox="0 0 46 46" fill="none" xmlns="http://www.w3.org/2000/svg">
<path d="M41.1673 6.67035C41.0918 6.67035 41.5527 6.82146 31.9487 2.55218C31.5357 2.35485 31.1024 2.20285 30.6566 2.09882C30.436 2.05494 30.207 2.09186 30.0114 2.20285C29.8158 2.31383 29.6667 2.49146 29.5912 2.70331C28.9791 4.21456 26.9238 5.37067 24.5587 5.37067C22.1936 5.37067 20.0703 4.22967 19.5338 2.62775C19.4672 2.44172 19.3421 2.28228 19.1773 2.17331C19.0124 2.06433 18.8167 2.01169 18.6195 2.02325C17.7792 1.93643 16.9318 2.09385 16.1788 2.47663C5.44139 6.82148 5.89475 6.67035 5.81918 6.67035C4.96889 7.04909 4.24853 7.66918 3.74749 8.45366C3.24644 9.23814 2.98677 10.1525 3.00072 11.0832V19.7729C3.00649 20.0336 3.11264 20.282 3.29704 20.4664C3.48144 20.6508 3.72987 20.757 3.99058 20.7628H8.63768V40.1899C8.63967 40.9568 8.94522 41.6918 9.48752 42.2341C10.0298 42.7764 10.7648 43.0819 11.5317 43.0839H35.5304C36.2979 43.0839 37.034 42.779 37.5768 42.2363C38.1195 41.6935 38.4244 40.9574 38.4244 40.1899V20.7628H42.996C43.2573 20.7589 43.5068 20.6533 43.6916 20.4685C43.8764 20.2837 43.9819 20.0342 43.9858 19.7729V10.8565C43.9547 9.96495 43.6741 9.09998 43.1758 8.35997C42.6776 7.61995 41.9817 7.03457 41.1673 6.67035ZM4.89732 18.8586V17.3927H8.55457V18.8435L4.89732 18.8586ZM36.4371 40.1143C36.4332 40.3756 36.3277 40.6252 36.1429 40.81C35.9581 40.9948 35.7086 41.1003 35.4473 41.1042H11.4713C11.2106 41.0984 10.9621 40.9923 10.7777 40.8079C10.5933 40.6235 10.4872 40.375 10.4814 40.1143V38.6031H31.7976C32.0601 38.6031 32.3119 38.4988 32.4975 38.3132C32.6832 38.1275 32.7875 37.8757 32.7875 37.6132C32.7875 37.3507 32.6832 37.0989 32.4975 36.9133C32.3119 36.7276 32.0601 36.6233 31.7976 36.6233H10.4663V12.9874C10.4653 12.7379 10.3708 12.4979 10.2016 12.3147C10.0323 12.1315 9.80055 12.0183 9.55198 11.9975C9.29581 12.0167 9.05504 12.1271 8.87339 12.3088C8.69175 12.4904 8.58129 12.7312 8.56211 12.9874V15.3525H4.90488V11.0076C4.91215 10.4518 5.07259 9.90865 5.36855 9.43806C5.6645 8.96747 6.08451 8.58761 6.58237 8.34027C17.4029 4.00298 16.942 4.15412 16.942 4.15412C17.2759 4.00025 17.6398 3.92279 18.0074 3.92742C19.0804 5.90716 21.6647 7.27484 24.5587 7.27484C27.4528 7.27484 29.8481 6.0583 30.9589 4.15412C31.0607 4.19896 31.1542 4.24012 31.2399 4.27784C33.8917 5.44504 29.0668 3.31318 32.1103 4.6769C33.311 5.2149 35.7364 6.29696 40.3286 8.34027C40.8108 8.54622 41.2246 8.88502 41.5216 9.31716C41.8186 9.74929 41.9866 10.257 42.0061 10.781V15.428H38.3489V13.0629C38.3489 12.8004 38.2446 12.5486 38.0589 12.363C37.8733 12.1774 37.6215 12.0731 37.359 12.0731C37.0965 12.0731 36.8447 12.1774 36.659 12.363C36.4734 12.5486 36.3691 12.8004 36.3691 13.0629C36.4447 21.6015 36.4447 39.2 36.4447 40.1143H36.4371ZM38.3413 18.8586V17.3927H41.9985V18.8435L38.3413 18.8586Z" fill="#F85454"/>
<path d="M36.1429 40.81C36.3277 40.6252 36.4332 40.3756 36.4371 40.1143H36.4447C36.4447 39.1935 36.4447 21.5998 36.3691 13.0629C36.3691 12.8004 36.4734 12.5486 36.659 12.363C36.8447 12.1774 37.0965 12.0731 37.359 12.0731C37.6215 12.0731 37.8733 12.1774 38.0589 12.363C38.2446 12.5486 38.3489 12.8004 38.3489 13.0629V15.428H42.0061V10.781C41.9866 10.257 41.8186 9.74929 41.5216 9.31716C41.2246 8.88502 40.8108 8.54622 40.3286 8.34027C35.7364 6.29696 33.311 5.2149 32.1103 4.6769C30.9096 4.13892 30.9336 4.14496 31.2399 4.27784L30.9589 4.15412C29.8481 6.0583 27.4528 7.27484 24.5587 7.27484C21.6647 7.27484 19.0804 5.90716 18.0074 3.92742C17.6398 3.92279 17.2759 4.00025 16.942 4.15412C16.942 4.15412 17.4029 4.00298 6.58237 8.34027C6.08451 8.58761 5.6645 8.96747 5.36855 9.43806C5.07259 9.90865 4.91215 10.4518 4.90488 11.0076V15.3525H8.56211V12.9874C8.58129 12.7312 8.69175 12.4904 8.87339 12.3088C9.05504 12.1271 9.29581 12.0167 9.55198 11.9975C9.80055 12.0183 10.0323 12.1315 10.2016 12.3147C10.3708 12.4979 10.4653 12.7379 10.4663 12.9874V36.6233H31.7976C32.0601 36.6233 32.3119 36.7276 32.4975 36.9133C32.6832 37.0989 32.7875 37.3507 32.7875 37.6132C32.7875 37.8757 32.6832 38.1275 32.4975 38.3132C32.3119 38.4988 32.0601 38.6031 31.7976 38.6031H10.4814V40.1143C10.4872 40.375 10.5933 40.6235 10.7777 40.8079C10.9621 40.9923 11.2106 41.0984 11.4713 41.1042H35.4473C35.7086 41.1003 35.9581 40.9948 36.1429 40.81Z" fill="#F85454"/>
<path d="M4.89732 18.8586V17.3927H8.55457V18.8435L4.89732 18.8586Z" fill="white"/>
<path d="M38.3413 18.8586V17.3927H41.9985V18.8435L38.3413 18.8586Z" fill="white"/>
<path d="M32.9466 32.1877H29.6067C29.3442 32.1877 29.0924 32.292 28.9068 32.4777C28.7211 32.6633 28.6169 32.9151 28.6169 33.1776C28.6169 33.4402 28.7211 33.6919 28.9068 33.8776C29.0924 34.0632 29.3442 34.1675 29.6067 34.1675H32.9617C33.2242 34.1675 33.476 34.0632 33.6616 33.8776C33.8473 33.6919 33.9516 33.4402 33.9516 33.1776C33.9516 32.9151 33.8473 32.6633 33.6616 32.4777C33.476 32.292 33.2242 32.1877 32.9617 32.1877H32.9466Z" fill="white"/>
<path d="M32.9464 28.833H29.6066C29.358 28.8547 29.1266 28.9688 28.958 29.1527C28.7894 29.3367 28.6959 29.5771 28.6959 29.8266C28.6959 30.0762 28.7894 30.3166 28.958 30.5006C29.1266 30.6845 29.358 30.7986 29.6066 30.8203H32.9615C33.2101 30.7986 33.4415 30.6845 33.6101 30.5006C33.7787 30.3166 33.8722 30.0762 33.8722 29.8266C33.8722 29.5771 33.7787 29.3367 33.6101 29.1527C33.4415 28.9688 33.2101 28.8547 32.9615 28.833H32.9464Z" fill="white"/>
<path d="M26.9237 20.0749C27.4606 19.3451 27.754 18.4647 27.7625 17.5587C27.7161 16.4585 27.2465 15.4187 26.4516 14.6566C25.6567 13.8945 24.5982 13.469 23.497 13.469C22.3958 13.469 21.3371 13.8945 20.5423 14.6566C19.7474 15.4187 19.2778 16.4585 19.2314 17.5587C19.2281 18.4666 19.5228 19.3506 20.0702 20.0749C19.2066 20.7817 18.5828 21.7383 18.2841 22.8135C17.9854 23.8887 18.0265 25.03 18.4017 26.081C18.777 27.1319 19.468 28.0411 20.3802 28.684C21.2924 29.3268 22.381 29.6719 23.497 29.6719C24.6129 29.6719 25.7015 29.3268 26.6137 28.684C27.5258 28.0411 28.2169 27.1319 28.5921 26.081C28.9674 25.03 29.0085 23.8887 28.7098 22.8135C28.4111 21.7383 27.7873 20.7817 26.9237 20.0749ZM23.4932 27.7672C22.5684 27.7574 21.6842 27.3856 21.0302 26.7316C20.3762 26.0777 20.0045 25.1935 19.9946 24.2687C19.9975 23.6178 20.1851 22.9812 20.5356 22.4328C20.886 21.8844 21.385 21.4467 21.9744 21.1706C22.113 21.0938 22.2308 20.9843 22.3176 20.8517C22.4044 20.7191 22.4576 20.5673 22.4725 20.4095C22.4873 20.2517 22.4635 20.0927 22.4031 19.9461C22.3426 19.7996 22.2473 19.6701 22.1255 19.5687C21.717 19.2779 21.4114 18.8648 21.253 18.3891C21.0946 17.9133 21.0914 17.3995 21.2441 16.9219C21.3967 16.4443 21.6972 16.0275 22.1021 15.7318C22.5071 15.4361 22.9955 15.2767 23.497 15.2767C23.9984 15.2767 24.4868 15.4361 24.8918 15.7318C25.2967 16.0275 25.5972 16.4443 25.7498 16.9219C25.9025 17.3995 25.8993 17.9133 25.7409 18.3891C25.5825 18.8648 25.2769 19.2779 24.8684 19.5687C24.729 19.6587 24.617 19.7853 24.5445 19.9346C24.4721 20.0839 24.4421 20.2503 24.4577 20.4155C24.4732 20.5808 24.5339 20.7385 24.633 20.8717C24.732 21.0048 24.8657 21.1082 25.0195 21.1706C25.7333 21.5115 26.3099 22.0851 26.6543 22.7972C26.9987 23.5092 27.0906 24.3173 26.9147 25.0885C26.7388 25.8597 26.3057 26.5481 25.6866 27.0404C25.0675 27.5328 24.2993 27.7997 23.5083 27.7974L23.4932 27.7672Z" fill="white"/>
</svg>
