<svg width="116" height="21" viewBox="0 0 116 21" fill="none" xmlns="http://www.w3.org/2000/svg">
<path d="M26.2253 6.40967H32.5839V7.50389H30.0064V14.9932H28.8028V7.50389H26.2253V6.40967Z" fill="#0C353E"/>
<path d="M33.1082 14.2273C32.5003 13.6113 32.1964 12.8453 32.1964 11.9294C32.1964 11.0135 32.4841 10.2476 33.0596 9.63155C33.6432 9.00744 34.3929 8.69538 35.3088 8.69538C36.168 8.69538 36.8569 8.97096 37.3757 9.52213C37.8944 10.0652 38.1538 10.742 38.1538 11.5525C38.1538 11.7552 38.1335 11.978 38.093 12.2212H33.4365C33.4851 12.7886 33.704 13.2384 34.093 13.5708C34.4902 13.895 34.9643 14.0571 35.5155 14.0571C36.2126 14.0571 36.7921 13.7977 37.2541 13.279L37.9714 14.1057C37.2906 14.7947 36.4638 15.1391 35.4912 15.1391C34.5185 15.1391 33.7242 14.8352 33.1082 14.2273ZM35.321 9.75313C34.8428 9.75313 34.4375 9.88687 34.1052 10.1543C33.7728 10.4218 33.5621 10.7906 33.4729 11.2607H36.9988V11.2486C36.9583 10.7947 36.784 10.434 36.476 10.1665C36.168 9.89092 35.783 9.75313 35.321 9.75313Z" fill="#0C353E"/>
<path d="M39.1215 13.3641C39.1215 12.3914 39.7861 11.7754 41.1154 11.516L43.0364 11.1391V11.0176C43.0364 10.6123 42.9107 10.3002 42.6595 10.0814C42.4082 9.85445 42.0556 9.74097 41.6017 9.74097C40.9209 9.74097 40.3494 10.0044 39.8874 10.5312L39.2795 9.75313C39.8874 9.04796 40.698 8.69538 41.7111 8.69538C42.4812 8.69538 43.0891 8.90612 43.5349 9.3276C43.9888 9.74908 44.2157 10.3286 44.2157 11.0662V14.9932H43.1215V14.0449C42.6838 14.7744 42.0151 15.1391 41.1154 15.1391C40.548 15.1391 40.0739 14.973 39.6929 14.6407C39.312 14.3002 39.1215 13.8747 39.1215 13.3641ZM41.3221 12.4036C40.9492 12.4765 40.6818 12.5859 40.5197 12.7318C40.3576 12.8696 40.2765 13.0561 40.2765 13.2911C40.2765 13.5424 40.3697 13.7491 40.5561 13.9112C40.7507 14.0652 41.0019 14.1422 41.3099 14.1422C41.7963 14.1422 42.2137 13.972 42.5622 13.6315C42.9107 13.2911 43.085 12.898 43.085 12.4522V12.0632L41.3221 12.4036Z" fill="#0C353E"/>
<path d="M46.047 14.9932V8.84128H47.202V9.76529C47.5911 9.05201 48.2557 8.69538 49.1959 8.69538C49.6823 8.69538 50.1078 8.8048 50.4725 9.02365C50.8454 9.24249 51.1291 9.5586 51.3236 9.97197C51.6154 9.52618 51.9315 9.20196 52.2719 8.99933C52.6204 8.7967 53.046 8.69538 53.5485 8.69538C54.2618 8.69538 54.8373 8.92638 55.2749 9.38839C55.7126 9.85039 55.9315 10.4786 55.9315 11.2729V14.9932H54.7522V11.3215C54.7522 10.8352 54.6144 10.4583 54.3388 10.1908C54.0632 9.91524 53.7187 9.77744 53.3053 9.77744C53.0054 9.77744 52.738 9.84229 52.5029 9.97197C52.2679 10.1017 52.0855 10.2719 51.9558 10.4826C51.8261 10.6933 51.7289 10.9162 51.664 11.1513C51.6073 11.3864 51.5789 11.6255 51.5789 11.8686V14.9932H50.3996V11.3215C50.3996 10.8352 50.2618 10.4583 49.9862 10.1908C49.7106 9.91524 49.3661 9.77744 48.9528 9.77744C48.6529 9.77744 48.3854 9.84229 48.1503 9.97197C47.9153 10.1017 47.7329 10.2719 47.6032 10.4826C47.4735 10.6933 47.3763 10.9162 47.3114 11.1513C47.2547 11.3864 47.2263 11.6255 47.2263 11.8686V14.9932H46.047Z" fill="#0C353E"/>
<path d="M60.1343 13.7774L60.9976 13.1574C61.4109 13.7815 61.9256 14.0935 62.5416 14.0935C62.8983 14.0935 63.1739 14.0328 63.3684 13.9112C63.571 13.7815 63.6723 13.6113 63.6723 13.4005C63.6723 13.1736 63.5791 12.9912 63.3927 12.8534C63.2144 12.7075 62.8496 12.5495 62.2985 12.3793C61.6419 12.1766 61.1556 11.9294 60.8395 11.6376C60.5315 11.3458 60.3775 10.9568 60.3775 10.4705C60.3775 9.99224 60.5882 9.57886 61.0097 9.23033C61.4312 8.8737 61.954 8.69538 62.5781 8.69538C63.5426 8.69538 64.2519 9.09254 64.7058 9.88687L63.8547 10.5191C63.5143 9.99224 63.0725 9.72881 62.5295 9.72881C62.2296 9.72881 61.9864 9.79771 61.8 9.9355C61.6217 10.0652 61.5325 10.2354 61.5325 10.4461C61.5325 10.6407 61.6217 10.8068 61.8 10.9446C61.9783 11.0743 62.3106 11.2202 62.797 11.3823C63.5102 11.6174 64.0249 11.8848 64.341 12.1847C64.6652 12.4765 64.8273 12.8737 64.8273 13.3762C64.8273 13.8869 64.6126 14.3083 64.183 14.6407C63.7534 14.973 63.2103 15.1391 62.5538 15.1391C62.0188 15.1391 61.5325 15.0176 61.0948 14.7744C60.6652 14.5312 60.3451 14.1989 60.1343 13.7774Z" fill="#0C353E"/>
<path d="M66.2044 8.84128H67.3838V12.513C67.3838 12.9993 67.5215 13.3803 67.7971 13.6559C68.0727 13.9233 68.4172 14.0571 68.8306 14.0571C69.1305 14.0571 69.3979 13.9922 69.633 13.8625C69.868 13.7329 70.0504 13.5626 70.1801 13.3519C70.3098 13.1412 70.403 12.9183 70.4597 12.6832C70.5246 12.4482 70.557 12.2091 70.557 11.9659V8.84128H71.7363V14.9932H70.5813V14.0692C70.1923 14.7825 69.5276 15.1391 68.5874 15.1391C67.8741 15.1391 67.2986 14.9081 66.861 14.4461C66.4233 13.9841 66.2044 13.356 66.2044 12.5616V8.84128Z" fill="#0C353E"/>
<path d="M73.6904 17.4248V8.84128H74.8211V9.74097C75.0157 9.43297 75.3034 9.1817 75.6844 8.98717C76.0734 8.79264 76.4787 8.69538 76.9002 8.69538C77.7269 8.69538 78.4199 8.99933 78.9792 9.60723C79.5384 10.2151 79.8181 10.9851 79.8181 11.9173C79.8181 12.8494 79.5384 13.6194 78.9792 14.2273C78.4199 14.8352 77.7269 15.1391 76.9002 15.1391C76.4949 15.1391 76.1018 15.0459 75.7208 14.8595C75.3399 14.6731 75.0562 14.438 74.8698 14.1543V17.4248H73.6904ZM74.7968 11.9173C74.7968 12.5414 74.9832 13.0561 75.3561 13.4613C75.7289 13.8585 76.1788 14.0571 76.7056 14.0571C77.2325 14.0571 77.6823 13.8585 78.0552 13.4613C78.4361 13.0561 78.6266 12.5414 78.6266 11.9173C78.6266 11.2931 78.4361 10.7825 78.0552 10.3853C77.6823 9.98008 77.2325 9.77744 76.7056 9.77744C76.1788 9.77744 75.7289 9.97603 75.3561 10.3732C74.9832 10.7704 74.7968 11.285 74.7968 11.9173Z" fill="#0C353E"/>
<path d="M81.3048 17.4248V8.84128H82.4355V9.74097C82.63 9.43297 82.9177 9.1817 83.2987 8.98717C83.6877 8.79264 84.093 8.69538 84.5145 8.69538C85.3412 8.69538 86.0342 8.99933 86.5935 9.60723C87.1528 10.2151 87.4324 10.9851 87.4324 11.9173C87.4324 12.8494 87.1528 13.6194 86.5935 14.2273C86.0342 14.8352 85.3412 15.1391 84.5145 15.1391C84.1092 15.1391 83.7161 15.0459 83.3352 14.8595C82.9542 14.6731 82.6705 14.438 82.4841 14.1543V17.4248H81.3048ZM82.4112 11.9173C82.4112 12.5414 82.5976 13.0561 82.9704 13.4613C83.3433 13.8585 83.7931 14.0571 84.32 14.0571C84.8468 14.0571 85.2967 13.8585 85.6695 13.4613C86.0505 13.0561 86.2409 12.5414 86.2409 11.9173C86.2409 11.2931 86.0505 10.7825 85.6695 10.3853C85.2967 9.98008 84.8468 9.77744 84.32 9.77744C83.7931 9.77744 83.3433 9.97603 82.9704 10.3732C82.5976 10.7704 82.4112 11.285 82.4112 11.9173Z" fill="#0C353E"/>
<path d="M89.3568 14.2151C88.7489 13.591 88.4449 12.8251 88.4449 11.9173C88.4449 11.0095 88.7489 10.2476 89.3568 9.63155C89.9728 9.00744 90.7307 8.69538 91.6304 8.69538C92.5301 8.69538 93.2838 9.00744 93.8917 9.63155C94.5078 10.2476 94.8158 11.0095 94.8158 11.9173C94.8158 12.8251 94.5078 13.591 93.8917 14.2151C93.2838 14.8311 92.5301 15.1391 91.6304 15.1391C90.7307 15.1391 89.9728 14.8311 89.3568 14.2151ZM93.0528 10.434C92.68 10.0206 92.2058 9.81392 91.6304 9.81392C91.0549 9.81392 90.5807 10.0206 90.2079 10.434C89.835 10.8474 89.6486 11.3418 89.6486 11.9173C89.6486 12.4927 89.835 12.9872 90.2079 13.4005C90.5807 13.8139 91.0549 14.0206 91.6304 14.0206C92.2058 14.0206 92.68 13.8139 93.0528 13.4005C93.4257 12.9872 93.6121 12.4927 93.6121 11.9173C93.6121 11.3418 93.4257 10.8474 93.0528 10.434Z" fill="#0C353E"/>
<path d="M96.296 14.9932V8.84128H97.451V9.92334C97.605 9.53428 97.832 9.23438 98.1319 9.02365C98.4399 8.8048 98.8005 8.69538 99.2139 8.69538C99.3922 8.69538 99.5179 8.71159 99.5908 8.74401V9.89902C99.526 9.88281 99.4449 9.87471 99.3477 9.87471C98.7803 9.87471 98.3264 10.0611 97.986 10.434C97.6455 10.8068 97.4753 11.3094 97.4753 11.9416V14.9932H96.296Z" fill="#0C353E"/>
<path d="M101.091 9.82608H100.167V8.84128H101.127V7.15131H102.27V8.84128H103.851V9.82608H102.27V13.0358C102.27 13.7085 102.602 14.0449 103.267 14.0449C103.543 14.0449 103.786 13.9801 103.997 13.8504V14.9325C103.762 15.0702 103.433 15.1391 103.012 15.1391C102.404 15.1391 101.93 14.9689 101.589 14.6285C101.257 14.2881 101.091 13.8058 101.091 13.1817V9.82608Z" fill="#0C353E"/>
<path d="M105.61 14.2273C105.002 13.6113 104.698 12.8453 104.698 11.9294C104.698 11.0135 104.986 10.2476 105.562 9.63155C106.145 9.00744 106.895 8.69538 107.811 8.69538C108.67 8.69538 109.359 8.97096 109.878 9.52213C110.396 10.0652 110.656 10.742 110.656 11.5525C110.656 11.7552 110.636 11.978 110.595 12.2212H105.939C105.987 12.7886 106.206 13.2384 106.595 13.5708C106.992 13.895 107.466 14.0571 108.018 14.0571C108.715 14.0571 109.294 13.7977 109.756 13.279L110.473 14.1057C109.793 14.7947 108.966 15.1391 107.993 15.1391C107.021 15.1391 106.226 14.8352 105.61 14.2273ZM107.823 9.75313C107.345 9.75313 106.94 9.88687 106.607 10.1543C106.275 10.4218 106.064 10.7906 105.975 11.2607H109.501V11.2486C109.46 10.7947 109.286 10.434 108.978 10.1665C108.67 9.89092 108.285 9.75313 107.823 9.75313Z" fill="#0C353E"/>
<path d="M112.122 14.9932V8.84128H113.277V9.92334C113.431 9.53428 113.658 9.23438 113.958 9.02365C114.266 8.8048 114.627 8.69538 115.04 8.69538C115.218 8.69538 115.344 8.71159 115.417 8.74401V9.89902C115.352 9.88281 115.271 9.87471 115.174 9.87471C114.606 9.87471 114.152 10.0611 113.812 10.434C113.472 10.8068 113.301 11.3094 113.301 11.9416V14.9932H112.122Z" fill="#0C353E"/>
<path fill-rule="evenodd" clip-rule="evenodd" d="M10.0337 1.77637C5.43068 1.77637 1.69488 5.51217 1.69488 10.1152C1.69488 14.7183 5.43068 18.4541 10.0337 18.4541C14.6368 18.4541 18.3726 14.7183 18.3726 10.1152C18.3726 5.51217 14.6368 1.77637 10.0337 1.77637ZM10.0337 16.7863C6.3563 16.7863 3.36265 13.7926 3.36265 10.1152C3.36265 6.43778 6.3563 3.44414 10.0337 3.44414C13.7112 3.44414 16.7048 6.43778 16.7048 10.1152C16.7048 13.7926 13.7112 16.7863 10.0337 16.7863ZM8.36596 11.9247L13.8613 6.42944L15.037 7.61356L8.36596 14.2846L5.03042 10.9491L6.2062 9.77332L8.36596 11.9247Z" fill="#F85454"/>
</svg>
