<svg width="12" height="12" viewBox="0 0 12 12" fill="none" xmlns="http://www.w3.org/2000/svg">
<path fill-rule="evenodd" clip-rule="evenodd" d="M7.5 7H6C5.724 7 5.5 6.7765 5.5 6.5V5C5.5 4.7235 5.724 4.5 6 4.5C6.276 4.5 6.5 4.7235 6.5 5V6H7.5C7.776 6 8 6.2235 8 6.5C8 6.7765 7.776 7 7.5 7ZM6.494 2.029C6.495 2.0185 6.5 2.0105 6.5 2V1.5H7C7.276 1.5 7.5 1.2765 7.5 1C7.5 0.7235 7.276 0.5 7 0.5H5C4.724 0.5 4.5 0.7235 4.5 1C4.5 1.2765 4.724 1.5 5 1.5H5.5V2C5.5 2.0105 5.505 2.0185 5.506 2.029C3.2565 2.276 1.5 4.186 1.5 6.5C1.5 8.9815 3.519 11 6 11C8.481 11 10.5 8.9815 10.5 6.5C10.5 4.186 8.7435 2.276 6.494 2.029Z" fill="#65676B"/>
<mask id="mask0_2931_168227" style="mask-type:alpha" maskUnits="userSpaceOnUse" x="1" y="0" width="10" height="11">
<path fill-rule="evenodd" clip-rule="evenodd" d="M7.5 7H6C5.724 7 5.5 6.7765 5.5 6.5V5C5.5 4.7235 5.724 4.5 6 4.5C6.276 4.5 6.5 4.7235 6.5 5V6H7.5C7.776 6 8 6.2235 8 6.5C8 6.7765 7.776 7 7.5 7ZM6.494 2.029C6.495 2.0185 6.5 2.0105 6.5 2V1.5H7C7.276 1.5 7.5 1.2765 7.5 1C7.5 0.7235 7.276 0.5 7 0.5H5C4.724 0.5 4.5 0.7235 4.5 1C4.5 1.2765 4.724 1.5 5 1.5H5.5V2C5.5 2.0105 5.505 2.0185 5.506 2.029C3.2565 2.276 1.5 4.186 1.5 6.5C1.5 8.9815 3.519 11 6 11C8.481 11 10.5 8.9815 10.5 6.5C10.5 4.186 8.7435 2.276 6.494 2.029Z" fill="white"/>
</mask>
<g mask="url(#mask0_2931_168227)">
</g>
</svg>
