<svg width="24" height="24" viewBox="0 0 24 24" fill="none" xmlns="http://www.w3.org/2000/svg">
<g clip-path="url(#clip0_5_3189)">
<path fill-rule="evenodd" clip-rule="evenodd" d="M16.9991 4C17.7621 4 18.3931 4.434 18.8551 4.89C19.3361 5.363 19.7771 5.999 20.1691 6.7C20.9561 8.106 21.6411 9.943 22.0941 11.758C22.5441 13.559 22.7931 15.44 22.6341 16.919C22.4741 18.404 21.7091 20 19.9991 20C18.5231 20 17.3471 19.24 16.3851 18.469L16.0341 18.18L15.5421 17.765L15.0981 17.397C14.0791 16.572 13.1741 16 11.9991 16C10.8241 16 9.91915 16.572 8.90015 17.397L8.45615 17.765L7.96415 18.18L7.61415 18.469C6.65015 19.24 5.47415 20 3.99915 20C2.28815 20 1.52315 18.404 1.36415 16.919C1.20615 15.439 1.45415 13.559 1.90415 11.757C2.35715 9.943 3.04215 8.107 3.82915 6.699C4.22115 5.999 4.66215 5.363 5.14315 4.889C5.60515 4.434 6.23615 4 6.99915 4C7.51415 4 8.01715 4.123 8.51215 4.27L9.10415 4.451C9.20315 4.481 9.30115 4.511 9.39915 4.538C10.2641 4.786 11.1491 5 11.9991 5C12.8491 5 13.7341 4.786 14.5991 4.538L15.4841 4.271C15.9821 4.124 16.4891 4 16.9991 4ZM16.9991 6C16.6161 6 16.2161 6.116 15.8281 6.243L15.3701 6.394C15.2968 6.41784 15.2232 6.44051 15.1491 6.462C14.2641 6.714 13.1491 7 11.9991 7C10.8491 7 9.73415 6.714 8.84915 6.462L8.62915 6.394L8.17015 6.243C7.78215 6.115 7.38215 6 6.99915 6C6.58115 6.078 6.20615 6.585 5.92315 7.055L5.76515 7.33L5.57515 7.676C4.89315 8.894 4.26515 10.556 3.84515 12.242C3.45015 13.819 3.25815 15.329 3.33115 16.453L3.35715 16.746L3.37715 16.922L3.40715 17.13C3.47615 17.531 3.62515 18 3.99915 18C4.81115 18 5.48915 17.596 6.33215 16.926L6.73515 16.598L7.49515 15.962L7.83915 15.682C8.90315 14.839 10.2341 14 11.9991 14C13.7641 14 15.0951 14.84 16.1591 15.682L16.5041 15.962L17.2641 16.598L17.6661 16.926C18.5091 17.596 19.1861 18 19.9991 18C20.3391 18 20.4931 17.613 20.5701 17.241L20.6081 17.023L20.6451 16.706C20.7681 15.56 20.5781 13.941 20.1541 12.243C19.7681 10.697 19.2081 9.171 18.5921 7.989L18.2331 7.329L18.0751 7.056C17.7921 6.585 17.4171 6.078 16.9991 6ZM8.49915 8C9.16219 8 9.79807 8.26339 10.2669 8.73223C10.7358 9.20107 10.9991 9.83696 10.9991 10.5C10.9991 11.163 10.7358 11.7989 10.2669 12.2678C9.79807 12.7366 9.16219 13 8.49915 13C7.83611 13 7.20022 12.7366 6.73138 12.2678C6.26254 11.7989 5.99915 11.163 5.99915 10.5C5.99915 9.83696 6.26254 9.20107 6.73138 8.73223C7.20022 8.26339 7.83611 8 8.49915 8ZM15.4991 8C15.7441 8.00003 15.9805 8.08996 16.1635 8.25272C16.3466 8.41547 16.4635 8.63975 16.4921 8.883L16.4991 9V9.5H16.9991C17.254 9.50028 17.4992 9.59788 17.6845 9.77285C17.8699 9.94782 17.9814 10.187 17.9963 10.4414C18.0113 10.6958 17.9285 10.9464 17.7649 11.1418C17.6013 11.3373 17.3692 11.4629 17.1161 11.493L16.9991 11.5H16.4991V12C16.4989 12.2549 16.4013 12.5 16.2263 12.6854C16.0513 12.8707 15.8122 12.9822 15.5578 12.9972C15.3033 13.0121 15.0528 12.9293 14.8573 12.7657C14.6619 12.6021 14.5363 12.3701 14.5061 12.117L14.4991 12V11.5H13.9991C13.7443 11.4997 13.4991 11.4021 13.3138 11.2272C13.1284 11.0522 13.0169 10.813 13.002 10.5586C12.987 10.3042 13.0698 10.0536 13.2334 9.85817C13.397 9.66271 13.6291 9.5371 13.8821 9.507L13.9991 9.5H14.4991V9C14.4991 8.73478 14.6045 8.48043 14.792 8.29289C14.9796 8.10536 15.2339 8 15.4991 8ZM8.49915 10C8.36654 10 8.23936 10.0527 8.14559 10.1464C8.05183 10.2402 7.99915 10.3674 7.99915 10.5C7.99915 10.6326 8.05183 10.7598 8.14559 10.8536C8.23936 10.9473 8.36654 11 8.49915 11C8.63176 11 8.75893 10.9473 8.8527 10.8536C8.94647 10.7598 8.99915 10.6326 8.99915 10.5C8.99915 10.3674 8.94647 10.2402 8.8527 10.1464C8.75893 10.0527 8.63176 10 8.49915 10Z" fill="white"/>
</g>
<defs>
<clipPath id="clip0_5_3189">
<rect width="24" height="24" fill="white"/>
</clipPath>
</defs>
</svg>
