<svg width="48" height="48" viewBox="0 0 48 48" fill="none" xmlns="http://www.w3.org/2000/svg">
<path fill-rule="evenodd" clip-rule="evenodd" d="M18.9283 32.3428L18.5 45.5256H16.4306L17 32.6645C17.0671 31.3898 17.6518 30.5 18.9283 30.5H26.0925L25.5 13.5446L18.5375 20.3011C18.0114 20.8677 17.5666 21.0261 17 20.5C16.4334 19.9739 16.4739 19.4767 17 18.9101L25.5 11.0733C26.0261 10.5067 26.8255 10.4739 27.3921 11L35.5 18C36.0666 18.5261 36.5261 19.1482 36 19.7148C35.4739 20.2814 34.9325 20.241 34.3659 19.7148L27.3921 13.441L28 29.8539C28.0503 31.2133 27.1793 32.3428 25.819 32.3428H18.9283Z" fill="#F85454"/>
<path fill-rule="evenodd" clip-rule="evenodd" d="M39.5 39.5C47.7791 31.2209 47.7791 16.7791 39.5 8.5C31.2209 0.220885 16.7791 0.220886 8.5 8.5C0.220885 16.7791 0.220885 31.2209 8.5 39.5C16.7791 47.7791 31.2209 47.7791 39.5 39.5ZM40.9706 40.9706C50.3431 31.598 50.3431 16.402 40.9706 7.02944C31.598 -2.34315 16.402 -2.34315 7.02944 7.02944C-2.34315 16.402 -2.34315 31.598 7.02944 40.9706C16.402 50.3431 31.598 50.3431 40.9706 40.9706Z" fill="#F85454"/>
</svg>
