<svg width="24" height="24" viewBox="0 0 24 24" fill="none" xmlns="http://www.w3.org/2000/svg">
<path fill-rule="evenodd" clip-rule="evenodd" d="M9.96414 16.172L9.61335 22.837L8.21529 22.7634L8.57605 15.9089C8.60959 15.2716 9.13616 14.772 9.77439 14.772H13.2019L12.9057 6.77293L9.76877 10.1511C9.50571 10.4344 9.06279 10.4508 8.7795 10.1878C8.4962 9.92472 8.4798 9.48181 8.74286 9.19851L13.0297 4.58192C13.2928 4.29862 13.7357 4.28221 14.019 4.54528L18.6356 8.83212C18.9189 9.09518 18.9353 9.53809 18.6722 9.82139C18.4091 10.1047 17.9662 10.1211 17.6829 9.85803L14.3047 6.72112L14.6087 14.9276C14.6338 15.6073 14.0896 16.172 13.4095 16.172H9.96414Z" fill="#F85454"/>
<path fill-rule="evenodd" clip-rule="evenodd" d="M19.4953 19.4959C23.6349 15.3564 23.6349 8.64483 19.4953 4.50528C15.3558 0.365721 8.64423 0.365721 4.50467 4.50528C0.365111 8.64484 0.365111 15.3564 4.50467 19.4959C8.64423 23.6355 15.3558 23.6355 19.4953 19.4959ZM20.4853 20.4859C25.1716 15.7996 25.1716 8.20162 20.4853 3.51533C15.799 -1.17096 8.20101 -1.17096 3.51472 3.51533C-1.17157 8.20162 -1.17157 15.7996 3.51472 20.4859C8.20101 25.1722 15.799 25.1722 20.4853 20.4859Z" fill="#F85454"/>
</svg>
