<svg width="16" height="16" viewBox="0 0 16 16" fill="none" xmlns="http://www.w3.org/2000/svg">
<path d="M14.6673 3.94908C14.177 4.16635 13.6503 4.31316 13.0965 4.37951C13.6614 4.04128 14.0948 3.50456 14.2991 2.86567C13.7706 3.17924 13.1852 3.40708 12.5621 3.52922C12.063 2.99838 11.3525 2.66602 10.5656 2.66602C9.05529 2.66602 7.83036 3.89095 7.83036 5.40244C7.83036 5.61619 7.85502 5.82407 7.90082 6.02489C5.62654 5.91039 3.6118 4.8211 2.26237 3.16632C2.02749 3.5715 1.89243 4.04128 1.89243 4.54158C1.89243 5.49053 2.37571 6.32848 3.10914 6.81881C2.66051 6.80413 2.23888 6.6814 1.87011 6.47646V6.5117C1.87011 7.83704 2.8126 8.94277 4.06454 9.1941C3.83435 9.25634 3.59301 9.28923 3.34403 9.28923C3.16786 9.28923 2.99581 9.27279 2.82904 9.24108C3.17726 10.3274 4.18727 11.119 5.3846 11.1401C4.44799 11.8742 3.26827 12.3116 1.98697 12.3116C1.76618 12.3116 1.54832 12.2987 1.33398 12.2735C2.54482 13.0503 3.98233 13.5025 5.52671 13.5025C10.5592 13.5025 13.3103 9.33444 13.3103 5.71954C13.3103 5.6021 13.3073 5.48348 13.302 5.36604C13.8364 4.97965 14.3003 4.49872 14.6661 3.95084L14.6673 3.94908Z" fill="white"/>
</svg>
