<svg width="16" height="16" viewBox="0 0 16 16" fill="none" xmlns="http://www.w3.org/2000/svg">
<path d="M11.6667 9.83333C13.8262 9.24074 16 6.51852 16 2.37037C16 2.17284 15.8037 1.97531 15.6074 1.97531H13.3497V1.08642C13.2515 0.493827 12.7607 0 12.1718 0H3.73006C3.1411 0 2.65031 0.493827 2.65031 1.08642V1.97531H0.392638C0.196319 1.97531 0 2.17284 0 2.37037C0 6.51852 2.17382 9.24074 4.33333 9.83333C5.02045 10.5247 5.97955 11.0617 6.66667 11.4568V13.1358H6.28221C5.30061 13.1358 4.51534 13.9259 4.51534 14.9136V15.6049C4.51534 15.8025 4.71166 16 4.90798 16H10.7975C10.9939 16 11.1902 15.8025 11.1902 15.6049V14.9136C11.1902 13.9259 10.4049 13.1358 9.42332 13.1358H9.32516V11.4568C10.0123 11.1605 10.8814 10.5247 11.6667 9.83333ZM7.36196 13.1358V11.8519C7.55828 11.9506 7.7546 12 7.7546 12H8H8.16667C8.16667 12 8.48057 11.9506 8.67689 11.8519V13.1358H7.36196ZM3.33333 6.02469V2.5679C3.33333 2.5679 3.33333 2.46914 3.33333 2.37037V2.2716V1.08642C3.33333 0.833333 3.5 0.666667 3.6319 0.666667H12.1718C12.5 0.666667 12.6667 0.833333 12.7014 1.08642V6.02469C12.7014 9.28395 8.88344 11.037 8 11.3333C7.31288 11.037 3.43149 9.28395 3.33333 6.02469ZM3.33333 8.66667C2 7.66667 0.764826 5.03704 0.666667 2.66667H2.65031V6.02469C2.65031 6.81482 3.03885 8.07407 3.33333 8.66667ZM13.2515 6.02469V2.66667H15.3333C15.2352 5.1358 13.8374 8.2037 12.3333 8.66667C12.726 7.97531 13.2515 6.91358 13.2515 6.02469ZM10.6667 15.4444H5.06544V15.2469C5 14.3333 5.66667 13.6667 6.28221 13.6914H6.96933H8.93252H9.61963C10.3333 13.6667 10.6667 14.5 10.6667 15.2469V15.4444Z" fill="white"/>
</svg>
