<svg width="24" height="24" viewBox="0 0 24 24" fill="none" xmlns="http://www.w3.org/2000/svg">
  <path d="M17.25 9.75C18.3628 9.75 19.3262 9.3435 20.1136 8.54147C20.9008 7.73957 21.3 6.7584 21.3 5.62487C21.3 4.49173 20.9009 3.51043 20.1135 2.70827C19.3261 1.9065 18.3626 1.5 17.25 1.5C16.1371 1.5 15.1738 1.9065 14.3865 2.7084C13.5992 3.5103 13.2 4.4916 13.2 5.62487C13.2 6.7584 13.5992 7.7397 14.3865 8.5416C15.1741 9.34337 16.1375 9.75 17.25 9.75ZM15.0834 3.41805C15.6875 2.80274 16.3961 2.50365 17.25 2.50365C18.1037 2.50365 18.8125 2.80274 19.4168 3.41805C20.0209 4.03349 20.3146 4.75542 20.3146 5.62487C20.3146 6.49458 20.0209 7.21638 19.4168 7.83182C18.8125 8.44726 18.1037 8.74635 17.25 8.74635C16.3964 8.74635 15.6877 8.44713 15.0834 7.83182C14.4791 7.21651 14.1854 6.49458 14.1854 5.62487C14.1854 4.75542 14.4791 4.03349 15.0834 3.41805Z" fill="white"/>
  <path d="M23.9673 14.3128C23.9454 14.0018 23.9012 13.6626 23.8362 13.3044C23.7705 12.9435 23.6859 12.6024 23.5847 12.2905C23.48 11.9683 23.3379 11.65 23.162 11.345C22.9797 11.0284 22.7654 10.7528 22.5249 10.5259C22.2734 10.2886 21.9655 10.0979 21.6095 9.95869C21.2547 9.82025 20.8615 9.75012 20.4409 9.75012C20.2757 9.75012 20.1159 9.81697 19.8074 10.0151C19.6176 10.1372 19.3955 10.2784 19.1476 10.4346C18.9356 10.5678 18.6485 10.6926 18.2938 10.8056C17.9478 10.916 17.5964 10.9721 17.2495 10.9721C16.9029 10.9721 16.5515 10.916 16.2052 10.8056C15.8509 10.6927 15.5636 10.568 15.352 10.4347C15.1065 10.28 14.8843 10.1388 14.6916 10.0149C14.3833 9.81684 14.2236 9.75 14.0584 9.75C13.6377 9.75 13.2446 9.82025 12.8899 9.95881C12.5341 10.0977 12.2261 10.2885 11.9744 10.5261C11.7339 10.753 11.5196 11.0286 11.3374 11.345C11.1617 11.65 11.0195 11.9681 10.9148 12.2907C10.9996 12.0295 11.7674 12.5398 11.9109 12.2907C12.0478 12.0532 12.4562 11.3658 12.63 11.2017C12.7926 11.0482 12.9976 10.9225 13.239 10.8283C13.4624 10.7411 13.7133 10.6934 13.9858 10.6862C14.019 10.7036 14.0781 10.7368 14.1739 10.7984C14.3689 10.9237 14.5936 11.0667 14.8419 11.2231C15.1219 11.3992 15.4827 11.5582 15.9136 11.6954C16.3542 11.8359 16.8036 11.9073 17.2496 11.9073C17.6957 11.9073 18.1452 11.8359 18.5855 11.6955C19.0168 11.5581 19.3775 11.3992 19.6578 11.2229C19.912 11.0626 20.1304 10.9238 20.3253 10.7984C20.4211 10.7369 20.4803 10.7036 20.5135 10.6862C20.786 10.6934 21.037 10.7411 21.2605 10.8283C21.5018 10.9225 21.7067 11.0483 21.8693 11.2017C22.0432 11.3657 22.2007 11.5694 22.3376 11.8071C22.4812 12.056 22.597 12.3148 22.6817 12.5757C22.7702 12.8484 22.8446 13.1492 22.9029 13.4695C22.9619 13.7947 23.0019 14.1003 23.0214 14.3779C23.0415 14.6603 23.0516 14.9556 23.0518 15.2555C23.0516 15.8306 22.887 16.2647 22.5481 16.5828C22.2025 16.9071 21.7438 17.0648 21.1455 17.0648H14.2026C13.7472 17.0648 14.109 17.7944 14.1556 18H21.1457C21.987 18 22.6788 17.7511 23.2019 17.2603C23.7315 16.7633 24 16.0887 24 15.2554C23.9999 14.9338 23.9889 14.6167 23.9673 14.3128Z" fill="white"/>
  <path d="M7.5 12C8.73639 12 9.80687 11.5565 10.6818 10.6816C11.5564 9.8068 12 8.73643 12 7.49986C12 6.26371 11.5566 5.1932 10.6816 4.31811C9.80673 3.44346 8.73625 3 7.5 3C6.26346 3 5.19313 3.44346 4.31836 4.31826C3.44359 5.19305 3 6.26357 3 7.49986C3 8.73643 3.44359 9.80695 4.31836 10.6817C5.19341 11.5564 6.26389 12 7.5 12ZM5.09264 5.09242C5.76386 4.42117 6.55125 4.09489 7.5 4.09489C8.44861 4.09489 9.23614 4.42117 9.90751 5.09242C10.5787 5.7638 10.9051 6.55136 10.9051 7.49986C10.9051 8.44864 10.5787 9.23605 9.90751 9.90744C9.23614 10.5788 8.44861 10.9051 7.5 10.9051C6.55154 10.9051 5.76414 10.5787 5.09264 9.90744C4.42127 9.2362 4.09485 8.44864 4.09485 7.49986C4.09485 6.55136 4.42127 5.7638 5.09264 5.09242Z" fill="white"/>
  <path d="M14.9636 16.9776C14.9394 16.6383 14.8903 16.2683 14.818 15.8775C14.745 15.4838 14.651 15.1117 14.5386 14.7715C14.4222 14.4199 14.2644 14.0727 14.0689 13.74C13.8663 13.3946 13.6282 13.0939 13.361 12.8465C13.0816 12.5876 12.7395 12.3795 12.3439 12.2277C11.9496 12.0766 11.5127 12.0001 11.0454 12.0001C10.8619 12.0001 10.6844 12.0731 10.3416 12.2892C10.1306 12.4224 9.88386 12.5765 9.60843 12.7469C9.37291 12.8922 9.05385 13.0283 8.65977 13.1516C8.27528 13.2721 7.8849 13.3332 7.49945 13.3332C7.11428 13.3332 6.7239 13.2721 6.33914 13.1516C5.94546 13.0285 5.62627 12.8923 5.39116 12.747C5.11833 12.5782 4.87143 12.4241 4.65731 12.289C4.31479 12.0729 4.1373 12 3.95376 12C3.48629 12 3.04955 12.0766 2.65546 12.2278C2.26014 12.3793 1.9179 12.5875 1.63821 12.8466C1.37101 13.0942 1.13288 13.3948 0.930419 13.74C0.735227 14.0727 0.577208 14.4198 0.460889 14.7716C0.348547 15.1118 0.254586 15.4838 0.181612 15.8775C0.109187 16.2678 0.0602173 16.6379 0.0359383 16.978C0.0120709 17.3104 0 17.6564 0 18.006C0 18.9148 0.298343 19.6505 0.886662 20.1931C1.46771 20.7285 2.23641 21 3.17149 21H11.8285C12.7633 21 13.532 20.7285 14.1132 20.1931C14.7017 19.6509 15 18.9149 15 18.0059C14.9999 17.6551 14.9877 17.3091 14.9636 16.9776ZM13.3868 19.4539C13.0028 19.8078 12.4931 19.9798 11.8284 19.9798H3.17149C2.50663 19.9798 1.99691 19.8078 1.61311 19.4541C1.23658 19.107 1.0536 18.6332 1.0536 18.006C1.0536 17.6798 1.06471 17.3577 1.08693 17.0485C1.1086 16.7451 1.15291 16.4119 1.21861 16.0578C1.28349 15.708 1.36607 15.3798 1.46428 15.0827C1.55852 14.7978 1.68704 14.5157 1.84643 14.2439C1.99856 13.9849 2.17358 13.7627 2.36672 13.5837C2.54737 13.4162 2.77507 13.2791 3.04337 13.1763C3.29151 13.0812 3.57038 13.0291 3.87311 13.0213C3.91001 13.0403 3.97571 13.0765 4.08216 13.1437C4.29875 13.2804 4.54839 13.4364 4.82438 13.607C5.13548 13.7991 5.53629 13.9726 6.01514 14.1223C6.5047 14.2755 7.004 14.3534 7.49959 14.3534C7.99518 14.3534 8.49461 14.2755 8.9839 14.1224C9.46317 13.9724 9.86384 13.7991 10.1753 13.6068C10.4578 13.432 10.7004 13.2806 10.917 13.1437C11.0235 13.0767 11.0892 13.0403 11.1261 13.0213C11.4289 13.0291 11.7078 13.0812 11.9561 13.1763C12.2242 13.2791 12.4519 13.4163 12.6326 13.5837C12.8257 13.7626 13.0008 13.9848 13.1529 14.2441C13.3124 14.5157 13.4411 14.7979 13.5352 15.0826C13.6335 15.3801 13.7162 15.7082 13.781 16.0576C13.8465 16.4124 13.891 16.7458 13.9127 17.0486C13.935 17.3566 13.9463 17.6789 13.9464 18.006C13.9463 18.6333 13.7633 19.107 13.3868 19.4539Z" fill="white"/>
</svg>
