<svg width="25" height="24" viewBox="0 0 25 24" fill="none" xmlns="http://www.w3.org/2000/svg">
<path fill-rule="evenodd" clip-rule="evenodd" d="M20.9 3.45C18.65 1.2 15.65 0 12.5 0C5.9 0 0.5 5.4 0.5 12C0.5 14.1 1.10001 16.2 2.15001 18L0.5 24L6.80002 22.35C8.60002 23.25 10.55 23.85 12.5 23.85C19.1 23.85 24.5 18.45 24.5 11.85C24.5 8.7 23.15 5.7 20.9 3.45ZM12.5 21.9C10.7 21.9 8.90001 21.45 7.40001 20.55L7.09999 20.4L3.34999 21.45L4.40001 17.85L4.09999 17.4C3.04999 15.75 2.59999 13.95 2.59999 12.15C2.59999 6.75 7.1 2.25 12.5 2.25C15.2 2.25 17.6 3.3 19.55 5.1C21.5 7.05 22.4 9.45 22.4 12.15C22.4 17.4 18.05 21.9 12.5 21.9ZM17.9 14.4C17.6 14.25 16.1 13.5 15.8 13.5C15.5 13.35 15.35 13.35 15.2 13.65C15.05 13.95 14.45 14.55 14.3 14.85C14.15 15 14 15 13.7 15C13.4 14.85 12.5 14.55 11.3 13.5C10.4 12.75 9.80001 11.7 9.65001 11.4C9.50001 11.1 9.65002 10.95 9.80002 10.8C9.95002 10.65 10.1 10.5 10.25 10.35C10.4 10.2 10.4 10.05 10.55 9.9C10.7 9.75 10.55 9.6 10.55 9.45C10.55 9.3 9.95001 7.8 9.65001 7.2C9.50001 6.75 9.20002 6.75 9.05002 6.75C8.90002 6.75 8.74998 6.75 8.44998 6.75C8.29998 6.75 7.99998 6.75 7.69998 7.05C7.39998 7.35 6.65001 8.1 6.65001 9.6C6.65001 11.1 7.69999 12.45 7.84999 12.75C7.99999 12.9 9.94998 16.05 12.95 17.25C15.5 18.3 15.95 18 16.55 18C17.15 18 18.35 17.25 18.5 16.65C18.8 15.9 18.8 15.3 18.65 15.3C18.5 14.55 18.2 14.55 17.9 14.4Z" fill="white"/>
</svg>
